<svg width="182" height="23" viewBox="0 0 182 23" fill="none" xmlns="http://www.w3.org/2000/svg">
<path d="M34.1521 22.2046H37.7009V14.1206C37.6711 13.2665 37.9962 12.4353 38.6067 11.8049C38.8997 11.5135 39.2555 11.2851 39.65 11.135C40.0445 10.9848 40.4685 10.9166 40.8934 10.9347C41.2943 10.9128 41.6956 10.9729 42.0697 11.111C42.4439 11.2491 42.7821 11.4618 43.0613 11.7347C43.6259 12.39 43.9118 13.2206 43.8631 14.0645V22.1484H47.4119V14.2329C47.4239 13.339 47.2886 12.4489 47.011 11.5944C46.7796 10.864 46.4015 10.1826 45.8974 9.5874C45.4171 9.04774 44.8195 8.61215 44.1452 8.31025C43.4259 8.00877 42.6453 7.86025 41.8585 7.87517C40.9901 7.85939 40.1317 8.05257 39.364 8.43656C38.6311 8.79293 38.015 9.33156 37.5821 9.99441V8.212H34.1521V22.2046ZM23.758 22.5414C25.0365 22.5527 26.3025 22.3038 27.4702 21.8116C28.5396 21.3748 29.4671 20.6773 30.1578 19.7906L27.5741 18.0784C27.1076 18.5904 26.5304 19.002 25.8814 19.2854C25.2371 19.5777 24.5321 19.7311 23.8174 19.7345C22.7832 19.7722 21.7699 19.4529 20.9665 18.8363C20.1806 18.1852 19.6562 17.2979 19.4816 16.3241H30.6775V15.3557C30.6886 14.3279 30.5077 13.3064 30.1429 12.3382C29.8206 11.466 29.3156 10.6641 28.6581 9.98038C28.0127 9.32025 27.2289 8.79448 26.3565 8.43656C25.421 8.04924 24.408 7.85774 23.3868 7.87517C22.3885 7.86241 21.3997 8.05893 20.4913 8.45059C19.6012 8.81941 18.8022 9.35954 18.1452 10.0365C16.7309 11.4595 15.9586 13.3473 15.9922 15.2995C15.9773 16.2935 16.169 17.2806 16.5564 18.2047C16.9206 19.0659 17.472 19.8453 18.1749 20.4924C18.9264 21.1589 19.8164 21.6704 20.7883 21.9941C21.7746 22.3677 22.8292 22.5537 23.8917 22.5414M19.6598 13.7978C19.8374 12.8951 20.3224 12.0721 21.0407 11.454C21.7338 10.881 22.6296 10.5754 23.5501 10.5979C24.4208 10.5753 25.2668 10.872 25.9111 11.4259C26.6116 12.0665 27.0882 12.8941 27.2772 13.7978H19.6598ZM7.54332 22.5414C8.85308 22.5549 10.1452 22.2556 11.3 21.6713C12.4238 21.0792 13.3575 20.2112 14.0025 19.1591L11.2555 17.4188C10.8065 18.283 10.018 18.9472 9.05818 19.2697C8.09838 19.5922 7.04324 19.5475 6.11785 19.145C5.62362 18.9374 5.18288 18.6309 4.82601 18.2468C4.44451 17.8343 4.14744 17.3584 3.94994 16.8433C3.73826 16.2949 3.63264 15.7149 3.63812 15.1311C3.63642 14.5625 3.73684 13.9978 3.9351 13.461C4.12075 12.9468 4.40796 12.4705 4.78147 12.0575C5.1257 11.682 5.55099 11.3805 6.02875 11.1733C6.51908 10.9483 7.05765 10.833 7.60271 10.8365C8.33862 10.8422 9.05758 11.0459 9.67552 11.4237C10.2935 11.8015 10.7848 12.3377 11.0921 12.9698L13.854 11.2295C13.2198 10.1827 12.2957 9.31902 11.1812 8.73129C10.0587 8.14815 8.79427 7.85299 7.51362 7.87517C6.49137 7.86215 5.47826 8.05846 4.54389 8.45059C3.6428 8.82065 2.82838 9.35606 2.14783 10.0258C1.46728 10.6956 0.934139 11.4863 0.579303 12.3522C0.189604 13.2811 -0.00701448 14.2722 0.000205756 15.2715C-0.00727799 16.257 0.189454 17.2344 0.579303 18.1486C1.13786 19.4579 2.10128 20.5776 3.34369 21.3613C4.5861 22.145 6.04972 22.5563 7.54332 22.5414ZM57.9099 22.373C58.3554 22.373 58.7711 22.373 58.7711 22.373V19.3415H58.0584C57.77 19.3874 57.4741 19.3677 57.1954 19.284C56.9166 19.2003 56.663 19.055 56.4555 18.8602C56.2479 18.6654 56.0925 18.4267 56.002 18.1639C55.9115 17.901 55.8885 17.6215 55.935 17.3486V10.9347H58.7414V8.212H55.935V4.40861H52.4011V8.212H49.951V10.9347H52.4011V17.5591C52.4011 20.759 54.2126 22.373 57.8802 22.373M91.2451 22.2046H94.7791V1.02625H91.2451V22.2046ZM78.698 22.5414C79.7025 22.5466 80.6926 22.3151 81.5786 21.8678C82.3893 21.4445 83.0935 20.8604 83.6426 20.1555V22.2327H87.0429V8.19797H83.6426V10.0927C83.1175 9.42797 82.443 8.88155 81.6677 8.4927C80.8062 8.07009 79.8466 7.85781 78.8762 7.87517C77.9116 7.86521 76.9572 8.06194 76.0846 8.45059C75.2213 8.82244 74.4442 9.35186 73.798 10.0084C73.1545 10.686 72.6509 11.4715 72.3131 12.3242C71.9351 13.2411 71.7437 14.2172 71.7488 15.2013C71.7464 16.161 71.9327 17.1128 72.2982 18.0082C72.642 18.8624 73.1449 19.6515 73.7831 20.338C74.3976 21.0009 75.151 21.5362 75.9955 21.9099C76.8352 22.3083 77.7586 22.5241 78.698 22.5414ZM79.5444 19.4819C78.9838 19.4856 78.4288 19.3761 77.9167 19.1607C77.4045 18.9453 76.9469 18.6289 76.5746 18.2328C75.7692 17.4082 75.3282 16.3235 75.3422 15.2013C75.3359 14.6344 75.4469 14.0718 75.6689 13.5452C75.8747 13.0277 76.182 12.5515 76.5746 12.1417C76.9469 11.7456 77.4045 11.4292 77.9167 11.2138C78.4288 10.9984 78.9838 10.8889 79.5444 10.8926C80.1034 10.8919 80.6558 11.0069 81.1629 11.2295C81.6741 11.4367 82.1304 11.7482 82.4993 12.1417C82.882 12.5558 83.1837 13.0311 83.3902 13.5452C83.8259 14.6157 83.8259 15.8009 83.3902 16.8714C83.1837 17.3855 82.882 17.8608 82.4993 18.2749C82.1304 18.6684 81.6741 18.9799 81.1629 19.1871C80.6558 19.4097 80.1034 19.5246 79.5444 19.524M62.4684 22.2046H66.0173V14.668C65.9519 13.8221 66.2397 12.9858 66.8191 12.3382C67.1362 12.0526 67.512 11.8316 67.9233 11.6892C68.3346 11.5467 68.7725 11.4858 69.2097 11.5102H69.7888V8.04359H69.5215C68.7391 8.03006 67.9708 8.24159 67.3185 8.65013C66.6662 9.05868 66.1606 9.64495 65.8688 10.3312V8.212H62.4684V22.2046ZM173.551 22.5414C174.589 22.5568 175.613 22.3148 176.521 21.8397C177.335 21.4152 178.043 20.8315 178.6 20.1275V22.2046H182V1.02625H178.451V9.96634C177.918 9.32712 177.244 8.80513 176.476 8.43656C175.645 8.05071 174.729 7.85823 173.804 7.87517C172.839 7.86666 171.885 8.06332 171.012 8.45059C170.152 8.82709 169.375 9.35591 168.725 10.0084C168.079 10.689 167.575 11.4797 167.24 12.3382C166.871 13.2331 166.68 14.1846 166.676 15.1451C166.682 16.1041 166.868 17.0545 167.226 17.9521C167.563 18.8092 168.067 19.5993 168.71 20.2818C169.336 20.9302 170.087 21.4591 170.923 21.8397C171.772 22.2212 172.7 22.4179 173.64 22.4151M174.487 19.3555C173.922 19.3592 173.365 19.2442 172.853 19.0187C172.349 18.8078 171.898 18.4966 171.532 18.1065C171.149 17.6923 170.847 17.2171 170.641 16.703C170.186 15.636 170.186 14.4438 170.641 13.3768C170.847 12.8627 171.149 12.3874 171.532 11.9733C171.898 11.5831 172.349 11.272 172.853 11.061C173.623 10.7387 174.48 10.6534 175.303 10.8171C176.127 10.9809 176.875 11.3853 177.441 11.9733C177.824 12.3874 178.126 12.8627 178.332 13.3768C178.787 14.4438 178.787 15.636 178.332 16.703C178.126 17.2171 177.824 17.6923 177.441 18.1065C177.064 18.4964 176.605 18.8086 176.094 19.0235C175.583 19.2384 175.031 19.3514 174.472 19.3555M159.772 22.0783H163.32V1.02625H159.772V22.0783ZM134.232 22.5835C135.813 22.5975 137.381 22.3012 138.835 21.7134C140.207 21.1851 141.465 20.424 142.547 19.4678C143.626 18.4592 144.488 17.263 145.086 15.9451C145.694 14.5787 146.006 13.1115 146.006 11.6295C146.006 10.1474 145.694 8.6802 145.086 7.31379C143.891 4.64684 141.651 2.51979 138.835 1.37711C137.394 0.796097 135.843 0.499969 134.276 0.506963C132.691 0.499789 131.12 0.795772 129.659 1.37711C128.256 1.95052 126.977 2.76417 125.887 3.77704C124.8 4.78976 123.937 5.99678 123.348 7.32782C122.723 8.69196 122.404 10.1639 122.412 11.6505C122.407 13.1278 122.725 14.5901 123.348 15.9451C124.53 18.6026 126.77 20.7145 129.584 21.8256C131.031 22.4022 132.587 22.6935 134.158 22.6818M134.158 19.2994C133.135 19.2983 132.124 19.0976 131.188 18.7099C130.252 18.3143 129.409 17.7466 128.708 17.0398C127.995 16.3332 127.43 15.5044 127.045 14.5978C126.233 12.674 126.233 10.5288 127.045 8.60498C127.425 7.68029 127.996 6.83598 128.723 6.12084C129.433 5.42715 130.274 4.86541 131.203 4.46474C132.149 4.05753 133.177 3.84683 134.217 3.84683C135.257 3.84683 136.285 4.05753 137.231 4.46474C138.156 4.86548 138.992 5.42732 139.696 6.12084C140.416 6.83604 140.986 7.67435 141.374 8.59094C141.775 9.54174 141.976 10.5569 141.968 11.5803C141.979 12.6085 141.777 13.6288 141.374 14.5838C140.978 15.4882 140.409 16.316 139.696 17.0258C139.006 17.7524 138.168 18.3396 137.231 18.7521C136.295 19.1397 135.284 19.3404 134.262 19.3415M116.547 8.212L113.577 17.8258L110.608 8.212H107.222L104.253 17.8258L101.283 8.212H97.7191L102.53 22.2467H105.886L108.945 12.4224L112.004 22.2467H115.374L120.185 8.212H116.547ZM149.214 8.212H152.615V10.3312C152.899 9.64646 153.396 9.05891 154.04 8.64566C154.683 8.23241 155.444 8.01276 156.223 8.01552H156.49V11.5102H156C155.563 11.4858 155.125 11.5467 154.714 11.6892C154.302 11.8316 153.926 12.0526 153.609 12.3382C153.014 12.9793 152.71 13.8164 152.763 14.668V22.2046H149.214V8.212Z" fill="#231F20"/>
</svg>
