<svg width="193" height="110" viewBox="0 0 193 110" fill="none" xmlns="http://www.w3.org/2000/svg">
<g clip-path="url(#clip0_474_3516)">
<path d="M24.2 51.899C20.1499 51.9479 16.1358 51.1441 12.4244 49.5411C8.98061 48.0472 6.00646 45.666 3.81323 42.6469C1.51362 39.3938 0.191833 35.5644 0.000433232 31.6008C-0.153788 28.2551 0.186989 24.9051 1.01199 21.6567C2.15822 15.2198 5.53225 9.37635 10.5569 5.12594C14.818 1.83508 20.0628 0.0324938 25.4709 0.000127675C28.1222 -0.0475947 30.7598 0.386778 33.2522 1.28158C35.6095 2.19298 37.7932 3.49287 39.7106 5.12594L40.2552 5.56164L42.849 3.48568C43.8238 2.63554 44.9047 1.91205 46.0652 1.33284C46.9811 0.940183 47.9721 0.747843 48.9702 0.769C49.9402 0.71642 50.9024 0.96754 51.7196 1.48661C52.0244 1.69872 52.2746 1.97843 52.4503 2.30333C52.626 2.62823 52.7221 2.98928 52.7311 3.35754C52.7588 3.84286 52.6973 4.32912 52.5496 4.79277L48.9443 17.0178C48.7512 17.9661 48.3134 18.8489 47.6733 19.5807C47.007 20.082 46.1714 20.3113 45.339 20.2215C44.8062 20.2344 44.2767 20.1361 43.7851 19.9329C43.2934 19.7297 42.8507 19.4263 42.4859 19.0425C41.2389 17.5772 40.1763 15.968 39.3215 14.2499C38.3634 12.3859 37.1503 10.6612 35.7162 9.12408C35.1541 8.62674 34.4982 8.24395 33.786 7.99766C33.0739 7.75137 32.3195 7.64643 31.5662 7.68885C30.1642 7.81491 28.8167 8.28696 27.6475 9.06168C26.4782 9.83639 25.5247 10.8889 24.8744 12.1227C22.5805 15.867 20.9655 19.978 20.1019 24.2709C19.1 27.9709 18.6543 31.7964 18.7791 35.6245C18.7771 37.9023 19.5134 40.1207 20.88 41.9549C21.461 42.6631 22.197 43.2318 23.0327 43.618C23.8684 44.0042 24.7819 44.198 25.7044 44.1847C28.0233 44.2781 30.3122 43.6409 32.2406 42.365C34.0291 41.0317 35.6412 39.4819 37.039 37.7518C37.7516 36.849 38.5227 35.9929 39.3474 35.1889C39.7472 34.8149 40.2754 34.6043 40.8259 34.5994C41.8054 34.6924 42.7221 35.1181 43.4196 35.804C43.7932 36.0512 44.1106 36.3726 44.3518 36.7477C44.5929 37.1227 44.7524 37.5432 44.8202 37.9824C44.8202 38.5975 44.6646 39.9046 42.5377 42.8263C40.5442 45.3633 38.0573 47.4808 35.2234 49.0542C31.8744 50.9303 28.0748 51.8778 24.2259 51.7965" fill="#231F20"/>
<path d="M99.0551 44.4412V43.9542C98.8192 44.2902 98.5055 44.5656 98.14 44.7573C97.7745 44.949 97.3679 45.0515 96.9541 45.0563C96.7039 45.0633 96.4549 45.0191 96.2228 44.9265C95.9907 44.8339 95.7805 44.6948 95.6054 44.5181C95.2784 44.1484 95.0947 43.6763 95.0867 43.1854C94.998 42.8059 94.998 42.4115 95.0867 42.0321L98.5623 27.9873C98.9247 26.6519 99.0563 25.2655 98.9513 23.8867C98.9053 22.6848 98.618 21.5039 98.1059 20.4127C97.5938 19.3215 96.8673 18.3419 95.9685 17.5307C95.0659 16.685 94.0034 16.0233 92.8418 15.5836C91.6802 15.1438 90.4423 14.9346 89.1989 14.9678C86.9877 14.944 84.799 15.408 82.7923 16.3261C80.6207 17.452 78.7869 19.1225 77.4752 21.17L75.9189 20.5036L78.9795 7.94539C79.2292 7.02725 79.3256 6.075 79.2649 5.12619C79.243 4.3996 79.0542 3.68744 78.7127 3.04361C78.3712 2.39977 77.8859 1.84114 77.2936 1.40998C75.5549 0.348648 73.5221 -0.144556 71.4836 0.000377355C68.6653 -0.0052929 65.861 0.391796 63.1577 1.17931C59.9156 2.15322 59.4228 3.07587 59.3449 3.4603C59.2671 3.84474 59.3449 3.79348 59.3449 3.87037C59.6237 4.20217 59.9465 4.49528 60.3046 4.74176C60.7748 5.07295 61.2017 5.46033 61.5756 5.89507C62.0014 6.39924 62.2395 7.03247 62.2499 7.6891C62.2684 8.13863 62.2159 8.58826 62.0943 9.02181L53.4831 44.9025C53.3041 45.9433 52.8774 46.9271 52.2381 47.773C51.6801 48.4055 51.0126 48.9349 50.2669 49.3364C49.8337 49.5252 49.4839 49.8618 49.2813 50.2846C49.2813 50.5666 49.2812 50.7716 49.6184 51.0279C50.3372 51.3954 51.1463 51.5553 51.9528 51.4892L58.7225 50.1565C61.7163 49.5654 64.8216 49.8964 67.619 51.1048L68.5268 51.4892L70.0312 44.6206L73.6364 30.0377C73.9441 28.3791 74.7377 26.8464 75.9189 25.6295C76.3411 25.1785 76.8496 24.8149 77.4151 24.5597C77.9805 24.3046 78.5917 24.1629 79.213 24.143C79.9692 24.1295 80.7053 24.384 81.288 24.8606C81.5938 25.1178 81.8418 25.4353 82.016 25.7928C82.1902 26.1504 82.2868 26.5399 82.2995 26.9365C82.327 27.5558 82.2301 28.1742 82.0142 28.7562L78.7202 39.0078C78.0692 40.8156 77.77 42.7287 77.8383 44.6462C77.9062 45.6866 78.2095 46.6988 78.7257 47.608C79.2419 48.5173 79.958 49.3006 80.8211 49.9002C82.9629 51.3408 85.5218 52.0516 88.1095 51.9249C90.2643 51.9954 92.408 51.5928 94.3863 50.746C95.8682 50.1228 97.1504 49.1128 98.0954 47.8242C98.8237 46.7826 99.1629 45.5233 99.0551 44.2618" fill="#231F20"/>
<path d="M136.768 51.6939C134.629 51.7428 132.508 51.3043 130.569 50.4125C129.011 49.6433 127.78 48.354 127.093 46.7731L126.497 45.4917L125.641 46.6194C124.425 48.2014 122.853 49.4824 121.05 50.3612C119.199 51.2471 117.167 51.703 115.11 51.6939C112.967 51.7578 110.843 51.2815 108.937 50.3099C107.425 49.5335 106.142 48.3849 105.21 46.9752C104.279 45.5655 103.731 43.9423 103.62 42.2624C103.554 41.5719 103.554 40.8769 103.62 40.1865C103.786 38.8212 104.239 37.5053 104.949 36.3227C105.659 35.14 106.611 34.1167 107.744 33.3179C110.313 31.6787 113.324 30.8476 116.381 30.9344C120.37 30.9563 124.332 31.5785 128.131 32.7797L128.935 33.0359L130.673 27.4744C131.144 25.859 131.372 24.1835 131.347 22.5024C131.316 21.879 131.152 21.2691 130.866 20.7126C130.58 20.1562 130.178 19.6656 129.687 19.2731C128.53 18.5183 127.154 18.1583 125.77 18.248H124.5L125.018 19.4269C125.326 20.0804 125.511 20.7839 125.563 21.5029C125.626 22.2338 125.524 22.9695 125.264 23.6565C125.003 24.3436 124.592 24.9649 124.059 25.4754C123.36 26.0979 122.538 26.5699 121.645 26.8611C120.752 27.1523 119.807 27.2565 118.871 27.1669C117.036 27.2733 115.215 26.7876 113.684 25.7829C113.137 25.4236 112.68 24.9462 112.348 24.3867C112.015 23.8273 111.816 23.2005 111.764 22.5537C111.752 21.4792 112.055 20.4242 112.634 19.5151C113.214 18.6059 114.046 17.8812 115.032 17.4278C118.711 15.6768 122.786 14.8996 126.86 15.1725C131.431 14.9278 135.985 15.8828 140.062 17.9404C141.604 18.8194 142.891 20.0756 143.799 21.5882C144.708 23.1008 145.207 24.819 145.249 26.5774C145.331 28.3005 145.166 30.0263 144.757 31.7032L142.656 41.7498C142.602 42.0723 142.602 42.4012 142.656 42.7237C142.641 42.9734 142.679 43.2232 142.767 43.4577C142.855 43.6922 142.991 43.9063 143.166 44.0866C143.341 44.267 143.552 44.4098 143.786 44.506C144.019 44.6022 144.27 44.6498 144.523 44.6459C144.939 44.6481 145.349 44.5515 145.72 44.3641C146.09 44.1768 146.409 43.9043 146.65 43.5695V43.4157C146.692 43.6187 146.692 43.8279 146.65 44.0308C146.742 45.2588 146.362 46.4759 145.587 47.4395C144.641 48.739 143.385 49.7868 141.929 50.4893C140.322 51.2925 138.543 51.7054 136.742 51.6939M124.5 35.2144C123.746 35.1907 122.998 35.3487 122.32 35.6747C121.642 36.0006 121.055 36.4848 120.609 37.0853C119.698 38.1873 119.235 39.5855 119.312 41.0066C119.358 41.8504 119.656 42.662 120.168 43.3388C120.446 43.6687 120.795 43.9323 121.19 44.1098C121.586 44.2873 122.016 44.3742 122.45 44.364C123.389 44.3421 124.297 44.0282 125.044 43.467C125.958 42.7936 126.602 41.8221 126.86 40.7247L128.338 35.5989L127.404 35.4451C126.445 35.2835 125.473 35.2063 124.5 35.2144Z" fill="#231F20"/>
<path d="M168.178 51.4634C165.247 50.0043 161.912 49.5361 158.685 50.1307L151.604 51.4634C150.814 51.5372 150.019 51.3766 149.322 51.0021C149.186 50.934 149.076 50.8257 149.006 50.6923C148.936 50.559 148.91 50.4074 148.932 50.2589C149.142 49.8412 149.49 49.5067 149.918 49.3106C150.762 48.8766 151.486 48.2462 152.029 47.4737C152.571 46.7012 152.915 45.8099 153.031 44.8768L158.218 24.0916C158.294 23.6764 158.294 23.251 158.218 22.8358C158.197 22.2253 157.989 21.6356 157.621 21.1442C157.244 20.7145 156.827 20.3198 156.376 19.9653C156.097 19.7 155.845 19.4081 155.624 19.0939C155.624 19.0939 155.624 18.7351 155.624 18.6326C155.624 18.5301 156.195 17.3255 159.437 16.326C162.132 15.4964 164.94 15.0815 167.763 15.0958C169.372 15.0427 170.96 15.4619 172.328 16.3003C173.583 17.0408 174.509 18.2213 174.922 19.6065L175.466 21.4005L176.452 19.8115C177.224 18.3596 178.39 17.149 179.819 16.316C181.249 15.4829 182.885 15.0603 184.544 15.0958C185.66 15.0446 186.774 15.2156 187.821 15.5987C188.869 15.9817 189.827 16.569 190.64 17.3255C192.205 18.7422 193.138 20.7146 193.233 22.8101C193.327 23.5762 193.327 24.3506 193.233 25.1167C193.076 26.6573 192.326 28.0794 191.139 29.0903C189.952 30.1011 188.418 30.6236 186.853 30.5501C185.515 30.6341 184.19 30.2433 183.118 29.4481C182.071 28.528 181.193 27.4354 180.524 26.2188C180.089 25.5085 179.566 24.8542 178.968 24.271C178.737 24.0179 178.458 23.8127 178.146 23.6675C177.835 23.5223 177.497 23.4399 177.152 23.4252C176.794 23.4192 176.44 23.4947 176.116 23.6458C175.792 23.7969 175.508 24.0196 175.285 24.2966C174.75 24.9877 174.394 25.797 174.247 26.6545L169.864 44.5948" fill="#231F20"/>
<path d="M93.712 62.4584C93.8361 62.632 93.9749 62.7949 94.127 62.9453L99.5998 69.737H99.7295C99.7538 69.7484 99.7804 69.7543 99.8073 69.7543C99.8342 69.7543 99.8608 69.7484 99.8851 69.737L107.666 63.2785C108.185 62.8602 108.616 62.3467 108.937 61.7664C109.17 61.3068 109.327 60.8138 109.404 60.3055C109.514 59.7741 109.505 59.2253 109.378 58.6978C109.25 58.1702 109.007 57.6766 108.666 57.2516C108.325 56.8266 107.894 56.4806 107.403 56.2378C106.912 55.9949 106.373 55.8612 105.825 55.8461C105.036 55.8387 104.256 56.0188 103.552 56.3711C102.848 56.7235 102.24 57.2378 101.779 57.8708C101.779 57.9989 101.493 57.9989 101.441 57.8708C101.171 57.1974 100.708 56.6161 100.109 56.1975C99.5109 55.779 98.8022 55.5411 98.0695 55.5129C96.8851 55.5026 95.7358 55.9098 94.8279 56.6613C93.9199 57.4129 93.3128 58.4596 93.1155 59.6135C93.037 60.0888 93.037 60.5735 93.1155 61.0488C93.2191 61.5485 93.4124 62.0259 93.6861 62.4584" fill="#231F20"/>
<path d="M21.6579 109.359H21.4245C18.5288 107.962 15.2522 107.53 12.087 108.129L5.18766 109.359C4.3976 109.429 3.6043 109.268 2.90517 108.898C2.7677 108.826 2.65643 108.713 2.58674 108.575C2.51704 108.437 2.49236 108.281 2.51611 108.129C2.74494 107.717 3.09863 107.385 3.52767 107.181C4.27464 106.781 4.94243 106.252 5.49891 105.618C6.12806 104.769 6.54572 103.785 6.71796 102.747L11.9054 81.9876C11.9951 81.5736 11.9951 81.1457 11.9054 80.7317C11.8873 80.1207 11.679 79.5301 11.3089 79.0402C10.926 78.6075 10.5098 78.2048 10.0639 77.8357C9.65216 77.5787 9.28444 77.2586 8.97452 76.8874C8.97452 76.7592 8.97452 76.5286 8.97452 76.4004C8.97452 76.2723 9.57108 75.119 12.7873 74.1194C15.4823 73.2899 18.2905 72.875 21.1132 72.8892C23.0041 72.7948 24.86 73.4183 26.3007 74.632C26.9587 75.2329 27.4829 75.9624 27.8401 76.7742C28.1974 77.5861 28.3797 78.4625 28.3757 79.3478L28.5313 82.0132L29.9579 79.8604C31.3022 77.6039 33.226 75.7384 35.5344 74.4526C37.62 73.4563 39.9097 72.9477 42.2262 72.9661C44.5886 72.8867 46.8976 73.6715 48.7106 75.1702C50.4721 76.6333 51.6036 78.7044 51.8749 80.9624L52.2381 83.5253L53.4571 81.3725C54.8027 78.7251 56.8456 76.4852 59.3708 74.8883C61.5877 73.6878 64.0795 73.07 66.6074 73.0943C69.0996 72.9982 71.5304 73.8725 73.377 75.529C74.2663 76.3446 74.9832 77.3262 75.4863 78.4172C75.9894 79.5081 76.2686 80.6868 76.3079 81.8851C76.4129 83.2638 76.2814 84.6502 75.9189 85.9857L72.3395 99.9535C72.2218 100.335 72.1778 100.735 72.2098 101.132C72.2393 101.616 72.431 102.076 72.7545 102.44C72.9234 102.619 73.1283 102.762 73.356 102.859C73.5837 102.956 73.8293 103.005 74.0773 103.003C74.4955 103.003 74.9073 102.902 75.2776 102.71C75.648 102.518 75.9658 102.241 76.2042 101.901C76.2189 102.063 76.2189 102.226 76.2042 102.388C76.3023 103.653 75.954 104.912 75.2186 105.951C74.2905 107.245 73.0148 108.257 71.5355 108.872C69.5564 109.717 67.4132 110.119 65.2586 110.051C62.6705 110.182 60.1104 109.471 57.9702 108.027C57.1097 107.424 56.3956 106.641 55.8797 105.732C55.3638 104.823 55.059 103.812 54.9874 102.773C54.9223 100.857 55.2124 98.9465 55.8434 97.1344L59.1633 86.8827C59.3688 86.2982 59.4655 85.6817 59.4487 85.0631C59.4313 84.6673 59.3326 84.2793 59.1587 83.9224C58.9848 83.5655 58.7393 83.2473 58.4371 82.9871C57.8545 82.5105 57.1183 82.256 56.3621 82.2695C55.2231 82.3028 54.139 82.7605 53.3274 83.5509C52.2484 84.5783 51.446 85.8557 50.9931 87.2672L47.8806 100.082C47.7487 100.451 47.7043 100.846 47.7509 101.235C47.7804 101.718 47.972 102.178 48.2956 102.542C48.4645 102.721 48.6693 102.864 48.897 102.961C49.1247 103.058 49.3704 103.108 49.6184 103.106C50.0365 103.105 50.4483 103.005 50.8187 102.813C51.189 102.621 51.5069 102.343 51.7453 102.004C51.7723 102.165 51.7723 102.33 51.7453 102.491C51.8666 103.753 51.5261 105.017 50.7856 106.053C49.8574 107.347 48.5818 108.359 47.1025 108.975C45.1234 109.819 42.9802 110.222 40.8256 110.154C38.2375 110.284 35.6774 109.573 33.5372 108.129C32.6767 107.527 31.9626 106.743 31.4467 105.834C30.9308 104.926 30.626 103.915 30.5544 102.875C30.4893 100.96 30.7794 99.049 31.4103 97.2369L34.7044 86.9852C34.9265 86.4043 35.0322 85.7863 35.0156 85.1656C35.0013 84.7693 34.904 84.3802 34.7299 84.0229C34.5558 83.6656 34.3087 83.3478 34.0041 83.0896C33.4214 82.6131 32.6853 82.3585 31.9291 82.372C30.8007 82.4082 29.7234 82.8449 28.8944 83.6022C27.9644 84.5995 27.312 85.8181 27.001 87.139L23.3438 102.516" fill="#231F20"/>
<path d="M98.1474 109.359L97.4212 109.026C94.5931 107.765 91.4353 107.416 88.395 108.027L81.5475 109.359C80.741 109.425 79.9319 109.266 79.2131 108.898C78.85 108.642 78.7981 108.437 78.8759 108.155C78.9538 107.873 79.2909 107.514 79.8875 107.181C80.6312 106.788 81.2916 106.257 81.8328 105.618C82.4542 104.77 82.8551 103.784 83 102.747L87.9281 81.9875C88.0497 81.5539 88.1022 81.1043 88.0837 80.6548C88.0596 80.0207 87.8326 79.4105 87.4353 78.912C87.0525 78.4743 86.6068 78.0943 86.1125 77.7843C85.7806 77.5637 85.4835 77.296 85.2306 76.9898C85.1792 76.8402 85.1792 76.6781 85.2306 76.5285C85.2306 76.1441 85.8012 75.2214 89.0434 74.2219C91.7291 73.3905 94.529 72.9755 97.3433 72.9917C99.374 72.8416 101.4 73.3354 103.127 74.4013C103.709 74.8402 104.186 75.4011 104.522 76.0437C104.858 76.6863 105.046 77.3945 105.073 78.1175C105.136 79.0918 105.04 80.0698 104.787 81.0136L99.5999 102.516" fill="#231F20"/>
<path d="M127.56 109.641C122.336 109.822 117.129 108.95 112.257 107.078C108.6 105.464 106.758 103.388 106.551 100.671C106.436 99.9509 106.493 99.2141 106.718 98.5198C106.944 97.8254 107.33 97.1929 107.848 96.673C109.082 95.7064 110.633 95.2229 112.205 95.3147C114.333 95.2782 116.404 95.9965 118.041 97.3394C118.816 97.9633 119.449 98.743 119.896 99.6267C120.343 100.51 120.595 101.478 120.635 102.465C120.686 103.054 120.686 103.645 120.635 104.234V104.977L121.387 105.156C122.557 105.454 123.759 105.609 124.966 105.618C126.285 105.668 127.577 105.24 128.598 104.413C129.043 103.957 129.373 103.404 129.562 102.798C129.751 102.193 129.794 101.552 129.687 100.927C129.619 100.219 129.393 99.535 129.025 98.9235C128.657 98.3119 128.157 97.7885 127.56 97.3906C125.839 96.2682 124.026 95.2908 122.139 94.4689C120.278 93.6741 118.467 92.7668 116.718 91.7522C115.329 90.9216 114.1 89.8543 113.087 88.5999C112.132 87.3672 111.588 85.8715 111.531 84.3198C111.351 82.6521 111.63 80.9674 112.337 79.443C113.045 77.9185 114.155 76.6107 115.551 75.6572C119.556 73.1834 124.25 72.026 128.961 72.351C132.449 72.2974 135.931 72.6501 139.336 73.4018C141.738 73.8827 144.01 74.861 146.002 76.2723C146.65 76.6885 147.197 77.2429 147.601 77.8948C148.005 78.5466 148.256 79.2795 148.336 80.0397C148.411 80.6809 148.32 81.3305 148.07 81.927C147.821 82.5234 147.421 83.0471 146.91 83.4484C145.492 84.4675 143.756 84.9578 142.007 84.8324C139.954 84.8897 137.933 84.3166 136.223 83.1921C135.534 82.7769 134.953 82.2086 134.525 81.5323C134.097 80.8561 133.835 80.0905 133.759 79.2965C133.732 78.7791 133.785 78.2606 133.915 77.7588L134.122 76.9643L133.318 76.7336C132.474 76.4951 131.602 76.3658 130.725 76.3492C129.484 76.3083 128.264 76.6682 127.249 77.3743C126.767 77.7472 126.394 78.2411 126.171 78.8045C125.947 79.368 125.881 79.9805 125.978 80.578C126.051 81.359 126.313 82.1113 126.742 82.7714C127.171 83.4315 127.754 83.9801 128.442 84.3711C130.514 85.6129 132.673 86.7091 134.901 87.6516C137.494 88.7024 139.44 89.6763 141.048 90.5477C142.551 91.3656 143.902 92.4318 145.042 93.7C146.091 94.8856 146.712 96.3823 146.806 97.9545C146.799 98.6235 146.747 99.2914 146.65 99.9535C146.358 101.47 145.704 102.895 144.744 104.112C143.783 105.329 142.543 106.302 141.125 106.95C136.969 108.933 132.378 109.858 127.768 109.641" fill="#231F20"/>
<path d="M170.72 109.642C165.496 109.824 160.288 108.952 155.417 107.079C151.76 105.464 149.892 103.388 149.711 100.671C149.596 99.9512 149.653 99.2143 149.878 98.52C150.103 97.8256 150.49 97.1931 151.008 96.6732C152.242 95.7067 153.793 95.2231 155.365 95.3149C157.493 95.2784 159.563 95.9967 161.201 97.3396C162.199 98.1637 162.963 99.2303 163.418 100.435C163.873 101.639 164.003 102.939 163.795 104.208V104.951L164.547 105.131C165.716 105.429 166.918 105.584 168.126 105.592C169.436 105.639 170.719 105.211 171.731 104.388C172.225 103.952 172.605 103.406 172.84 102.795C173.074 102.184 173.157 101.526 173.08 100.876C172.978 100.157 172.713 99.4702 172.304 98.8666C171.895 98.263 171.354 97.7585 170.72 97.3909C168.999 96.2684 167.186 95.2911 165.299 94.4691C163.41 93.6507 161.573 92.7177 159.8 91.6756C158.419 90.8443 157.198 89.7768 156.195 88.5232C155.212 87.3 154.64 85.8034 154.561 84.2431C154.381 82.5755 154.66 80.8907 155.367 79.3663C156.075 77.8418 157.185 76.534 158.581 75.5805C162.586 73.1067 167.28 71.9494 171.991 72.2744C175.479 72.2221 178.961 72.5748 182.366 73.3252C184.768 73.806 187.04 74.7843 189.032 76.1956C189.673 76.6197 190.214 77.1761 190.617 77.8265C191.02 78.4769 191.275 79.2058 191.366 79.9631C191.441 80.6042 191.35 81.2538 191.1 81.8503C190.851 82.4468 190.451 82.9705 189.94 83.3717C188.522 84.3909 186.786 84.8812 185.037 84.7557C182.984 84.8164 180.962 84.2431 179.253 83.1155C178.54 82.715 177.933 82.1532 177.482 81.476C177.031 80.7988 176.749 80.0256 176.66 79.2198C176.624 78.7037 176.668 78.1853 176.789 77.6821L177.023 76.8876L176.374 76.7338C175.531 76.4933 174.658 76.364 173.781 76.3494C172.54 76.3085 171.32 76.6684 170.305 77.3745C169.818 77.7444 169.44 78.237 169.212 78.8007C168.984 79.3644 168.913 79.9783 169.008 80.5782C169.099 81.3701 169.382 82.1286 169.834 82.7891C170.286 83.4495 170.892 83.9923 171.602 84.3713C173.674 85.6131 175.832 86.7093 178.06 87.6518C180.654 88.7026 182.599 89.6765 184.207 90.5479C185.711 91.3658 187.062 92.432 188.202 93.7003C189.251 94.8858 189.871 96.3825 189.965 97.9547C189.959 98.6237 189.907 99.2916 189.81 99.9538C189.504 101.483 188.831 102.917 187.847 104.134C186.863 105.352 185.597 106.318 184.155 106.951C179.999 108.933 175.408 109.858 170.798 109.642" fill="#231F20"/>
</g>
<defs>
<clipPath id="clip0_474_3516">
<rect width="193" height="110" fill="white"/>
</clipPath>
</defs>
</svg>
