<svg width="76" height="75" viewBox="0 0 76 75" fill="none" xmlns="http://www.w3.org/2000/svg">
<g clip-path="url(#clip0_474_3722)">
<path d="M14.5747 34.0519L13.9401 34.5021L13.674 34.7886C13.3341 35.0301 12.9785 35.2489 12.6095 35.4434C12.6095 35.4434 12.8347 35.5662 12.8757 35.689C12.9167 35.8363 12.9167 35.9919 12.8757 36.1392C12.8482 36.2823 12.7848 36.4161 12.6914 36.528C12.6528 36.5909 12.5985 36.6427 12.534 36.6786C12.4695 36.7144 12.3968 36.7331 12.323 36.7327C12.2148 36.7531 12.1037 36.7531 11.9954 36.7327C11.8844 36.7063 11.7799 36.6575 11.6884 36.5894C11.6289 36.5225 11.5805 36.4465 11.5451 36.3643C11.4936 36.2187 11.4936 36.0597 11.5451 35.9141C11.2617 35.9749 10.9687 35.9749 10.6853 35.9141C10.7563 35.98 10.8061 36.0655 10.8286 36.1597C10.8714 36.2997 10.8714 36.4493 10.8286 36.5894C10.8012 36.7325 10.7378 36.8663 10.6444 36.9782C10.5256 37.083 10.3729 37.1411 10.2145 37.1419H10.235C10.1135 37.1673 9.98803 37.1673 9.86653 37.1419C9.79951 37.1602 9.72883 37.1602 9.66182 37.1419C9.59571 37.0803 9.54639 37.0028 9.51853 36.9168C9.44101 36.7869 9.40008 36.6384 9.40008 36.4871C9.40008 36.3358 9.44101 36.1873 9.51853 36.0573C9.55298 35.901 9.64717 35.7643 9.78101 35.6763C9.91485 35.5884 10.0778 35.5562 10.235 35.5867C9.88591 35.203 9.61585 34.7543 9.44024 34.2662C9.26462 33.7781 9.18689 33.2603 9.21147 32.7422L8.35172 33.0491C7.20538 33.397 6.30469 33.6835 6.30469 35.0955C6.32336 35.4536 6.41896 35.8034 6.58498 36.1212C6.751 36.439 6.98354 36.7174 7.26679 36.9373C8.3584 37.7391 9.70418 38.1173 11.0538 38.0014C12.8552 37.7763 15.0455 37.0805 15.1479 35.0955C15.2305 34.5804 15.2305 34.0554 15.1479 33.5403L14.5338 33.9905L14.5747 34.0519ZM9.02724 35.4025C9.01301 35.5496 8.94785 35.6871 8.84301 35.7913C8.78896 35.8443 8.72495 35.886 8.65468 35.9141C8.58442 35.9422 8.50928 35.9561 8.4336 35.955C8.31188 35.9783 8.18686 35.9783 8.06514 35.955C7.98877 35.9295 7.91891 35.8876 7.86043 35.8322C7.7971 35.7764 7.74798 35.7062 7.71714 35.6276C7.66616 35.4907 7.64704 35.344 7.66123 35.1986C7.67542 35.0533 7.72254 34.913 7.79902 34.7886C7.86042 34.7133 7.93882 34.6536 8.02779 34.6144C8.11676 34.5753 8.21375 34.5578 8.31078 34.5635C8.47466 34.5679 8.63269 34.6253 8.76113 34.7272C8.86654 34.8165 8.95049 34.9284 9.00677 35.0546C9.03787 35.1679 9.04485 35.2864 9.02724 35.4025Z" fill="#231F20"/>
<path d="M8.51577 34.9318C8.4904 34.8935 8.45724 34.8609 8.41844 34.8362C8.37965 34.8115 8.33609 34.7953 8.2906 34.7886C8.23063 34.7697 8.16633 34.7697 8.10636 34.7886C8.05702 34.8647 8.03076 34.9536 8.03076 35.0444C8.03076 35.1351 8.05702 35.224 8.10636 35.3002C8.18032 35.3184 8.25759 35.3184 8.33154 35.3002C8.38477 35.3174 8.44207 35.3174 8.4953 35.3002C8.51006 35.2396 8.51006 35.1765 8.4953 35.116C8.5161 35.0354 8.5161 34.9509 8.4953 34.8704C8.50031 34.8914 8.50716 34.912 8.51577 34.9318Z" fill="#231F20"/>
<path d="M10.2349 35.9554C10.1755 35.9335 10.1102 35.9335 10.0507 35.9554C10.0014 36.0316 9.9751 36.1204 9.9751 36.2112C9.9751 36.302 10.0014 36.3908 10.0507 36.467H10.2963C10.349 36.4875 10.4075 36.4875 10.4601 36.467C10.4749 36.4065 10.4749 36.3433 10.4601 36.2828C10.4818 36.2024 10.4818 36.1177 10.4601 36.0372C10.4377 35.971 10.3947 35.9136 10.3373 35.8735C10.2985 35.8945 10.2639 35.9222 10.2349 35.9554Z" fill="#231F20"/>
<path d="M16.8675 32.4558L16.54 32.6605H16.3762L15.4346 33.3358C15.5855 33.9234 15.634 34.5326 15.5779 35.1366C15.3936 37.3877 13.0396 38.1448 11.0949 38.3904H10.665C9.38869 38.3993 8.14467 37.9896 7.12363 37.224C6.80265 36.9827 6.53766 36.6749 6.34686 36.3217C6.15606 35.9685 6.04395 35.5782 6.01823 35.1776C6.01823 33.4177 7.10316 33.1312 8.22903 32.7014L9.21161 32.374V32.1898C9.21069 31.3199 9.32076 30.4534 9.53913 29.6114C10.0136 27.8949 10.8908 26.3165 12.0979 25.007C12.6831 24.333 13.3746 23.7593 14.145 23.3085C14.5685 23.0541 15.0446 22.9001 15.5369 22.8583C15.9558 22.8447 16.3733 22.9143 16.7652 23.0629L17.5635 23.3699L18.0548 23.554L19.9176 20.464C19.441 19.7121 18.87 19.0243 18.2186 18.4176C17.5393 17.974 16.736 17.7589 15.9259 17.8037C15.2133 17.8482 14.517 18.0361 13.8788 18.3562C12.3885 19.1094 11.0105 20.0668 9.78478 21.2007C9.31849 21.6157 8.89346 22.0749 8.51561 22.5718C7.1863 24.5169 6.20292 26.6769 5.60883 28.9565L5.38365 30.2253C5.06108 32.7436 5.01988 35.29 5.26083 37.8174C5.97729 40.3959 7.30787 41.5623 8.88408 41.7874H9.31396C11.1767 41.6984 12.9532 40.9765 14.3497 39.741C15.4353 38.4064 16.619 37.1546 17.891 35.9961C19.3649 35.1571 19.4672 35.4845 19.4672 35.4845L18.3209 31.8419C17.8046 31.9611 17.3129 32.1688 16.8675 32.4558Z" fill="#231F20"/>
<path d="M12.2822 35.5868C12.2228 35.5649 12.1574 35.5649 12.098 35.5868C11.9138 35.8323 11.8933 35.9551 11.9342 36.0575H12.1185H12.2822H12.405V35.9551C12.4198 35.8946 12.4198 35.8315 12.405 35.771C12.4268 35.6905 12.4268 35.6058 12.405 35.5254H12.2617L12.2822 35.5868Z" fill="#231F20"/>
<path d="M57.5624 30.2868C57.6438 30.2868 57.7219 30.2545 57.7795 30.1969C57.8371 30.1393 57.8694 30.0613 57.8694 29.9799C57.8696 29.9073 57.8423 29.8374 57.7929 29.7842C57.7435 29.731 57.6757 29.6985 57.6033 29.6934L57.501 30.2868H57.5624Z" fill="#231F20"/>
<path d="M61.5337 33.7861C61.5376 33.8975 61.5809 34.0038 61.6558 34.0863C61.7308 34.1687 61.8326 34.2219 61.9431 34.2363V33.3359C61.8342 33.3541 61.7345 33.4083 61.6603 33.49C61.586 33.5717 61.5414 33.676 61.5337 33.7861Z" fill="#231F20"/>
<path d="M61.6363 30.8799V30.2251H58.2177C58.1676 30.358 58.0779 30.4724 57.9608 30.5529C57.8437 30.6334 57.7048 30.6761 57.5627 30.6753H57.4603C57.4603 30.9209 57.4603 31.146 57.358 31.3302C57.2556 31.5143 57.358 31.719 57.358 31.9236H57.317C57.4115 31.9031 57.5092 31.9031 57.6036 31.9236L58.361 30.8186L61.6363 30.8799Z" fill="#231F20"/>
<path d="M57.7672 32.5788C57.762 32.4793 57.7187 32.3856 57.6463 32.317C57.574 32.2485 57.478 32.2103 57.3783 32.2104H57.3169C57.3169 32.4356 57.3169 32.6402 57.3169 32.8448C57.382 32.9101 57.4703 32.9469 57.5625 32.9472C57.6285 32.9119 57.6828 32.8584 57.7191 32.7931C57.7554 32.7278 57.7721 32.6534 57.7672 32.5788Z" fill="#231F20"/>
<path d="M59.3638 34.0314C59.3637 34.0842 59.3744 34.1365 59.3952 34.1851C59.416 34.2336 59.4465 34.2774 59.4848 34.3138C59.5231 34.3502 59.5685 34.3784 59.618 34.3967C59.6676 34.415 59.7204 34.423 59.7732 34.4202C59.8763 34.4202 59.9753 34.3792 60.0482 34.3063C60.1211 34.2334 60.1621 34.1345 60.1621 34.0314C60.1571 33.9299 60.1146 33.8338 60.0427 33.762C59.9708 33.6901 59.8747 33.6475 59.7732 33.6426C59.6681 33.6424 59.5669 33.6827 59.4907 33.7551C59.4145 33.8275 59.369 33.9264 59.3638 34.0314Z" fill="#231F20"/>
<path d="M58.2379 29.8364H61.5541C61.4108 28.2811 61.288 27.1761 61.2675 27.0942L57.7671 29.3248C57.8857 29.3573 57.9928 29.4225 58.076 29.513C58.1593 29.6035 58.2154 29.7155 58.2379 29.8364Z" fill="#231F20"/>
<path d="M57.5625 35.116C57.5677 35.1939 57.6023 35.2668 57.6594 35.32C57.7164 35.3732 57.7915 35.4027 57.8696 35.4025C57.9456 35.4025 58.0185 35.3724 58.0722 35.3186C58.1259 35.2649 58.1561 35.192 58.1561 35.116C58.1563 35.0381 58.1268 34.9629 58.0736 34.9059C58.0203 34.8489 57.9474 34.8143 57.8696 34.8091C57.7881 34.8091 57.71 34.8414 57.6524 34.899C57.5949 34.9566 57.5625 35.0346 57.5625 35.116Z" fill="#231F20"/>
<path d="M60.8582 35.648L59.9575 34.7885H59.7733C59.6733 34.8058 59.5707 34.8011 59.4728 34.7746C59.3748 34.7482 59.2838 34.7006 59.2062 34.6353C59.1286 34.57 59.0662 34.4885 59.0233 34.3966C58.9805 34.3046 58.9583 34.2044 58.9583 34.103C58.9583 34.0015 58.9805 33.9013 59.0233 33.8093C59.0662 33.7174 59.1286 33.6359 59.2062 33.5706C59.2838 33.5053 59.3748 33.4577 59.4728 33.4313C59.5707 33.4048 59.6733 33.4001 59.7733 33.4174C59.9524 33.4174 60.1242 33.4886 60.2509 33.6152C60.3776 33.7418 60.4488 33.9136 60.4488 34.0927C60.45 34.1891 60.4305 34.2847 60.3916 34.3729C60.3528 34.4611 60.2955 34.5401 60.2236 34.6043L60.981 35.4024H62.0455V34.5839C61.8553 34.5736 61.6759 34.4921 61.5431 34.3556C61.4103 34.2191 61.3339 34.0375 61.329 33.8472C61.3257 33.6742 61.3834 33.5057 61.4919 33.371C61.6004 33.2363 61.7529 33.144 61.9226 33.1104V32.4965H58.9954L58.6474 32.9877V34.3178L58.3813 34.7271C58.4859 34.8539 58.5438 35.0129 58.545 35.1773C58.517 35.3388 58.4329 35.4852 58.3074 35.5908C58.182 35.6963 58.0232 35.7542 57.8593 35.7542C57.6953 35.7542 57.5366 35.6963 57.4112 35.5908C57.2857 35.4852 57.2015 35.3388 57.1735 35.1773C57.1735 34.9928 57.2469 34.8158 57.3774 34.6853C57.5079 34.5548 57.6849 34.4815 57.8695 34.4815H58.0538L58.238 34.1746V32.7421L58.8112 31.9849H61.7384V31.105H58.586L57.89 32.1077C57.943 32.1617 57.9847 32.2257 58.0128 32.296C58.0409 32.3662 58.0548 32.4413 58.0538 32.517C58.0538 32.6961 57.9826 32.8679 57.8559 32.9945C57.7292 33.1212 57.5574 33.1923 57.3782 33.1923C57.2768 33.2117 57.1726 33.2117 57.0712 33.1923C56.7436 35.3615 56.3547 37.6944 55.8839 40.0477L52.8338 34.5429L50.623 36.221C50.2796 37.5321 49.7778 38.7965 49.1287 39.9863C48.1871 41.3779 47.9414 41.6644 47.9414 41.6644L49.9884 48.9086C49.9884 48.9086 51.8717 43.9154 52.1788 42.4829C53.2228 43.7312 55.4131 46.7804 55.4131 46.7804L57.6443 46.5348C57.6443 46.5348 59.3843 40.9891 59.8142 38.3492C60.035 41.0208 59.9938 43.7075 59.6914 46.3711C59.6914 47.4147 59.4457 49.7681 59.4457 49.7681L62.5777 41.7667C62.5777 41.7667 62.3116 38.8608 62.025 35.6275L60.8582 35.648ZM57.89 37.6944C57.8972 37.5785 57.8972 37.4623 57.89 37.3465V37.6944Z" fill="#231F20"/>
<path d="M36.7031 53.0628H34.7993L34.9835 53.6154H37.6652C37.5014 53.2061 37.3376 52.7559 37.2353 52.5308L36.7031 53.0628Z" fill="#231F20"/>
<path d="M35.1887 54.5774H37.9931C37.9931 54.5774 37.9931 54.3523 37.768 54.0249H35.0454C35.1478 54.3728 35.1887 54.5774 35.1887 54.5774Z" fill="#231F20"/>
<path d="M37.0105 52.2239C37.0105 51.9579 36.7854 51.7123 36.683 51.4463L36.1098 52.0193H34.2266L34.5541 52.6946H36.6011L37.0105 52.2239Z" fill="#231F20"/>
<path d="M27.6553 48.2948L28.1466 47.7832C28.3817 47.5386 28.6005 47.2788 28.8016 47.0055C29.464 47.4035 30.1473 47.7656 30.8487 48.0901L31.3604 48.3766C31.9109 48.7354 32.3898 49.1934 32.7729 49.7272C33.2454 50.3388 33.6763 50.9815 34.0625 51.6509H36.0072L36.5803 51.0779C35.7001 49.0315 34.8608 46.8418 34.042 44.6931L33.694 43.7313C33.3256 42.749 32.9776 41.6849 32.6296 40.7845L32.2406 39.6999L29.8865 38.8813C29.7215 39.6998 29.5027 40.5064 29.2315 41.2961C28.282 43.2572 27.0624 45.0757 25.6082 46.6986L25.2603 47.1079C25.5229 47.3131 25.7963 47.5043 26.0791 47.6808C26.5499 47.9469 27.1026 48.1924 27.1026 48.1924L27.6553 48.2948ZM31.1148 41.9305C31.4832 43.0969 31.8517 44.2429 32.1997 45.3889L32.6296 46.6986C32.6296 47.0055 32.8138 47.3125 32.9162 47.6195C32.6091 47.4557 32.343 47.3125 32.0973 47.1488L31.2171 46.5758C30.7258 46.2484 30.255 45.9414 29.6 45.5731C30.2355 44.4173 30.7434 43.196 31.1148 41.9305Z" fill="#231F20"/>
<path d="M50.3571 21.1598C50.3949 21.1538 50.4308 21.1397 50.4626 21.1185C50.4944 21.0973 50.5213 21.0695 50.5414 21.037C50.5801 20.9796 50.6008 20.9119 50.6008 20.8426C50.6008 20.7734 50.5801 20.7057 50.5414 20.6482C50.5002 20.5969 50.4467 20.5568 50.3859 20.5317C50.325 20.5067 50.2588 20.4975 50.1934 20.505C50.091 20.505 50.0501 20.7096 50.0705 21.0166C50.1522 21.0881 50.2509 21.1374 50.3571 21.1598Z" fill="#231F20"/>
<path d="M48.801 22.7152C48.7721 22.6455 48.7275 22.5834 48.6707 22.5337C48.6139 22.484 48.5465 22.4481 48.4735 22.4287C48.4735 22.4287 48.3507 22.4287 48.2688 22.6538C48.1869 22.8789 48.2688 22.6538 48.2688 22.7766C48.2688 22.8994 48.3712 22.8994 48.4326 22.8994C48.5054 22.9089 48.5793 22.8964 48.645 22.8636C48.7106 22.8308 48.765 22.7791 48.801 22.7152Z" fill="#231F20"/>
<path d="M58.1971 21.2823C57.4661 21.2227 56.7304 21.2991 56.0272 21.5074C54.3282 21.9986 52.1788 24.9863 52.1788 24.9863L51.9741 25.6207C52.0969 26.869 52.2607 28.6903 52.3016 29.8977C53.2649 29.2563 54.1098 28.4532 54.799 27.5238C55.6793 26.3983 55.7407 25.2523 57.0712 24.3519C57.9236 24.0497 58.8335 23.9447 59.7324 24.045L58.1971 21.2823Z" fill="#231F20"/>
<path d="M50.6844 24.5567C50.3159 24.5567 49.4152 24.4134 48.9444 24.3521L49.231 25.2934C49.231 25.2934 48.9648 26.4394 48.6987 27.7081L50.0907 30.7368C50.7085 30.5525 51.3108 30.3199 51.8921 30.041C51.8921 29.0178 51.7079 27.1761 51.5441 25.498L51.8716 24.5976C51.5646 24.5567 51.1756 24.5567 50.6844 24.5567Z" fill="#231F20"/>
<path d="M48.8217 25.3343L48.3509 23.9018H48.6784L50.7254 24.1474H51.8104L51.2781 23.0219L51.4624 22.1419C51.839 20.7049 52.629 19.41 53.7346 18.4175C54.4347 18.0102 55.2057 17.7394 56.0068 17.6194L53.7141 14.3247C52.8259 14.3526 51.9708 14.6686 51.2781 15.2251C50.2417 16.3817 49.5348 17.7951 49.2311 19.3179L48.0848 17.1692C48.1986 15.716 48.6621 14.3119 49.4358 13.0764C49.5983 12.757 49.8374 12.4828 50.1318 12.2783C50.7092 12.001 51.3041 11.7618 51.9127 11.562L49.2311 9.51565C48.5583 9.51276 47.9087 9.76085 47.4092 10.2114C47.0605 10.4993 46.7817 10.8625 46.5938 11.2736C46.4059 11.6848 46.3137 12.1333 46.3243 12.5852C46.2129 13.4173 45.9206 14.2149 45.4679 14.9219C45.0152 15.629 44.4132 16.2284 43.7041 16.678C43.7041 16.678 43.8269 16.9441 44.0521 17.5171L48.4123 27.0123C48.5965 26.2756 48.7603 25.5594 48.8217 25.3343ZM50.1318 20.116C50.2713 20.0854 50.4168 20.0984 50.5487 20.1533C50.6805 20.2082 50.7922 20.3024 50.8687 20.4229C50.9497 20.5441 50.9929 20.6865 50.9929 20.8322C50.9929 20.9779 50.9497 21.1203 50.8687 21.2415C50.8174 21.3387 50.741 21.4204 50.6474 21.4779C50.5538 21.5355 50.4464 21.567 50.3365 21.5689C50.1113 21.5689 49.6814 21.3438 49.661 21.0573C49.62 20.4639 49.7838 20.1774 50.1318 20.116ZM47.88 22.9195C47.8197 22.7685 47.8197 22.6 47.88 22.4489C48.0438 22.1214 48.2485 21.9782 48.4942 22.0191C48.6325 22.0415 48.7631 22.0982 48.874 22.184C48.9848 22.2697 49.0724 22.3819 49.1287 22.5103C49.1553 22.59 49.1553 22.6761 49.1287 22.7558C49.1358 22.817 49.1358 22.8788 49.1287 22.94C49.0515 23.0422 48.9528 23.1262 48.8397 23.1863C48.7265 23.2464 48.6016 23.2811 48.4737 23.2879H48.2895C48.2003 23.2565 48.1182 23.2078 48.0479 23.1446C47.9777 23.0814 47.9206 23.0049 47.88 22.9195Z" fill="#231F20"/>
<path d="M43.5404 40.0683C43.6668 40.0276 43.8028 40.0276 43.9293 40.0683C44.0931 39.8228 44.2568 39.5363 44.4411 39.2088C44.0913 39.0075 43.7561 38.7819 43.438 38.5335L42.8444 38.0015C42.2507 39.6795 42.2917 40.8869 42.6806 41.0506C43.0695 41.2143 43.1514 41.0506 43.3561 40.7846C43.2333 40.3139 43.3766 40.1502 43.5404 40.0683Z" fill="#231F20"/>
<path d="M42.1073 36.5693C42.2916 36.8353 42.4963 37.0808 42.701 37.3264L42.8647 36.9785C43.0516 36.557 43.2635 36.147 43.4993 35.7507C43.4993 35.587 43.3151 35.4233 43.2127 35.2596L42.6395 34.8912C42.0459 34.5638 41.6774 34.4615 41.5342 34.6456C41.3909 34.8298 41.4318 35.1777 41.5342 35.6484C41.6086 35.6422 41.6836 35.6517 41.7541 35.6764C41.8247 35.7011 41.8892 35.7403 41.9436 35.7916C42.0279 35.8671 42.0897 35.9643 42.1222 36.0726C42.1547 36.181 42.1566 36.2962 42.1278 36.4055C42.1273 36.4607 42.1204 36.5157 42.1073 36.5693Z" fill="#231F20"/>
<path d="M45.0347 38.8813V39.0041H45.178C45.1275 38.9664 45.0796 38.9254 45.0347 38.8813Z" fill="#231F20"/>
<path d="M45.2393 39.5979L44.748 39.3728C44.5638 39.6797 44.4001 39.9867 44.2363 40.2323C44.3012 40.3068 44.3464 40.3964 44.3678 40.4929C44.3893 40.5894 44.3863 40.6897 44.3591 40.7848C44.3315 40.8688 44.2833 40.9446 44.219 41.0054C44.1546 41.0661 44.0762 41.1099 43.9906 41.1327C43.8442 41.1796 43.6867 41.1796 43.5403 41.1327C43.3722 41.2997 43.1586 41.4136 42.9262 41.4601C42.7997 41.5008 42.6637 41.5008 42.5373 41.4601C41.8413 41.1531 41.8617 39.6797 42.5373 37.797C42.2741 37.4973 42.0281 37.1831 41.8003 36.8557C41.6862 36.889 41.5647 36.8873 41.4516 36.8509C41.3384 36.8144 41.2389 36.7448 41.1657 36.6511C41.1297 36.567 41.1111 36.4765 41.1111 36.385C41.1111 36.2936 41.1297 36.2031 41.1657 36.119C41.2078 36.0184 41.2706 35.9277 41.35 35.853C41.237 35.6532 41.1776 35.4276 41.1776 35.1981C41.1776 34.9686 41.237 34.743 41.35 34.5433C41.6161 34.2158 42.1074 34.2568 42.8443 34.6456C42.4569 34.0991 42.0329 33.5795 41.5751 33.0903L35.8435 44.1818L34.6152 43.9158L36.6623 47.2309C36.6623 47.2309 37.2559 46.4942 37.9314 45.5324C38.5251 45.2255 41.7594 43.1586 42.6805 42.5651L44.1749 44.7752C45.9353 47.19 47.6139 49.3182 47.6139 49.3182C47.6139 49.3182 46.6108 44.8366 46.0581 42.2582C45.8508 41.3525 45.5771 40.4634 45.2393 39.5979ZM39.3439 42.9744C40.1013 41.6443 41.0224 40.2936 41.0224 40.2936C41.0224 40.2936 41.657 41.0303 42.1893 41.7057L39.3439 42.9744Z" fill="#231F20"/>
<path d="M44.7889 38.4929L44.5433 37.9609C44.3868 37.9892 44.2255 37.9736 44.0773 37.9158C43.9291 37.858 43.7999 37.7603 43.704 37.6334C43.6476 37.5043 43.6185 37.365 43.6185 37.2242C43.6185 37.0833 43.6476 36.944 43.704 36.8149C43.7587 36.6643 43.8684 36.54 44.011 36.467C43.9651 36.3406 43.9103 36.2175 43.8473 36.0986C43.6564 36.4292 43.4855 36.7708 43.3355 37.1218L43.1104 37.613C43.3355 37.8381 43.5812 38.0632 43.8063 38.2473C44.1003 38.4773 44.4079 38.6891 44.7275 38.8817C44.6456 38.7589 44.7275 38.6362 44.7889 38.4929Z" fill="#231F20"/>
<path d="M22.2104 31.2893C22.4286 31.1438 22.628 30.9719 22.8041 30.7777C22.8041 30.6549 23.0497 30.4093 23.1316 30.2865C23.0404 30.1307 22.965 29.9662 22.9064 29.7954L22.2104 31.2893Z" fill="#231F20"/>
<path d="M27.2666 21.5078C26.9869 22.2383 26.6081 22.9269 26.1407 23.5542L25.936 23.7998C26.1761 23.7917 26.4147 23.8408 26.632 23.943C26.9767 24.1048 27.2627 24.3693 27.4508 24.7002C27.5142 24.5534 27.5689 24.4031 27.6146 24.25C27.7988 23.7588 27.9831 23.2472 28.1878 22.7766L28.4334 22.2445C28.1324 21.9735 27.7947 21.7462 27.4304 21.5692L27.2666 21.5078Z" fill="#231F20"/>
<path d="M28.3103 24.5565C28.1261 25.0681 27.9214 25.6002 27.7167 26.1323C27.7167 26.3164 27.7167 26.5006 27.5734 26.7053C27.4481 27.057 27.2833 27.3934 27.0821 27.708C26.8165 28.13 26.5224 28.5334 26.2019 28.9154C25.8441 29.3659 25.4541 29.7899 25.035 30.1841C24.1139 31.0027 23.7249 30.9618 23.5202 30.839L23.3769 31.0232C22.8447 31.6985 22.3125 32.3942 21.6574 32.5579L20.9205 32.7626L21.248 32.0668C21.8417 30.798 22.3534 29.6521 22.7833 28.4652C22.7732 28.3768 22.7732 28.2875 22.7833 28.1991C22.7765 27.505 22.8802 26.8143 23.0904 26.1527C23.2434 25.5589 23.5385 25.0111 23.9501 24.5565C24.1868 24.3184 24.4641 24.1244 24.7689 23.9836L25.035 23.6766L25.5877 23.0217C26.0087 22.4927 26.3532 21.9071 26.6113 21.2823C26.1759 21.1778 25.7278 21.1364 25.2807 21.1595C24.5321 21.1986 23.7937 21.3504 23.0904 21.6097C22.4589 21.8226 21.8749 22.1562 21.3709 22.592C20.8225 23.0892 20.4193 23.7257 20.204 24.4338C19.9316 25.3919 19.8006 26.3846 19.8151 27.3806C19.7856 28.9271 20.0068 30.4682 20.4702 31.944C20.9887 33.4993 21.6711 34.3383 22.5172 34.4611H22.7424C23.4998 34.4611 24.3595 33.9086 25.4649 32.6807C25.9562 32.1487 26.4066 31.5961 26.8569 31.0641L27.5529 30.2251C28.051 29.6277 28.5915 29.0669 29.1701 28.547L29.7432 28.0763C29.9152 27.9501 30.0793 27.8134 30.2345 27.6671C30.3831 27.5325 30.5018 27.3682 30.5829 27.1849C30.664 27.0016 30.7057 26.8034 30.7053 26.6029C30.6716 26.0497 30.5327 25.508 30.2959 25.0068C30.0148 24.3255 29.643 23.6854 29.1905 23.1036L28.9653 22.8376L28.8425 23.1036C28.6583 23.5333 28.4945 24.0245 28.3103 24.5565Z" fill="#231F20"/>
<path d="M25.9565 7.5716L28.2902 7.48975L28.0855 10.1091L29.2113 9.59753L28.5358 15.266L27.9422 11.6235L26.6525 12.2169L25.9565 7.5716Z" fill="#231F20"/>
<path d="M51.9535 59.1202L50.193 60.0001L49.4561 57.9332L48.7806 58.6904L47.3477 54.127L49.0262 56.7054L49.8246 55.805L51.9535 59.1202Z" fill="#231F20"/>
<path d="M0 49.6659L1.04399 51.7533L3.23431 50.3208L3.33666 51.5486L7.96296 48.213L4.52394 49.4613L4.40112 48.0288L0 49.6659Z" fill="#231F20"/>
<path d="M44.1338 0L43.4378 7.61259L41.7388 6.46661L39.6099 11.3166L40.5924 3.13098L42.0663 4.23604L44.1338 0Z" fill="#231F20"/>
<path d="M71.6871 62.4149L60.9402 58.9769L63.1305 56.9305L56.8257 52.3057L68.2891 56.3371L66.242 58.097L71.6871 62.4149Z" fill="#231F20"/>
<path d="M75.5971 32.5992L69.4151 32.9266L70.1111 31.4532L65.9761 30.3072L72.6494 30.123L71.9534 31.4327L75.5971 32.5992Z" fill="#231F20"/>
<path d="M16.2329 68.554L19.1192 63.7654L19.8562 65.0547L22.8039 62.5376L19.5696 67.6127L18.9555 66.4257L16.2329 68.554Z" fill="#231F20"/>
<path d="M3.58252 4.76807L8.22928 13.5062L9.66221 11.3165L14.616 16.0232L9.37562 6.75307L8.18834 8.79947L3.58252 4.76807Z" fill="#231F20"/>
<path d="M36.2324 60.2051L34.5947 68.7999L36.8055 68.0837L37.6243 74.1001L39.1391 64.7685L37.174 65.5257L36.2324 60.2051Z" fill="#231F20"/>
<path d="M30.562 34.8909H31.0124V34.3384C30.8816 34.5375 30.7307 34.7226 30.562 34.8909Z" fill="#231F20"/>
<path d="M46.2013 29.2429C45.3621 26.1938 42.5986 18.4175 42.5986 18.4175L41.3499 18.8472L41.8002 19.9932C41.9435 20.3002 42.0663 20.7094 42.1278 20.8527C42.3332 20.8748 42.5278 20.9563 42.6877 21.0871C42.8477 21.2179 42.9661 21.3924 43.0285 21.5894C43.151 22.1006 43.151 22.6335 43.0285 23.1447C43.0285 23.1447 42.9261 23.1447 42.9056 23.1447C42.8057 22.9713 42.6738 22.8185 42.5167 22.6944C42.2506 22.5103 41.923 22.4284 41.7183 22.0601C41.5899 21.9085 41.5195 21.7164 41.5195 21.5178C41.5195 21.3192 41.5899 21.127 41.7183 20.9755L41.3704 20.3002C41.2066 19.9727 40.9405 19.5021 40.7153 19.0109L39.9988 19.2565C40.0172 19.5017 40.0172 19.748 39.9988 19.9932C39.7327 21.7736 39.4257 23.513 39.0572 25.232C38.5864 24.0246 37.6448 20.4639 37.6448 20.4639L35.2907 21.4461C35.2907 21.4461 35.086 22.7354 34.9631 23.2265C34.4901 25.1308 33.7455 26.9571 32.7523 28.6495C31.8851 30.0782 30.9208 31.4457 29.866 32.7422L28.4331 34.5635L30.2345 34.8091C30.216 34.7819 30.2061 34.7499 30.2061 34.717C30.2061 34.6842 30.216 34.6521 30.2345 34.6249C30.3795 34.4964 30.51 34.3523 30.6234 34.1952L30.0298 34.3794H29.907V34.277L30.7667 34.011C31.4136 33.0305 32.0014 32.0123 32.5272 30.9619L31.4832 31.5758C31.2785 31.6781 31.0942 31.3916 31.2785 31.2688L32.0768 30.7368C32.3722 30.4987 32.7137 30.3245 33.0799 30.2252C33.5302 30.2252 33.3869 30.5935 33.3255 30.8596C33.2641 31.1256 33.0594 31.8623 32.957 32.3534C32.9667 32.3812 32.9696 32.4108 32.9654 32.4399C32.9613 32.469 32.9502 32.4967 32.9332 32.5207C32.9162 32.5446 32.8937 32.5642 32.8675 32.5776C32.8414 32.5911 32.8124 32.5981 32.783 32.5981C32.7537 32.5981 32.7247 32.5911 32.6986 32.5776C32.6724 32.5642 32.6499 32.5446 32.6329 32.5207C32.6159 32.4967 32.6048 32.469 32.6007 32.4399C32.5965 32.4108 32.5994 32.3812 32.6091 32.3534L32.8547 31.2893V31.1461C32.3186 32.2254 31.717 33.2711 31.0533 34.277V35.0751C31.0533 35.0751 32.6909 32.7832 33.3869 31.6372C34.5859 29.7947 35.5617 27.8163 36.2937 25.7436C36.4779 26.4393 36.7645 28.2197 37.0306 29.6727C37.2149 30.7777 37.829 33.7654 37.829 33.7654C37.829 33.7654 39.0981 31.5758 39.4666 30.7368C39.4666 30.5117 40.1626 28.9155 40.224 28.6904L40.5106 27.6672C40.9544 26.3291 41.3032 24.9615 41.5546 23.5744C41.9845 25.0478 42.5781 26.9509 43.0285 28.9973C43.3355 30.3889 43.4583 31.0437 43.4583 31.0437L47.0202 34.318C47.0202 34.318 46.5493 30.4912 46.2013 29.2429Z" fill="#231F20"/>
<path d="M12.2822 53.3291V53.4314L11.4839 54.4342L11.8319 54.8434C12.1185 54.2704 12.3232 53.7793 12.4255 53.5337V53.411H12.2822C12.2723 53.35 12.2723 53.2878 12.2822 53.2268C12.2822 53.2268 12.446 52.9607 13.1829 53.1245C13.3569 52.9203 13.4891 52.6839 13.5719 52.4287C13.2483 52.1118 12.856 51.8737 12.4255 51.7329C12.231 51.9058 12.0712 52.1141 11.9547 52.3468C12.1389 52.5515 12.3641 52.8789 12.2003 53.1654L12.2822 53.3291Z" fill="#231F20"/>
<path d="M15.0048 51.1599C14.4843 50.6107 13.848 50.1843 13.142 49.9116L12.835 51.1395C13.0825 51.2212 13.317 51.3384 13.531 51.4873C13.7715 51.6443 13.9976 51.8223 14.2065 52.0194C14.5439 51.8085 14.8194 51.5119 15.0048 51.1599Z" fill="#231F20"/>
<path d="M26.3044 57.5241L26.1816 57.299L25.7927 56.5214C25.6289 56.2145 25.4652 55.9075 25.2809 55.6005C24.2295 53.1932 22.5722 51.0993 20.4704 49.5227C21.1664 49.0521 21.8214 48.6633 22.3741 48.3358C22.8885 48.0598 23.3812 47.7451 23.848 47.3945C24.2546 47.0793 24.5489 46.6416 24.6873 46.1462C24.8251 45.3884 24.8251 44.612 24.6873 43.8542C24.6057 41.5082 23.8054 39.2437 22.3946 37.3672C21.3916 36.344 19.9586 37.2444 18.3005 39.5773C17.436 40.9834 16.3349 42.2296 15.0458 43.2608C14.8401 43.3748 14.6282 43.4772 14.4112 43.5677H14.2884L13.7971 43.7519L13.3263 43.8952L12.7326 43.9975C12.7326 43.9975 12.7326 44.5705 12.7326 44.9797C12.4256 46.7601 12.1799 48.1107 11.9138 49.6455L11.5453 51.5282C11.3406 52.4082 10.9722 53.5746 10.9722 53.6974L11.2178 54.0248C11.5249 53.6155 11.8115 53.2881 11.9547 53.1039L12.0571 52.9811V52.8788C11.9928 52.723 11.895 52.5832 11.7705 52.4695L11.6477 52.3672V52.2035C11.8126 51.9035 12.0272 51.6337 12.2823 51.4054V51.1599L12.794 49.1135L13.0397 49.2362C13.3877 49.4 15.1891 50.239 15.3938 50.8734C15.3938 51.078 15.3938 51.5487 14.2679 52.3877H14.1451C14.0349 52.7516 13.8463 53.0869 13.5924 53.37V53.4723H13.3877C13.201 53.417 13.0088 53.3827 12.8145 53.37V53.4927C12.6917 53.7588 12.4665 54.3318 12.1185 55.0071C13.183 56.2349 14.4726 57.5037 15.4756 58.445C15.4756 58.445 15.9055 53.7383 15.9669 51.7533C18.4477 53.2973 20.7301 55.1391 22.7631 57.2376C23.5205 58.0971 25.0762 60.0412 25.0762 60.0412L28.0854 60.7574C28.0854 60.7574 26.7753 58.5678 26.3044 57.5241ZM18.5667 47.8447C17.7678 48.5227 16.8792 49.0874 15.926 49.5227V45.43C16.8325 44.7737 17.6693 44.0263 18.4234 43.1994C19.0579 42.5036 19.5902 42.1762 20.0201 42.258C20.4499 42.3399 20.6956 42.831 20.7775 43.67C20.842 44.4681 20.6636 45.2671 20.2657 45.962C19.8449 46.7069 19.2647 47.3498 18.5667 47.8447Z" fill="#231F20"/>
</g>
<defs>
<clipPath id="clip0_474_3722">
<rect width="75.5969" height="74.1" fill="white"/>
</clipPath>
</defs>
</svg>
