<svg width="123" height="37" viewBox="0 0 123 37" fill="none" xmlns="http://www.w3.org/2000/svg">
<g clip-path="url(#clip0_474_3673)">
<path d="M25.7422 32.0659L24.8317 35.4074H24.4179L23.7143 32.9315L23.0728 35.4074H22.7624L21.8105 32.0659H22.3072L23.0107 34.562L23.6522 32.0659H24.0247L24.7283 34.562L25.4525 32.0659H25.7422Z" fill="#231F20"/>
<path d="M30.3363 32.0659L29.4051 35.4074H28.9706L28.267 32.9315L27.6255 35.4074H27.2116L26.2598 32.0659H26.9013L27.5841 34.562L28.2463 32.0659H28.5981L29.3223 34.562L30.0259 32.0659H30.3363Z" fill="#231F20"/>
<path d="M34.9095 32.0659L33.999 35.4074H33.6058L32.9022 32.9315L32.2401 35.4074H31.8469L30.895 32.0659H31.3917L32.0745 34.562L32.7367 32.0659H33.1092L33.8334 34.562L34.537 32.0659H34.9095Z" fill="#231F20"/>
<path d="M36.2959 34.6626V35.4074H35.5923V34.6626H36.2959Z" fill="#231F20"/>
<path d="M40.0206 30.8984V35.4074H39.5861V34.8438C39.5063 35.0415 39.3666 35.211 39.1855 35.3296C39.0044 35.4483 38.7905 35.5105 38.5721 35.5081C38.3885 35.5085 38.2079 35.4623 38.0482 35.3741C37.8885 35.2858 37.7553 35.1585 37.6616 35.0048C37.4197 34.6394 37.2971 34.2114 37.3098 33.7769C37.2947 33.3233 37.4171 32.8752 37.6616 32.4887C37.7576 32.331 37.8936 32.2 38.0567 32.1083C38.2198 32.0167 38.4045 31.9674 38.5928 31.9653C38.7857 31.9694 38.9739 32.0239 39.1378 32.123C39.3016 32.2222 39.435 32.3624 39.524 32.5289V30.8984H40.0206ZM39.524 33.3542C39.5348 33.0974 39.4462 32.846 39.2757 32.6497C39.2042 32.5681 39.1154 32.5024 39.0154 32.4573C38.9154 32.4121 38.8065 32.3885 38.6963 32.388C38.5716 32.39 38.4495 32.4223 38.341 32.4821C38.2326 32.5419 38.1413 32.6272 38.0755 32.7302C37.918 33.0288 37.8398 33.3609 37.8479 33.6964C37.8226 34.0504 37.894 34.4045 38.0548 34.723C38.1123 34.8286 38.199 34.9165 38.3049 34.9769C38.4109 35.0374 38.5321 35.0679 38.6549 35.0652C38.7747 35.0616 38.8922 35.0327 38.9994 34.9806C39.1066 34.9285 39.2008 34.8543 39.2757 34.7633C39.4396 34.5634 39.5274 34.3144 39.524 34.0588V33.3542Z" fill="#231F20"/>
<path d="M41.8415 30.8984V31.4621H41.3862V30.8984H41.8415ZM41.8415 32.0659V35.4074H41.3862V32.0659H41.8415Z" fill="#231F20"/>
<path d="M45.7112 31.5426V31.9653C45.5626 31.9228 45.4045 31.9228 45.2559 31.9653C45.212 32.0035 45.1765 32.0499 45.1516 32.1018C45.1267 32.1537 45.1129 32.21 45.1111 32.2673C45.3126 32.4895 45.4231 32.7761 45.4215 33.0724C45.4219 33.2249 45.39 33.3757 45.3276 33.5156C45.2653 33.6554 45.174 33.7813 45.0594 33.8852C44.9448 33.9891 44.8094 34.0689 44.6616 34.1196C44.5138 34.1702 44.3569 34.1906 44.2006 34.1796H43.973H43.766C43.6882 34.1922 43.6161 34.2272 43.5591 34.2802C43.5177 34.3004 43.4836 34.3325 43.4614 34.372C43.4393 34.4116 43.43 34.4568 43.4349 34.5016C43.4306 34.5567 43.4443 34.6116 43.4741 34.6586C43.5038 34.7056 43.5481 34.7422 43.6005 34.7633C43.8753 34.797 44.1534 34.797 44.4282 34.7633C44.6899 34.7434 44.9528 34.7434 45.2145 34.7633C45.3944 34.8051 45.5547 34.9044 45.6698 35.0451C45.7802 35.1907 45.8383 35.3675 45.8353 35.5484C45.8353 36.1925 45.318 36.5146 44.242 36.5146C43.8597 36.5433 43.4775 36.4591 43.1452 36.273C43.0374 36.2014 42.949 36.1053 42.8878 35.9931C42.8265 35.8809 42.7941 35.7559 42.7935 35.6289C42.7877 35.48 42.8335 35.3336 42.9236 35.2131C43.0136 35.0927 43.1427 35.0051 43.2901 34.9646C43.1954 34.9069 43.1173 34.8267 43.063 34.7317C43.0087 34.6367 42.9801 34.5298 42.9797 34.4211C42.9812 34.292 43.0237 34.1666 43.1016 34.062C43.1794 33.9575 43.2886 33.879 43.4142 33.8374C43.2849 33.7265 43.1811 33.5903 43.1098 33.4376C43.0385 33.285 43.0012 33.1194 43.0004 32.9517C43.0209 32.8041 43.0718 32.6621 43.15 32.5341C43.2282 32.4062 43.3322 32.2949 43.4556 32.2069C43.6863 31.9989 43.9895 31.8838 44.304 31.8848C44.5349 31.8856 44.7621 31.9409 44.9662 32.0458C44.9699 31.871 45.0442 31.7047 45.1732 31.5829C45.3294 31.4934 45.5095 31.4514 45.6905 31.4621L45.7112 31.5426ZM43.6419 35.2665C43.5431 35.3018 43.4572 35.3645 43.3947 35.4468C43.3321 35.529 43.2958 35.6274 43.2901 35.7295C43.2921 35.817 43.3207 35.9018 43.3723 35.9735C43.4238 36.0451 43.496 36.1003 43.5798 36.1321C43.8055 36.2367 44.0544 36.2851 44.304 36.273C44.5579 36.2776 44.8104 36.2366 45.049 36.1522C45.1421 36.1301 45.2251 36.0785 45.2849 36.0057C45.3448 35.9329 45.3783 35.8429 45.3801 35.7497C45.4136 35.6655 45.4136 35.5722 45.3801 35.488C45.2958 35.4241 45.196 35.3825 45.0904 35.3672H44.4903C44.1982 35.3568 43.9076 35.3232 43.6212 35.2665H43.6419ZM44.2213 33.8575C44.3177 33.8655 44.4146 33.8514 44.5045 33.8165C44.5943 33.7815 44.6745 33.7266 44.7386 33.6562C44.8091 33.5881 44.864 33.5063 44.8997 33.4161C44.9354 33.3259 44.951 33.2293 44.9455 33.1328C44.9464 32.9333 44.8729 32.7402 44.7386 32.5893C44.6742 32.5248 44.5969 32.4737 44.5115 32.4391C44.4262 32.4045 44.3344 32.3871 44.242 32.388C44.0592 32.3871 43.8824 32.4516 43.7453 32.5692C43.67 32.6431 43.6109 32.7313 43.5717 32.8282C43.5326 32.9251 43.5142 33.0288 43.5177 33.1328C43.5109 33.2295 43.5259 33.3264 43.5616 33.4168C43.5974 33.5072 43.653 33.5889 43.7246 33.6562C43.7843 33.7212 43.8578 33.7728 43.94 33.8075C44.0221 33.8423 44.111 33.8593 44.2006 33.8575H44.2213Z" fill="#231F20"/>
<path d="M47.1181 30.8984V31.4621H46.5801V30.8984H47.1181ZM47.1181 32.0659V35.4074H46.6215V32.0659H47.1181Z" fill="#231F20"/>
<path d="M49.8288 35.0651V35.4677H49.3942C48.7734 35.4677 48.463 35.1255 48.463 34.4411V32.4282H47.9043V32.0256H48.463V31.1802H48.9183V32.0659H49.6632V32.4685H48.939V34.582C48.9285 34.6505 48.9346 34.7204 48.9569 34.7861C48.9792 34.8518 49.017 34.9115 49.0673 34.9604C49.1176 35.0093 49.179 35.0461 49.2466 35.0678C49.3141 35.0895 49.3859 35.0955 49.4563 35.0853L49.8288 35.0651Z" fill="#231F20"/>
<path d="M51.7329 35.5085C51.532 35.5124 51.3335 35.4664 51.156 35.3749C50.9786 35.2833 50.8281 35.1491 50.7189 34.9851C50.4563 34.6206 50.3253 34.1817 50.3464 33.7371C50.3279 33.2741 50.474 32.8191 50.7603 32.4488C50.882 32.2943 51.0387 32.1692 51.2181 32.0831C51.3975 31.9969 51.5949 31.9521 51.795 31.9521C51.995 31.9521 52.1924 31.9969 52.3718 32.0831C52.5513 32.1692 52.7079 32.2943 52.8296 32.4488C53.087 32.8232 53.2173 33.2667 53.2021 33.7169C53.2159 34.1731 53.07 34.6202 52.7882 34.9851C52.6698 35.1497 52.5116 35.2834 52.3276 35.3747C52.1436 35.4659 51.9394 35.5119 51.7329 35.5085ZM51.7329 35.0656C51.856 35.0677 51.9776 35.0392 52.0862 34.9828C52.1948 34.9265 52.2869 34.8441 52.3537 34.7435C52.5598 34.4406 52.6546 34.0789 52.6227 33.7169C52.6454 33.3622 52.5511 33.0096 52.3537 32.7105C52.2788 32.6194 52.1846 32.5453 52.0774 32.4931C51.9702 32.441 51.8527 32.4121 51.7329 32.4085C51.6098 32.4065 51.4882 32.435 51.3796 32.4913C51.271 32.5477 51.1789 32.63 51.1121 32.7306C50.9058 33.0183 50.8106 33.3676 50.8431 33.7169C50.8046 34.0857 50.8998 34.4559 51.1121 34.7637C51.1838 34.858 51.2774 34.9345 51.3853 34.987C51.4932 35.0395 51.6123 35.0664 51.7329 35.0656Z" fill="#231F20"/>
<path d="M54.754 36.535H54.2573V32.0663H54.7126V32.7105C54.7642 32.516 54.8744 32.341 55.0291 32.208C55.1838 32.075 55.3758 31.99 55.5806 31.964C55.7853 31.938 55.9933 31.9722 56.1779 32.0622C56.3625 32.1522 56.5152 32.2938 56.6163 32.4689C56.8539 32.8428 56.9693 33.2779 56.9474 33.7169C56.9888 34.1795 56.8645 34.6417 56.5956 35.0253C56.4995 35.1753 56.3651 35.2986 56.2056 35.3832C56.0461 35.4678 55.8668 35.511 55.6851 35.5084C55.4867 35.5052 55.2935 35.4466 55.1284 35.3395C54.9633 35.2325 54.8333 35.0815 54.754 34.9046V36.535ZM54.754 33.254V34.2202C54.7599 34.3391 54.7905 34.4557 54.8438 34.5629C54.8971 34.6702 54.9721 34.7658 55.0644 34.8442C55.133 34.9172 55.216 34.9762 55.3084 35.0176C55.4007 35.0591 55.5007 35.0823 55.6024 35.0857C55.7119 35.0858 55.8199 35.0602 55.9171 35.0112C56.0143 34.9621 56.098 34.891 56.1611 34.8039C56.3586 34.4905 56.4458 34.1231 56.4094 33.7572C56.4358 33.4201 56.3564 33.0832 56.1818 32.791C56.1208 32.6882 56.0335 32.6027 55.9283 32.5427C55.823 32.4827 55.7036 32.4503 55.5817 32.4488C55.4826 32.4501 55.385 32.4724 55.2957 32.5141C55.2063 32.5558 55.1274 32.616 55.0644 32.6903C54.9051 32.8437 54.797 33.0401 54.754 33.254Z" fill="#231F20"/>
<path d="M59.1411 35.5084C58.9402 35.5123 58.7417 35.4664 58.5642 35.3748C58.3868 35.2832 58.2363 35.149 58.1271 34.985C57.8645 34.6205 57.7335 34.1816 57.7546 33.737C57.7361 33.274 57.8823 32.819 58.1685 32.4487C58.2916 32.2967 58.4489 32.1742 58.6282 32.0904C58.8076 32.0067 59.0042 31.964 59.2032 31.9656C59.4047 31.9615 59.6042 32.0052 59.7844 32.0928C59.9647 32.1805 60.1203 32.3096 60.2378 32.4688C60.4952 32.8433 60.6255 33.2868 60.6103 33.737C60.6241 34.1931 60.4782 34.6403 60.1964 35.0051C60.0757 35.166 59.9165 35.2959 59.7326 35.3835C59.5488 35.4712 59.3458 35.514 59.1411 35.5084ZM59.1411 35.0655C59.2667 35.0656 59.3905 35.0364 59.5021 34.9803C59.6137 34.9243 59.7099 34.8431 59.7826 34.7435C59.9718 34.4342 60.0585 34.0757 60.0309 33.7169C60.063 33.3612 59.968 33.0057 59.7619 32.7104C59.687 32.6193 59.5928 32.5452 59.4856 32.4931C59.3784 32.4409 59.2609 32.4121 59.1411 32.4084C59.018 32.4064 58.8964 32.4349 58.7878 32.4912C58.6792 32.5476 58.5871 32.6299 58.5203 32.7305C58.3303 33.0246 58.2432 33.3706 58.272 33.7169C58.24 34.0825 58.3268 34.4486 58.5203 34.7636C58.596 34.8636 58.6963 34.9437 58.8119 34.9964C58.9276 35.0492 59.055 35.0729 59.1825 35.0655H59.1411Z" fill="#231F20"/>
<path d="M62.0794 35.4074H61.6655V30.8984H62.0794V35.4074Z" fill="#231F20"/>
<path d="M63.9828 30.8984V31.4621H63.4448V30.8984H63.9828ZM63.9828 32.0659V35.4074H63.4862V32.0659H63.9828Z" fill="#231F20"/>
<path d="M64.8315 34.5421L65.3075 34.4414C65.4109 34.8642 65.742 35.0654 66.3008 35.0654C66.4843 35.0742 66.6659 35.0248 66.8181 34.9245C66.8864 34.8816 66.9417 34.8215 66.978 34.7507C67.0144 34.6799 67.0307 34.6009 67.025 34.5219C67.025 34.2603 66.8595 34.0992 66.487 34.0187L65.8248 33.8778C65.5873 33.8531 65.3669 33.7459 65.204 33.5759C65.1238 33.4928 65.0622 33.3944 65.0231 33.287C64.9839 33.1796 64.968 33.0655 64.9764 32.9519C64.975 32.8229 65.002 32.6951 65.0556 32.577C65.1091 32.459 65.1879 32.3535 65.2868 32.2675C65.4002 32.1644 65.5338 32.0846 65.6795 32.0327C65.8252 31.9809 65.9802 31.958 66.1352 31.9655C66.42 31.9372 66.7059 32.0089 66.9412 32.1676C67.1764 32.3263 67.3456 32.5617 67.4182 32.8311L66.9629 32.9317C66.9168 32.776 66.8183 32.6399 66.6833 32.545C66.5483 32.4501 66.3844 32.402 66.218 32.4084C66.0441 32.4027 65.872 32.4445 65.7213 32.5291C65.6641 32.5719 65.6176 32.6267 65.5853 32.6894C65.5531 32.7522 65.5359 32.8213 65.5351 32.8915C65.5351 33.1532 65.7007 33.2941 66.0317 33.3746L66.6525 33.4752C67.294 33.6161 67.6044 33.9382 67.6044 34.4817C67.6101 34.624 67.5812 34.7656 67.5201 34.895C67.459 35.0244 67.3673 35.138 67.2526 35.2265C66.9764 35.4209 66.6415 35.52 66.3008 35.5083C65.9751 35.5622 65.6406 35.4919 65.3669 35.3119C65.0932 35.1319 64.9015 34.8562 64.8315 34.5421Z" fill="#231F20"/>
<path d="M68.1426 34.5422L68.6185 34.4416C68.722 34.8643 69.0531 35.0656 69.6118 35.0656C69.795 35.0716 69.9757 35.0224 70.1291 34.9247C70.1974 34.8817 70.2527 34.8217 70.2891 34.7509C70.3255 34.6801 70.3417 34.6011 70.336 34.5221C70.336 34.2604 70.1498 34.0994 69.798 34.0189L69.1152 33.878C68.8805 33.844 68.6631 33.7382 68.4944 33.576C68.3211 33.3999 68.2244 33.1656 68.2244 32.9218C68.2244 32.678 68.3211 32.4437 68.4944 32.2676C68.6116 32.164 68.7487 32.0839 68.8979 32.0321C69.0471 31.9803 69.2053 31.9577 69.3635 31.9657C69.6457 31.9382 69.9287 32.0106 70.1605 32.1695C70.3923 32.3285 70.5575 32.5634 70.6258 32.8312L70.1705 32.9319C70.1229 32.769 70.0182 32.6275 69.8746 32.5319C69.731 32.4363 69.5574 32.3927 69.3842 32.4085C69.21 32.4006 69.0373 32.4426 68.8875 32.5293C68.8276 32.571 68.7779 32.6251 68.7421 32.6878C68.7063 32.7504 68.6853 32.8201 68.6806 32.8916C68.6806 33.1533 68.8461 33.2942 69.1772 33.3747L69.798 33.4754C70.4395 33.6163 70.7706 33.9383 70.7706 34.4818C70.7717 34.6235 70.7407 34.7636 70.6799 34.8923C70.6191 35.021 70.53 35.1352 70.4188 35.2266C70.1349 35.4212 69.7933 35.5201 69.4462 35.5084C69.1463 35.5246 68.8502 35.4362 68.6113 35.2591C68.3723 35.082 68.2061 34.8278 68.1426 34.5422Z" fill="#231F20"/>
<path d="M73.2951 35.0651V35.4677H72.8605C72.2397 35.4677 71.9293 35.1255 71.9293 34.4411V32.4282H71.3706V32.0256H71.9293V31.1802H72.3846V32.0659H73.1088V32.4685H72.4259V34.582C72.4155 34.6505 72.4216 34.7204 72.4439 34.7861C72.4662 34.8518 72.504 34.9115 72.5543 34.9604C72.6046 35.0093 72.666 35.0461 72.7335 35.0678C72.8011 35.0895 72.8729 35.0955 72.9433 35.0853L73.2951 35.0651Z" fill="#231F20"/>
<path d="M76.6679 35.4074H76.2126V34.7633C76.1468 34.976 76.013 35.1629 75.8307 35.2968C75.6484 35.4307 75.4271 35.5047 75.1987 35.508C75.0528 35.5105 74.9083 35.481 74.7758 35.4218C74.6432 35.3626 74.5261 35.2751 74.433 35.1658C74.2414 34.8792 74.1473 34.5412 74.164 34.1996V32.0659H74.6606V34.2198C74.6315 34.4626 74.698 34.7072 74.8469 34.9042C74.9639 35.0145 75.1186 35.079 75.2814 35.0853C75.4392 35.092 75.5939 35.0418 75.716 34.9444C75.8568 34.8369 75.9702 34.6991 76.0471 34.5418C76.1317 34.3655 76.1741 34.1728 76.1712 33.9782V32.086H76.6679V35.4074Z" fill="#231F20"/>
<path d="M80.4342 30.8984V35.4074H79.9997V34.8438C79.9199 35.0415 79.7802 35.211 79.5991 35.3296C79.418 35.4483 79.204 35.5105 78.9857 35.5081C78.802 35.5085 78.6214 35.4623 78.4618 35.3741C78.3021 35.2858 78.1688 35.1585 78.0752 35.0048C77.8333 34.6394 77.7106 34.2114 77.7234 33.7769C77.7083 33.3233 77.8306 32.8752 78.0752 32.4887C78.1711 32.331 78.3072 32.2 78.4703 32.1083C78.6334 32.0167 78.818 31.9674 79.0064 31.9653C79.2019 31.97 79.3927 32.0245 79.5597 32.1234C79.7267 32.2223 79.8642 32.3622 79.9583 32.5289V30.8984H80.4342ZM79.9583 33.3542C79.9613 33.0951 79.8655 32.844 79.6893 32.6497C79.6197 32.5659 79.5313 32.4987 79.4308 32.4534C79.3304 32.408 79.2206 32.3856 79.1099 32.388C78.9852 32.39 78.8631 32.4223 78.7546 32.4821C78.6461 32.5419 78.5548 32.6272 78.4891 32.7302C78.3316 33.0288 78.2533 33.3609 78.2614 33.6964C78.2362 34.0504 78.3076 34.4045 78.4684 34.723C78.5277 34.8271 78.6147 34.9138 78.7203 34.974C78.8258 35.0342 78.9461 35.0657 79.0685 35.0652C79.1882 35.0616 79.3058 35.0327 79.413 34.9806C79.5201 34.9285 79.6144 34.8543 79.6893 34.7633C79.8591 34.5653 79.9541 34.3166 79.9583 34.0588V33.3542Z" fill="#231F20"/>
<path d="M82.2548 30.8984V31.4621H81.7168V30.8984H82.2548ZM82.2548 32.0659V35.4074H81.7375V32.0659H82.2548Z" fill="#231F20"/>
<path d="M84.6762 35.5084C84.4754 35.5124 84.2768 35.4664 84.0994 35.3748C83.9219 35.2832 83.7715 35.149 83.6623 34.985C83.3997 34.6205 83.2687 34.1816 83.2898 33.737C83.2712 33.274 83.4174 32.819 83.7037 32.4487C83.8257 32.2956 83.9828 32.1722 84.1624 32.0884C84.342 32.0045 84.5391 31.9625 84.7383 31.9656C84.9369 31.9613 85.1336 32.005 85.3105 32.0929C85.4875 32.1807 85.6393 32.3099 85.7523 32.4689C86.0266 32.8363 86.1652 33.2832 86.1454 33.737C86.1593 34.1931 86.0133 34.6403 85.7316 35.0052C85.6108 35.166 85.4517 35.2959 85.2678 35.3836C85.0839 35.4712 84.8809 35.5141 84.6762 35.5084ZM84.6762 35.0655C84.7993 35.0676 84.9209 35.0391 85.0295 34.9828C85.1382 34.9264 85.2302 34.8441 85.297 34.7435C85.5032 34.4406 85.598 34.0788 85.566 33.7169C85.5887 33.3621 85.4945 33.0095 85.297 32.7104C85.2222 32.6194 85.1279 32.5452 85.0207 32.4931C84.9136 32.441 84.796 32.4121 84.6762 32.4085C84.5531 32.4064 84.4316 32.4349 84.3229 32.4913C84.2143 32.5476 84.1223 32.63 84.0554 32.7305C83.8492 33.0183 83.7539 33.3675 83.7864 33.7169C83.748 34.0856 83.8431 34.4559 84.0554 34.7636C84.1312 34.8637 84.2314 34.9437 84.3471 34.9965C84.4627 35.0492 84.5901 35.0729 84.7176 35.0655H84.6762Z" fill="#231F20"/>
<path d="M87.8627 34.6626V35.4074H87.1592V34.6626H87.8627Z" fill="#231F20"/>
<path d="M91.0496 34.2201H91.4842C91.4406 34.5431 91.2961 34.8452 91.0703 35.0857C90.968 35.1933 90.8428 35.2779 90.7034 35.3335C90.564 35.3892 90.4138 35.4145 90.2633 35.4078C90.0648 35.4142 89.8682 35.3692 89.6936 35.2772C89.5191 35.1852 89.3728 35.0496 89.27 34.8844C89.0281 34.519 88.9054 34.091 88.9182 33.6565C88.8925 33.2051 89.0237 32.7584 89.2907 32.3884C89.3918 32.2262 89.5347 32.0925 89.7053 32.0007C89.876 31.9089 90.0683 31.8621 90.2633 31.865C90.4186 31.8592 90.5734 31.8869 90.7165 31.946C90.8596 32.0052 90.9875 32.0944 91.091 32.2072C91.3255 32.4317 91.4656 32.7331 91.4842 33.0526H91.0496C91.0496 32.5092 90.6978 32.2273 90.284 32.2273C90.156 32.2251 90.0299 32.2578 89.9201 32.3219C89.8104 32.386 89.7213 32.4787 89.6632 32.5897C89.503 32.88 89.4245 33.2064 89.4356 33.5357C89.4204 33.8848 89.4988 34.2316 89.6632 34.5422C89.7207 34.6478 89.8073 34.7357 89.9133 34.7961C90.0193 34.8566 90.1405 34.8871 90.2633 34.8844C90.6357 35.0656 90.8841 34.8039 91.0496 34.2201Z" fill="#231F20"/>
<path d="M93.5742 35.5085C93.3734 35.5124 93.1748 35.4664 92.9973 35.3749C92.8199 35.2833 92.6694 35.1491 92.5602 34.9851C92.2976 34.6206 92.1666 34.1817 92.1877 33.7371C92.1692 33.2741 92.3154 32.8191 92.6016 32.4488C92.7233 32.2943 92.88 32.1692 93.0594 32.0831C93.2388 31.9969 93.4362 31.9521 93.6363 31.9521C93.8363 31.9521 94.0337 31.9969 94.2131 32.0831C94.3926 32.1692 94.5492 32.2943 94.6709 32.4488C94.9283 32.8232 95.0586 33.2667 95.0434 33.7169C95.0572 34.1731 94.9113 34.6202 94.6295 34.9851C94.5111 35.1497 94.3529 35.2834 94.1689 35.3747C93.9849 35.4659 93.7807 35.5119 93.5742 35.5085ZM93.5742 35.0656C93.6973 35.0677 93.8189 35.0392 93.9275 34.9828C94.0361 34.9265 94.1282 34.8441 94.195 34.7435C94.4011 34.4406 94.4959 34.0789 94.464 33.7169C94.4867 33.3622 94.3924 33.0096 94.195 32.7105C94.1201 32.6194 94.0259 32.5453 93.9187 32.4931C93.8115 32.441 93.694 32.4121 93.5742 32.4085C93.4511 32.4065 93.3295 32.435 93.2209 32.4913C93.1123 32.5477 93.0202 32.63 92.9534 32.7306C92.7562 33.0223 92.6618 33.3685 92.6844 33.7169C92.6571 34.0848 92.7514 34.4515 92.9534 34.7637C93.0291 34.8637 93.1294 34.9438 93.245 34.9965C93.3607 35.0493 93.4881 35.073 93.6156 35.0656H93.5742Z" fill="#231F20"/>
<path d="M100.341 35.4075H99.865V33.3945C99.881 33.2339 99.881 33.0721 99.865 32.9114C99.8262 32.7941 99.7545 32.6895 99.6581 32.6095C99.5522 32.5283 99.4204 32.4856 99.2856 32.4887C99.1819 32.4923 99.0802 32.5175 98.9874 32.5627C98.8945 32.6078 98.8128 32.6718 98.7476 32.7504C98.5548 32.9908 98.4591 33.2915 98.4786 33.5958V35.4679H98.0026V33.2134C98.0262 32.9897 97.9594 32.7659 97.8164 32.5894C97.746 32.5165 97.6581 32.4619 97.5605 32.4302C97.463 32.3986 97.359 32.391 97.2577 32.4082C97.152 32.4128 97.0487 32.4405 96.9556 32.4893C96.8624 32.5381 96.7818 32.6067 96.7197 32.69C96.5616 32.8995 96.4814 33.155 96.4921 33.4147V35.4276H96.0161V32.066H96.4507V32.7101C96.5168 32.5052 96.6451 32.3244 96.8186 32.1915C96.9922 32.0586 97.2029 31.9798 97.4232 31.9654C97.5317 31.9646 97.6392 31.9856 97.7389 32.0272C97.8386 32.0687 97.9284 32.1299 98.0026 32.2069C98.1498 32.3687 98.256 32.5617 98.313 32.7705C98.3666 32.5498 98.4924 32.3519 98.6715 32.2066C98.8506 32.0614 99.0734 31.9767 99.3063 31.9654C99.5108 31.968 99.7081 32.0391 99.865 32.1666C100.012 32.2844 100.126 32.4368 100.196 32.6095C100.222 32.8504 100.222 33.0933 100.196 33.3342L100.341 35.4075Z" fill="#231F20"/>
<path d="M15.975 3.7643C15.5909 3.7643 15.2224 3.91276 14.9508 4.17701C14.6791 4.44126 14.5265 4.79966 14.5265 5.17336C14.5238 5.36009 14.5592 5.54548 14.6308 5.71877C14.7023 5.89205 14.8086 6.04977 14.9434 6.18275C15.0782 6.31574 15.2388 6.42133 15.4159 6.4934C15.593 6.56546 15.7831 6.60257 15.975 6.60255C16.168 6.60255 16.359 6.56558 16.5373 6.49376C16.7155 6.42193 16.8775 6.31666 17.0139 6.18395C17.1503 6.05124 17.2586 5.89368 17.3324 5.72029C17.4062 5.54689 17.4442 5.36104 17.4442 5.17336C17.4443 4.98661 17.4061 4.80173 17.332 4.62945C17.2579 4.45717 17.1494 4.30093 17.0127 4.16982C16.876 4.03871 16.7138 3.93535 16.5357 3.86573C16.3576 3.79611 16.167 3.76164 15.975 3.7643Z" fill="#231F20"/>
<path d="M17.3617 10.7089C17.3154 10.3782 17.1428 10.0765 16.8782 9.86386C16.6137 9.65125 16.2765 9.54333 15.9339 9.56155C15.608 9.55059 15.2907 9.66479 15.0506 9.87948C14.8106 10.0942 14.667 10.3921 14.6509 10.7089V21.9009V22.2431C14.7422 22.4902 14.9114 22.703 15.1343 22.8512C15.3573 22.9994 15.6226 23.0754 15.8925 23.0684C16.1729 23.0638 16.4466 22.9844 16.6838 22.8389C16.9209 22.6933 17.1125 22.4873 17.2375 22.2431V22.1424C17.2471 22.0756 17.2471 22.0079 17.2375 21.9411C17.2473 21.8676 17.2473 21.7932 17.2375 21.7197V10.9102C17.2899 10.8501 17.3318 10.7821 17.3617 10.7089Z" fill="#231F20"/>
<path d="M60.2376 9.50109H53.3261C53.3261 9.50109 51.2568 9.50109 51.2568 12.0173V20.5521C51.2568 20.5521 51.2568 22.9878 53.5538 22.9878H60.6515C60.6515 22.9878 62.3276 22.8066 62.3276 20.0891V11.4335C62.3061 10.9102 62.0758 10.4157 61.6856 10.0549C61.2954 9.6941 60.776 9.49544 60.2376 9.50109ZM59.6582 14.8354C59.5587 14.7152 59.4326 14.6184 59.2893 14.5522C59.146 14.486 58.9892 14.4521 58.8305 14.4529C58.5396 14.4529 58.2607 14.5653 58.055 14.7654C57.8493 14.9655 57.7338 15.2368 57.7338 15.5198C57.7338 15.8027 57.8493 16.0741 58.055 16.2742C58.2607 16.4742 58.5396 16.5866 58.8305 16.5866C58.9882 16.5822 59.1432 16.5459 59.2857 16.48C59.4282 16.4142 59.555 16.3202 59.6582 16.2042V18.6197C59.6582 20.2703 58.5408 20.3911 58.5408 20.3911H55.561C55.1565 20.3859 54.7702 20.2273 54.4841 19.949C54.1981 19.6708 54.0351 19.295 54.0297 18.9015V16.2646C54.1358 16.3672 54.2618 16.4485 54.4002 16.5038C54.5387 16.5591 54.6871 16.5872 54.8367 16.5866C55.1276 16.5866 55.4066 16.4742 55.6122 16.2742C55.8179 16.0741 55.9335 15.8027 55.9335 15.5198C55.9335 15.2368 55.8179 14.9655 55.6122 14.7654C55.4066 14.5653 55.1276 14.4529 54.8367 14.4529C54.6871 14.4523 54.5387 14.4805 54.4002 14.5358C54.2618 14.591 54.1358 14.6723 54.0297 14.775V13.7283C54.0067 13.5378 54.0245 13.3448 54.082 13.1613C54.1395 12.9779 54.2354 12.808 54.3637 12.6624C54.492 12.5168 54.6499 12.3986 54.8275 12.3153C55.0051 12.232 55.1984 12.1853 55.3955 12.1783H58.2511C58.5992 12.1561 58.9422 12.2684 59.2056 12.4908C59.4691 12.7131 59.6317 13.0276 59.6582 13.3659V14.8354Z" fill="#231F20"/>
<path d="M6.80821 0.724586C4.96653 1.65054 3.8491 3.14011 4.32504 4.02581C4.44284 4.23436 4.62335 4.40292 4.84237 4.50891C4.34574 3.62322 5.40108 2.21416 7.1393 1.32847C8.87752 0.442775 10.6778 0.442774 11.1331 1.30834C11.217 1.08752 11.217 0.84476 11.1331 0.623939C10.5744 -0.241625 8.67059 -0.221495 6.80821 0.724586Z" fill="#231F20"/>
<path d="M41.3862 12.0776C41.586 12.0907 41.7865 12.0907 41.9863 12.0776C42.3294 12.0928 42.659 12.2114 42.9297 12.417C43.2003 12.6226 43.3986 12.905 43.4969 13.225V21.9007V22.2429C43.5871 22.4868 43.7532 22.6973 43.9719 22.8452C44.1907 22.9931 44.4514 23.071 44.7178 23.0682C45.0022 23.0697 45.2813 22.993 45.5229 22.847C45.7646 22.701 45.9589 22.4916 46.0836 22.2429V22.1423C46.0836 22.1423 46.0836 22.0014 46.0836 21.941C46.0836 21.8806 46.0836 21.8001 46.0836 21.7196V13.2854C46.1504 12.9995 46.2952 12.7364 46.5028 12.5239C46.7104 12.3113 46.973 12.1572 47.2631 12.0776H47.739H47.9459C48.2877 12.028 48.5981 11.856 48.8163 11.5953C49.0344 11.3347 49.1447 11.0042 49.1254 10.6685C49.1315 10.3529 49.0123 10.0472 48.7926 9.81475C48.573 9.58235 48.2698 9.44117 47.9459 9.42053H46.1456V5.11284C46.1456 5.11284 46.1456 4.97193 46.1456 4.89142C46.0944 4.56064 45.9168 4.26083 45.6483 4.05187C45.3798 3.8429 45.0401 3.74017 44.6971 3.76417C44.376 3.758 44.0645 3.87116 43.8261 4.0806C43.5877 4.29004 43.4404 4.58 43.4141 4.89142V9.48092H41.6552H41.3035C41.0528 9.56868 40.8364 9.73018 40.6844 9.943C40.5323 10.1558 40.4522 10.4094 40.455 10.6685C40.4442 10.9677 40.5276 11.263 40.694 11.5148C40.8604 11.7666 41.1019 11.963 41.3862 12.0776Z" fill="#231F20"/>
<path d="M57.2784 18.8813V17.7339H56.2852V18.8813C56.8853 19.5254 57.2784 18.8813 57.2784 18.8813Z" fill="#231F20"/>
<path d="M36.7094 6.60251C37.0991 6.60251 37.4728 6.45194 37.7483 6.18391C38.0239 5.91589 38.1787 5.55237 38.1787 5.17333C38.1787 4.79428 38.0239 4.43076 37.7483 4.16274C37.4728 3.89472 37.0991 3.74414 36.7094 3.74414C36.3198 3.74414 35.9461 3.89472 35.6706 4.16274C35.395 4.43076 35.2402 4.79428 35.2402 5.17333C35.2402 5.55237 35.395 5.91589 35.6706 6.18391C35.9461 6.45194 36.3198 6.60251 36.7094 6.60251Z" fill="#231F20"/>
<path d="M7.82222 2.65728C8.98104 2.01314 10.1812 2.01314 10.4709 2.63715C10.4696 2.48792 10.4267 2.34183 10.3468 2.21444C10.0364 1.61056 8.75341 1.63069 7.53252 2.21444C6.31163 2.79819 5.46321 3.84492 5.87707 4.4488C5.94497 4.59076 6.06223 4.70482 6.20816 4.77087C5.98054 4.18712 6.66341 3.24104 7.82222 2.65728Z" fill="#231F20"/>
<path d="M38.0751 10.7089C38.0288 10.3782 37.8562 10.0765 37.5916 9.86386C37.327 9.65125 36.9899 9.54333 36.6472 9.56155C36.3228 9.5557 36.0084 9.67164 35.7695 9.8853C35.5306 10.099 35.3855 10.3939 35.3643 10.7089V21.9009V22.2431C35.4518 22.4886 35.6171 22.7008 35.8365 22.8491C36.0559 22.9974 36.3181 23.0742 36.5852 23.0684C36.8671 23.0709 37.1439 22.9944 37.3824 22.848C37.6209 22.7017 37.8111 22.4917 37.9302 22.2431V22.1424C37.9404 22.0757 37.9404 22.0079 37.9302 21.9411C37.9404 21.8677 37.9404 21.7932 37.9302 21.7197V10.9102C37.9906 10.8522 38.0396 10.784 38.0751 10.7089Z" fill="#231F20"/>
<path d="M8.3807 4.73038V8.43419C8.3807 8.43419 8.27724 9.46079 7.36674 9.46079H2.06931C1.50214 9.56162 0.987532 9.84827 0.611067 10.2731C0.234602 10.6979 0.018961 11.2352 0 11.7958L0 20.9547C0.0616332 21.4678 0.299463 21.9457 0.675 22.311C1.05054 22.6763 1.54181 22.9076 2.06931 22.9676C4.44414 23.1771 6.83359 23.1771 9.20843 22.9676C9.20843 22.9676 11.2777 22.0014 11.2777 20.5118V4.79077C11.1567 4.51819 10.9577 4.28517 10.7044 4.11943C10.4512 3.95368 10.1543 3.86219 9.84915 3.85582C9.54398 3.84946 9.24336 3.9285 8.98303 4.08354C8.72271 4.23858 8.51364 4.4631 8.3807 4.73038ZM8.3807 15.097C8.28072 14.8716 8.10388 14.6867 7.88003 14.5734C7.65618 14.46 7.399 14.4253 7.15187 14.4749C6.90474 14.5246 6.68277 14.6556 6.5234 14.846C6.36402 15.0363 6.277 15.2743 6.277 15.5197C6.277 15.7652 6.36402 16.0032 6.5234 16.1935C6.68277 16.3838 6.90474 16.5149 7.15187 16.5645C7.399 16.6142 7.65618 16.5794 7.88003 16.4661C8.10388 16.3528 8.28072 16.1678 8.3807 15.9424V18.6197C8.3807 20.2703 7.26328 20.391 7.26328 20.391H4.28347C3.87901 20.3858 3.49263 20.2272 3.20661 19.949C2.92059 19.6708 2.75754 19.2949 2.75218 18.9015V16.1035C2.84359 16.2697 2.97865 16.4094 3.1436 16.5083C3.30855 16.6073 3.4975 16.6619 3.69123 16.6667C3.88495 16.6716 4.07653 16.6264 4.24646 16.5357C4.41638 16.4451 4.55859 16.3123 4.65861 16.1509C4.75862 15.9894 4.81287 15.805 4.81584 15.6165C4.8188 15.4281 4.77037 15.2422 4.67547 15.0778C4.58058 14.9135 4.44261 14.7765 4.27561 14.6809C4.10861 14.5852 3.91854 14.5343 3.72476 14.5334C3.52482 14.5302 3.32791 14.5812 3.15611 14.6807C2.98432 14.7803 2.84445 14.9244 2.75218 15.097V13.7282C2.72573 13.5356 2.74177 13.3396 2.79922 13.1534C2.85668 12.9673 2.95423 12.7952 3.0854 12.6485C3.21656 12.5019 3.37833 12.3841 3.55993 12.303C3.74153 12.2219 3.9388 12.1794 4.13862 12.1783L6.97357 12.0776C7.32163 12.0554 7.66464 12.1677 7.9281 12.3901C8.19156 12.6124 8.3542 12.9269 8.3807 13.2652V15.097Z" fill="#231F20"/>
<path d="M88.2767 9.50098H81.3652C81.3652 9.50098 79.2959 9.50098 79.2959 12.0172V20.552C79.2959 20.552 79.2959 22.9877 81.5928 22.9877H88.6699C88.6699 22.9877 90.346 22.8065 90.346 20.089V11.4334C90.3246 10.9136 90.0972 10.4221 89.7114 10.0618C89.3256 9.70155 88.8115 9.50056 88.2767 9.50098ZM87.6973 15.0768C87.6124 14.8898 87.4732 14.7311 87.2967 14.6202C87.1202 14.5093 86.9141 14.4511 86.704 14.4528C86.4132 14.4528 86.1342 14.5652 85.9285 14.7653C85.7228 14.9654 85.6073 15.2367 85.6073 15.5197C85.6073 15.8026 85.7228 16.074 85.9285 16.274C86.1342 16.4741 86.4132 16.5865 86.704 16.5865C86.9141 16.5882 87.1202 16.53 87.2967 16.4191C87.4732 16.3082 87.6124 16.1495 87.6973 15.9625V18.6196C87.6973 20.2702 86.5799 20.391 86.5799 20.391H83.6001C83.1992 20.3806 82.8181 20.2197 82.5365 19.942C82.2549 19.6644 82.0947 19.2914 82.0895 18.9014V16.3852C82.2692 16.5146 82.4866 16.5851 82.7103 16.5865C83.0011 16.5865 83.2801 16.4741 83.4858 16.274C83.6914 16.074 83.807 15.8026 83.807 15.5197C83.807 15.2367 83.6914 14.9654 83.4858 14.7653C83.2801 14.5652 83.0011 14.4528 82.7103 14.4528C82.4889 14.4484 82.2717 14.5117 82.0895 14.634V13.7281C82.0633 13.5388 82.0783 13.3462 82.1333 13.1628C82.1883 12.9794 82.2822 12.8092 82.4089 12.6632C82.5356 12.5172 82.6923 12.3986 82.8689 12.3151C83.0456 12.2316 83.2382 12.1849 83.4345 12.1782L86.2902 12.0775C86.6382 12.0554 86.9812 12.1676 87.2447 12.39C87.5082 12.6124 87.6708 12.9269 87.6973 13.2652V15.0768Z" fill="#231F20"/>
<path d="M84.8417 17.5327C84.5727 17.5327 84.3657 17.9353 84.3657 18.4385C84.3657 18.9418 84.5727 19.3645 84.8417 19.3645C85.1107 19.3645 85.2969 18.9418 85.2969 18.4385C85.2969 17.9353 85.0072 17.5327 84.8417 17.5327Z" fill="#231F20"/>
<path d="M31.8881 22.1424C31.8881 18.7606 31.8881 15.399 31.8881 12.0777V11.8764C31.7432 10.5076 29.8188 9.60178 29.8188 9.60178C27.4439 9.39251 25.0545 9.39251 22.6797 9.60178C22.1535 9.66514 21.6642 9.89759 21.2893 10.2623C20.9144 10.6269 20.6755 11.1029 20.6104 11.6147V20.7937C20.6367 21.3521 20.8549 21.8858 21.2301 22.3091C21.6053 22.7325 22.1158 23.0211 22.6797 23.1287H27.9978C28.8255 23.1287 28.9911 24.1553 28.9911 24.1553V24.3969C28.9911 25.9871 28.0806 25.9267 28.0806 25.9267H23.0314C22.7967 26.0794 22.6043 26.286 22.4712 26.5282C22.3381 26.7705 22.2685 27.041 22.2685 27.3156C22.2685 27.5903 22.3381 27.8608 22.4712 28.103C22.6043 28.3453 22.7967 28.5519 23.0314 28.7046H29.6532C32.4054 28.6241 31.9088 23.6118 31.8881 22.1424ZM29.0945 15.0971C29.0106 14.9079 28.8721 14.7464 28.6959 14.6321C28.5196 14.5177 28.3131 14.4555 28.1013 14.453C27.8104 14.453 27.5314 14.5654 27.3257 14.7654C27.1201 14.9655 27.0045 15.2369 27.0045 15.5198C27.0045 15.8028 27.1201 16.0741 27.3257 16.2742C27.5314 16.4743 27.8104 16.5867 28.1013 16.5867C28.3131 16.5841 28.5196 16.5219 28.6959 16.4076C28.8721 16.2933 29.0106 16.1318 29.0945 15.9425V19.1632C29.0867 19.3335 29.0438 19.5004 28.9682 19.6541C28.8926 19.8078 28.786 19.9451 28.6547 20.0579C28.5233 20.1706 28.37 20.2564 28.2038 20.3102C28.0376 20.364 27.862 20.3847 27.6874 20.371C26.3423 20.371 24.8317 20.371 24.8317 20.371C24.6374 20.364 24.4467 20.3179 24.2717 20.2356C24.0966 20.1533 23.941 20.0366 23.8146 19.8928C23.6882 19.7491 23.5938 19.5814 23.5374 19.4004C23.4809 19.2194 23.4637 19.029 23.4867 18.8412V16.4055C23.6613 16.5275 23.8719 16.591 24.0868 16.5867C24.3777 16.5867 24.6566 16.4743 24.8623 16.2742C25.068 16.0741 25.1835 15.8028 25.1835 15.5198C25.1835 15.2369 25.068 14.9655 24.8623 14.7654C24.6566 14.5654 24.3777 14.453 24.0868 14.453C23.8719 14.4486 23.6613 14.5122 23.4867 14.6341V13.5874C23.4812 13.3911 23.5161 13.1956 23.5896 13.0127C23.663 12.8297 23.7734 12.663 23.9142 12.5222C24.0551 12.3815 24.2235 12.2696 24.4095 12.1933C24.5955 12.1169 24.7954 12.0776 24.9973 12.0777H27.9771C27.9771 12.0777 29.0945 12.1783 29.0945 13.829V15.0971Z" fill="#231F20"/>
<path d="M76.3159 11.232C76.2456 10.7483 75.997 10.306 75.6163 9.98749C75.2355 9.66898 74.7487 9.49602 74.2466 9.50082H73.0257C71.8608 9.44048 70.6935 9.44048 69.5286 9.50082H67.3144C67.3144 9.50082 65.2451 9.50082 65.2451 12.017V28.1205C65.6227 28.4432 66.1082 28.6212 66.6109 28.6212C67.1135 28.6212 67.599 28.4432 67.9766 28.1205V24.155C67.9766 24.155 68.1628 23.1284 68.9906 23.1284H74.3087H74.4949H74.6191C75.0346 23.0469 75.4037 22.8172 75.6537 22.4843C75.883 22.2764 76.0642 22.0236 76.1855 21.7425C76.3068 21.4614 76.3653 21.1585 76.3573 20.8538V11.5943C76.3504 11.4729 76.3366 11.3519 76.3159 11.232ZM73.6465 14.8754C73.548 14.7462 73.4202 14.6409 73.2731 14.5676C73.1259 14.4943 72.9634 14.455 72.7981 14.4527C72.5072 14.4527 72.2283 14.5651 72.0226 14.7651C71.8169 14.9652 71.7014 15.2366 71.7014 15.5195C71.7014 15.8025 71.8169 16.0738 72.0226 16.2739C72.2283 16.474 72.5072 16.5864 72.7981 16.5864C72.9688 16.5772 73.1348 16.5286 73.2823 16.4446C73.4299 16.3606 73.5547 16.2436 73.6465 16.1033V18.6597C73.6695 18.8475 73.6523 19.0379 73.5958 19.2189C73.5394 19.3999 73.445 19.5676 73.3186 19.7113C73.1923 19.8551 73.0366 19.9718 72.8615 20.0541C72.6865 20.1364 72.4958 20.1825 72.3015 20.1895C72.3015 20.1895 70.7909 20.1895 69.4251 20.1895C69.0771 20.2117 68.7341 20.0994 68.4706 19.8771C68.2071 19.6547 68.0445 19.3402 68.018 19.0019V16.2844C68.2264 16.4732 68.499 16.5806 68.7836 16.5864C69.0745 16.5864 69.3535 16.474 69.5591 16.2739C69.7648 16.0738 69.8804 15.8025 69.8804 15.5195C69.8804 15.2366 69.7648 14.9652 69.5591 14.7651C69.3535 14.5651 69.0745 14.4527 68.7836 14.4527C68.499 14.4584 68.2264 14.5659 68.018 14.7546V13.7683C68.018 12.1176 69.1354 11.9969 69.1354 11.9969H72.1152C72.5197 12.0021 72.9061 12.1607 73.1921 12.4389C73.4781 12.7171 73.6412 13.093 73.6465 13.4864V14.8754Z" fill="#231F20"/>
<path d="M96.3885 4.89128C96.3421 4.56217 96.1687 4.26256 95.9036 4.05323C95.6384 3.84389 95.3013 3.7405 94.9607 3.76403C94.6382 3.75288 94.3239 3.86433 94.0844 4.07475C93.8449 4.28517 93.699 4.57803 93.6777 4.89128V21.8805V22.2227C93.7653 22.4682 93.9306 22.6804 94.15 22.8287C94.3694 22.977 94.6315 23.0538 94.8986 23.048C95.1806 23.0505 95.4574 22.974 95.6959 22.8277C95.9344 22.6813 96.1245 22.4713 96.2437 22.2227V22.1422C96.2539 22.0754 96.2539 22.0076 96.2437 21.9409C96.2539 21.8674 96.2539 21.7929 96.2437 21.7194V5.1127C96.3038 5.04688 96.3527 4.97213 96.3885 4.89128Z" fill="#231F20"/>
<path d="M101.52 3.7643C101.329 3.76164 101.138 3.79611 100.96 3.86573C100.782 3.93535 100.62 4.03871 100.483 4.16982C100.346 4.30093 100.238 4.45717 100.163 4.62945C100.089 4.80173 100.051 4.98661 100.051 5.17336C100.051 5.36104 100.089 5.54689 100.163 5.72029C100.237 5.89368 100.345 6.05124 100.482 6.18395C100.618 6.31666 100.78 6.42193 100.958 6.49376C101.136 6.56558 101.328 6.60255 101.52 6.60255C101.712 6.60257 101.903 6.56546 102.08 6.4934C102.257 6.42133 102.417 6.31574 102.552 6.18275C102.687 6.04977 102.793 5.89205 102.865 5.71877C102.936 5.54548 102.972 5.36009 102.969 5.17336C102.969 4.79966 102.816 4.44126 102.545 4.17701C102.273 3.91276 101.905 3.7643 101.52 3.7643Z" fill="#231F20"/>
<path d="M102.886 10.7087C102.84 10.3667 102.658 10.0557 102.38 9.84159C102.102 9.62746 101.749 9.52694 101.396 9.56129C101.072 9.55544 100.757 9.67138 100.519 9.88504C100.28 10.0987 100.135 10.3937 100.113 10.7087V21.9006V22.2428C100.198 22.4901 100.363 22.7041 100.583 22.8529C100.803 23.0016 101.066 23.0771 101.334 23.0681C101.615 23.0658 101.89 22.9874 102.127 22.8416C102.365 22.6958 102.556 22.4884 102.679 22.2428V22.1422C102.689 22.0754 102.689 22.0076 102.679 21.9409C102.689 21.8674 102.689 21.7929 102.679 21.7194V10.91C102.762 10.8577 102.832 10.7891 102.886 10.7087Z" fill="#231F20"/>
<path d="M122.089 11.2525H121.013C121.013 11.1116 121.013 10.9707 121.013 10.8499C121.035 10.6558 121.035 10.4602 121.013 10.2661H122.089C122.265 10.2661 122.433 10.1983 122.558 10.0775C122.682 9.95666 122.752 9.79282 122.752 9.62198C122.752 9.45115 122.682 9.28731 122.558 9.16651C122.433 9.04571 122.265 8.97784 122.089 8.97784H120.227C119.751 8.535 119.11 8.59538 118.385 8.59538H117.951C117.5 8.56812 117.05 8.65154 116.641 8.83798C116.233 9.02442 115.879 9.30787 115.612 9.66224C115.402 9.55486 115.167 9.49955 114.93 9.50121H107.873C107.34 9.6639 106.874 9.98778 106.543 10.4258C106.211 10.8638 106.032 11.3931 106.032 11.9369V15.6809C106.089 16.2595 106.377 16.7934 106.833 17.1692C107.289 17.5451 107.877 17.7333 108.473 17.6939H113.626C113.852 17.8434 114.037 18.0444 114.165 18.2795C114.293 18.5146 114.36 18.7765 114.36 19.0425C114.36 19.3085 114.293 19.5705 114.165 19.8056C114.037 20.0407 113.852 20.2417 113.626 20.3912H107.17C106.786 20.3912 106.417 20.5397 106.145 20.8039C105.874 21.0682 105.721 21.4266 105.721 21.8003C105.721 22.174 105.874 22.5324 106.145 22.7966C106.417 23.0609 106.786 23.2093 107.17 23.2093H113.812H115.488C116.01 22.9473 116.45 22.5525 116.759 22.0669C117.069 21.5812 117.238 21.023 117.247 20.4516V16.8484C117.247 16.8484 116.668 14.8355 115.323 14.8355H109.674C109.674 14.8355 107.604 13.366 109.674 12.2388H114.785C114.949 12.2693 115.117 12.2693 115.281 12.2388C115.418 12.2179 115.546 12.1624 115.654 12.0778C115.922 12.4165 116.272 12.6856 116.673 12.8612C117.073 13.0367 117.512 13.1134 117.951 13.0842H118.427C118.793 13.1548 119.171 13.1405 119.531 13.0426C119.89 12.9447 120.221 12.7659 120.496 12.5206H122.089C122.185 12.5372 122.283 12.5332 122.376 12.509C122.47 12.4848 122.557 12.4409 122.631 12.3805C122.705 12.32 122.765 12.2445 122.806 12.1591C122.847 12.0738 122.868 11.9807 122.868 11.8865C122.868 11.7923 122.847 11.6993 122.806 11.614C122.765 11.5286 122.705 11.453 122.631 11.3926C122.557 11.3321 122.47 11.2882 122.376 11.264C122.283 11.2398 122.185 11.2359 122.089 11.2525Z" fill="#231F20"/>
<path d="M25.1836 17.8345C25.0683 17.8345 24.9578 17.879 24.8763 17.9583C24.7948 18.0376 24.749 18.1451 24.749 18.2572C24.7541 18.3677 24.8015 18.4724 24.8819 18.5506C24.9623 18.6289 25.07 18.675 25.1836 18.6799H26.9011C27.0164 18.6799 27.1269 18.6354 27.2084 18.5561C27.2899 18.4768 27.3357 18.3693 27.3357 18.2572C27.3357 18.1451 27.2899 18.0376 27.2084 17.9583C27.1269 17.879 27.0164 17.8345 26.9011 17.8345H25.1836Z" fill="#231F20"/>
<path d="M5.48364 17.3916C5.34456 17.3968 5.21297 17.4542 5.11651 17.5518C5.02004 17.6494 4.96621 17.7796 4.96631 17.915V18.6799C4.96631 18.8133 5.02081 18.9413 5.11783 19.0357C5.21485 19.1301 5.34643 19.1831 5.48364 19.1831C5.62281 19.1832 5.75662 19.1308 5.85694 19.037C5.95726 18.9432 6.0163 18.8152 6.02166 18.6799V17.915C6.02166 17.7762 5.96497 17.643 5.86407 17.5449C5.76318 17.4467 5.62633 17.3916 5.48364 17.3916Z" fill="#231F20"/>
<path d="M72.6121 17.9556H69.0942V18.64H72.6121V17.9556Z" fill="#231F20"/>
</g>
<defs>
<clipPath id="clip0_474_3673">
<rect width="122.751" height="36.6757" fill="white"/>
</clipPath>
</defs>
</svg>
