<svg width="74" height="93" viewBox="0 0 74 93" fill="none" xmlns="http://www.w3.org/2000/svg">
<g clip-path="url(#clip0_474_3576)">
<path d="M10.6389 76.8595C10.6277 77.4384 10.4918 78.0084 10.2403 78.532C9.98872 79.0555 9.62717 79.5208 9.17944 79.897C8.73172 80.2733 8.20797 80.5521 7.64269 80.715C7.07742 80.8779 6.48345 80.9213 5.89989 80.8422H3.53038C3.33998 80.8699 3.1457 80.8559 2.9615 80.801C2.77729 80.7461 2.60774 80.6519 2.46501 80.5249C2.32228 80.398 2.20993 80.2416 2.13603 80.0669C2.06213 79.8922 2.02851 79.7036 2.03758 79.5146V72.9233C2.03209 72.7363 2.06835 72.5503 2.14383 72.3785C2.2193 72.2067 2.33216 72.0532 2.47445 71.9289C2.61675 71.8046 2.78503 71.7124 2.96746 71.6589C3.14988 71.6054 3.34203 71.5918 3.53038 71.6191H5.89989C6.48212 71.5364 7.07558 71.5764 7.64087 71.7364C8.20615 71.8965 8.73031 72.173 9.17854 72.5475C9.62677 72.9219 9.9888 73.3859 10.2406 73.9085C10.4924 74.4311 10.6282 75.0003 10.6389 75.5785V76.8595ZM5.09426 73.9947V78.5131H5.97098C6.19164 78.52 6.41133 78.4815 6.61602 78.4003C6.82071 78.319 7.0059 78.1966 7.15976 78.041C7.31362 77.8854 7.43277 77.6999 7.50959 77.4965C7.58642 77.293 7.61924 77.0761 7.60595 76.8595V75.5319C7.61271 75.3201 7.57485 75.1093 7.49477 74.9126C7.41468 74.7159 7.29409 74.5376 7.14056 74.3888C6.98704 74.2401 6.80389 74.1242 6.60262 74.0484C6.40135 73.9725 6.1863 73.9384 5.97098 73.9481L5.09426 73.9947Z" fill="#231F20"/>
<path d="M12.0607 77.3022V72.8071C12.0562 72.6214 12.0922 72.437 12.1661 72.2661C12.2399 72.0952 12.3501 71.9418 12.4892 71.8161C12.6283 71.6904 12.7931 71.5954 12.9725 71.5373C13.152 71.4793 13.342 71.4596 13.5298 71.4795C13.7195 71.456 13.9121 71.473 14.0944 71.5294C14.2768 71.5858 14.4446 71.6803 14.5864 71.8063C14.7281 71.9324 14.8405 72.0871 14.9158 72.2598C14.9911 72.4326 15.0275 72.6192 15.0226 72.8071V77.3022C15.0226 77.6543 15.1649 77.992 15.4182 78.241C15.6715 78.4899 16.015 78.6298 16.3732 78.6298C16.7314 78.6298 17.075 78.4899 17.3283 78.241C17.5816 77.992 17.7238 77.6543 17.7238 77.3022V72.8071C17.7189 72.6192 17.7554 72.4326 17.8307 72.2598C17.9059 72.0871 18.0183 71.9324 18.1601 71.8063C18.3018 71.6803 18.4697 71.5858 18.652 71.5294C18.8344 71.473 19.027 71.456 19.2166 71.4795C19.4045 71.4596 19.5945 71.4793 19.7739 71.5373C19.9534 71.5954 20.1182 71.6904 20.2573 71.8161C20.3963 71.9418 20.5065 72.0952 20.5804 72.2661C20.6543 72.437 20.6902 72.6214 20.6857 72.8071V77.3022C20.6958 77.845 20.5881 78.3837 20.3697 78.8824C20.1512 79.381 19.8272 79.8282 19.4191 80.1941C19.011 80.5599 18.5283 80.8361 18.0031 81.0041C17.4778 81.1721 16.9222 81.2282 16.3732 81.1685C15.8242 81.2282 15.2686 81.1721 14.7434 81.0041C14.2182 80.8361 13.7354 80.5599 13.3273 80.1941C12.9193 79.8282 12.5952 79.381 12.3768 78.8824C12.1584 78.3837 12.0506 77.845 12.0607 77.3022Z" fill="#231F20"/>
<path d="M22.1074 75.3225C22.1145 74.7611 22.2402 74.2074 22.4765 73.6963C22.7127 73.1853 23.0545 72.728 23.48 72.3536C23.9054 71.9791 24.4054 71.6957 24.9483 71.5211C25.4911 71.3466 26.0648 71.2848 26.6332 71.3397C29.0027 71.3397 30.3533 72.6673 30.3533 73.6688C30.3533 74.6703 29.8794 74.8566 28.8605 74.8566C27.8417 74.8566 27.6521 73.925 26.6332 73.925C26.4345 73.915 26.2358 73.9461 26.0501 74.0162C25.8643 74.0864 25.6956 74.1942 25.5549 74.3325C25.4142 74.4708 25.3046 74.6366 25.2332 74.8191C25.1618 75.0017 25.1302 75.197 25.1404 75.3923V77.2556C25.1336 77.449 25.1677 77.6417 25.2406 77.8215C25.3136 78.0013 25.4237 78.1642 25.564 78.3C25.7044 78.4357 25.8719 78.5414 26.0559 78.6101C26.24 78.6789 26.4365 78.7094 26.6332 78.6996C27.7706 78.6996 27.9127 77.7913 29.0027 77.7913C30.0927 77.7913 30.4718 78.2338 30.4718 78.9791C30.4718 79.7244 29.1212 81.3082 26.6332 81.3082C26.0648 81.3631 25.4911 81.3013 24.9483 81.1268C24.4054 80.9522 23.9054 80.6688 23.48 80.2943C23.0545 79.9199 22.7127 79.4627 22.4765 78.9516C22.2402 78.4405 22.1145 77.8868 22.1074 77.3255V75.3225Z" fill="#231F20"/>
<path d="M34.4526 78.1637V79.7009C34.4611 79.8876 34.4279 80.0739 34.3553 80.2467C34.2828 80.4195 34.1727 80.5746 34.0327 80.7011C33.8927 80.8276 33.7262 80.9224 33.545 80.979C33.3637 81.0355 33.1721 81.0524 32.9835 81.0284C32.7938 81.052 32.6012 81.035 32.4188 80.9786C32.2365 80.9222 32.0687 80.8277 31.9269 80.7016C31.7851 80.5755 31.6728 80.4209 31.5975 80.2481C31.5222 80.0754 31.4858 79.8887 31.4907 79.7009V72.7136C31.4858 72.5258 31.5222 72.3391 31.5975 72.1664C31.6728 71.9937 31.7851 71.839 31.9269 71.7129C32.0687 71.5868 32.2365 71.4923 32.4188 71.4359C32.6012 71.3795 32.7938 71.3625 32.9835 71.3861C33.1721 71.3621 33.3637 71.379 33.545 71.4355C33.7262 71.4921 33.8927 71.5869 34.0327 71.7135C34.1727 71.84 34.2828 71.995 34.3553 72.1678C34.4279 72.3406 34.4611 72.5269 34.4526 72.7136V74.5769L37.4382 71.782C37.7326 71.5267 38.1118 71.3859 38.5044 71.3861C38.6845 71.3759 38.8647 71.4033 39.0333 71.4665C39.2018 71.5296 39.3549 71.627 39.4824 71.7524C39.6099 71.8777 39.7091 72.0282 39.7733 72.1939C39.8375 72.3595 39.8654 72.5366 39.8551 72.7136C39.8457 72.9165 39.7922 73.115 39.6982 73.2958C39.6042 73.4766 39.4718 73.6355 39.3101 73.7617L37.4382 75.5551L39.8077 78.4199C40.1006 78.7568 40.2897 79.1689 40.3527 79.6077C40.3571 79.7934 40.3212 79.9778 40.2473 80.1487C40.1734 80.3196 40.0633 80.473 39.9242 80.5987C39.7851 80.7244 39.6203 80.8194 39.4409 80.8775C39.2614 80.9355 39.0714 80.9552 38.8836 80.9353C38.6332 80.9168 38.3891 80.8497 38.1654 80.7377C37.9417 80.6258 37.7428 80.4713 37.5803 80.2831L35.2108 77.4184L34.4526 78.1637Z" fill="#231F20"/>
<path d="M51.1342 78.2335C51.4924 78.2335 51.836 78.3734 52.0893 78.6223C52.3426 78.8713 52.4849 79.209 52.4849 79.5611C52.4849 79.9132 52.3426 80.2508 52.0893 80.4998C51.836 80.7488 51.4924 80.8886 51.1342 80.8886H46.3952C46.2066 80.9126 46.015 80.8957 45.8337 80.8392C45.6525 80.7826 45.486 80.6878 45.346 80.5613C45.206 80.4347 45.0959 80.2797 45.0233 80.1069C44.9508 79.9341 44.9176 79.7478 44.9261 79.5611V72.8067C44.9718 72.4524 45.1474 72.1266 45.4201 71.8904C45.6927 71.6542 46.0436 71.5239 46.4071 71.5239C46.7705 71.5239 47.1214 71.6542 47.394 71.8904C47.6667 72.1266 47.8423 72.4524 47.888 72.8067V78.2335H51.1342Z" fill="#231F20"/>
<path d="M56.1812 79.701C56.0817 80.057 55.8742 80.3748 55.5863 80.6119C55.2985 80.8491 54.9439 80.9945 54.5699 81.0286C54.3825 81.0412 54.1943 81.0165 54.0168 80.9561C53.8392 80.8956 53.6759 80.8006 53.5365 80.6766C53.3972 80.5527 53.2847 80.4024 53.2057 80.2348C53.1268 80.0672 53.0831 79.8856 53.0771 79.701C53.1375 79.2905 53.2572 78.8905 53.4326 78.5132L55.5888 72.9234C55.7717 72.4513 56.0962 72.0449 56.5194 71.7581C56.9425 71.4714 57.4444 71.3179 57.9584 71.3179C58.4723 71.3179 58.9742 71.4714 59.3973 71.7581C59.8205 72.0449 60.145 72.4513 60.3279 72.9234L62.4841 78.5132C62.6477 78.8929 62.7593 79.2924 62.8159 79.701C62.8131 79.8846 62.7723 80.0656 62.6959 80.2332C62.6196 80.4007 62.5093 80.5512 62.3718 80.6754C62.2343 80.7997 62.0725 80.895 61.8963 80.9558C61.7201 81.0165 61.5331 81.0413 61.3468 81.0286C60.9728 80.9945 60.6182 80.8491 60.3304 80.6119C60.0425 80.3748 59.835 80.057 59.7355 79.701L59.3801 78.9091H56.5366L56.1812 79.701ZM58.764 76.5102L58.0057 74.5305H57.8873L57.129 76.5102H58.764Z" fill="#231F20"/>
<path d="M67.8628 71.6191C70.7062 71.6191 71.7725 72.6672 71.7725 74.0646C71.7484 74.4768 71.5939 74.8713 71.3304 75.1928C71.067 75.5144 70.7079 75.747 70.3034 75.858V75.9977C70.3034 75.9977 72.3175 76.3937 72.3175 78.1638C72.3175 79.9339 71.109 80.8888 68.2656 80.8888H65.1615C64.9729 80.9128 64.7813 80.8959 64.6 80.8393C64.4188 80.7828 64.2523 80.6879 64.1123 80.5614C63.9723 80.4349 63.8622 80.2798 63.7897 80.107C63.7171 79.9343 63.6839 79.748 63.6924 79.5612V72.9234C63.6833 72.7374 63.7162 72.5518 63.7889 72.3799C63.8616 72.208 63.9723 72.0541 64.1128 71.9293C64.2533 71.8046 64.4203 71.712 64.6017 71.6583C64.783 71.6047 64.9742 71.5913 65.1615 71.6191H67.8628ZM66.6543 75.0661H67.8628C68.4077 75.0661 68.6684 74.7866 68.6684 74.4606C68.6684 74.1345 68.4077 73.855 67.8628 73.855H66.6543V75.0661ZM66.6543 78.6296H68.2656C68.8817 78.6296 69.2134 78.3035 69.2134 77.9076C69.2134 77.5116 68.8817 77.1856 68.2656 77.1856H66.6543V78.6296Z" fill="#231F20"/>
<path d="M68.4318 17.8639C67.6735 16.4665 64.9486 18.0037 63.3373 17.8639C62.3658 17.7626 61.4107 17.5436 60.4939 17.2118C60.4939 16.9789 60.4939 16.746 60.4939 16.5131C60.4991 13.9839 59.8607 11.4937 58.6366 9.26904C57.4125 7.04441 55.6417 5.1561 53.4855 3.77604C51.3293 2.39597 48.8561 1.56801 46.2911 1.36754C43.7261 1.16706 41.1509 1.60044 38.7998 2.62822C36.4488 3.656 34.3967 5.24552 32.8303 7.25205C31.264 9.25858 30.2331 11.6184 29.8317 14.1165C29.4303 16.6147 29.671 19.1719 30.5319 21.5553C31.3928 23.9387 32.8466 26.0725 34.7609 27.7625C31.9858 28.6701 29.4687 30.2104 27.4154 32.2576C26.1892 33.2336 25.0333 34.292 23.9559 35.4252C22.755 36.7137 21.3937 37.8484 19.9041 38.8023C18.9 39.0699 17.8485 39.1176 16.8237 38.9421C12.4164 37.8008 11.2079 32.1878 9.85732 33.1194C8.50669 34.051 10.8999 38.453 10.8999 38.453C10.8999 38.453 11.6581 39.6408 12.7481 41.2711H11.6108C6.87173 40.9917 4.90503 36.1938 3.64918 37.4282C2.39334 38.6626 6.0187 42.785 6.0187 42.785C6.0187 42.785 22.1788 62.885 38.3626 63.0247C39.0735 63.0247 39.808 63.0247 40.5426 63.0247C44.4357 63.0338 48.2315 61.8295 51.3847 59.5851C54.5378 57.3406 56.886 54.1715 58.0918 50.533C59.2977 46.8945 59.299 42.9739 58.0958 39.3346C56.8925 35.6952 54.5465 32.5245 51.3949 30.2779C54.539 28.88 57.1225 26.4963 58.7404 23.5003C60.3096 23.3316 61.8528 22.9797 63.3373 22.4522C66.3466 21.4507 69.3085 19.4477 68.4318 17.8639Z" fill="#231F20"/>
<path d="M5.7105 87.3171V88.0624C5.40966 87.7786 5.01349 87.6129 4.59682 87.5966C4.39193 87.5939 4.18879 87.634 4.00087 87.7143C3.81295 87.7946 3.64455 87.9133 3.50685 88.0624C3.35991 88.2051 3.24419 88.3759 3.16677 88.5641C3.08935 88.7523 3.05188 88.9541 3.05664 89.1571C3.04745 89.3606 3.08289 89.5637 3.16057 89.7526C3.23825 89.9415 3.35634 90.1117 3.50685 90.2518C3.64574 90.3979 3.81491 90.513 4.00295 90.5894C4.19099 90.6657 4.39351 90.7015 4.59682 90.6943C4.78451 90.7313 4.97782 90.7313 5.16551 90.6943L5.42615 90.5546L5.7105 90.3216V91.0669C5.36733 91.2697 4.9735 91.3746 4.57313 91.3697C4.29224 91.3719 4.01367 91.3196 3.75342 91.2157C3.49317 91.1117 3.25638 90.9583 3.05664 90.7642C2.83081 90.566 2.65217 90.3213 2.53341 90.0476C2.41464 89.7739 2.35867 89.4778 2.36948 89.1804C2.36544 88.6637 2.56009 88.1646 2.91447 87.7829C3.11061 87.5364 3.36283 87.3384 3.65087 87.2049C3.93892 87.0714 4.25478 87.0062 4.57313 87.0144C4.97303 87.0131 5.3659 87.1177 5.7105 87.3171Z" fill="#231F20"/>
<path d="M7.55873 89.1339C7.55549 88.8556 7.61063 88.5796 7.7207 88.3232C7.83077 88.0667 7.99342 87.8353 8.1985 87.6433C8.39941 87.4442 8.63977 87.2877 8.90469 87.1835C9.16961 87.0794 9.45347 87.0297 9.73868 87.0378C10.0241 87.0283 10.3083 87.0773 10.5735 87.1816C10.8386 87.2858 11.0788 87.443 11.2789 87.6433C11.6869 88.0451 11.9161 88.5895 11.9161 89.1572C11.9161 89.7249 11.6869 90.2694 11.2789 90.6711C10.8657 91.0361 10.3298 91.238 9.77423 91.238C9.21869 91.238 8.68278 91.0361 8.26958 90.6711C8.04799 90.4783 7.87017 90.2417 7.7477 89.9769C7.62523 89.7121 7.56084 89.4248 7.55873 89.1339ZM8.1985 89.1339C8.19219 89.3347 8.22658 89.5347 8.29967 89.7222C8.37276 89.9098 8.48309 90.0811 8.62422 90.2264C8.76536 90.3716 8.93449 90.4878 9.12175 90.5681C9.30902 90.6485 9.51068 90.6914 9.71499 90.6944C9.92168 90.7005 10.1274 90.6643 10.3191 90.5881C10.5108 90.5119 10.6843 90.3974 10.8287 90.2519C10.9756 90.1092 11.0913 89.9385 11.1687 89.7502C11.2462 89.562 11.2836 89.3602 11.2789 89.1572C11.2881 88.9537 11.2526 88.7506 11.1749 88.5617C11.0973 88.3729 10.9792 88.2026 10.8287 88.0626C10.6919 87.9122 10.5237 87.7927 10.3356 87.7123C10.1474 87.6319 9.9438 87.5925 9.73868 87.5967C9.53379 87.594 9.33065 87.6341 9.14273 87.7144C8.95481 87.7947 8.78641 87.9134 8.64871 88.0626C8.50005 88.1991 8.38292 88.3654 8.30526 88.5502C8.22759 88.735 8.19118 88.9341 8.1985 89.1339Z" fill="#231F20"/>
<path d="M13.8379 91.2066L14.7146 86.8047L16.16 89.9722L17.6528 86.8047L18.4348 91.2066H17.795L17.3922 88.7378L16.1363 91.393L14.9516 88.7378L14.5014 91.2066H13.8379Z" fill="#231F20"/>
<path d="M21.3259 89.5298V91.2068H20.5913V87.1076H21.3259C21.5935 87.0768 21.8639 87.0768 22.1315 87.1076C22.3108 87.1601 22.4738 87.2563 22.6054 87.3871C22.7241 87.4972 22.8173 87.6312 22.8786 87.7799C22.9399 87.9286 22.968 88.0885 22.9608 88.2488C22.972 88.4152 22.9436 88.5818 22.8778 88.7355C22.812 88.8891 22.7106 89.0255 22.5817 89.1339C22.2887 89.3684 21.9161 89.4849 21.5391 89.46L21.3259 89.5298ZM21.3259 88.9709H21.5628C22.1315 88.9709 22.4158 88.7379 22.4158 88.3187C22.4158 87.8995 22.1315 87.6666 21.5154 87.6666H21.3259V88.9709Z" fill="#231F20"/>
<path d="M27.0124 90.2049H25.2116L24.7614 91.2064H24.0742L26.0646 86.8511L28.055 91.2064H27.3678L27.0124 90.2049ZM26.7518 89.6227L26.1357 88.2252L25.4959 89.6227H26.7518Z" fill="#231F20"/>
<path d="M29.9268 91.2068V86.8281L32.9834 89.9491V87.1076H33.5995V91.463L30.5665 88.342V91.2068H29.9268Z" fill="#231F20"/>
<path d="M36.7276 89.4365L35.377 87.1074H36.0878L37.0593 88.7378L38.0071 87.1074H38.7417L37.3673 89.4365V91.2066H36.7276V89.4365Z" fill="#231F20"/>
<path d="M44.1202 87.1074V90.6243H45.3287V91.2066H43.4805V87.1074H44.1202Z" fill="#231F20"/>
<path d="M47.8407 87.1074V91.2066H47.2246V87.1074H47.8407Z" fill="#231F20"/>
<path d="M49.9731 91.2066L50.8499 86.8047L52.2953 89.9722L53.7644 86.8047L54.4989 91.2066H53.8592L53.4563 88.7378L52.2005 91.393L51.0157 88.7378L50.5655 91.2066H49.9731Z" fill="#231F20"/>
<path d="M57.3658 87.1074V91.2066H56.7261V87.1074H57.3658Z" fill="#231F20"/>
<path d="M60.8017 87.6897V91.2066H60.1619V87.6897H59.2378V87.1074H61.7969V87.6897H60.8017Z" fill="#231F20"/>
<path d="M65.8964 87.6897H64.214V88.6679H65.849V89.2502H64.214V90.6243H65.8964V91.2066H63.5269V87.1074H65.8964V87.6897Z" fill="#231F20"/>
<path d="M68.0049 91.2064V87.1073H68.8816C69.2171 87.1029 69.5517 87.142 69.8768 87.2237C70.1473 87.2991 70.3927 87.4438 70.5877 87.6429C70.8006 87.8338 70.9683 88.0683 71.0789 88.3299C71.1894 88.5915 71.2401 88.8738 71.2274 89.1568C71.2391 89.4453 71.1856 89.7327 71.0709 89.9985C70.9562 90.2643 70.7831 90.5018 70.564 90.694C70.3545 90.8689 70.1133 91.0032 69.8531 91.09C69.523 91.1359 69.188 91.1359 68.8579 91.09L68.0049 91.2064ZM68.621 90.6242H68.9053C69.1405 90.6646 69.381 90.6646 69.6162 90.6242C69.806 90.5635 69.9828 90.4688 70.1374 90.3447C70.4242 90.0499 70.5843 89.6578 70.5843 89.25C70.5843 88.8422 70.4242 88.4501 70.1374 88.1553C69.7898 87.8818 69.3493 87.7486 68.9053 87.7827H68.7157L68.621 90.6242Z" fill="#231F20"/>
</g>
<defs>
<clipPath id="clip0_474_3576">
<rect width="74" height="93" fill="white"/>
</clipPath>
</defs>
</svg>
