<svg width="62" height="89" viewBox="0 0 62 89" fill="none" xmlns="http://www.w3.org/2000/svg">
<g clip-path="url(#clip0_474_3769)">
<path d="M35.3667 17.4232C35.992 17.8274 36.5131 18.378 36.8863 19.0291C37.2595 19.6802 37.4741 20.4128 37.512 21.1656C37.512 22.5587 36.5517 23.12 35.3667 22.4131C34.7611 21.9917 34.2609 21.4318 33.9061 20.7783C33.5513 20.1249 33.3518 19.3959 33.3236 18.6499C33.2623 17.2985 34.2226 16.7371 35.3667 17.4232Z" fill="#231F20"/>
<path d="M16.3454 43.3912C15.4271 43.41 14.5194 43.188 13.7098 42.7467L13.199 42.4556C12.4284 42.1055 11.7631 41.5533 11.2713 40.8555C10.7795 40.1577 10.4787 39.3394 10.3999 38.4844C10.4817 37.593 10.793 36.7393 11.3023 36.0093C11.8117 35.2792 12.5011 34.6987 13.3012 34.3262L24.1911 27.777C24.4354 27.6289 24.6168 27.3936 24.6999 27.1168C24.783 26.8401 24.7618 26.5417 24.6405 26.28L23.619 24.2009L21.6984 25.781C21.3448 26.0509 20.9146 26.1968 20.4725 26.1968C20.0305 26.1968 19.6003 26.0509 19.2467 25.781C18.5395 25.3458 17.9497 24.7385 17.5304 24.0137C16.3454 22.101 16.3454 20.0842 17.4283 19.2318L19.9005 17.2566C19.9437 17.2042 19.9674 17.1379 19.9674 17.0695C19.9674 17.001 19.9437 16.9348 19.9005 16.8824L17.2853 11.5182C16.9897 11.0016 16.8009 10.429 16.7307 9.83549C16.6604 9.24199 16.7101 8.64014 16.8766 8.06687C16.9573 7.82317 17.0911 7.6012 17.268 7.41757C17.4449 7.23394 17.6604 7.09342 17.8982 7.00652C18.2358 6.88588 18.5965 6.84749 18.9514 6.89443C19.3062 6.94137 19.6453 7.07234 19.9413 7.27681C20.8159 7.84277 21.5223 8.64065 21.9845 9.58463L24.0276 13.7429L25.9277 12.2043C26.2776 11.9441 26.6998 11.8039 27.1332 11.8039C27.5665 11.8039 27.9887 11.9441 28.3386 12.2043C29.0399 12.6292 29.6289 13.2215 30.0548 13.93C31.2194 15.7596 31.3012 17.8803 30.2387 18.7536L27.6644 20.8327C27.6412 20.8622 27.6285 20.8989 27.6285 20.9366C27.6285 20.9744 27.6412 21.0111 27.6644 21.0406L30.4022 26.4671C30.7589 27.0505 30.968 27.7148 31.0108 28.4005C31.0536 29.0862 30.9287 29.772 30.6474 30.3967C30.4198 30.8697 30.0564 31.2612 29.6054 31.5194L28.0934 32.4134L29.4828 33.2035C29.8095 33.3606 30.0895 33.6031 30.2941 33.9063C30.4986 34.2094 30.6206 34.5624 30.6474 34.9291C30.623 35.2859 30.5087 35.6302 30.3155 35.9289C30.1222 36.2275 29.8565 36.4704 29.5441 36.634C28.817 37.0135 28.0116 37.2114 27.1945 37.2114C26.3773 37.2114 25.5719 37.0135 24.8449 36.634L22.9243 35.5321L18.7359 38.0478C18.3681 38.2557 18.2864 38.4429 18.2864 38.4844C18.3574 38.5659 18.44 38.636 18.5316 38.6924L19.0015 38.9419C19.3603 39.1179 19.6666 39.3877 19.8892 39.7238C20.1118 40.0599 20.2426 40.4502 20.2682 40.8546C20.2519 41.2482 20.1312 41.6299 19.919 41.9594C19.7068 42.2888 19.4109 42.5536 19.0628 42.7259C18.2281 43.1813 17.2923 43.4105 16.3454 43.3912ZM23.7007 23.0781H23.905C24.0489 23.1067 24.1845 23.1683 24.3014 23.2584C24.4183 23.3485 24.5133 23.4647 24.5792 23.5979L25.6417 25.677C25.8926 26.1949 25.9436 26.7896 25.7848 27.3438C25.6259 27.8981 25.2687 28.3716 24.7836 28.671L13.9141 35.345C13.2794 35.6313 12.7269 36.0774 12.3087 36.6412C11.8904 37.2051 11.6203 37.868 11.5236 38.5676C11.6111 39.2246 11.8641 39.8475 12.2578 40.3757C12.6516 40.9039 13.1729 41.3196 13.7711 41.5823L14.2819 41.8734C14.9351 42.2064 15.6557 42.3797 16.3863 42.3797C17.1169 42.3797 17.8375 42.2064 18.4907 41.8734C18.6725 41.7923 18.8314 41.6661 18.9528 41.5062C19.0742 41.3464 19.1541 41.1581 19.1854 40.9586C19.1854 40.6259 18.9198 40.2933 18.4498 40.023L17.9799 39.7527C17.7565 39.6519 17.5654 39.4893 17.4281 39.2835C17.2909 39.0777 17.2131 38.8369 17.2035 38.5884C17.2317 38.2916 17.3349 38.0072 17.5032 37.7631C17.6715 37.5189 17.8991 37.3234 18.1638 37.1954L22.9039 34.347L23.1899 34.5133L25.3761 35.7816C25.9358 36.0606 26.5508 36.2057 27.174 36.2057C27.7973 36.2057 28.4123 36.0606 28.972 35.7816C29.3397 35.5529 29.5441 35.2826 29.5441 35.0539C29.5441 34.8252 29.3193 34.5133 28.9311 34.2846L27.317 33.2658C27.1724 33.1885 27.0517 33.0717 26.9687 32.9285C26.8857 32.7852 26.8436 32.6212 26.8471 32.455C26.8444 32.2885 26.8845 32.1243 26.9633 31.9784C27.0422 31.8326 27.157 31.7102 27.2966 31.6233L29.0537 30.563C29.3093 30.4241 29.5216 30.2153 29.6666 29.96C29.875 29.4936 29.9672 28.9822 29.9351 28.4708C29.9031 27.9595 29.7477 27.4642 29.4828 27.0285L26.745 21.602C26.6167 21.3378 26.5812 21.037 26.6444 20.7495C26.7076 20.462 26.8657 20.2052 27.0923 20.0218L29.6462 17.9427C30.1774 17.5061 30.157 16.0091 29.2376 14.5953C28.9065 14.0385 28.4517 13.5684 27.9096 13.2231C27.6644 13.0776 27.0719 12.7865 26.7041 13.0984L24.804 14.6369C24.664 14.7401 24.505 14.8135 24.3365 14.8528C24.168 14.8921 23.9935 14.8965 23.8233 14.8656C23.6574 14.8247 23.5021 14.7478 23.3681 14.6401C23.2341 14.5325 23.1245 14.3966 23.0469 14.2419L21.0038 10.0836C20.6193 9.34628 20.0387 8.73387 19.3284 8.31637C19.1983 8.20818 19.0477 8.12837 18.8861 8.08187C18.7244 8.03537 18.555 8.02319 18.3886 8.04608C18.2937 8.08491 18.2082 8.14398 18.1377 8.2193C18.0672 8.29461 18.0134 8.38443 17.9799 8.4827C17.7852 9.34083 17.9243 10.2423 18.3681 10.9984L21.0651 16.3834C21.2084 16.6753 21.248 17.0088 21.1773 17.3271C21.1065 17.6454 20.9297 17.9291 20.6769 18.1298L18.2047 20.105C17.6735 20.5208 17.6735 21.9138 18.6133 23.4732C18.9418 24.0376 19.3969 24.515 19.9413 24.8662C20.1865 25.0117 20.779 25.282 21.1468 24.8662L23.1899 23.2029C23.3469 23.1176 23.5228 23.0747 23.7007 23.0781Z" fill="#231F20"/>
<path d="M35.2441 24.2427C35.7005 24.537 36.0705 24.9511 36.315 25.4414C36.5595 25.9317 36.6695 26.4801 36.6334 27.0287L36.1022 29.3157C35.9592 30.0642 35.3054 30.1266 34.6924 29.7524C34.3614 29.5524 34.0758 29.2831 33.8548 28.9623C33.6359 28.6689 33.4778 28.3334 33.39 27.976C33.3022 27.6186 33.2865 27.2469 33.344 26.8832L33.8548 24.5753C33.877 24.4351 33.9341 24.3029 34.0208 24.1915C34.1075 24.08 34.2208 23.9931 34.3498 23.9389C34.4789 23.8847 34.6195 23.865 34.7582 23.8818C34.8968 23.8986 35.029 23.9513 35.1419 24.0348L35.2441 24.2427Z" fill="#231F20"/>
<path d="M40.4543 56.49C40.0945 56.4862 39.7421 56.3858 39.4327 56.1989C38.8424 55.8205 38.3492 55.3043 37.9939 54.6933C37.6386 54.0823 37.4315 53.3939 37.3896 52.6852C37.3659 52.3853 37.4217 52.0844 37.551 51.8138C37.6804 51.5432 37.8786 51.3129 38.1251 51.1467C38.3935 51.0137 38.6917 50.9552 38.9895 50.9771C39.2872 50.9991 39.5741 51.1006 39.8209 51.2714C40.4108 51.6453 40.9041 52.1576 41.2596 52.7652C41.615 53.3729 41.8223 54.0584 41.864 54.7643C41.8893 55.0697 41.8323 55.3762 41.6991 55.651C41.5659 55.9258 41.3616 56.1583 41.1081 56.3237C40.9089 56.4382 40.683 56.4957 40.4543 56.49ZM38.8198 51.8536C38.7398 51.8293 38.6546 51.8293 38.5746 51.8536C38.3703 51.9575 38.2681 52.2486 38.2681 52.6228C38.3025 53.1709 38.4604 53.7036 38.7297 54.1795C38.999 54.6554 39.3724 55.0619 39.8209 55.3673C39.9264 55.4724 40.0628 55.5394 40.2093 55.558C40.3558 55.5766 40.5042 55.5458 40.6318 55.4702C40.7594 55.3947 40.8591 55.2786 40.9156 55.1398C40.9721 55.001 40.9823 54.8472 40.9446 54.702C40.9157 54.1625 40.7664 53.6368 40.5079 53.1649C40.2495 52.6929 39.8888 52.2871 39.4531 51.9783C39.2578 51.8769 39.0382 51.8336 38.8198 51.8536Z" fill="#231F20"/>
<path d="M43.9277 59.9204C45.9816 61.1481 47.7295 62.8415 49.0355 64.8687C50.1592 66.5528 50.384 68.5695 49.5054 69.3388C49.2098 69.5616 48.8517 69.6819 48.4838 69.6819C48.116 69.6819 47.7579 69.5616 47.4623 69.3388C46.8477 68.9382 46.3195 68.4148 45.9095 67.8003C45.4206 67.0407 44.7715 66.4014 44.0094 65.9291C42.3136 64.9311 40.8834 65.7419 40.8834 67.7379C40.9428 68.8392 41.2546 69.911 41.7938 70.8677C42.3331 71.8244 43.0848 72.6394 43.9889 73.2476C44.2651 73.4355 44.5762 73.5638 44.903 73.6246C45.2298 73.6854 45.5654 73.6773 45.8891 73.601C46.157 73.5394 46.4345 73.5334 46.7048 73.5834C46.9751 73.6335 47.2327 73.7384 47.4623 73.8921C48.3578 74.4785 49.0674 75.3161 49.5054 76.3039C50.3431 78.1127 50.1388 79.88 49.0151 80.1919C48.1549 80.3997 47.2615 80.422 46.3923 80.2572C45.5231 80.0925 44.6975 79.7445 43.9685 79.2355C41.5756 77.6365 39.588 75.4847 38.1678 72.9555C36.7475 70.4262 35.9348 67.5912 35.796 64.6816C35.653 59.4006 39.3715 57.2383 43.9277 59.9204Z" fill="#231F20"/>
<path d="M40.4134 40.9171C41.7005 41.7072 41.5779 42.9963 40.2295 43.6824C39.4833 44.0485 38.665 44.2369 37.8367 44.2333C37.0083 44.2297 36.1916 44.0342 35.4485 43.6616C34.8729 43.3623 34.2357 43.2062 33.5893 43.2062C32.9429 43.2062 32.3057 43.3623 31.73 43.6616L25.7437 47.1545C25.0115 47.5293 24.2034 47.7245 23.3838 47.7245C22.5643 47.7245 21.7561 47.5293 21.024 47.1545C19.7164 46.3644 19.696 45.0754 21.024 44.3685L31.2397 38.2559C31.9289 37.8964 32.6923 37.709 33.4667 37.709C34.2412 37.709 35.0045 37.8964 35.6937 38.2559C35.9334 38.3692 36.1445 38.5368 36.3109 38.7458C36.4773 38.9548 36.5947 39.1996 36.654 39.4617C37.9783 39.7296 39.249 40.2215 40.4134 40.9171Z" fill="#231F20"/>
<path d="M15.1806 13.3275C15.3441 15.5314 14.1591 15.8848 12.4633 14.8869L4.51548 10.2088C5.19333 11.9264 6.38761 13.3819 7.92751 14.3671C8.61102 14.8093 9.40588 15.0404 10.2158 15.0324C10.574 14.9989 10.9331 15.0866 11.2374 15.2819C12.0374 15.818 12.652 16.5961 12.9945 17.5065C13.5461 18.9827 13.2192 20.251 12.259 20.3549C10.7496 20.4168 9.25831 20.0029 7.9888 19.1698C4.5572 16.9679 1.98007 13.6255 0.694818 9.70983C-0.176919 7.35097 -0.176919 4.75018 0.694818 2.39132C1.67552 0.000328287 4.2703 -0.914486 7.64147 1.08147C9.69704 2.44264 11.4364 4.24336 12.7384 6.35827C14.0404 8.47318 14.8738 10.8514 15.1806 13.3275ZM4.55634 6.2377L10.6857 9.83458C10.2636 8.01665 9.15533 6.4408 7.60061 5.44763C6.12955 4.5744 4.82195 5.07339 4.55634 6.2377Z" fill="#231F20"/>
<path d="M31.0762 54.5355C31.725 54.9661 32.2648 55.5463 32.6517 56.2291C33.0387 56.9119 33.2619 57.678 33.3032 58.465V70.6903C33.3032 72.1249 32.2817 72.7694 31.0762 71.9793C30.3702 71.538 29.792 70.9138 29.4008 70.1705C28.0782 70.1842 26.7798 69.8088 25.6619 69.0894C23.4419 67.6195 21.5946 65.6369 20.2702 63.3029C18.9459 60.9689 18.1821 58.3495 18.041 55.6582C18.041 50.7515 21.4939 48.7347 25.7028 51.2089C27.105 52.0808 28.3491 53.192 29.3804 54.4939C29.6292 54.3126 29.9292 54.2186 30.2351 54.2261C30.5411 54.2336 30.8363 54.3422 31.0762 54.5355ZM25.6415 63.5381C27.2555 64.4945 28.5427 63.746 28.5427 61.854C28.4937 60.8334 28.207 59.8392 27.7061 58.9535C27.2052 58.0678 26.5045 57.316 25.6619 56.7602C24.0478 55.8246 22.7607 56.573 22.7607 58.4443C22.8047 59.4661 23.0893 60.4622 23.5907 61.3487C24.092 62.2351 24.7954 62.986 25.6415 63.5381Z" fill="#231F20"/>
<path d="M54.7355 62.5816C55.4228 63.0394 55.9963 63.6532 56.4111 64.3748C56.8259 65.0963 57.0706 65.9058 57.126 66.7398V69.5051L59.3121 70.7733C59.9126 71.1805 60.4105 71.7258 60.7654 72.3652C61.1204 73.0045 61.3224 73.7199 61.3553 74.4534C61.3553 75.784 60.4154 76.3246 59.3121 75.6385L57.2077 74.391V79.6928C57.1959 80.1754 57.3039 80.6532 57.5217 81.0821C57.7396 81.5109 58.0602 81.8769 58.454 82.1461L58.9035 82.4164C59.5914 82.8718 60.1644 83.4854 60.5761 84.2078C60.9878 84.9301 61.2268 85.741 61.2736 86.5747C61.2736 88.1132 60.1907 88.6538 58.8831 87.9469L58.4336 87.6974C56.6327 86.54 55.1343 84.9556 54.0668 83.0799C52.9993 81.2042 52.3945 79.0931 52.3042 76.9275V63.9954C52.3451 62.3737 53.4279 61.8123 54.7355 62.5816Z" fill="#231F20"/>
<path d="M31.0761 54.5355C31.7272 54.9636 32.2687 55.5433 32.656 56.2266C33.0432 56.9099 33.2651 57.6772 33.3031 58.465V70.6903C33.3031 72.1249 32.2816 72.7694 31.0557 71.9793C30.3596 71.5258 29.7841 70.9045 29.3803 70.1705C28.058 70.1818 26.7603 69.8066 25.6414 69.0894C23.4248 67.6159 21.5801 65.6323 20.2562 63.2991C18.9323 60.9659 18.1664 58.3484 18.0205 55.6582C18.0205 50.7515 21.4938 48.7347 25.7027 51.2089C27.0955 52.0857 28.3321 53.1964 29.3599 54.4939C29.6106 54.3076 29.9146 54.2107 30.2249 54.2182C30.5353 54.2257 30.8345 54.3373 31.0761 54.5355ZM25.6414 63.5381C27.2555 64.4945 28.5426 63.746 28.5426 61.854C28.4986 60.8322 28.214 59.8361 27.7126 58.9496C27.2113 58.0631 26.5079 57.3122 25.6618 56.7602C24.0478 55.8246 22.7606 56.573 22.7606 58.4443C22.8096 59.4649 23.0963 60.4591 23.5972 61.3448C24.0981 62.2304 24.7988 62.9822 25.6414 63.5381Z" fill="#231F20"/>
</g>
<defs>
<clipPath id="clip0_474_3769">
<rect width="61.3757" height="88.3212" fill="white"/>
</clipPath>
</defs>
</svg>
