<svg width="99" height="94" viewBox="0 0 99 94" fill="none" xmlns="http://www.w3.org/2000/svg">
<g clip-path="url(#clip0_474_3532)">
<path d="M49.8638 0L40.708 15.5973H59.0196L49.8638 0Z" fill="#808080"/>
<path d="M40.708 15.5972L31.5757 31.1945H49.8638L40.708 15.5972Z" fill="#808080"/>
<path d="M59.0196 46.792L49.8638 62.4124H68.1754L59.0196 46.792Z" fill="#808080"/>
<path d="M49.8638 31.1948L40.708 46.7922H59.0196L49.8638 31.1948Z" fill="#808080"/>
<path d="M31.5757 0L22.4199 15.5973H40.708L31.5757 0Z" fill="#E6E6E6"/>
<path d="M40.708 15.5973L49.8638 0H31.5757L40.708 15.5973Z" fill="#B3B3B3"/>
<path d="M59.0196 15.5973L68.1754 0H49.8638L59.0196 15.5973Z" fill="#333333"/>
<path d="M68.1753 0L59.0195 15.5973H77.3311L68.1753 0Z" fill="#E6E6E6"/>
<path d="M22.42 15.5972L13.2642 31.1945H31.5758L22.42 15.5972Z" fill="#E6E6E6"/>
<path d="M31.5757 31.1945L40.708 15.5972H22.4199L31.5757 31.1945Z" fill="#B3B3B3"/>
<path d="M49.8638 31.1945L59.0196 15.5972H40.708L49.8638 31.1945Z" fill="#333333"/>
<path d="M59.0196 15.5972L49.8638 31.1945H68.1754L59.0196 15.5972Z" fill="#E6E6E6"/>
<path d="M68.1753 31.1945L77.3311 15.5972H59.0195L68.1753 31.1945Z" fill="#B3B3B3"/>
<path d="M77.3311 15.5972L68.1753 31.1945H86.4634L77.3311 15.5972Z" fill="#E6E6E6"/>
<path d="M68.1753 62.4124L77.3311 46.792H59.0195L68.1753 62.4124Z" fill="#B3B3B3"/>
<path d="M49.8638 62.4124L59.0196 46.792H40.708L49.8638 62.4124Z" fill="#333333"/>
<path d="M40.708 46.792L31.5757 62.4124H49.8638L40.708 46.792Z" fill="#E6E6E6"/>
<path d="M31.5757 62.4124L40.708 46.792H22.4199L31.5757 62.4124Z" fill="#B3B3B3"/>
<path d="M77.3311 46.7922L86.4634 31.1948H68.1753L77.3311 46.7922Z" fill="#B3B3B3"/>
<path d="M68.1753 31.1948L59.0195 46.7922H77.3311L68.1753 31.1948Z" fill="#E6E6E6"/>
<path d="M59.0196 46.7922L68.1754 31.1948H49.8638L59.0196 46.7922Z" fill="#333333"/>
<path d="M40.708 46.7922L49.8638 31.1948H31.5757L40.708 46.7922Z" fill="#333333"/>
<path d="M31.5757 31.1948L22.4199 46.7922H40.708L31.5757 31.1948Z" fill="#E6E6E6"/>
<path d="M22.42 46.7922L31.5758 31.1948H13.2642L22.42 46.7922Z" fill="#B3B3B3"/>
<path d="M7.04292 83.694L3.45103 79.0726L1.83116 80.6901V83.6478H0V73.4575H1.83116V78.5642L6.83163 73.4575H9.17927L4.69528 77.871L9.39056 83.694H7.04292Z" fill="black"/>
<path d="M22.8191 83.6942H20.4715L17.9595 80.1125H15.6118V83.6942H13.8276V73.4577H17.9125C18.4907 73.4112 19.0717 73.4112 19.6498 73.4577C20.2224 73.5632 20.7614 73.8007 21.2227 74.1509C21.5772 74.4259 21.8631 74.7771 22.0584 75.1776C22.2537 75.5781 22.3533 76.0173 22.3496 76.4616C22.3849 77.1739 22.1711 77.8766 21.7439 78.4526C21.3167 79.0287 20.7019 79.4432 20.0019 79.6273L22.8191 83.6942ZM18.0299 78.5644C19.6498 78.5644 20.3776 77.9636 20.3776 76.762C20.3776 75.5604 19.5559 75.1214 18.0299 75.1214H15.6823V78.5644H18.0299Z" fill="black"/>
<path d="M36.5294 79.7658C36.556 80.3254 36.4584 80.8839 36.2436 81.4027C36.0287 81.9214 35.7017 82.3879 35.2852 82.7697C34.3983 83.5514 33.2345 83.9581 32.0454 83.902C30.8487 83.9618 29.6763 83.555 28.7822 82.7697C28.3712 82.3849 28.0494 81.9173 27.8387 81.3989C27.6281 80.8805 27.5335 80.3234 27.5614 79.7658V73.4575H29.3926V79.165C29.3231 79.9951 29.5746 80.8204 30.0969 81.4757C30.3467 81.7335 30.6501 81.9351 30.9865 82.0667C31.3228 82.1983 31.684 82.2568 32.0454 82.2382C32.4119 82.2629 32.779 82.2025 33.1175 82.062C33.4559 81.9216 33.7561 81.7049 33.994 81.4295C34.5141 80.7731 34.7654 79.9486 34.6983 79.1188V73.4575H36.5294V79.7658Z" fill="black"/>
<path d="M50.709 83.7173H49.1361L43.3843 76.2536V83.6017H41.5767V73.4346H43.3139L48.8778 80.5978V73.4577H50.709V83.7173Z" fill="black"/>
<path d="M65.2173 82.4232C63.9562 83.3729 62.415 83.8921 60.8272 83.9021C60.1022 83.9278 59.3796 83.8056 58.7049 83.5431C58.0302 83.2807 57.4179 82.8836 56.9067 82.377C55.9264 81.3418 55.3813 79.9794 55.3813 78.5643C55.3813 77.1492 55.9264 75.7868 56.9067 74.7516C57.4143 74.2468 58.0226 73.8507 58.6933 73.5882C59.3639 73.3258 60.0824 73.2026 60.8037 73.2266C62.2669 73.21 63.6859 73.7194 64.7947 74.6592L63.6679 76.0225C63.2079 75.6487 62.6935 75.3449 62.1419 75.1213C61.7079 74.9935 61.2567 74.9312 60.8037 74.9365C60.3301 74.9211 59.8587 75.0059 59.4213 75.1853C58.9838 75.3647 58.5907 75.6345 58.2683 75.9763C57.6227 76.6859 57.2782 77.6122 57.3057 78.5643C57.2772 79.532 57.6403 80.4712 58.3152 81.1754C58.6271 81.5209 59.0106 81.7966 59.4399 81.9839C59.8691 82.1713 60.3342 82.2659 60.8037 82.2615C61.7289 82.262 62.6314 81.9794 63.3861 81.4527V79.5579H60.6159V77.9173H65.3112L65.2173 82.4232Z" fill="black"/>
<path d="M77.2139 76.2535C76.3285 75.5044 75.2113 75.0727 74.0446 75.0288C73.5693 75.0036 73.0989 75.1336 72.7064 75.3985C72.5745 75.5037 72.4695 75.638 72.4002 75.7906C72.3309 75.9432 72.299 76.1097 72.3073 76.2766C72.3073 76.7619 72.8238 77.1547 73.8568 77.432C74.8346 77.6658 75.7922 77.9749 76.7209 78.3563C77.197 78.5861 77.5961 78.9456 77.8707 79.392C78.1454 79.8385 78.2841 80.3532 78.2704 80.8749C78.2883 81.3263 78.1902 81.7747 77.9849 82.1787C77.7797 82.5827 77.4741 82.929 77.0965 83.1857C76.3217 83.7205 75.3892 83.9885 74.4437 83.9482C73.5975 83.9482 72.7597 83.7833 71.9787 83.4629C71.1511 83.1431 70.4113 82.6366 69.8188 81.9841L71.157 80.7132C71.5778 81.1793 72.0901 81.5567 72.663 81.8227C73.2359 82.0888 73.8576 82.238 74.4907 82.2614C74.9056 82.2824 75.3187 82.1947 75.688 82.0072C75.8885 81.9053 76.0549 81.7487 76.1674 81.5561C76.2798 81.3634 76.3334 81.143 76.3218 80.9212C76.3218 80.2048 75.4767 79.6272 73.7629 79.2343C72.9375 79.0797 72.1441 78.7908 71.4152 78.3794C71.0738 78.1433 70.8024 77.8218 70.6291 77.4482C70.4558 77.0745 70.3868 76.6621 70.4292 76.2535C70.4065 75.804 70.5001 75.3561 70.7013 74.952C70.9025 74.5478 71.2047 74.2005 71.5796 73.9428C72.341 73.3967 73.2676 73.1198 74.2089 73.1571C75.7454 73.1401 77.2339 73.6834 78.3877 74.6822L77.2139 76.2535Z" fill="black"/>
<path d="M92.0039 83.694H89.6563L87.0269 80.1123H84.6793V83.694H82.8481V73.4575H87.0974C87.6676 73.41 88.2409 73.41 88.8112 73.4575C89.3923 73.5586 89.9399 73.7964 90.4075 74.1507C90.762 74.4257 91.0479 74.7769 91.2432 75.1774C91.4385 75.578 91.5381 76.0172 91.5344 76.4614C91.5638 77.1894 91.3333 77.9045 90.8831 78.4827C90.4328 79.0609 89.7912 79.4658 89.0694 79.6271L92.0039 83.694ZM87.3087 78.5411C88.9285 78.5411 89.6563 77.9403 89.6563 76.7387C89.6563 75.5371 88.8581 75.0981 87.3087 75.0981H84.961V78.5642L87.3087 78.5411Z" fill="black"/>
<path d="M98.8356 83.694H96.9575V73.4575H98.8356V83.694Z" fill="black"/>
<path d="M1.45554 91.3426V93.8613H0V87.2988H5.0709V88.6159H1.45554V90.1179H4.48399V91.435L1.45554 91.3426Z" fill="black"/>
<path d="M11.4565 93.8613V87.2988H12.9356V93.8613H11.4565Z" fill="black"/>
<path d="M24.3451 93.8845L21.1289 89.6097V93.8614H19.6733V87.2759H21.1289L24.2512 91.4121V87.299H25.6833V93.8845H24.3451Z" fill="black"/>
<path d="M36.9282 93.8845L33.6884 89.6097V93.8614H32.2329V87.2759H33.5945L36.7169 91.4121V87.299H38.149V93.8845H36.9282Z" fill="black"/>
<path d="M48.0563 93.9999C47.3746 93.9772 46.7148 93.7575 46.159 93.3682C45.6033 92.9789 45.1763 92.4372 44.9312 91.8107C44.6861 91.1841 44.6339 90.5004 44.7809 89.8448C44.9279 89.1892 45.2678 88.5907 45.758 88.1239C46.2483 87.6571 46.8673 87.3427 47.5379 87.2199C48.2085 87.097 48.901 87.1711 49.5291 87.433C50.1571 87.6949 50.693 88.133 51.0698 88.6926C51.4467 89.2522 51.6478 89.9086 51.6482 90.58C51.6552 91.0409 51.5661 91.4982 51.3866 91.9239C51.207 92.3496 50.9407 92.7345 50.6041 93.055C50.2675 93.3754 49.8678 93.6246 49.4296 93.7871C48.9915 93.9496 48.5241 94.022 48.0563 93.9999ZM50.0518 90.58C50.0824 90.3026 50.0532 90.022 49.9662 89.7564C49.8793 89.4909 49.7365 89.2463 49.5471 89.0387C49.3578 88.831 49.1261 88.665 48.8673 88.5513C48.6084 88.4376 48.3281 88.3788 48.0446 88.3788C47.7611 88.3788 47.4808 88.4376 47.222 88.5513C46.9631 88.665 46.7314 88.831 46.5421 89.0387C46.3527 89.2463 46.2099 89.4909 46.123 89.7564C46.036 90.022 46.0069 90.3026 46.0374 90.58C46.0069 90.8574 46.036 91.138 46.123 91.4036C46.2099 91.6692 46.3527 91.9137 46.5421 92.1214C46.7314 92.329 46.9631 92.4951 47.222 92.6088C47.4808 92.7225 47.7611 92.7812 48.0446 92.7812C48.3281 92.7812 48.6084 92.7225 48.8673 92.6088C49.1261 92.4951 49.3578 92.329 49.5471 92.1214C49.7365 91.9137 49.8793 91.6692 49.9662 91.4036C50.0532 91.138 50.0824 90.8574 50.0518 90.58Z" fill="black"/>
<path d="M60.0997 93.8844L57.3765 87.2988H59.0198L60.7571 91.9203L62.4943 87.2988H64.0907L61.3675 93.8844H60.0997Z" fill="black"/>
<path d="M75.2417 93.8614L74.5609 92.2208H71.8846L71.2272 93.8614H69.6543L72.5419 87.2065H73.9035L76.7676 93.8614H75.2417ZM73.2227 88.9627L72.401 90.973H74.0444L73.2227 88.9627Z" fill="black"/>
<path d="M84.3506 93.8613V88.6159H82.3081V87.2988H87.8251V88.6159H85.7826V93.8613H84.3506Z" fill="black"/>
<path d="M93.9058 93.8613V87.2988H98.9297V88.6159H95.3613V89.8868H98.601V91.2039H95.3613V92.5442H99.0001V93.8613H93.9058Z" fill="black"/>
</g>
<defs>
<clipPath id="clip0_474_3532">
<rect width="99" height="94" fill="white"/>
</clipPath>
</defs>
</svg>
