<svg width="90" height="26" viewBox="0 0 90 26" fill="none" xmlns="http://www.w3.org/2000/svg">
<g clip-path="url(#clip0_474_3627)">
<path d="M19.9916 0.000488281C17.8189 0.0774681 15.7571 0.947538 14.2218 2.43537C12.6498 0.917044 10.5316 0.0446432 8.30974 0.000488281L8.12689 0.000488281C5.94479 0.0626382 3.87126 0.934605 2.33676 2.43537C1.57044 3.17119 0.96787 4.05069 0.56609 5.01983C0.16431 5.98897 -0.0281985 7.02727 0.000393776 8.07095V13.7458C-0.0412327 14.0733 -0.0141105 14.4056 0.0801389 14.7227C0.174388 15.0399 0.33383 15.3354 0.548933 15.5916C0.73836 15.789 0.967769 15.9467 1.2229 16.0548C1.47804 16.1629 1.75345 16.2191 2.03202 16.22C2.3375 16.2211 2.63986 16.1605 2.91974 16.0422C3.19961 15.9238 3.45083 15.7503 3.65732 15.5327C3.89731 15.2977 4.08578 15.0183 4.21146 14.7113C4.33713 14.4043 4.39741 14.0759 4.3887 13.7458V8.11022C4.3887 8.11022 4.3887 7.91386 4.3887 7.81568C4.50469 6.9892 4.92263 6.23005 5.56705 5.67534C5.89995 5.34646 6.29851 5.08638 6.73854 4.91085C7.17857 4.73533 7.65091 4.64804 8.12689 4.65426C8.60843 4.6431 9.08702 4.72999 9.53154 4.90929C9.97606 5.08859 10.3766 5.35628 10.7071 5.69498C11.367 6.24355 11.7819 7.0175 11.8651 7.85495C11.8651 7.95314 11.8651 8.11022 11.8651 8.2084V13.7458C11.8377 14.0635 11.8796 14.3832 11.9881 14.6842C12.0966 14.9853 12.2692 15.2609 12.4949 15.4934C12.6878 15.7115 12.9279 15.886 13.1982 16.0048C13.4685 16.1235 13.7624 16.1836 14.0592 16.1807C14.3647 16.1818 14.6671 16.1212 14.947 16.0029C15.2268 15.8846 15.4781 15.711 15.6845 15.4934C16.1445 15.0219 16.3928 14.3936 16.3753 13.7458V8.11022C16.3753 8.11022 16.3753 7.91386 16.3753 7.81568C16.4913 6.98479 16.9176 6.22356 17.5739 5.67534C18.2662 5.01342 19.2007 4.64215 20.1744 4.64215C21.1482 4.64215 22.0827 5.01342 22.7749 5.67534C23.4111 6.24058 23.7968 7.02143 23.8517 7.85495C23.8517 7.95314 23.8517 8.05132 23.8517 8.1495V13.7458C23.8294 14.0782 23.8773 14.4116 23.9925 14.7255C24.1078 15.0395 24.288 15.3275 24.5221 15.572C24.7286 15.7896 24.9798 15.9631 25.2597 16.0814C25.5396 16.1998 25.8419 16.2603 26.1474 16.2592C26.434 16.2537 26.7161 16.1895 26.9752 16.0711C27.2343 15.9526 27.4646 15.7825 27.6508 15.572C27.8608 15.3172 28.0157 15.0243 28.1064 14.7106C28.1971 14.3969 28.2218 14.0689 28.179 13.7458V8.07095C28.2182 7.03288 28.0385 5.99794 27.6509 5.02911C27.2632 4.06027 26.6756 3.1778 25.9239 2.43537C24.4493 0.955751 22.4405 0.0834854 20.3166 0.000488281L19.9916 0.000488281Z" fill="#231F20"/>
<mask id="mask0_474_3627" style="mask-type:luminance" maskUnits="userSpaceOnUse" x="-1" y="0" width="30" height="17">
<path d="M19.9916 0.000488281C17.8189 0.0774681 15.7571 0.947538 14.2218 2.43537C12.6498 0.917044 10.5316 0.0446432 8.30974 0.000488281L8.12689 0.000488281C5.94479 0.0626382 3.87126 0.934605 2.33676 2.43537C1.57044 3.17119 0.96787 4.05069 0.56609 5.01983C0.16431 5.98897 -0.0281985 7.02727 0.000393776 8.07095V13.7458C-0.0412327 14.0733 -0.0141105 14.4056 0.0801389 14.7227C0.174388 15.0399 0.33383 15.3354 0.548933 15.5916C0.73836 15.789 0.967769 15.9467 1.2229 16.0548C1.47804 16.1629 1.75345 16.2191 2.03202 16.22C2.3375 16.2211 2.63986 16.1605 2.91974 16.0422C3.19961 15.9238 3.45083 15.7503 3.65732 15.5327C3.89731 15.2977 4.08578 15.0183 4.21146 14.7113C4.33713 14.4043 4.39741 14.0759 4.3887 13.7458V8.11022C4.3887 8.11022 4.3887 7.91386 4.3887 7.81568C4.50469 6.9892 4.92263 6.23005 5.56705 5.67534C5.89995 5.34646 6.29851 5.08638 6.73854 4.91085C7.17857 4.73533 7.65091 4.64804 8.12689 4.65426C8.60843 4.6431 9.08702 4.72999 9.53154 4.90929C9.97606 5.08859 10.3766 5.35628 10.7071 5.69498C11.367 6.24355 11.7819 7.0175 11.8651 7.85495C11.8651 7.95314 11.8651 8.11022 11.8651 8.2084V13.7458C11.8377 14.0635 11.8796 14.3832 11.9881 14.6842C12.0966 14.9853 12.2692 15.2609 12.4949 15.4934C12.6878 15.7115 12.9279 15.886 13.1982 16.0048C13.4685 16.1235 13.7624 16.1836 14.0592 16.1807C14.3647 16.1818 14.6671 16.1212 14.947 16.0029C15.2268 15.8846 15.4781 15.711 15.6845 15.4934C16.1445 15.0219 16.3928 14.3936 16.3753 13.7458V8.11022C16.3753 8.11022 16.3753 7.91386 16.3753 7.81568C16.4913 6.98479 16.9176 6.22356 17.5739 5.67534C18.2662 5.01342 19.2007 4.64215 20.1744 4.64215C21.1482 4.64215 22.0827 5.01342 22.7749 5.67534C23.4111 6.24058 23.7968 7.02143 23.8517 7.85495C23.8517 7.95314 23.8517 8.05132 23.8517 8.1495V13.7458C23.8294 14.0782 23.8773 14.4116 23.9925 14.7255C24.1078 15.0395 24.288 15.3275 24.5221 15.572C24.7286 15.7896 24.9798 15.9631 25.2597 16.0814C25.5396 16.1998 25.8419 16.2603 26.1474 16.2592C26.434 16.2537 26.7161 16.1895 26.9752 16.0711C27.2343 15.9526 27.4646 15.7825 27.6508 15.572C27.8608 15.3172 28.0157 15.0243 28.1064 14.7106C28.1971 14.3969 28.2218 14.0689 28.179 13.7458V8.07095C28.2182 7.03288 28.0385 5.99794 27.6509 5.02911C27.2632 4.06027 26.6756 3.1778 25.9239 2.43537C24.4493 0.955751 22.4405 0.0834854 20.3166 0.000488281L19.9916 0.000488281Z" fill="white"/>
</mask>
<g mask="url(#mask0_474_3627)">
<path d="M28.1786 0.0595703H0V16.2201H28.1786V0.0595703Z" fill="#231F20"/>
</g>
<path d="M32.2824 2.43509C31.4973 3.17867 30.8765 4.06846 30.4575 5.05063C30.0384 6.03279 29.8299 7.08691 29.8445 8.14921C29.8326 9.20822 30.0425 10.2586 30.4615 11.2372C30.8804 12.2158 31.4998 13.1024 32.2824 13.8437C33.0567 14.5977 33.9777 15.1961 34.9924 15.6045C36.0071 16.0129 37.0953 16.2231 38.1944 16.2231C39.2936 16.2231 40.3818 16.0129 41.3965 15.6045C42.4112 15.1961 43.3322 14.5977 44.1065 13.8437C44.3314 13.6316 44.5103 13.3781 44.6324 13.0982C44.7545 12.8183 44.8174 12.5177 44.8175 12.2139C44.821 11.9096 44.7596 11.6079 44.6373 11.3276C44.515 11.0472 44.3343 10.7941 44.1065 10.5841C43.8884 10.3717 43.6288 10.2033 43.3428 10.0887C43.0568 9.97404 42.7501 9.91551 42.4405 9.91647C42.1232 9.91614 41.8089 9.97672 41.516 10.0947C41.223 10.2127 40.9572 10.3857 40.734 10.6037C40.4064 10.9339 40.0116 11.1951 39.5746 11.3708C39.1376 11.5465 38.6677 11.633 38.1944 11.6248C37.7219 11.6284 37.2534 11.5398 36.817 11.3643C36.3807 11.1889 35.9854 10.9302 35.6549 10.6037C35.3042 10.2908 35.024 9.91127 34.8317 9.48896C34.6394 9.06666 34.5393 8.61059 34.5375 8.14921C34.5275 7.68868 34.6161 7.23111 34.7979 6.80531C34.9798 6.37951 35.2508 5.99469 35.594 5.67506C35.9216 5.34486 36.3163 5.08371 36.7533 4.90799C37.1903 4.73227 37.6602 4.64579 38.1335 4.65397H38.2757L36.3457 6.61759C36.124 6.82701 35.9486 7.07764 35.8299 7.35437C35.7111 7.6311 35.6516 7.9282 35.6549 8.22776C35.6549 8.84228 35.9075 9.43164 36.3571 9.86617C36.8067 10.3007 37.4164 10.5448 38.0522 10.5448C38.3765 10.5462 38.6975 10.4823 38.9948 10.3572C39.2921 10.2321 39.5592 10.0486 39.7791 9.81829L44.0862 5.69469C44.2938 5.4752 44.4545 5.21824 44.5591 4.93855C44.6637 4.65886 44.7101 4.36196 44.6956 4.06489C44.6909 3.74105 44.6219 3.42109 44.4925 3.12235L44.3503 2.86708L44.0049 2.43509C43.2587 1.66858 42.3585 1.05729 41.3594 0.638628C40.3603 0.219963 39.2834 0.00272398 38.1944 0.000203454C37.0953 -0.0138954 36.0047 0.18766 34.9885 0.592676C33.9724 0.997692 33.0518 1.59775 32.2824 2.35654" fill="#231F20"/>
<mask id="mask1_474_3627" style="mask-type:luminance" maskUnits="userSpaceOnUse" x="29" y="-1" width="16" height="18">
<path d="M32.2824 2.43509C31.4973 3.17867 30.8765 4.06846 30.4575 5.05063C30.0384 6.03279 29.8299 7.08691 29.8445 8.14921C29.8326 9.20822 30.0425 10.2586 30.4615 11.2372C30.8804 12.2158 31.4998 13.1024 32.2824 13.8437C33.0567 14.5977 33.9777 15.1961 34.9924 15.6045C36.0071 16.0129 37.0953 16.2231 38.1944 16.2231C39.2936 16.2231 40.3818 16.0129 41.3965 15.6045C42.4112 15.1961 43.3322 14.5977 44.1065 13.8437C44.3314 13.6316 44.5103 13.3781 44.6324 13.0982C44.7545 12.8183 44.8174 12.5177 44.8175 12.2139C44.821 11.9096 44.7596 11.6079 44.6373 11.3276C44.515 11.0472 44.3343 10.7941 44.1065 10.5841C43.8884 10.3717 43.6288 10.2033 43.3428 10.0887C43.0568 9.97404 42.7501 9.91551 42.4405 9.91647C42.1232 9.91614 41.8089 9.97672 41.516 10.0947C41.223 10.2127 40.9572 10.3857 40.734 10.6037C40.4064 10.9339 40.0116 11.1951 39.5746 11.3708C39.1376 11.5465 38.6677 11.633 38.1944 11.6248C37.7219 11.6284 37.2534 11.5398 36.817 11.3643C36.3807 11.1889 35.9854 10.9302 35.6549 10.6037C35.3042 10.2908 35.024 9.91127 34.8317 9.48896C34.6394 9.06666 34.5393 8.61059 34.5375 8.14921C34.5275 7.68868 34.6161 7.23111 34.7979 6.80531C34.9798 6.37951 35.2508 5.99469 35.594 5.67506C35.9216 5.34486 36.3163 5.08371 36.7533 4.90799C37.1903 4.73227 37.6602 4.64579 38.1335 4.65397H38.2757L36.3457 6.61759C36.124 6.82701 35.9486 7.07764 35.8299 7.35437C35.7111 7.6311 35.6516 7.9282 35.6549 8.22776C35.6549 8.84228 35.9075 9.43164 36.3571 9.86617C36.8067 10.3007 37.4164 10.5448 38.0522 10.5448C38.3765 10.5462 38.6975 10.4823 38.9948 10.3572C39.2921 10.2321 39.5592 10.0486 39.7791 9.81829L44.0862 5.69469C44.2938 5.4752 44.4545 5.21824 44.5591 4.93855C44.6637 4.65886 44.7101 4.36196 44.6956 4.06489C44.6909 3.74105 44.6219 3.42109 44.4925 3.12235L44.3503 2.86708L44.0049 2.43509C43.2587 1.66858 42.3585 1.05729 41.3594 0.638628C40.3603 0.219963 39.2834 0.00272398 38.1944 0.000203454C37.0953 -0.0138954 36.0047 0.18766 34.9885 0.592676C33.9724 0.997692 33.0518 1.59775 32.2824 2.35654" fill="white"/>
</mask>
<g mask="url(#mask1_474_3627)">
<path d="M44.8173 0.0786133H29.8442V16.2195H44.8173V0.0786133Z" fill="#231F20"/>
</g>
<path d="M54.6505 0.000325333C52.4331 0.0193308 50.3142 0.88798 48.7588 2.41557C47.9443 3.13546 47.2901 4.00815 46.836 4.98044C46.3819 5.95272 46.1375 7.00421 46.1177 8.07079V13.7456C46.1195 14.0901 46.1922 14.4307 46.3318 14.7476C46.4713 15.0645 46.6748 15.3514 46.9303 15.5914C47.4025 16.0371 48.0379 16.2842 48.6978 16.2787C49.0248 16.2825 49.3493 16.2237 49.6526 16.1058C49.956 15.9878 50.2322 15.813 50.4654 15.5914C50.7173 15.3508 50.9158 15.063 51.0485 14.7456C51.1813 14.4282 51.2455 14.0879 51.2374 13.7456V7.85479C51.234 7.05949 51.5467 6.2933 52.111 5.71445C52.444 5.38029 52.8455 5.1169 53.2897 4.94109C53.734 4.76528 54.2113 4.68091 54.6911 4.69337C55.0085 4.68401 55.3204 4.61112 55.6072 4.47931C55.8939 4.34749 56.1493 4.15962 56.3571 3.92756C56.5845 3.71315 56.7647 3.4565 56.8869 3.17305C57.0091 2.88959 57.0708 2.58518 57.0681 2.27812C57.0716 1.97385 57.0102 1.67215 56.8879 1.39178C56.7656 1.1114 56.5849 0.858339 56.3571 0.648319C56.1347 0.431807 55.8681 0.262387 55.5743 0.15083C55.2805 0.0392727 54.9659 -0.0119817 54.6505 0.000325333Z" fill="#231F20"/>
<mask id="mask2_474_3627" style="mask-type:luminance" maskUnits="userSpaceOnUse" x="46" y="-1" width="12" height="18">
<path d="M54.6505 0.000325333C52.4331 0.0193308 50.3142 0.88798 48.7588 2.41557C47.9443 3.13546 47.2901 4.00815 46.836 4.98044C46.3819 5.95272 46.1375 7.00421 46.1177 8.07079V13.7456C46.1195 14.0901 46.1922 14.4307 46.3318 14.7476C46.4713 15.0645 46.6748 15.3514 46.9303 15.5914C47.4025 16.0371 48.0379 16.2842 48.6978 16.2787C49.0248 16.2825 49.3493 16.2237 49.6526 16.1058C49.956 15.9878 50.2322 15.813 50.4654 15.5914C50.7173 15.3508 50.9158 15.063 51.0485 14.7456C51.1813 14.4282 51.2455 14.0879 51.2374 13.7456V7.85479C51.234 7.05949 51.5467 6.2933 52.111 5.71445C52.444 5.38029 52.8455 5.1169 53.2897 4.94109C53.734 4.76528 54.2113 4.68091 54.6911 4.69337C55.0085 4.68401 55.3204 4.61112 55.6072 4.47931C55.8939 4.34749 56.1493 4.15962 56.3571 3.92756C56.5845 3.71315 56.7647 3.4565 56.8869 3.17305C57.0091 2.88959 57.0708 2.58518 57.0681 2.27812C57.0716 1.97385 57.0102 1.67215 56.8879 1.39178C56.7656 1.1114 56.5849 0.858339 56.3571 0.648319C56.1347 0.431807 55.8681 0.262387 55.5743 0.15083C55.2805 0.0392727 54.9659 -0.0119817 54.6505 0.000325333Z" fill="white"/>
</mask>
<g mask="url(#mask2_474_3627)">
<path d="M57.0681 0.000488281H46.1177V16.22H57.0681V0.000488281Z" fill="#231F20"/>
</g>
<path d="M62.5943 10.6037C62.2546 10.2857 61.9857 9.90389 61.8041 9.48183C61.6224 9.05976 61.5318 8.6063 61.5379 8.14921C61.5278 7.68868 61.6165 7.23111 61.7983 6.80531C61.9801 6.37951 62.2511 5.99469 62.5943 5.67505C62.9285 5.3503 63.3258 5.09258 63.7633 4.91673C64.2009 4.74087 64.6701 4.65034 65.144 4.65034C65.6179 4.65034 66.0871 4.74087 66.5247 4.91673C66.9622 5.09258 67.3595 5.3503 67.6937 5.67505C68.0303 5.99847 68.2956 6.38443 68.4737 6.80965C68.6518 7.23488 68.7389 7.69056 68.7298 8.14921C68.7373 8.60473 68.6494 9.05701 68.4713 9.47883C68.2933 9.90065 68.0288 10.2833 67.6937 10.6037C67.011 11.2455 66.0963 11.6045 65.144 11.6045C64.1917 11.6045 63.277 11.2455 62.5943 10.6037ZM59.2421 2.43509C58.4717 3.18527 57.8659 4.07803 57.461 5.05989C57.056 6.04174 56.8603 7.0925 56.8855 8.14921C56.8665 9.20919 57.0731 10.2616 57.4925 11.2412C57.9119 12.2208 58.5351 13.1066 59.3234 13.8437C60.091 14.606 61.0109 15.2097 62.0271 15.6182C63.0434 16.0266 64.1349 16.2312 65.2354 16.2197C66.2818 16.2332 67.3218 16.0601 68.3032 15.7091C68.1359 15.9834 67.9309 16.2344 67.6937 16.4553C67.0727 17.078 66.2305 17.4499 65.337 17.496H65.012C64.6991 17.4979 64.3899 17.5616 64.1034 17.6832C63.817 17.8047 63.5592 17.9816 63.346 18.2029C63.1186 18.4173 62.9384 18.674 62.8162 18.9574C62.694 19.2409 62.6323 19.5453 62.635 19.8524C62.6653 20.4656 62.9216 21.0481 63.3576 21.4947C63.7935 21.9412 64.3803 22.2223 65.012 22.2872C66.152 22.3081 67.2839 22.0969 68.334 21.6672C69.384 21.2376 70.3288 20.5992 71.1068 19.7935C72.629 18.3133 73.5022 16.323 73.5448 14.2364V7.42267C73.3123 5.56613 72.4558 3.83465 71.1068 2.494C70.3357 1.73822 69.4168 1.13808 68.4037 0.728465C67.3905 0.318847 66.3032 0.10791 65.205 0.10791C64.1067 0.10791 63.0194 0.318847 62.0063 0.728465C60.9931 1.13808 60.0742 1.73822 59.3031 2.494" fill="#231F20"/>
<mask id="mask3_474_3627" style="mask-type:luminance" maskUnits="userSpaceOnUse" x="56" y="0" width="18" height="23">
<path d="M62.5943 10.6037C62.2546 10.2857 61.9857 9.90389 61.8041 9.48183C61.6224 9.05976 61.5318 8.6063 61.5379 8.14921C61.5278 7.68868 61.6165 7.23111 61.7983 6.80531C61.9801 6.37951 62.2511 5.99469 62.5943 5.67505C62.9285 5.3503 63.3258 5.09258 63.7633 4.91673C64.2009 4.74087 64.6701 4.65034 65.144 4.65034C65.6179 4.65034 66.0871 4.74087 66.5247 4.91673C66.9622 5.09258 67.3595 5.3503 67.6937 5.67505C68.0303 5.99847 68.2956 6.38443 68.4737 6.80965C68.6518 7.23488 68.7389 7.69056 68.7298 8.14921C68.7373 8.60473 68.6494 9.05701 68.4713 9.47883C68.2933 9.90065 68.0288 10.2833 67.6937 10.6037C67.011 11.2455 66.0963 11.6045 65.144 11.6045C64.1917 11.6045 63.277 11.2455 62.5943 10.6037ZM59.2421 2.43509C58.4717 3.18527 57.8659 4.07803 57.461 5.05989C57.056 6.04174 56.8603 7.0925 56.8855 8.14921C56.8665 9.20919 57.0731 10.2616 57.4925 11.2412C57.9119 12.2208 58.5351 13.1066 59.3234 13.8437C60.091 14.606 61.0109 15.2097 62.0271 15.6182C63.0434 16.0266 64.1349 16.2312 65.2354 16.2197C66.2818 16.2332 67.3218 16.0601 68.3032 15.7091C68.1359 15.9834 67.9309 16.2344 67.6937 16.4553C67.0727 17.078 66.2305 17.4499 65.337 17.496H65.012C64.6991 17.4979 64.3899 17.5616 64.1034 17.6832C63.817 17.8047 63.5592 17.9816 63.346 18.2029C63.1186 18.4173 62.9384 18.674 62.8162 18.9574C62.694 19.2409 62.6323 19.5453 62.635 19.8524C62.6653 20.4656 62.9216 21.0481 63.3576 21.4947C63.7935 21.9412 64.3803 22.2223 65.012 22.2872C66.152 22.3081 67.2839 22.0969 68.334 21.6672C69.384 21.2376 70.3288 20.5992 71.1068 19.7935C72.629 18.3133 73.5022 16.323 73.5448 14.2364V7.42267C73.3123 5.56613 72.4558 3.83465 71.1068 2.494C70.3357 1.73822 69.4168 1.13808 68.4037 0.728465C67.3905 0.318847 66.3032 0.10791 65.205 0.10791C64.1067 0.10791 63.0194 0.318847 62.0063 0.728465C60.9931 1.13808 60.0742 1.73822 59.3031 2.494" fill="white"/>
</mask>
<g mask="url(#mask3_474_3627)">
<path d="M73.4838 0.0786133H56.8042V22.2871H73.4838V0.0786133Z" fill="#231F20"/>
</g>
<path d="M77.2018 2.43507C76.4168 3.17866 75.7959 4.06845 75.3769 5.05061C74.9578 6.03277 74.7493 7.08689 74.7639 8.1492C74.7449 9.20917 74.9515 10.2616 75.3709 11.2412C75.7903 12.2208 76.4135 13.1066 77.2018 13.8437C77.9761 14.5977 78.8971 15.1961 79.9118 15.6045C80.9265 16.0129 82.0147 16.2231 83.1139 16.2231C84.213 16.2231 85.3013 16.0129 86.3159 15.6045C87.3306 15.1961 88.2516 14.5977 89.0259 13.8437C89.2509 13.6316 89.4297 13.3781 89.5518 13.0982C89.6739 12.8183 89.7369 12.5176 89.737 12.2139C89.7404 11.9096 89.679 11.6079 89.5567 11.3275C89.4344 11.0472 89.2537 10.7941 89.0259 10.5841C88.5829 10.1587 87.9845 9.91884 87.36 9.91645C87.0457 9.91655 86.7346 9.9774 86.445 10.0954C86.1554 10.2135 85.8932 10.3863 85.6737 10.6037C85.0481 11.2288 84.196 11.5948 83.2967 11.6248C82.8209 11.6299 82.3489 11.5421 81.909 11.3666C81.4692 11.1912 81.0705 10.9317 80.7369 10.6037C80.3999 10.2847 80.1341 9.90228 79.9559 9.48013C79.7777 9.05798 79.6909 8.60503 79.7007 8.1492C79.6953 7.6904 79.7845 7.23516 79.9631 6.81003C80.1416 6.38489 80.406 5.99837 80.7407 5.67302C81.0754 5.34767 81.4738 5.09 81.9127 4.91504C82.3515 4.74007 82.822 4.65132 83.2967 4.65396L81.3667 6.61758C80.934 7.04892 80.6933 7.62694 80.6962 8.22774C80.6996 8.68122 80.8406 9.12376 81.1017 9.50054C81.3628 9.87731 81.7326 10.1717 82.1652 10.3473C82.5978 10.523 83.0742 10.572 83.5353 10.4884C83.9965 10.4049 84.4221 10.1923 84.7595 9.87718L89.0259 5.75358C89.2522 5.54655 89.432 5.29681 89.5544 5.01984C89.6767 4.74286 89.7388 4.44456 89.737 4.14342C89.7322 3.81958 89.6632 3.49962 89.5338 3.20088L89.3916 2.70998L89.1478 2.43507C88.3999 1.65999 87.4937 1.04337 86.4866 0.624252C85.4794 0.205131 84.3932 -0.00737238 83.2967 0.000187915C82.1612 -0.0282171 81.032 0.173794 79.9822 0.593188C78.9324 1.01258 77.9853 1.64004 77.2018 2.43507Z" fill="#231F20"/>
<mask id="mask4_474_3627" style="mask-type:luminance" maskUnits="userSpaceOnUse" x="74" y="-1" width="16" height="18">
<path d="M77.2018 2.43507C76.4168 3.17866 75.7959 4.06845 75.3769 5.05061C74.9578 6.03277 74.7493 7.08689 74.7639 8.1492C74.7449 9.20917 74.9515 10.2616 75.3709 11.2412C75.7903 12.2208 76.4135 13.1066 77.2018 13.8437C77.9761 14.5977 78.8971 15.1961 79.9118 15.6045C80.9265 16.0129 82.0147 16.2231 83.1139 16.2231C84.213 16.2231 85.3013 16.0129 86.3159 15.6045C87.3306 15.1961 88.2516 14.5977 89.0259 13.8437C89.2509 13.6316 89.4297 13.3781 89.5518 13.0982C89.6739 12.8183 89.7369 12.5176 89.737 12.2139C89.7404 11.9096 89.679 11.6079 89.5567 11.3275C89.4344 11.0472 89.2537 10.7941 89.0259 10.5841C88.5829 10.1587 87.9845 9.91884 87.36 9.91645C87.0457 9.91655 86.7346 9.9774 86.445 10.0954C86.1554 10.2135 85.8932 10.3863 85.6737 10.6037C85.0481 11.2288 84.196 11.5948 83.2967 11.6248C82.8209 11.6299 82.3489 11.5421 81.909 11.3666C81.4692 11.1912 81.0705 10.9317 80.7369 10.6037C80.3999 10.2847 80.1341 9.90228 79.9559 9.48013C79.7777 9.05798 79.6909 8.60503 79.7007 8.1492C79.6953 7.6904 79.7845 7.23516 79.9631 6.81003C80.1416 6.38489 80.406 5.99837 80.7407 5.67302C81.0754 5.34767 81.4738 5.09 81.9127 4.91504C82.3515 4.74007 82.822 4.65132 83.2967 4.65396L81.3667 6.61758C80.934 7.04892 80.6933 7.62694 80.6962 8.22774C80.6996 8.68122 80.8406 9.12376 81.1017 9.50054C81.3628 9.87731 81.7326 10.1717 82.1652 10.3473C82.5978 10.523 83.0742 10.572 83.5353 10.4884C83.9965 10.4049 84.4221 10.1923 84.7595 9.87718L89.0259 5.75358C89.2522 5.54655 89.432 5.29681 89.5544 5.01984C89.6767 4.74286 89.7388 4.44456 89.737 4.14342C89.7322 3.81958 89.6632 3.49962 89.5338 3.20088L89.3916 2.70998L89.1478 2.43507C88.3999 1.65999 87.4937 1.04337 86.4866 0.624252C85.4794 0.205131 84.3932 -0.00737238 83.2967 0.000187915C82.1612 -0.0282171 81.032 0.173794 79.9822 0.593188C78.9324 1.01258 77.9853 1.64004 77.2018 2.43507Z" fill="white"/>
</mask>
<g mask="url(#mask4_474_3627)">
<path d="M89.798 0.0786133H74.8452V16.2195H89.798V0.0786133Z" fill="#231F20"/>
</g>
<path d="M3.79919 18.4976V22.8568C3.79919 23.1906 3.79919 23.5441 3.79919 23.7993H3.1897V23.171C3.06355 23.3906 2.87755 23.5726 2.6519 23.6972C2.42625 23.8218 2.16958 23.8843 1.90978 23.8779C1.67616 23.8661 1.44754 23.8079 1.23814 23.7071C1.02873 23.6063 0.843003 23.465 0.69249 23.2919C0.541977 23.1188 0.429892 22.9176 0.363198 22.7009C0.296503 22.4842 0.276624 22.2565 0.304793 22.0321C0.273763 21.7947 0.293479 21.5538 0.362722 21.3241C0.431964 21.0944 0.549258 20.8809 0.707339 20.6968C0.86542 20.5127 1.06092 20.362 1.28173 20.2539C1.50254 20.1458 1.74397 20.0827 1.99104 20.0685C2.21334 20.0557 2.43502 20.102 2.63201 20.2024C2.829 20.3028 2.99377 20.4534 3.10844 20.6379V18.4976H3.79919ZM3.12875 21.6001C3.14004 21.5088 3.14004 21.4165 3.12875 21.3252C3.07062 21.096 2.92568 20.8962 2.72255 20.7654C2.51943 20.6345 2.2729 20.582 2.03167 20.6183C1.34092 20.6183 0.914281 21.2073 0.914281 22.0124C0.914281 22.8175 1.27997 23.3477 2.01136 23.3477C2.24553 23.3477 2.47253 23.2696 2.65394 23.1265C2.83535 22.9833 2.96002 22.784 3.00685 22.5622C3.01664 22.4709 3.01664 22.3787 3.00685 22.2873L3.12875 21.6001Z" fill="#231F20"/>
<path d="M6.44027 19.165C6.44027 19.2744 6.39532 19.3793 6.31531 19.4566C6.2353 19.534 6.12678 19.5774 6.01363 19.5774C5.90047 19.5774 5.79196 19.534 5.71195 19.4566C5.63194 19.3793 5.58699 19.2744 5.58699 19.165C5.58582 19.1036 5.59888 19.0427 5.6252 18.9867C5.65153 18.9308 5.69046 18.8813 5.73914 18.8417C5.78783 18.8022 5.84504 18.7737 5.90659 18.7583C5.96814 18.7429 6.03248 18.741 6.09489 18.7527C6.19538 18.7672 6.28658 18.8176 6.35051 18.894C6.41445 18.9703 6.44647 19.067 6.44027 19.165ZM5.68857 23.7992V20.1665H6.359V23.7992H5.68857Z" fill="#231F20"/>
<path d="M11.4585 20.1664C11.4585 20.4413 11.4585 20.7359 11.4585 21.1679V23.2689C11.4977 23.5644 11.4709 23.8645 11.3797 24.1491C11.2886 24.4337 11.1353 24.696 10.9303 24.9184C10.5459 25.2174 10.0621 25.3709 9.56912 25.3504C9.13575 25.3653 8.70664 25.2633 8.32983 25.0558L8.49236 24.5453C8.82153 24.7425 9.20217 24.8447 9.58944 24.8398C10.2802 24.8398 10.7881 24.4864 10.7881 23.5831V23.1708C10.6606 23.3645 10.4829 23.5226 10.2726 23.6294C10.0624 23.7362 9.82682 23.7879 9.58944 23.7795C9.3632 23.7699 9.14137 23.7158 8.9375 23.6205C8.73362 23.5253 8.55198 23.3908 8.40367 23.2254C8.25536 23.06 8.1435 22.8671 8.07491 22.6585C8.00632 22.45 7.98246 22.23 8.00477 22.0122C7.97062 21.7744 7.98812 21.5323 8.05615 21.3014C8.12419 21.0705 8.24127 20.8558 8.39992 20.6711C8.55858 20.4863 8.75533 20.3355 8.97762 20.2284C9.19992 20.1212 9.44288 20.06 9.69102 20.0486C9.92584 20.0364 10.1594 20.0889 10.3645 20.2002C10.5695 20.3115 10.7376 20.4768 10.849 20.677V20.1272L11.4585 20.1664ZM10.7678 21.5999C10.7875 21.5026 10.7875 21.4026 10.7678 21.3053C10.7095 21.1049 10.5842 20.9288 10.4115 20.8045C10.2387 20.6802 10.0283 20.6146 9.81292 20.6181C9.1628 20.6181 8.71584 21.1482 8.71584 21.973C8.71584 22.7977 9.08153 23.2886 9.81292 23.2886C10.0231 23.2816 10.226 23.2118 10.3934 23.0887C10.5608 22.9656 10.6845 22.7953 10.7475 22.6013C10.7668 22.4842 10.7668 22.3649 10.7475 22.2479L10.7678 21.5999Z" fill="#231F20"/>
<path d="M14.0794 19.1653C14.0794 19.2747 14.0344 19.3796 13.9544 19.4569C13.8744 19.5342 13.7659 19.5777 13.6527 19.5777C13.5396 19.5777 13.431 19.5342 13.351 19.4569C13.271 19.3796 13.2261 19.2747 13.2261 19.1653C13.2261 19.1112 13.2371 19.0575 13.2585 19.0075C13.28 18.9575 13.3114 18.912 13.351 18.8737C13.3907 18.8354 13.4377 18.8051 13.4894 18.7843C13.5412 18.7636 13.5967 18.753 13.6527 18.753C13.7095 18.7501 13.7663 18.7589 13.8194 18.7786C13.8725 18.7983 13.9207 18.8286 13.9609 18.8675C14.0011 18.9063 14.0324 18.9529 14.0528 19.0042C14.0732 19.0555 14.0823 19.1104 14.0794 19.1653ZM13.3073 23.7995V20.1668H13.9981V23.7995H13.3073Z" fill="#231F20"/>
<path d="M16.6997 19.1455V20.1666H17.6749V20.6771H16.6997V22.6407C16.6997 23.0924 16.842 23.3476 17.2076 23.3476H17.614V23.8386C17.4237 23.8992 17.2251 23.9323 17.0248 23.9367C16.8743 23.9408 16.7251 23.9089 16.5904 23.8438C16.4557 23.7787 16.3397 23.6825 16.2528 23.5636C16.0603 23.2939 15.9738 22.9666 16.009 22.6407V20.6771H15.4604V20.1666H16.0496V19.3026L16.6997 19.1455Z" fill="#231F20"/>
<path d="M21.2711 23.7992V23.3476C21.1334 23.5162 20.9572 23.6518 20.7563 23.7438C20.5555 23.8358 20.3353 23.8816 20.1131 23.8778C19.9659 23.8888 19.818 23.8699 19.6789 23.8223C19.5398 23.7747 19.4125 23.6994 19.3054 23.6013C19.1982 23.5033 19.1134 23.3846 19.0566 23.253C18.9998 23.1214 18.9721 22.9797 18.9754 22.8371C18.9754 21.9534 19.788 21.4822 21.2305 21.5018C21.2468 21.3889 21.2361 21.274 21.1993 21.1657C21.1625 21.0575 21.1005 20.9588 21.0181 20.8773C20.9358 20.7958 20.8352 20.7336 20.7241 20.6955C20.613 20.6574 20.4943 20.6444 20.3772 20.6574C20.0313 20.6549 19.6922 20.7505 19.402 20.9324L19.2598 20.5004C19.6252 20.2798 20.0479 20.164 20.4788 20.1665C21.6165 20.1665 21.9009 20.9324 21.9009 21.6589V23.0138C21.8786 23.3014 21.8786 23.5902 21.9009 23.8778L21.2711 23.7992ZM21.1695 21.9534C20.4178 21.9534 19.5848 22.0516 19.5848 22.7585C19.5757 22.8415 19.5855 22.9254 19.6136 23.0044C19.6417 23.0833 19.6874 23.1553 19.7475 23.2152C19.8076 23.2752 19.8806 23.3216 19.9613 23.3513C20.042 23.381 20.1285 23.3931 20.2146 23.3869C20.4143 23.3932 20.6109 23.3375 20.7754 23.2279C20.94 23.1184 21.0638 22.9607 21.1289 22.7782C21.1383 22.713 21.1383 22.6469 21.1289 22.5818L21.1695 21.9534Z" fill="#231F20"/>
<path d="M23.6685 18.4976H24.3795V23.7993H23.6888L23.6685 18.4976Z" fill="#231F20"/>
<path d="M30.7181 23.7994V23.3477C30.5846 23.516 30.4121 23.6516 30.2145 23.7437C30.0169 23.8358 29.7997 23.8817 29.5804 23.8779C29.4332 23.8889 29.2853 23.87 29.1462 23.8224C29.0071 23.7748 28.8798 23.6995 28.7726 23.6015C28.6655 23.5034 28.5807 23.3848 28.5239 23.2531C28.467 23.1215 28.4394 22.9798 28.4426 22.8372C28.4426 21.9536 29.235 21.4823 30.6977 21.5019C30.7101 21.3898 30.6967 21.2764 30.6585 21.1699C30.6203 21.0634 30.5582 20.9663 30.4767 20.8857C30.3952 20.805 30.2962 20.7427 30.187 20.7033C30.0777 20.6639 29.9607 20.6483 29.8445 20.6576C29.4986 20.655 29.1595 20.7506 28.8693 20.9325L28.7068 20.5005C29.0785 20.2773 29.5085 20.1615 29.946 20.1667C31.0838 20.1667 31.3682 20.9325 31.3682 21.659V23.0139C31.3353 23.301 31.3353 23.5908 31.3682 23.8779L30.7181 23.7994ZM30.7181 21.9536C29.9867 21.9536 29.1334 22.0517 29.1334 22.7586C29.1274 22.8427 29.1401 22.9269 29.1706 23.0058C29.2012 23.0847 29.2488 23.1563 29.3105 23.2159C29.3721 23.2754 29.4462 23.3215 29.5278 23.351C29.6094 23.3805 29.6966 23.3928 29.7835 23.387C29.9812 23.3955 30.1762 23.3403 30.338 23.2302C30.4998 23.12 30.6192 22.9611 30.6774 22.7783C30.6966 22.7141 30.6966 22.6461 30.6774 22.5819L30.7181 21.9536Z" fill="#231F20"/>
<path d="M36.3457 20.1667C36.3457 20.4416 36.3457 20.7361 36.3457 21.1681V23.2692C36.3849 23.5646 36.358 23.8648 36.2669 24.1493C36.1757 24.4339 36.0225 24.6962 35.8174 24.9186C35.433 25.2176 34.9492 25.3711 34.4562 25.3506C34.0231 25.3634 33.5946 25.2616 33.217 25.0561L33.3795 24.5455C33.7087 24.7428 34.0893 24.845 34.4766 24.8401C35.1876 24.8401 35.6955 24.4866 35.6955 23.5833V23.171C35.5696 23.3661 35.3922 23.5254 35.1815 23.6323C34.9709 23.7393 34.7346 23.7902 34.4969 23.7797C34.2716 23.7674 34.0512 23.7115 33.8487 23.6153C33.6462 23.5192 33.4657 23.3847 33.3179 23.2199C33.1702 23.0551 33.0581 22.8633 32.9884 22.6559C32.9187 22.4485 32.8928 22.2297 32.9122 22.0125C32.8812 21.7751 32.9009 21.5341 32.9701 21.3045C33.0394 21.0748 33.1567 20.8613 33.3148 20.6772C33.4728 20.4931 33.6683 20.3424 33.8892 20.2343C34.11 20.1262 34.3514 20.0631 34.5985 20.0488C34.8337 20.0342 35.0683 20.0857 35.2738 20.1972C35.4793 20.3087 35.647 20.4755 35.7565 20.6772V20.1274L36.3457 20.1667ZM35.6346 21.6001C35.6543 21.5028 35.6543 21.4028 35.6346 21.3056C35.5772 21.1084 35.455 20.9347 35.2863 20.8107C35.1177 20.6867 34.9119 20.6192 34.7 20.6183C34.0499 20.6183 33.5827 21.1485 33.5827 21.9732C33.5827 22.7979 33.9483 23.2888 34.6797 23.2888C34.8935 23.2859 35.1008 23.2179 35.2722 23.0945C35.4437 22.9712 35.5705 22.7986 35.6346 22.6015C35.6547 22.4845 35.6547 22.3651 35.6346 22.2481V21.6001Z" fill="#231F20"/>
<path d="M38.601 22.1104C38.5858 22.2774 38.6084 22.4457 38.667 22.6034C38.7257 22.7612 38.8191 22.9048 38.9408 23.0243C39.0625 23.1438 39.2096 23.2363 39.3719 23.2955C39.5342 23.3547 39.7079 23.3791 39.8809 23.3671C40.2376 23.3834 40.5931 23.316 40.917 23.1708L41.0389 23.642C40.6476 23.8039 40.2253 23.8842 39.7996 23.8777C39.5493 23.8926 39.2986 23.8553 39.0645 23.7682C38.8305 23.6812 38.6186 23.5465 38.4432 23.3732C38.2678 23.2 38.133 22.9923 38.0481 22.7642C37.9631 22.5361 37.93 22.2931 37.9509 22.0515C37.9226 21.8084 37.947 21.5622 38.0223 21.3286C38.0976 21.095 38.2223 20.8791 38.3884 20.6945C38.5546 20.5099 38.7586 20.3607 38.9875 20.2563C39.2164 20.1519 39.4653 20.0945 39.7184 20.0879C39.9393 20.0919 40.157 20.1406 40.3574 20.2308C40.5577 20.321 40.7364 20.4507 40.8818 20.6116C41.0272 20.7725 41.1362 20.961 41.2017 21.165C41.2673 21.369 41.2879 21.584 41.2624 21.7962C41.2624 21.9337 41.2624 22.0319 41.2624 22.1104H38.601ZM40.6326 21.5999C40.6496 21.4672 40.6378 21.3326 40.598 21.2046C40.5582 21.0766 40.4913 20.9581 40.4015 20.8565C40.3116 20.7548 40.2009 20.6724 40.0763 20.6145C39.9517 20.5565 39.8159 20.5243 39.6777 20.5199C39.3885 20.5301 39.1146 20.6483 38.9138 20.8498C38.7129 21.0512 38.6008 21.3201 38.601 21.5999H40.6326Z" fill="#231F20"/>
<path d="M42.8062 21.1484C42.8277 20.8214 42.8277 20.4935 42.8062 20.1665H43.4156V20.7753C43.5342 20.5594 43.7134 20.3804 43.9327 20.2588C44.152 20.1372 44.4023 20.078 44.6549 20.088C45.1628 20.088 45.9755 20.4022 45.9755 21.6393V23.7992H45.305V21.7178C45.305 21.1287 45.0816 20.6378 44.4518 20.6378C44.2468 20.6445 44.0489 20.7122 43.8853 20.8318C43.7217 20.9513 43.6002 21.1167 43.5375 21.3054C43.5162 21.4092 43.5162 21.5159 43.5375 21.6196V23.7992H42.8468L42.8062 21.1484Z" fill="#231F20"/>
<path d="M50.5062 23.6615C50.1665 23.8046 49.7999 23.8782 49.4294 23.8775C49.1781 23.8895 48.927 23.8495 48.693 23.7602C48.4589 23.6708 48.2473 23.5342 48.0723 23.3595C47.8973 23.1848 47.7629 22.9759 47.6781 22.7469C47.5933 22.518 47.5601 22.2741 47.5806 22.0317C47.5592 21.7686 47.5971 21.5041 47.6916 21.2565C47.7862 21.0089 47.9351 20.784 48.1282 20.5974C48.3213 20.4107 48.554 20.2668 48.8102 20.1754C49.0664 20.084 49.34 20.0474 49.6122 20.0681C49.9393 20.067 50.2636 20.127 50.5671 20.2448L50.4046 20.7554C50.1643 20.6221 49.8886 20.5606 49.6122 20.5787C49.4307 20.5779 49.2511 20.6138 49.0848 20.6842C48.9185 20.7546 48.7694 20.8579 48.6469 20.9874C48.5244 21.1168 48.4313 21.2697 48.3737 21.436C48.316 21.6023 48.295 21.7785 48.312 21.9532C48.2948 22.1269 48.3158 22.3022 48.3736 22.4676C48.4315 22.6329 48.5249 22.7846 48.6477 22.9125C48.7705 23.0405 48.9199 23.1419 49.0862 23.2101C49.2524 23.2782 49.4317 23.3116 49.6122 23.3081C49.8997 23.3068 50.1836 23.2466 50.4452 23.1314L50.5062 23.6615Z" fill="#231F20"/>
<path d="M52.294 20.1665L53.1269 22.3068L53.3504 23.053C53.3504 22.837 53.4926 22.5621 53.5942 22.3068L54.3256 20.1665H55.057L54.0412 22.7585C53.824 23.5933 53.4064 24.3669 52.8222 25.0166C52.5903 25.2311 52.3023 25.3804 51.9892 25.4486L51.8267 24.8988C52.0451 24.8286 52.2458 24.7149 52.4159 24.565C52.6692 24.3715 52.8712 24.1225 53.005 23.8385C53.0121 23.7863 53.0121 23.7335 53.005 23.6814C53.0104 23.6226 53.0104 23.5634 53.005 23.5047L51.6235 20.1665H52.294Z" fill="#231F20"/>
</g>
<defs>
<clipPath id="clip0_474_3627">
<rect width="89.8181" height="25.4485" fill="white"/>
</clipPath>
</defs>
</svg>
