<svg width="55" height="35" viewBox="0 0 55 35" fill="none" xmlns="http://www.w3.org/2000/svg">
<g clip-path="url(#clip0_563_306)">
<path d="M43.7364 22.6273C43.6816 22.6273 43.6261 22.5725 43.5166 22.5725C43.7912 21.968 43.846 21.2532 43.7364 20.5383C43.5166 19.2182 42.5825 18.0086 41.3737 17.4055C40.1102 16.8003 38.3515 16.8003 37.1427 17.4055C36.8374 17.5614 36.5593 17.7655 36.3189 18.01C36.2086 17.8448 36.099 17.6248 35.934 17.4603C35.1649 16.5254 33.8466 15.9758 32.4728 16.0306C31.2092 16.0306 29.9998 16.6351 29.1759 17.6248C28.764 18.1238 28.4709 18.71 28.3185 19.3391C28.1662 19.9681 28.1587 20.6236 28.2966 21.256C28.3521 21.476 28.4068 21.7508 28.5164 21.968C27.9041 22.1297 27.3554 22.4741 26.9433 22.9553C26.5312 23.4366 26.2751 24.0319 26.2092 24.6622C26.133 25.3601 26.2845 26.0638 26.6409 26.6684C26.9974 27.273 27.5398 27.7459 28.187 28.0165C28.0737 28.188 27.9815 28.3726 27.9124 28.5662C27.3624 29.8862 27.5275 31.4804 28.2966 32.6901C29.008 33.9005 30.4394 34.7798 32.0331 34.945C32.2868 34.9905 32.5446 35.0089 32.8022 34.9998C34.0657 34.9998 35.1649 34.5598 35.9887 33.7894C36.1538 33.6242 36.3189 33.4598 36.4284 33.2398C37.253 34.0643 38.4617 34.5043 39.6157 34.5043C40.4944 34.5043 41.3189 34.2843 42.0346 33.7923C43.0236 33.1322 43.6831 31.8699 43.7378 30.6594C43.7378 30.1098 43.6831 29.5594 43.4632 29.1201C44.3974 28.9001 45.2212 28.3497 45.6609 27.5252C45.9088 27.053 46.0473 26.531 46.0663 25.998C46.0853 25.4649 45.9842 24.9344 45.7705 24.4458C45.4944 23.5622 44.7253 22.9029 43.7364 22.6273ZM41.0443 27.2468C40.8245 26.9164 40.3848 26.9164 40.1102 27.1365C39.8356 27.3565 39.7801 27.6313 39.9999 27.9061C40.4943 28.5662 41.2641 29.0062 42.088 29.1714C42.4729 29.5558 42.6927 30.1062 42.6372 30.7655C42.6009 31.1813 42.4738 31.5839 42.2648 31.945C42.0558 32.3062 41.77 32.6169 41.4278 32.8553C40.1095 33.7353 38.0761 33.4049 37.1975 32.1952L37.142 32.1404C37.3618 31.4284 37.4166 30.6011 37.3071 29.7196C37.2523 29.3344 36.8674 29.1151 36.538 29.1699C36.2086 29.2248 36.04 29.4448 36.0983 29.7744C36.2634 30.9293 36.0985 31.8642 35.6039 32.579C34.8924 33.6235 33.5705 33.7894 32.9117 33.7894C31.7023 33.7894 30.6038 33.3494 29.8895 32.6345C29.5304 32.2382 29.2688 31.7633 29.1258 31.2478C28.9827 30.7323 28.9621 30.1904 29.0656 29.6655C29.2848 28.6203 30.0545 27.4661 31.3181 27.5209C31.703 27.5209 31.9221 27.2461 31.9221 26.9157C31.9221 26.5854 31.703 26.2564 31.3181 26.2564C30.5535 26.2605 29.8146 26.5329 29.23 27.0261C29.1752 27.0261 29.1752 26.9713 29.1204 26.9713C28.1315 26.6957 27.5268 25.8164 27.5816 24.8815C27.6918 23.8918 28.4061 23.2318 29.3403 23.177C29.8267 23.7217 30.454 24.1214 31.153 24.3319C31.2085 24.3319 31.2633 24.3867 31.3181 24.3867C31.4447 24.3819 31.5663 24.3366 31.6652 24.2573C31.7641 24.1781 31.8349 24.0692 31.8673 23.9467C31.8979 23.8712 31.9121 23.7902 31.9089 23.7088C31.9058 23.6275 31.8854 23.5478 31.849 23.475C31.8127 23.4021 31.7612 23.3379 31.6981 23.2865C31.6351 23.2352 31.5618 23.1978 31.4831 23.177C30.4387 22.8466 29.7799 21.9666 29.6697 20.8124C29.5601 19.4924 30.2189 18.2279 31.3181 17.6796C32.3618 17.1812 33.737 17.2396 34.7245 17.8996C35.8237 18.6116 35.988 20.099 35.934 21.1983C35.934 21.5835 36.2086 21.8035 36.4839 21.8035C36.8133 21.8035 37.1427 21.6384 37.1427 21.1983C37.1427 20.7583 37.1427 20.2086 37.0332 19.659C37.1427 19.1606 37.4728 18.8345 37.9673 18.5589C38.7911 18.1196 40.1102 18.1196 40.9888 18.5589C41.8674 18.9982 42.5825 19.879 42.7475 20.8139C42.814 21.1208 42.8089 21.4389 42.7326 21.7435C42.6564 22.0481 42.511 22.3311 42.3078 22.5704C41.6019 22.6763 40.9478 23.0037 40.4396 23.5052C40.2745 23.6704 40.2197 23.8349 40.2745 24.0549C40.3293 24.2749 40.4944 24.4401 40.7142 24.5497C40.8205 24.5785 40.9326 24.5784 41.0388 24.5495C41.1451 24.5206 41.2418 24.4639 41.3189 24.3853C41.9784 23.7801 43.0221 23.5601 43.846 23.9452C44.225 24.1019 44.5483 24.3689 44.7737 24.7117C44.9992 25.0546 45.1164 25.4573 45.1102 25.8677C45.1102 26.8025 44.6158 27.627 43.846 27.9574C42.8571 28.1817 41.5935 28.0165 41.0443 27.2468Z" fill="#010101"/>
<path d="M37.9125 8.38589C37.5934 5.8766 36.3129 3.58946 34.341 2.00704C33.3584 1.22907 32.229 0.657768 31.0204 0.327421C29.8117 -0.00292531 28.5489 -0.0855069 27.3076 0.084632C22.0877 0.742524 18.3554 5.52648 19.0107 10.7512C19.2487 12.7339 20.1035 14.5917 21.4541 16.0618C22.8047 17.5318 24.5828 18.5399 26.5371 18.9435H26.7022C27.0316 18.9435 27.3062 18.7235 27.4136 18.3938C27.4684 18.2286 27.4136 18.0086 27.3033 17.8434C27.1931 17.6783 27.0287 17.5686 26.8637 17.5686C25.1999 17.2175 23.6867 16.3563 22.5346 15.1047C21.3825 13.8532 20.6486 12.2735 20.435 10.5853C20.1655 8.44813 20.7553 6.29136 22.0747 4.58943C23.3941 2.8875 25.335 1.77982 27.4705 1.51006C29.606 1.24031 31.7611 1.83059 33.4617 3.15103C35.1623 4.47148 36.2691 6.41393 36.5387 8.55107C36.8133 10.6956 36.2085 12.7847 34.945 14.4892C34.8419 14.634 34.7844 14.8063 34.78 14.984C34.78 15.1492 34.8902 15.3144 35.0553 15.4241C35.3847 15.6441 35.8244 15.5892 36.0442 15.3144C37.5823 13.3899 38.2419 10.9149 37.9125 8.38589Z" fill="#010101"/>
<path d="M15.2748 4.37183V16.1911H17.1459V1.01758H14.8351L8.57438 12.9501C6.48628 8.9906 4.39818 4.97561 2.31363 1.01758H0V16.1947H1.86827V4.37183L8.07708 16.1911H9.01122C11.1541 12.2352 13.1867 8.33057 15.2748 4.37183Z" fill="#010101"/>
<path d="M47.3626 0.962661L39.8354 1.01749V16.1946H47.3626C51.9778 16.1946 55 12.7848 55 8.16601C54.9452 3.87689 51.8682 0.907836 47.3626 0.962661ZM46.7586 14.3825H41.6482V2.77685H46.8133C50.5492 2.77685 52.9119 4.9214 52.9119 8.22083C52.9119 11.8499 50.6047 14.3825 46.7586 14.3825Z" fill="#010101"/>
<path d="M17.4177 19.7679C19.9448 19.7679 22.6924 21.0332 23.4067 23.6726L25.0003 23.0125C24.2889 19.2183 20.7146 17.8989 17.4725 17.8989C12.6923 17.8989 9.01123 20.648 9.01123 25.8171C9.01123 30.5455 12.4724 34.065 17.3074 34.065C20.7146 34.065 24.5052 32.5805 24.9448 28.4017C24.3956 28.1817 23.9012 28.0165 23.3519 27.7417C22.9122 30.7656 20.2749 32.1404 17.5273 32.1404C13.736 32.1404 10.9891 29.6662 10.9891 25.8171C10.9891 21.968 13.6812 19.7679 17.4177 19.7679Z" fill="#010101"/>
</g>
<defs>
<clipPath id="clip0_563_306">
<rect width="55" height="35" fill="white"/>
</clipPath>
</defs>
</svg>
