<svg width="93" height="53" viewBox="0 0 93 53" fill="none" xmlns="http://www.w3.org/2000/svg">
<g clip-path="url(#clip0_474_3602)">
<path d="M1.37764 53.0001V48.0289H0.229492V47.3916H3.67394V48.0034H2.52579V53.0001H1.37764Z" fill="#231F20"/>
<path d="M4.26087 53.0002L4.23535 47.3917H5.3835L5.40901 49.8645H6.55716L6.53165 47.3917L7.6798 47.3662L7.70531 52.9747H6.55716V50.5019H5.40901V53.0002H4.26087Z" fill="#231F20"/>
<path d="M8.85366 52.9747V48.6154C8.84849 48.4561 8.87516 48.2975 8.93211 48.1486C8.98906 47.9998 9.07515 47.8638 9.18534 47.7486C9.28428 47.6281 9.40895 47.5312 9.55022 47.465C9.69149 47.3989 9.84579 47.3651 10.0018 47.3662H11.15C11.303 47.3684 11.454 47.401 11.5943 47.4623C11.7345 47.5236 11.861 47.6123 11.9664 47.7231C12.1796 47.9717 12.2972 48.288 12.2981 48.6154V52.9747H11.1755V50.4254H10.0018V52.9747H8.85366ZM10.0018 49.8646H11.15V48.6154C11.155 48.5344 11.1416 48.4532 11.1106 48.3781C11.0797 48.3031 11.0321 48.236 10.9714 48.182C10.9253 48.1171 10.864 48.0646 10.7928 48.029C10.7216 47.9935 10.6427 47.976 10.5631 47.9781C10.4233 48.0008 10.2965 48.0732 10.2059 48.182C10.1005 48.3011 10.0456 48.4565 10.0528 48.6154L10.0018 49.8646Z" fill="#231F20"/>
<path d="M15.177 47.369L14.0288 47.3726L14.0464 52.981L15.1946 52.9774L15.177 47.369Z" fill="#231F20"/>
<path d="M20.4116 52.949V47.3405H22.7334C22.8845 47.3302 23.0358 47.3575 23.1738 47.4197C23.3117 47.482 23.4322 47.5774 23.5244 47.6974C23.7515 47.929 23.8796 48.2399 23.8816 48.5642V49.2015C23.8769 49.5205 23.7594 49.8275 23.5499 50.0682C23.4498 50.1874 23.3249 50.2834 23.1839 50.3494C23.0429 50.4155 22.8892 50.45 22.7334 50.4506H21.5087V52.9999L20.4116 52.949ZM21.5598 49.8133H22.1211C22.1982 49.8164 22.275 49.8019 22.3457 49.771C22.4164 49.7401 22.4792 49.6935 22.5293 49.6349C22.5873 49.5788 22.6331 49.5113 22.6638 49.4368C22.6946 49.3622 22.7096 49.2821 22.7079 49.2015V48.5642C22.6989 48.4037 22.636 48.251 22.5293 48.1308C22.4792 48.0721 22.4164 48.0256 22.3457 47.9947C22.275 47.9638 22.1982 47.9493 22.1211 47.9523H21.5087L21.5598 49.8133Z" fill="#231F20"/>
<path d="M24.9531 52.9234V47.3149H27.8107V47.9268H26.1013V49.8133H27.2494V50.4251H26.1013V52.3116L27.8363 52.2861V52.9234H24.9531Z" fill="#231F20"/>
<path d="M29.5711 52.898L29.5456 47.9269H28.3975V47.315L31.8419 47.2896V47.9269H30.6938L30.7193 52.898H29.5711Z" fill="#231F20"/>
<path d="M32.4287 52.898V47.2896H34.7505C34.9002 47.289 35.0483 47.3206 35.1848 47.3822C35.3212 47.4438 35.4429 47.5339 35.5415 47.6465C35.768 47.8888 35.8955 48.2071 35.8987 48.5387V48.8701C35.8853 49.1595 35.7974 49.4405 35.6435 49.6859C35.5382 49.8188 35.4014 49.9233 35.2455 49.9901C35.0896 50.0569 34.9195 50.0837 34.7505 50.0683H35.3374C35.4108 50.0653 35.4839 50.0799 35.5505 50.111C35.6171 50.142 35.6752 50.1886 35.7201 50.2467C35.7794 50.3018 35.826 50.3691 35.8568 50.4439C35.8877 50.5187 35.9019 50.5993 35.8987 50.6801V52.898H34.7505V50.986C34.7545 50.8199 34.7004 50.6577 34.5974 50.5272C34.4794 50.4169 34.3252 50.3534 34.1637 50.3487H33.6024V52.898H32.4287ZM33.5769 49.7879H34.1382C34.2177 49.79 34.2966 49.7725 34.3678 49.7369C34.439 49.7013 34.5003 49.6488 34.5464 49.5839C34.6071 49.53 34.6548 49.4629 34.6857 49.3878C34.7166 49.3127 34.7301 49.2316 34.725 49.1506V48.4367C34.7301 48.3557 34.7166 48.2746 34.6857 48.1995C34.6548 48.1244 34.6071 48.0573 34.5464 48.0034C34.4976 47.9414 34.4357 47.891 34.3651 47.8558C34.2945 47.8205 34.2171 47.8013 34.1382 47.7994H33.5769V49.7879Z" fill="#231F20"/>
<path d="M38.2716 47.2894H39.4198C39.5755 47.29 39.7292 47.3246 39.8702 47.3906C40.0112 47.4566 40.1361 47.5526 40.2362 47.6718C40.3464 47.787 40.4325 47.9229 40.4894 48.0718C40.5464 48.2206 40.5731 48.3793 40.5679 48.5385V51.6487C40.5766 51.8122 40.5516 51.9757 40.4945 52.1291C40.4375 52.2826 40.3496 52.4228 40.2362 52.5409C40.1376 52.6535 40.016 52.7436 39.8795 52.8052C39.7431 52.8668 39.595 52.8984 39.4453 52.8978H38.2716C38.1174 52.9039 37.9637 52.875 37.8223 52.8131C37.6809 52.7513 37.5554 52.6583 37.4551 52.5409C37.3415 52.427 37.2515 52.2918 37.1902 52.1431C37.1289 51.9944 37.0975 51.835 37.0979 51.6742V48.4366C37.0863 48.1071 37.2056 47.7863 37.4296 47.5443C37.531 47.4284 37.6568 47.3363 37.7979 47.2746C37.9391 47.2129 38.0921 47.1832 38.2461 47.1874M38.2716 48.4366V51.5212C38.2882 51.6876 38.35 51.8462 38.4502 51.9801C38.5015 52.0374 38.5644 52.0829 38.6349 52.1137C38.7053 52.1445 38.7816 52.1598 38.8584 52.1585C39.0121 52.1524 39.1579 52.0887 39.2667 51.9801C39.3769 51.852 39.44 51.6901 39.4453 51.5212V48.4366C39.4454 48.2788 39.3914 48.1259 39.2922 48.0032C39.237 47.9439 39.1697 47.8973 39.0949 47.8665C39.02 47.8357 38.9393 47.8215 38.8584 47.8247C38.785 47.8217 38.7119 47.8363 38.6453 47.8674C38.5787 47.8985 38.5206 47.945 38.4757 48.0032C38.4143 48.058 38.3645 48.1246 38.3295 48.1991C38.2944 48.2736 38.2747 48.3543 38.2716 48.4366Z" fill="#231F20"/>
<path d="M41.6393 52.8726L41.6138 47.2642H42.7619L42.7874 52.2353H44.5224V52.8471L41.6393 52.8726Z" fill="#231F20"/>
<path d="M45.645 52.8472V47.2643L48.5281 47.2388V47.8761H46.7932V49.7371H47.9413V50.3744H46.7932V52.2354H48.5281V52.8472H45.645Z" fill="#231F20"/>
<path d="M51.9728 47.2388H53.121V51.5981C53.1286 51.9193 53.0094 52.2306 52.7893 52.4648C52.6903 52.5854 52.5657 52.6823 52.4244 52.7484C52.2831 52.8146 52.1288 52.8484 51.9728 52.8472H50.8247C50.6716 52.8451 50.5206 52.8125 50.3804 52.7512C50.2401 52.6899 50.1136 52.6012 50.0082 52.4903C49.7887 52.2455 49.6702 51.9267 49.6765 51.5981V47.2388H50.8502V51.5981C50.8485 51.6787 50.8635 51.7588 50.8942 51.8334C50.925 51.9079 50.9708 51.9754 51.0288 52.0315C51.0776 52.0917 51.1401 52.1393 51.2111 52.1703C51.2822 52.2014 51.3596 52.2149 51.437 52.2099C51.5139 52.2112 51.5901 52.1959 51.6606 52.1651C51.731 52.1343 51.794 52.0887 51.8452 52.0315C51.9444 51.9088 51.9985 51.7558 51.9983 51.5981L51.9728 47.2388Z" fill="#231F20"/>
<path d="M54.269 52.8214V47.2384L54.5242 47.2129L56.9991 49.8642L59.4485 47.2129H60.0098L60.0353 52.8214H58.8871L58.8616 49.4053L56.8715 51.5722L54.8559 49.4053V52.8214H54.269Z" fill="#231F20"/>
<path d="M65.7762 48.4367H65.1893C65.1893 48.0288 65.0107 47.8249 64.6535 47.8249C64.5701 47.8118 64.4848 47.8186 64.4046 47.8447C64.3243 47.8708 64.2514 47.9155 64.1917 47.9752C64.132 48.0348 64.0872 48.1077 64.0611 48.1879C64.0349 48.2681 64.0281 48.3534 64.0412 48.4367C64.0421 48.6064 64.1057 48.7698 64.2198 48.8956L65.4445 50.3487C65.6457 50.6041 65.7617 50.9162 65.7762 51.2409V51.5468C65.7814 51.7061 65.7547 51.8648 65.6977 52.0136C65.6408 52.1624 65.5547 52.2984 65.4445 52.4136C65.3444 52.5328 65.2195 52.6287 65.0785 52.6948C64.9375 52.7608 64.7838 52.7954 64.628 52.796H64.0667C63.9087 52.8091 63.7497 52.7886 63.6002 52.7359C63.4506 52.6832 63.314 52.5994 63.1992 52.4901C63.0877 52.3613 63.0032 52.2114 62.9506 52.0494C62.898 51.8874 62.8784 51.7165 62.8931 51.5468H63.4799C63.4748 51.6241 63.4884 51.7015 63.5195 51.7725C63.5506 51.8435 63.5982 51.906 63.6585 51.9547C63.784 51.9871 63.9157 51.9871 64.0412 51.9547C64.1265 51.9639 64.2127 51.9524 64.2926 51.9214C64.3725 51.8903 64.4438 51.8406 64.5005 51.7763C64.5475 51.6269 64.5475 51.4667 64.5005 51.3174C64.5021 51.2368 64.4871 51.1567 64.4564 51.0821C64.4257 51.0075 64.3799 50.9401 64.3219 50.884L63.0972 49.4054C62.8819 49.158 62.7641 48.8409 62.7655 48.5132V48.4367C62.7579 48.1155 62.877 47.8041 63.0972 47.5699C63.1961 47.4494 63.3208 47.3525 63.462 47.2863C63.6033 47.2202 63.7576 47.1864 63.9136 47.1875H64.4749C65.2149 47.1875 65.5976 47.5954 65.6486 48.4367" fill="#231F20"/>
<path d="M69.2208 47.1875H70.3689V51.5213C70.3805 51.8508 70.2613 52.1715 70.0372 52.4136C69.937 52.5309 69.8115 52.6239 69.67 52.6858C69.5286 52.7476 69.375 52.7766 69.2208 52.7705H68.0726C67.9169 52.7698 67.7632 52.7353 67.6222 52.6693C67.4812 52.6032 67.3563 52.5073 67.2561 52.3881C67.146 52.2729 67.0599 52.1369 67.0029 51.9881C66.946 51.8393 66.9193 51.6806 66.9245 51.5213V47.1875H68.0726V51.5468C68.071 51.6274 68.086 51.7075 68.1167 51.7821C68.1474 51.8567 68.1932 51.9241 68.2512 51.9802C68.3 52.0404 68.3626 52.088 68.4336 52.1191C68.5046 52.1501 68.5821 52.1637 68.6594 52.1586C68.7363 52.1599 68.8126 52.1446 68.883 52.1138C68.9534 52.083 69.0164 52.0375 69.0677 51.9802C69.1669 51.8575 69.2209 51.7045 69.2208 51.5468V47.1875Z" fill="#231F20"/>
<path d="M71.4404 52.7706V47.1621H73.7367C73.8925 47.1627 74.0462 47.1973 74.1872 47.2633C74.3282 47.3294 74.4531 47.4253 74.5532 47.5445C74.6634 47.6597 74.7495 47.7957 74.8064 47.9445C74.8634 48.0933 74.89 48.252 74.8849 48.4113V49.0231C74.8965 49.3526 74.7773 49.6733 74.5532 49.9154C74.4497 50.0286 74.3235 50.1189 74.1829 50.1804C74.0422 50.2418 73.8902 50.2731 73.7367 50.2723H72.5886V52.8216L71.4404 52.7706ZM72.5886 49.6604H73.1754C73.328 49.6497 73.4722 49.5867 73.5836 49.482C73.6866 49.3515 73.7407 49.1892 73.7367 49.0231V48.4368C73.7418 48.3557 73.7284 48.2746 73.6974 48.1995C73.6665 48.1244 73.6188 48.0574 73.5581 48.0034C73.5072 47.9439 73.4448 47.8952 73.3747 47.8601C73.3046 47.8251 73.2281 47.8045 73.1499 47.7994H72.5886V49.6604Z" fill="#231F20"/>
<path d="M76.1348 52.7704V47.1619H78.4311C78.5853 47.1558 78.7389 47.1848 78.8803 47.2466C79.0218 47.3084 79.1473 47.4015 79.2475 47.5188C79.4677 47.753 79.5868 48.0644 79.5792 48.3856V49.0229C79.5868 49.3441 79.4677 49.6555 79.2475 49.8897C79.1538 50.0097 79.0337 50.1065 78.8966 50.1728C78.7594 50.2391 78.6089 50.2731 78.4566 50.2721H77.3084V52.8214L76.1348 52.7704ZM77.2574 49.6347H77.8442C77.9214 49.6378 77.9982 49.6233 78.0689 49.5924C78.1396 49.5615 78.2024 49.515 78.2525 49.4563C78.3591 49.336 78.422 49.1833 78.4311 49.0229V48.4366C78.4312 48.2789 78.3772 48.1259 78.278 48.0032C78.2267 47.9459 78.1637 47.9003 78.0933 47.8696C78.0229 47.8388 77.9466 47.8235 77.8697 47.8247H77.2829L77.2574 49.6347Z" fill="#231F20"/>
<path d="M81.876 47.1367H83.0241C83.1738 47.1362 83.3219 47.1678 83.4584 47.2294C83.5948 47.2909 83.7164 47.381 83.815 47.4936C83.9403 47.6161 84.0389 47.7631 84.1047 47.9254C84.1706 48.0877 84.2022 48.2618 84.1978 48.4369V51.496C84.2054 51.8173 84.0862 52.1286 83.8661 52.3628C83.7671 52.4833 83.6425 52.5802 83.5012 52.6464C83.3599 52.7126 83.2056 52.7463 83.0496 52.7452H81.9015C81.7484 52.7431 81.5974 52.7104 81.4572 52.6491C81.317 52.5878 81.1904 52.4991 81.085 52.3883C80.8609 52.1463 80.7417 51.8255 80.7533 51.496V48.4369C80.7418 48.2769 80.7655 48.1164 80.8228 47.9667C80.8802 47.8169 80.9696 47.6816 81.085 47.5701C81.1839 47.4496 81.3086 47.3527 81.4499 47.2865C81.5912 47.2203 81.7454 47.1866 81.9015 47.1877M81.9015 48.4369V51.496C81.8982 51.5769 81.9125 51.6574 81.9433 51.7323C81.9741 51.8071 82.0208 51.8743 82.0801 51.9294C82.1289 51.9896 82.1914 52.0372 82.2624 52.0683C82.3335 52.0993 82.4109 52.1129 82.4883 52.1079C82.5652 52.1091 82.6414 52.0938 82.7119 52.063C82.7823 52.0323 82.8453 51.9867 82.8965 51.9294C82.9957 51.8067 83.0498 51.6538 83.0496 51.496V48.4369C83.0533 48.3522 83.0393 48.2677 83.0086 48.1887C82.9778 48.1097 82.931 48.038 82.871 47.978C82.7622 47.8694 82.6165 47.8057 82.4628 47.7995C82.3846 47.8046 82.3081 47.8252 82.238 47.8602C82.1679 47.8953 82.1055 47.944 82.0546 48.0035C81.9491 48.1226 81.8942 48.278 81.9015 48.4369Z" fill="#231F20"/>
<path d="M85.3203 52.7197V47.1367H87.6166C87.7723 47.1374 87.9261 47.1719 88.0671 47.2379C88.2081 47.304 88.333 47.3999 88.4331 47.5191C88.5433 47.6343 88.6294 47.7703 88.6863 47.9191C88.7433 48.0679 88.7699 48.2266 88.7648 48.3859V48.7173C88.7668 49.0091 88.6776 49.2943 88.5096 49.5331C88.4059 49.6677 88.2693 49.7736 88.113 49.8406C87.9567 49.9075 87.7858 49.9333 87.6166 49.9155H88.2034C88.2803 49.9142 88.3566 49.9295 88.427 49.9603C88.4974 49.9911 88.5604 50.0366 88.6117 50.0939C88.7146 50.2244 88.7687 50.3867 88.7648 50.5528V52.7452H87.6166V50.9862C87.6213 50.8277 87.5667 50.6732 87.4635 50.5528C87.4123 50.4955 87.3493 50.4499 87.2789 50.4191C87.2084 50.3884 87.1322 50.3731 87.0553 50.3743H86.4685V52.9236L85.3203 52.7197ZM86.4685 49.6095H87.0553C87.1322 49.6108 87.2084 49.5955 87.2789 49.5647C87.3493 49.5339 87.4123 49.4884 87.4635 49.4311C87.5627 49.3084 87.6168 49.1554 87.6166 48.9977V48.4369C87.6213 48.2784 87.5667 48.1239 87.4635 48.0035C87.4084 47.9442 87.3411 47.8976 87.2662 47.8668C87.1913 47.836 87.1107 47.8218 87.0298 47.825H86.4685V49.6095Z" fill="#231F20"/>
<path d="M90.5252 52.7198L90.4997 47.7232L89.3516 47.7487V47.1113H92.796V47.7232H91.6479V52.7198H90.5252Z" fill="#231F20"/>
<path d="M0 44.5618H93V0H0V44.5618ZM28.0658 7.44396H19.2379V44.4853H10.563V7.44396H1.81152V0H28.0658V7.44396ZM59.2189 12.3896C59.3459 13.6195 59.2171 14.8624 58.8407 16.0403C58.4642 17.2181 57.8482 18.3055 57.0313 19.2342C56.2143 20.163 55.2141 20.913 54.0934 21.4373C52.9727 21.9616 51.7556 22.2488 50.5185 22.2809C51.7531 22.3205 52.9665 22.6126 54.0837 23.1394C55.2008 23.6661 56.1979 24.4162 57.0134 25.3433C57.8288 26.2703 58.4453 27.3547 58.8247 28.5293C59.204 29.7039 59.3382 30.9437 59.2189 32.1722V44.4853H50.5185V29.6739C50.542 28.3995 50.0868 27.1626 49.2428 26.2068C48.8619 25.7605 48.3887 25.402 47.8557 25.1562C47.3227 24.9104 46.7426 24.7831 46.1556 24.7831C45.5685 24.7831 44.9884 24.9104 44.4554 25.1562C43.9224 25.402 43.4492 25.7605 43.0683 26.2068C42.2243 27.1626 41.7692 28.3995 41.7926 29.6739V44.4853H33.1687V32.1722C33.0454 30.9388 33.1784 29.6933 33.5594 28.5137C33.9404 27.3341 34.5611 26.2459 35.3828 25.3172C36.2044 24.3885 37.2092 23.6395 38.3342 23.117C39.4591 22.5945 40.68 22.3099 41.9202 22.2809C40.68 22.2519 39.4591 21.9673 38.3342 21.4448C37.2092 20.9223 36.2044 20.1733 35.3828 19.2446C34.5611 18.3159 33.9404 17.2277 33.5594 16.0481C33.1784 14.8685 33.0454 13.623 33.1687 12.3896V0H41.9202V14.8879C41.8967 16.1623 42.3519 17.3992 43.1959 18.355C43.5767 18.8014 44.05 19.1598 44.583 19.4056C45.116 19.6515 45.6961 19.7788 46.2831 19.7788C46.8702 19.7788 47.4502 19.6515 47.9832 19.4056C48.5163 19.1598 48.9895 18.8014 49.3704 18.355C50.2144 17.3992 50.6695 16.1623 50.6461 14.8879V0H59.3465L59.2189 12.3896ZM90.321 14.9389C90.3743 17.4964 89.4636 19.9805 87.7695 21.8985C87.0246 22.8001 86.0893 23.5259 85.0306 24.0239C83.972 24.5219 82.8162 24.7799 81.6461 24.7792H72.8946V44.4853H64.1432V0H81.6461C82.8212 0.000119126 83.9813 0.263559 85.0411 0.770926C86.1008 1.27829 87.0332 2.01667 87.7695 2.9317C89.4636 4.84969 90.3743 7.33379 90.321 9.89129V14.9389Z" fill="#231F20"/>
<path d="M77.232 5.09848H72.8945V19.8844H77.232C77.8245 19.893 78.4114 19.7693 78.9499 19.5223C79.4884 19.2753 79.965 18.9113 80.3447 18.4568C81.2224 17.479 81.6885 16.2005 81.646 14.8878V9.96765C81.6823 8.6758 81.2264 7.41836 80.3703 6.44961C79.9792 6.0071 79.4951 5.65649 78.9525 5.4229C78.41 5.18931 77.8224 5.07853 77.232 5.09848Z" fill="#231F20"/>
</g>
<defs>
<clipPath id="clip0_474_3602">
<rect width="93" height="53" fill="white"/>
</clipPath>
</defs>
</svg>
