<svg width="57" height="55" viewBox="0 0 57 55" fill="none" xmlns="http://www.w3.org/2000/svg">
<g clip-path="url(#clip0_392_371)">
<path d="M28.7097 0L23.4382 9.12611H33.9812L28.7097 0Z" fill="#808080"/>
<path d="M23.4382 9.12598L18.1802 18.2521H28.7097L23.4382 9.12598Z" fill="#808080"/>
<path d="M33.9812 27.3784L28.7097 36.518H39.2528L33.9812 27.3784Z" fill="#808080"/>
<path d="M28.7097 18.2524L23.4382 27.3785H33.9812L28.7097 18.2524Z" fill="#808080"/>
<path d="M18.1802 0L12.9087 9.12611H23.4382L18.1802 0Z" fill="#E6E6E6"/>
<path d="M23.4382 9.12611L28.7097 0H18.1802L23.4382 9.12611Z" fill="#B3B3B3"/>
<path d="M33.9812 9.12611L39.2528 0H28.7097L33.9812 9.12611Z" fill="#333333"/>
<path d="M39.2528 0L33.9812 9.12611H44.5243L39.2528 0Z" fill="#E6E6E6"/>
<path d="M12.9087 9.12598L7.63715 18.2521H18.1802L12.9087 9.12598Z" fill="#E6E6E6"/>
<path d="M18.1802 18.2521L23.4382 9.12598H12.9087L18.1802 18.2521Z" fill="#B3B3B3"/>
<path d="M28.7097 18.2521L33.9812 9.12598H23.4382L28.7097 18.2521Z" fill="#333333"/>
<path d="M33.9812 9.12598L28.7097 18.2521H39.2528L33.9812 9.12598Z" fill="#E6E6E6"/>
<path d="M39.2528 18.2521L44.5243 9.12598H33.9812L39.2528 18.2521Z" fill="#B3B3B3"/>
<path d="M44.5243 9.12598L39.2528 18.2521H49.7823L44.5243 9.12598Z" fill="#E6E6E6"/>
<path d="M39.2528 36.518L44.5243 27.3784H33.9812L39.2528 36.518Z" fill="#B3B3B3"/>
<path d="M28.7097 36.518L33.9812 27.3784H23.4382L28.7097 36.518Z" fill="#333333"/>
<path d="M23.4382 27.3784L18.1802 36.518H28.7097L23.4382 27.3784Z" fill="#E6E6E6"/>
<path d="M18.1802 36.518L23.4382 27.3784H12.9087L18.1802 36.518Z" fill="#B3B3B3"/>
<path d="M44.5243 27.3785L49.7823 18.2524H39.2528L44.5243 27.3785Z" fill="#B3B3B3"/>
<path d="M39.2528 18.2524L33.9812 27.3785H44.5243L39.2528 18.2524Z" fill="#E6E6E6"/>
<path d="M33.9812 27.3785L39.2528 18.2524H28.7097L33.9812 27.3785Z" fill="#333333"/>
<path d="M23.4382 27.3785L28.7097 18.2524H18.1802L23.4382 27.3785Z" fill="#333333"/>
<path d="M18.1802 18.2524L12.9087 27.3785H23.4382L18.1802 18.2524Z" fill="#E6E6E6"/>
<path d="M12.9087 27.3785L18.1802 18.2524H7.63715L12.9087 27.3785Z" fill="#B3B3B3"/>
<path d="M4.05522 48.9699L1.98716 46.2659L1.05451 47.2123V48.9429H0.000205994V42.9805H1.05451V45.9684L3.93357 42.9805H5.28524L2.70355 45.5628L5.40689 48.9699H4.05522Z" fill="white"/>
<path d="M13.1385 48.9703H11.7868L10.3405 46.8746H8.98883V48.9703H7.96156V42.9808H10.3135C10.6463 42.9537 10.9808 42.9537 11.3137 42.9808C11.6434 43.0425 11.9537 43.1815 12.2193 43.3864C12.4234 43.5473 12.588 43.7528 12.7005 43.9872C12.8129 44.2215 12.8703 44.4785 12.8681 44.7384C12.8884 45.1552 12.7654 45.5664 12.5194 45.9034C12.2735 46.2404 11.9195 46.483 11.5165 46.5907L13.1385 48.9703ZM10.381 45.9688C11.3137 45.9688 11.7327 45.6173 11.7327 44.9142C11.7327 44.2112 11.2596 43.9543 10.381 43.9543H9.02938V45.9688H10.381Z" fill="white"/>
<path d="M21.0322 46.6715C21.0475 46.9989 20.9914 47.3257 20.8676 47.6292C20.7439 47.9328 20.5556 48.2057 20.3158 48.4291C19.8052 48.8865 19.1352 49.1244 18.4505 49.0916C17.7615 49.1266 17.0865 48.8885 16.5717 48.4291C16.3351 48.2039 16.1498 47.9303 16.0285 47.627C15.9072 47.3237 15.8527 46.9978 15.8688 46.6715V42.9805H16.9231V46.3199C16.8831 46.8056 17.028 47.2885 17.3286 47.672C17.4725 47.8228 17.6472 47.9407 17.8408 48.0177C18.0344 48.0947 18.2424 48.129 18.4505 48.1181C18.6615 48.1325 18.8729 48.0972 19.0678 48.015C19.2626 47.9328 19.4355 47.8061 19.5724 47.6449C19.8719 47.2609 20.0166 46.7785 19.9779 46.2929V42.9805H21.0322V46.6715Z" fill="white"/>
<path d="M29.1963 48.9838H28.2907L24.9791 44.6167V48.9162H23.9383V42.9673H24.9386L28.142 47.1585V42.9808H29.1963V48.9838Z" fill="white"/>
<path d="M37.5497 48.2265C36.8236 48.7822 35.9362 49.0859 35.022 49.0918C34.6046 49.1068 34.1885 49.0353 33.8001 48.8818C33.4116 48.7282 33.0591 48.4959 32.7647 48.1994C32.2004 47.5938 31.8865 46.7966 31.8865 45.9686C31.8865 45.1406 32.2004 44.3435 32.7647 43.7378C33.057 43.4424 33.4073 43.2106 33.7934 43.0571C34.1795 42.9035 34.5932 42.8315 35.0085 42.8455C35.8509 42.8358 36.668 43.1338 37.3064 43.6837L36.6575 44.4814C36.3927 44.2627 36.0965 44.0849 35.779 43.9541C35.5291 43.8793 35.2693 43.8429 35.0085 43.846C34.7358 43.8369 34.4644 43.8866 34.2125 43.9916C33.9607 44.0965 33.7343 44.2543 33.5487 44.4544C33.177 44.8695 32.9786 45.4115 32.9945 45.9686C32.9781 46.5348 33.1872 47.0844 33.5757 47.4964C33.7553 47.6985 33.9761 47.8598 34.2233 47.9695C34.4704 48.0791 34.7382 48.1344 35.0085 48.1318C35.5412 48.1322 36.0608 47.9668 36.4953 47.6586V46.55H34.9004V45.5901H37.6037L37.5497 48.2265Z" fill="white"/>
<path d="M44.4567 44.6164C43.9469 44.1781 43.3037 43.9255 42.6319 43.8998C42.3583 43.885 42.0875 43.9611 41.8615 44.1161C41.7855 44.1777 41.7251 44.2563 41.6852 44.3455C41.6452 44.4348 41.6269 44.5322 41.6317 44.6299C41.6317 44.9138 41.9291 45.1437 42.5238 45.3059C43.0868 45.4427 43.6382 45.6236 44.1728 45.8467C44.447 45.9812 44.6767 46.1915 44.8349 46.4528C44.993 46.714 45.0729 47.0151 45.0649 47.3204C45.0753 47.5845 45.0188 47.8469 44.9006 48.0832C44.7825 48.3196 44.6065 48.5223 44.3891 48.6724C43.943 48.9854 43.4061 49.1422 42.8617 49.1186C42.3745 49.1186 41.8922 49.0221 41.4425 48.8347C40.966 48.6475 40.54 48.3512 40.1989 47.9694L40.9694 47.2258C41.2117 47.4985 41.5066 47.7193 41.8365 47.875C42.1663 48.0307 42.5243 48.118 42.8888 48.1316C43.1276 48.1439 43.3655 48.0926 43.5781 47.9829C43.6936 47.9233 43.7894 47.8316 43.8541 47.7189C43.9189 47.6062 43.9497 47.4773 43.9431 47.3475C43.9431 46.9283 43.4565 46.5903 42.4697 46.3605C41.9945 46.27 41.5377 46.101 41.1181 45.8602C40.9214 45.7221 40.7652 45.534 40.6654 45.3154C40.5656 45.0968 40.5259 44.8555 40.5504 44.6164C40.5373 44.3534 40.5912 44.0913 40.707 43.8548C40.8228 43.6184 40.9968 43.4152 41.2127 43.2644C41.6511 42.9448 42.1846 42.7828 42.7266 42.8047C43.6112 42.7947 44.4682 43.1126 45.1325 43.697L44.4567 44.6164Z" fill="white"/>
<path d="M52.9722 48.9702H51.6206L50.1067 46.8746H48.755V48.9702H47.7007V42.9808H50.1472C50.4755 42.953 50.8056 42.953 51.134 42.9808C51.4685 43.04 51.7839 43.1791 52.0531 43.3864C52.2572 43.5473 52.4218 43.7528 52.5342 43.9872C52.6467 44.2215 52.704 44.4785 52.7019 44.7384C52.7188 45.1643 52.5861 45.5827 52.3269 45.9211C52.0676 46.2594 51.6982 46.4963 51.2826 46.5907L52.9722 48.9702ZM50.2689 45.9552C51.2015 45.9552 51.6206 45.6037 51.6206 44.9007C51.6206 44.1976 51.161 43.9407 50.2689 43.9407H48.9172V45.9688L50.2689 45.9552Z" fill="white"/>
<path d="M56.9056 48.9699H55.8242V42.9805H56.9056V48.9699Z" fill="white"/>
<path d="M0.838243 53.4451V54.9188H0.000205994V51.0791H2.91982V51.8498H0.838243V52.7286H2.5819V53.4992L0.838243 53.4451Z" fill="white"/>
<path d="M6.59637 54.9188V51.0791H7.44792V54.9188H6.59637Z" fill="white"/>
<path d="M14.017 54.9322L12.1653 52.431V54.9187H11.3272V51.0654H12.1653L13.963 53.4855V51.0789H14.7875V54.9322H14.017Z" fill="white"/>
<path d="M21.262 54.9322L19.3967 52.431V54.9187H18.5587V51.0654H19.3426L21.1404 53.4855V51.0789H21.9649V54.9322H21.262Z" fill="white"/>
<path d="M27.6689 54.9998C27.2764 54.9866 26.8965 54.858 26.5765 54.6303C26.2566 54.4025 26.0107 54.0855 25.8696 53.7189C25.7285 53.3523 25.6984 52.9523 25.7831 52.5687C25.8677 52.1851 26.0634 51.8349 26.3457 51.5618C26.6279 51.2887 26.9843 51.1047 27.3704 51.0328C27.7565 50.9609 28.1552 51.0043 28.5169 51.1575C28.8785 51.3108 29.187 51.5671 29.404 51.8945C29.6209 52.222 29.7368 52.606 29.737 52.9989C29.741 53.2685 29.6897 53.5361 29.5863 53.7852C29.4829 54.0342 29.3296 54.2595 29.1358 54.447C28.942 54.6345 28.7119 54.7803 28.4596 54.8753C28.2073 54.9704 27.9382 55.0128 27.6689 54.9998ZM28.8179 52.9989C28.8354 52.8366 28.8186 52.6724 28.7686 52.517C28.7185 52.3616 28.6363 52.2185 28.5273 52.097C28.4182 51.9755 28.2849 51.8783 28.1358 51.8118C27.9868 51.7453 27.8254 51.7109 27.6622 51.7109C27.499 51.7109 27.3376 51.7453 27.1885 51.8118C27.0395 51.8783 26.9061 51.9755 26.7971 52.097C26.6881 52.2185 26.6058 52.3616 26.5558 52.517C26.5057 52.6724 26.4889 52.8366 26.5065 52.9989C26.4889 53.1612 26.5057 53.3254 26.5558 53.4807C26.6058 53.6361 26.6881 53.7792 26.7971 53.9007C26.9061 54.0222 27.0395 54.1194 27.1885 54.1859C27.3376 54.2524 27.499 54.2868 27.6622 54.2868C27.8254 54.2868 27.9868 54.2524 28.1358 54.1859C28.2849 54.1194 28.4182 54.0222 28.5273 53.9007C28.6363 53.7792 28.7185 53.6361 28.7686 53.4807C28.8186 53.3254 28.8354 53.1612 28.8179 52.9989Z" fill="white"/>
<path d="M34.603 54.9323L33.0351 51.0791H33.9812L34.9815 53.7831L35.9817 51.0791H36.9008L35.3329 54.9323H34.603Z" fill="white"/>
<path d="M43.3213 54.9187L42.9293 53.9588H41.3884L41.0099 54.9187H40.1043L41.7669 51.0249H42.5508L44.1999 54.9187H43.3213ZM42.1589 52.0524L41.6858 53.2287H42.6319L42.1589 52.0524Z" fill="white"/>
<path d="M48.5658 54.9188V51.8498H47.3898V51.0791H50.5663V51.8498H49.3903V54.9188H48.5658Z" fill="white"/>
<path d="M54.0671 54.9188V51.0791H56.9597V51.8498H54.9051V52.5934H56.7704V53.364H54.9051V54.1482H57.0002V54.9188H54.0671Z" fill="white"/>
</g>
<defs>
<clipPath id="clip0_392_371">
<rect width="57" height="55" fill="white"/>
</clipPath>
</defs>
</svg>
