<svg width="41" height="58" viewBox="0 0 41 58" fill="none" xmlns="http://www.w3.org/2000/svg">
<path d="M23.6051 11.4222C24.022 11.6869 24.3694 12.0477 24.6182 12.4742C24.867 12.9008 25.0101 13.3808 25.0353 13.8739C25.0353 14.7866 24.3951 15.1543 23.6051 14.6912C23.2014 14.4151 22.8679 14.0483 22.6314 13.6202C22.3948 13.1921 22.2618 12.7145 22.243 12.2258C22.2021 11.3404 22.8423 10.9727 23.6051 11.4222Z" fill="white"/>
<path d="M10.9237 28.4353C10.3115 28.4476 9.70638 28.3022 9.16661 28.013L8.82608 27.8223C8.31236 27.593 7.86883 27.2312 7.54093 26.7741C7.21303 26.3169 7.01254 25.7808 6.95999 25.2207C7.01454 24.6367 7.22206 24.0774 7.56162 23.5991C7.90119 23.1208 8.36082 22.7405 8.89418 22.4965L16.1542 18.2058C16.3171 18.1088 16.438 17.9546 16.4934 17.7733C16.5488 17.592 16.5347 17.3966 16.4539 17.2251L15.7728 15.863L14.4924 16.8982C14.2567 17.075 13.9699 17.1706 13.6752 17.1706C13.3805 17.1706 13.0937 17.075 12.8579 16.8982C12.3865 16.6131 11.9933 16.2152 11.7137 15.7404C10.9237 14.4873 10.9237 13.166 11.6456 12.6076L13.2938 11.3136C13.3226 11.2792 13.3384 11.2358 13.3384 11.191C13.3384 11.1461 13.3226 11.1027 13.2938 11.0684L11.5503 7.55414C11.3532 7.2157 11.2274 6.84055 11.1806 6.45173C11.1337 6.06291 11.1668 5.66861 11.2779 5.29305C11.3317 5.13339 11.4209 4.98797 11.5388 4.86766C11.6567 4.74736 11.8004 4.6553 11.9589 4.59837C12.184 4.51934 12.4245 4.49418 12.661 4.52494C12.8976 4.55569 13.1236 4.64149 13.321 4.77544C13.9041 5.14623 14.375 5.66895 14.6831 6.28738L16.0452 9.0116L17.312 8.00364C17.5453 7.83317 17.8267 7.7413 18.1157 7.7413C18.4046 7.7413 18.686 7.83317 18.9193 8.00364C19.3868 8.282 19.7795 8.67003 20.0635 9.13419C20.8399 10.3328 20.8944 11.7222 20.1861 12.2943L18.4698 13.6564C18.4543 13.6757 18.4459 13.6997 18.4459 13.7245C18.4459 13.7493 18.4543 13.7733 18.4698 13.7926L20.295 17.3477C20.5328 17.7299 20.6722 18.1651 20.7008 18.6143C20.7293 19.0636 20.646 19.5129 20.4585 19.9221C20.3068 20.232 20.0645 20.4885 19.7638 20.6576L18.7558 21.2433L19.6821 21.7609C19.8999 21.8639 20.0866 22.0227 20.2229 22.2214C20.3593 22.42 20.4406 22.6512 20.4585 22.8915C20.4423 23.1252 20.3661 23.3508 20.2372 23.5464C20.1084 23.7421 19.9312 23.9012 19.7229 24.0084C19.2382 24.257 18.7013 24.3867 18.1565 24.3867C17.6118 24.3867 17.0748 24.257 16.5901 24.0084L15.3097 23.2865L12.5174 24.9346C12.2722 25.0708 12.2177 25.1934 12.2177 25.2207C12.265 25.2741 12.3201 25.32 12.3812 25.3569L12.6945 25.5203C12.9336 25.6357 13.1379 25.8125 13.2863 26.0326C13.4347 26.2528 13.5219 26.5085 13.539 26.7735C13.5281 27.0313 13.4476 27.2814 13.3061 27.4972C13.1647 27.713 12.9674 27.8866 12.7353 27.9994C12.1789 28.2978 11.555 28.4479 10.9237 28.4353ZM15.8273 15.1275H15.9635C16.0595 15.1461 16.1499 15.1865 16.2278 15.2456C16.3057 15.3046 16.3691 15.3807 16.413 15.468L17.1213 16.8301C17.2886 17.1693 17.3226 17.559 17.2167 17.9221C17.1108 18.2852 16.8726 18.5954 16.5492 18.7915L9.30282 23.1639C8.87971 23.3515 8.51136 23.6437 8.23253 24.0131C7.9537 24.3825 7.77357 24.8169 7.70915 25.2752C7.76749 25.7056 7.93611 26.1136 8.19863 26.4597C8.46116 26.8057 8.80868 27.0781 9.20747 27.2502L9.548 27.4409C9.98351 27.659 10.4639 27.7726 10.951 27.7726C11.4381 27.7726 11.9184 27.659 12.3539 27.4409C12.4752 27.3878 12.5811 27.3051 12.662 27.2004C12.7429 27.0957 12.7962 26.9723 12.8171 26.8416C12.8171 26.6237 12.64 26.4057 12.3267 26.2286L12.0134 26.0516C11.8645 25.9855 11.737 25.879 11.6455 25.7442C11.5541 25.6094 11.5022 25.4516 11.4958 25.2888C11.5146 25.0943 11.5834 24.908 11.6956 24.7481C11.8078 24.5881 11.9595 24.46 12.136 24.3762L15.2961 22.5101L15.4868 22.6191L16.9442 23.4499C17.3174 23.6328 17.7274 23.7278 18.1429 23.7278C18.5584 23.7278 18.9684 23.6328 19.3415 23.4499C19.5867 23.3001 19.7229 23.123 19.7229 22.9732C19.7229 22.8234 19.5731 22.6191 19.3143 22.4692L18.2382 21.8018C18.1418 21.7511 18.0614 21.6746 18.006 21.5808C17.9507 21.4869 17.9226 21.3795 17.925 21.2706C17.9232 21.1615 17.9499 21.0539 18.0024 20.9583C18.055 20.8628 18.1316 20.7826 18.2246 20.7257L19.396 20.031C19.5664 19.9401 19.708 19.8033 19.8047 19.636C19.9436 19.3305 20.005 18.9954 19.9837 18.6604C19.9623 18.3254 19.8587 18.0009 19.6821 17.7155L17.8569 14.1604C17.7713 13.9873 17.7477 13.7902 17.7898 13.6019C17.8319 13.4135 17.9373 13.2453 18.0884 13.1252L19.791 11.7631C20.1452 11.477 20.1316 10.4963 19.5186 9.57006C19.2979 9.20524 18.9947 8.89732 18.6333 8.67107C18.4698 8.57573 18.0748 8.38503 17.8296 8.58935L16.5629 9.59731C16.4695 9.6649 16.3635 9.71301 16.2512 9.73875C16.1389 9.76449 16.0225 9.76734 15.909 9.74714C15.7984 9.72033 15.6949 9.66994 15.6056 9.59941C15.5162 9.52888 15.4432 9.43988 15.3914 9.33851L14.0293 6.61429C13.773 6.13123 13.3859 5.73002 12.9124 5.4565C12.8257 5.38562 12.7253 5.33333 12.6175 5.30287C12.5097 5.27241 12.3968 5.26443 12.2858 5.27942C12.2226 5.30487 12.1656 5.34356 12.1186 5.3929C12.0716 5.44225 12.0357 5.50109 12.0134 5.56547C11.8836 6.12766 11.9763 6.71827 12.2722 7.21362L14.0702 10.7415C14.1657 10.9328 14.1922 11.1512 14.145 11.3598C14.0978 11.5683 13.98 11.7541 13.8114 11.8856L12.1632 13.1796C11.8091 13.4521 11.8091 14.3647 12.4357 15.3863C12.6547 15.756 12.9581 16.0688 13.321 16.2989C13.4845 16.3942 13.8795 16.5713 14.1247 16.2989L15.4868 15.2092C15.5915 15.1533 15.7087 15.1252 15.8273 15.1275Z" fill="white"/>
<path d="M23.5234 15.8901C23.8277 16.0829 24.0743 16.3542 24.2373 16.6755C24.4004 16.9967 24.4737 17.356 24.4496 17.7154L24.0955 19.2137C24.0001 19.704 23.5642 19.7449 23.1556 19.4997C22.9349 19.3687 22.7445 19.1923 22.5972 18.9821C22.4512 18.7899 22.3458 18.5701 22.2873 18.336C22.2288 18.1019 22.2183 17.8583 22.2566 17.62L22.5972 16.1081C22.612 16.0162 22.6501 15.9296 22.7078 15.8566C22.7656 15.7836 22.8412 15.7266 22.9272 15.6911C23.0133 15.6556 23.107 15.6427 23.1994 15.6537C23.2919 15.6647 23.38 15.6992 23.4553 15.7539L23.5234 15.8901Z" fill="white"/>
<path d="M26.9968 37.0165C26.7569 37.014 26.522 36.9482 26.3157 36.8258C25.9222 36.5778 25.5934 36.2397 25.3565 35.8394C25.1196 35.4391 24.9815 34.9881 24.9536 34.5238C24.9378 34.3273 24.975 34.1302 25.0612 33.9529C25.1475 33.7757 25.2796 33.6247 25.444 33.5159C25.6229 33.4288 25.8217 33.3904 26.0202 33.4048C26.2187 33.4191 26.4099 33.4857 26.5745 33.5976C26.9678 33.8425 27.2967 34.1781 27.5336 34.5762C27.7706 34.9744 27.9088 35.4234 27.9366 35.8859C27.9535 36.0859 27.9155 36.2868 27.8267 36.4668C27.7379 36.6468 27.6016 36.7992 27.4326 36.9075C27.2999 36.9825 27.1492 37.0202 26.9968 37.0165ZM25.9071 33.979C25.8538 33.9631 25.797 33.9631 25.7436 33.979C25.6074 34.0471 25.5393 34.2378 25.5393 34.483C25.5622 34.842 25.6675 35.191 25.847 35.5028C26.0266 35.8146 26.2755 36.0809 26.5745 36.2809C26.6448 36.3498 26.7358 36.3937 26.8334 36.4059C26.9311 36.4181 27.0301 36.3979 27.1151 36.3484C27.2002 36.2989 27.2667 36.2228 27.3043 36.1319C27.342 36.041 27.3488 35.9402 27.3237 35.8451C27.3044 35.4916 27.2048 35.1472 27.0325 34.8381C26.8603 34.5289 26.6198 34.263 26.3293 34.0607C26.1991 33.9942 26.0527 33.9659 25.9071 33.979Z" fill="white"/>
<path d="M29.3128 39.2639C30.6821 40.0682 31.8474 41.1776 32.718 42.5057C33.4672 43.609 33.617 44.9302 33.0313 45.4342C32.8343 45.5802 32.5955 45.659 32.3503 45.659C32.105 45.659 31.8663 45.5802 31.6692 45.4342C31.2595 45.1717 30.9073 44.8288 30.634 44.4263C30.3081 43.9286 29.8753 43.5098 29.3673 43.2004C28.2367 42.5466 27.2832 43.0778 27.2832 44.3854C27.3228 45.1069 27.5307 45.8091 27.8902 46.4358C28.2497 47.0626 28.7509 47.5965 29.3536 47.995C29.5378 48.1181 29.7452 48.2021 29.963 48.242C30.1809 48.2818 30.4046 48.2765 30.6204 48.2265C30.799 48.1862 30.984 48.1823 31.1642 48.215C31.3444 48.2478 31.5162 48.3166 31.6692 48.4172C32.2662 48.8014 32.7393 49.3502 33.0313 49.9973C33.5898 51.1823 33.4536 52.3401 32.7044 52.5444C32.1309 52.6806 31.5353 52.6952 30.9559 52.5873C30.3764 52.4793 29.826 52.2513 29.34 51.9179C27.7447 50.8703 26.4196 49.4606 25.4728 47.8036C24.5259 46.1466 23.9841 44.2893 23.8916 42.3831C23.7962 38.9233 26.2753 37.5068 29.3128 39.2639Z" fill="white"/>
<path d="M26.9695 26.8142C27.8276 27.3318 27.7459 28.1763 26.8469 28.6258C26.3495 28.8657 25.8039 28.9891 25.2517 28.9867C24.6994 28.9844 24.1549 28.8563 23.6596 28.6122C23.2758 28.4161 22.851 28.3138 22.42 28.3138C21.9891 28.3138 21.5643 28.4161 21.1805 28.6122L17.1896 30.9005C16.7015 31.146 16.1627 31.2739 15.6163 31.2739C15.07 31.2739 14.5312 31.146 14.0431 30.9005C13.1713 30.3829 13.1577 29.5384 14.0431 29.0753L20.8536 25.0707C21.3131 24.8352 21.822 24.7124 22.3383 24.7124C22.8546 24.7124 23.3635 24.8352 23.823 25.0707C23.9828 25.145 24.1235 25.2547 24.2345 25.3916C24.3454 25.5286 24.4237 25.689 24.4632 25.8607C25.3461 26.0362 26.1932 26.3585 26.9695 26.8142Z" fill="white"/>
<path d="M10.1476 8.739C10.2566 10.1828 9.46655 10.4144 8.336 9.76058L3.0374 6.69584C3.4893 7.82112 4.28551 8.77466 5.31212 9.42006C5.76779 9.7098 6.29771 9.86121 6.83768 9.85593C7.0765 9.83398 7.31589 9.89144 7.51873 10.0194C8.05211 10.3706 8.46183 10.8804 8.69014 11.4768C9.05791 12.4439 8.83998 13.2748 8.19979 13.3429C7.19354 13.3834 6.19933 13.1123 5.35298 12.5665C3.06522 11.124 1.3471 8.93421 0.490257 6.36894C-0.0909092 4.82356 -0.0909092 3.11969 0.490257 1.57432C1.14407 0.00789244 2.87395 -0.591435 5.12142 0.716188C6.49182 1.60794 7.6514 2.78766 8.51943 4.17321C9.38746 5.55876 9.94308 7.11685 10.1476 8.739ZM3.06464 4.09422L7.15096 6.45066C6.8695 5.25967 6.13068 4.22727 5.09418 3.57661C4.11346 3.00453 3.24171 3.33143 3.06464 4.09422Z" fill="white"/>
<path d="M20.7452 35.7361C21.1778 36.0182 21.5376 36.3984 21.7956 36.8457C22.0536 37.293 22.2024 37.7949 22.2299 38.3105V46.3197C22.2299 47.2596 21.5489 47.6818 20.7452 47.1642C20.2746 46.8751 19.8891 46.4661 19.6283 45.9792C18.7465 45.9881 17.881 45.7422 17.1357 45.2709C15.6557 44.3079 14.4241 43.009 13.5412 41.4799C12.6583 39.9509 12.149 38.2348 12.055 36.4717C12.055 33.2571 14.357 31.9358 17.1629 33.5567C18.0977 34.1279 18.9271 34.856 19.6147 35.7089C19.7806 35.5901 19.9806 35.5285 20.1845 35.5334C20.3885 35.5384 20.5853 35.6095 20.7452 35.7361ZM17.122 41.634C18.1981 42.2606 19.0562 41.7703 19.0562 40.5307C19.0236 39.8621 18.8324 39.2107 18.4985 38.6305C18.1645 38.0503 17.6974 37.5577 17.1357 37.1936C16.0596 36.5806 15.2015 37.071 15.2015 38.2969C15.2308 38.9663 15.4206 39.6189 15.7548 40.1997C16.089 40.7804 16.558 41.2724 17.122 41.634Z" fill="white"/>
<path d="M36.5182 41.0072C36.9764 41.3071 37.3587 41.7093 37.6353 42.1819C37.9118 42.6546 38.0749 43.185 38.1119 43.7314V45.543L39.5693 46.3739C39.9696 46.6406 40.3015 46.9979 40.5382 47.4167C40.7748 47.8356 40.9095 48.3042 40.9314 48.7848C40.9314 49.6566 40.3048 50.0107 39.5693 49.5612L38.1663 48.7439V52.2173C38.1584 52.5335 38.2304 52.8466 38.3757 53.1275C38.5209 53.4085 38.7347 53.6482 38.9972 53.8246L39.2969 54.0017C39.7555 54.3 40.1375 54.702 40.412 55.1753C40.6865 55.6485 40.8457 56.1797 40.8769 56.7259C40.8769 57.7339 40.155 58.088 39.2833 57.6249L38.9836 57.4614C37.783 56.7032 36.784 55.6652 36.0724 54.4363C35.3607 53.2075 34.9575 51.8245 34.8973 50.4057V41.9334C34.9245 40.871 35.6464 40.5032 36.5182 41.0072Z" fill="white"/>
<path d="M20.7445 35.7361C21.1786 36.0166 21.5396 36.3964 21.7978 36.844C22.0559 37.2917 22.2038 37.7944 22.2292 38.3105V46.3197C22.2292 47.2596 21.5482 47.6818 20.7309 47.1642C20.2668 46.867 19.8832 46.46 19.614 45.9792C18.7324 45.9866 17.8672 45.7408 17.1213 45.2709C15.6436 44.3055 14.4137 43.0061 13.5311 41.4775C12.6485 39.9489 12.1379 38.2341 12.0406 36.4717C12.0406 33.2571 14.3562 31.9358 17.1622 33.5567C18.0907 34.1311 18.9151 34.8588 19.6003 35.7089C19.7675 35.5868 19.9702 35.5233 20.1771 35.5283C20.3839 35.5332 20.5834 35.6063 20.7445 35.7361ZM17.1213 41.634C18.1974 42.2606 19.0555 41.7703 19.0555 40.5307C19.0262 39.8613 18.8364 39.2087 18.5022 38.628C18.1679 38.0472 17.699 37.5553 17.1349 37.1936C16.0589 36.5806 15.2007 37.071 15.2007 38.2969C15.2334 38.9656 15.4246 39.6169 15.7585 40.1971C16.0924 40.7774 16.5596 41.2699 17.1213 41.634Z" fill="white"/>
</svg>
