<svg width="42" height="54" viewBox="0 0 42 54" fill="none" xmlns="http://www.w3.org/2000/svg">
<g clip-path="url(#clip0_392_415)">
<path d="M6.03863 44.6282C6.03226 44.9643 5.95515 45.2953 5.81238 45.5993C5.6696 45.9033 5.46439 46.1735 5.21028 46.3919C4.95616 46.6104 4.6589 46.7723 4.33807 46.8669C4.01724 46.9615 3.68012 46.9866 3.34891 46.9407H2.00405C1.89599 46.9568 1.78572 46.9487 1.68117 46.9168C1.57662 46.885 1.48039 46.8302 1.39938 46.7565C1.31837 46.6828 1.25461 46.592 1.21266 46.4906C1.17072 46.3891 1.15163 46.2796 1.15679 46.1699V42.3427C1.15367 42.2341 1.17425 42.1261 1.21709 42.0263C1.25992 41.9266 1.32398 41.8375 1.40474 41.7653C1.4855 41.6931 1.58101 41.6396 1.68455 41.6085C1.78809 41.5774 1.89715 41.5695 2.00405 41.5854H3.34891C3.67936 41.5373 4.01619 41.5606 4.33703 41.6535C4.65787 41.7465 4.95536 41.907 5.20976 42.1244C5.46416 42.3419 5.66964 42.6113 5.81255 42.9147C5.95546 43.2182 6.03252 43.5487 6.03863 43.8844V44.6282ZM2.89166 42.9648V45.5884H3.38926C3.51449 45.5924 3.63918 45.57 3.75536 45.5228C3.87153 45.4756 3.97664 45.4046 4.06397 45.3142C4.15129 45.2239 4.21892 45.1162 4.26252 44.9981C4.30613 44.8799 4.32475 44.754 4.31721 44.6282V43.8573C4.32105 43.7344 4.29956 43.6119 4.25411 43.4977C4.20865 43.3835 4.14021 43.28 4.05307 43.1936C3.96594 43.1073 3.86199 43.04 3.74775 42.9959C3.63352 42.9519 3.51147 42.9321 3.38926 42.9377L2.89166 42.9648Z" fill="white"/>
<path d="M6.84555 44.8849V42.2749C6.84301 42.1671 6.8634 42.06 6.90534 41.9607C6.94728 41.8615 7.00981 41.7724 7.08875 41.6994C7.16768 41.6265 7.26121 41.5713 7.36306 41.5376C7.46492 41.5039 7.57275 41.4924 7.67936 41.504C7.78701 41.4903 7.89633 41.5002 7.99983 41.533C8.10333 41.5657 8.19857 41.6206 8.27903 41.6938C8.35949 41.767 8.42327 41.8568 8.46601 41.9571C8.50874 42.0574 8.52942 42.1658 8.52662 42.2749V44.8849C8.52662 45.0894 8.60739 45.2854 8.75115 45.43C8.89491 45.5746 9.08989 45.6558 9.29319 45.6558C9.4965 45.6558 9.69148 45.5746 9.83524 45.43C9.979 45.2854 10.0598 45.0894 10.0598 44.8849V42.2749C10.057 42.1658 10.0776 42.0574 10.1204 41.9571C10.1631 41.8568 10.2269 41.767 10.3074 41.6938C10.3878 41.6206 10.4831 41.5657 10.5866 41.533C10.6901 41.5002 10.7994 41.4903 10.907 41.504C11.0136 41.4924 11.1215 41.5039 11.2233 41.5376C11.3252 41.5713 11.4187 41.6265 11.4976 41.6994C11.5766 41.7724 11.6391 41.8615 11.681 41.9607C11.723 42.06 11.7434 42.1671 11.7408 42.2749V44.8849C11.7466 45.2001 11.6854 45.5129 11.5614 45.8025C11.4375 46.092 11.2536 46.3516 11.0219 46.5641C10.7903 46.7765 10.5163 46.9369 10.2182 47.0344C9.92014 47.132 9.60478 47.1645 9.29319 47.1299C8.98161 47.1645 8.66625 47.132 8.36815 47.0344C8.07006 46.9369 7.79607 46.7765 7.56445 46.5641C7.33284 46.3516 7.14891 46.092 7.02495 45.8025C6.90098 45.5129 6.83983 45.2001 6.84555 44.8849Z" fill="white"/>
<path d="M12.5478 43.7354C12.5518 43.4095 12.6231 43.088 12.7572 42.7912C12.8913 42.4945 13.0853 42.229 13.3268 42.0116C13.5683 41.7942 13.852 41.6296 14.1601 41.5282C14.4682 41.4269 14.7939 41.391 15.1164 41.4229C16.4613 41.4229 17.2279 42.1937 17.2279 42.7753C17.2279 43.3568 16.9589 43.465 16.3806 43.465C15.8023 43.465 15.6947 42.924 15.1164 42.924C15.0036 42.9182 14.8909 42.9362 14.7855 42.977C14.6801 43.0178 14.5843 43.0803 14.5045 43.1606C14.4246 43.2409 14.3624 43.3372 14.3219 43.4432C14.2813 43.5492 14.2634 43.6626 14.2692 43.776V44.8579C14.2653 44.9702 14.2847 45.0821 14.3261 45.1865C14.3675 45.2909 14.43 45.3855 14.5096 45.4643C14.5893 45.5432 14.6843 45.6045 14.7888 45.6444C14.8933 45.6844 15.0048 45.7021 15.1164 45.6964C15.762 45.6964 15.8427 45.169 16.4613 45.169C17.0799 45.169 17.2951 45.4259 17.2951 45.8587C17.2951 46.2914 16.5285 47.211 15.1164 47.211C14.7939 47.2429 14.4682 47.207 14.1601 47.1057C13.852 47.0044 13.5683 46.8398 13.3268 46.6223C13.0853 46.4049 12.8913 46.1394 12.7572 45.8427C12.6231 45.5459 12.5518 45.2244 12.5478 44.8985V43.7354Z" fill="white"/>
<path d="M19.5545 45.3854V46.2779C19.5593 46.3864 19.5405 46.4945 19.4993 46.5949C19.4581 46.6952 19.3956 46.7852 19.3162 46.8587C19.2367 46.9322 19.1422 46.9872 19.0393 47.0201C18.9365 47.0529 18.8277 47.0627 18.7207 47.0488C18.613 47.0625 18.5037 47.0526 18.4002 47.0198C18.2967 46.9871 18.2015 46.9322 18.121 46.859C18.0405 46.7858 17.9768 46.696 17.934 46.5957C17.8913 46.4954 17.8706 46.387 17.8734 46.2779V42.2208C17.8706 42.1118 17.8913 42.0034 17.934 41.9031C17.9768 41.8028 18.0405 41.713 18.121 41.6398C18.2015 41.5666 18.2967 41.5117 18.4002 41.4789C18.5037 41.4462 18.613 41.4363 18.7207 41.45C18.8277 41.4361 18.9365 41.4459 19.0393 41.4787C19.1422 41.5116 19.2367 41.5666 19.3162 41.6401C19.3956 41.7135 19.4581 41.8036 19.4993 41.9039C19.5405 42.0042 19.5593 42.1124 19.5545 42.2208V43.3027L21.249 41.6799C21.4161 41.5317 21.6313 41.4499 21.8542 41.45C21.9564 41.4441 22.0587 41.46 22.1543 41.4967C22.25 41.5333 22.3369 41.5899 22.4092 41.6627C22.4816 41.7355 22.5379 41.8228 22.5743 41.919C22.6108 42.0152 22.6266 42.1181 22.6208 42.2208C22.6154 42.3386 22.5851 42.4539 22.5317 42.5588C22.4784 42.6638 22.4033 42.7561 22.3114 42.8294L21.249 43.8707L22.5939 45.5341C22.7601 45.7298 22.8674 45.969 22.9032 46.2238C22.9057 46.3316 22.8853 46.4387 22.8434 46.538C22.8015 46.6372 22.7389 46.7263 22.66 46.7993C22.581 46.8722 22.4875 46.9274 22.3857 46.9611C22.2838 46.9948 22.176 47.0063 22.0694 46.9947C21.9273 46.984 21.7887 46.945 21.6618 46.88C21.5348 46.815 21.4219 46.7253 21.3297 46.616L19.9848 44.9526L19.5545 45.3854Z" fill="white"/>
<path d="M29.0223 45.4262C29.2256 45.4262 29.4206 45.5074 29.5643 45.6519C29.7081 45.7965 29.7889 45.9926 29.7889 46.197C29.7889 46.4014 29.7081 46.5975 29.5643 46.7421C29.4206 46.8866 29.2256 46.9678 29.0223 46.9678H26.3326C26.2255 46.9818 26.1168 46.972 26.0139 46.9391C25.911 46.9063 25.8165 46.8512 25.7371 46.7778C25.6576 46.7043 25.5951 46.6143 25.554 46.5139C25.5128 46.4136 25.4939 46.3054 25.4988 46.197V42.2751C25.5247 42.0694 25.6244 41.8802 25.7791 41.7431C25.9339 41.6059 26.133 41.5303 26.3393 41.5303C26.5456 41.5303 26.7447 41.6059 26.8995 41.7431C27.0542 41.8802 27.1539 42.0694 27.1798 42.2751V45.4262H29.0223Z" fill="white"/>
<path d="M31.8869 46.2778C31.8304 46.4845 31.7126 46.669 31.5492 46.8067C31.3858 46.9444 31.1846 47.0288 30.9724 47.0486C30.8659 47.056 30.7592 47.0416 30.6584 47.0065C30.5576 46.9714 30.4649 46.9162 30.3858 46.8443C30.3067 46.7723 30.2429 46.6851 30.1981 46.5877C30.1533 46.4904 30.1285 46.385 30.1251 46.2778C30.1593 46.0394 30.2273 45.8071 30.3268 45.5881L31.5506 42.3424C31.6544 42.0682 31.8386 41.8323 32.0788 41.6658C32.319 41.4993 32.6038 41.4102 32.8955 41.4102C33.1872 41.4102 33.472 41.4993 33.7122 41.6658C33.9524 41.8323 34.1366 42.0682 34.2404 42.3424L35.4642 45.5881C35.557 45.8086 35.6203 46.0405 35.6525 46.2778C35.6509 46.3844 35.6277 46.4895 35.5844 46.5868C35.5411 46.6841 35.4785 46.7714 35.4004 46.8436C35.3224 46.9157 35.2306 46.9711 35.1306 47.0064C35.0305 47.0416 34.9244 47.056 34.8187 47.0486C34.6064 47.0288 34.4052 46.9444 34.2418 46.8067C34.0784 46.669 33.9606 46.4845 33.9041 46.2778L33.7024 45.818H32.0886L31.8869 46.2778ZM33.3528 44.425L32.9224 43.2755H32.8552L32.4248 44.425H33.3528Z" fill="white"/>
<path d="M38.517 41.5853C40.1308 41.5853 40.736 42.1939 40.736 43.0053C40.7224 43.2446 40.6347 43.4737 40.4852 43.6604C40.3356 43.8471 40.1318 43.9822 39.9022 44.0466V44.1278C39.9022 44.1278 41.0454 44.3577 41.0454 45.3855C41.0454 46.4133 40.3595 46.9678 38.7456 46.9678H36.9839C36.8768 46.9817 36.7681 46.9719 36.6652 46.939C36.5623 46.9062 36.4678 46.8511 36.3884 46.7777C36.3089 46.7042 36.2464 46.6142 36.2053 46.5138C36.1641 46.4135 36.1452 46.3053 36.1501 46.1969V42.3427C36.1449 42.2347 36.1636 42.1269 36.2048 42.0271C36.2461 41.9273 36.3089 41.8379 36.3887 41.7655C36.4684 41.693 36.5632 41.6393 36.6661 41.6081C36.7691 41.577 36.8776 41.5692 36.9839 41.5853H38.517ZM37.8311 43.5868H38.517C38.8263 43.5868 38.9743 43.4246 38.9743 43.2352C38.9743 43.0459 38.8263 42.8836 38.517 42.8836H37.8311V43.5868ZM37.8311 45.656H38.7456C39.0953 45.656 39.2836 45.4666 39.2836 45.2367C39.2836 45.0068 39.0953 44.8175 38.7456 44.8175H37.8311V45.656Z" fill="white"/>
<path d="M38.8398 10.3729C38.4094 9.56144 36.8628 10.454 35.9483 10.3729C35.3969 10.314 34.8549 10.1868 34.3345 9.9942C34.3345 9.85896 34.3345 9.72372 34.3345 9.58849C34.3375 8.11995 33.9751 6.67399 33.2804 5.38227C32.5856 4.09056 31.5806 2.99411 30.3568 2.19279C29.133 1.39146 27.7292 0.91071 26.2735 0.794305C24.8177 0.6779 23.356 0.929541 22.0217 1.52632C20.6873 2.12309 19.5226 3.04604 18.6336 4.21112C17.7446 5.3762 17.1595 6.7464 16.9316 8.19696C16.7038 9.64751 16.8404 11.1323 17.329 12.5162C17.8177 13.9001 18.6428 15.1391 19.7293 16.1204C18.1543 16.6474 16.7256 17.5418 15.5602 18.7305C14.8643 19.2972 14.2082 19.9117 13.5967 20.5697C12.9151 21.3179 12.1425 21.9767 11.297 22.5306C10.7272 22.686 10.1304 22.7137 9.54872 22.6118C7.04728 21.9491 6.3614 18.6899 5.59483 19.2309C4.82825 19.7718 6.18656 22.3278 6.18656 22.3278C6.18656 22.3278 6.61692 23.0175 7.23556 23.9641H6.59002C3.9003 23.8019 2.78407 21.016 2.07129 21.7327C1.35851 22.4495 3.41615 24.8432 3.41615 24.8432C3.41615 24.8432 12.5881 36.5141 21.7735 36.5952C22.177 36.5952 22.5939 36.5952 23.0108 36.5952C25.2204 36.6005 27.3748 35.9013 29.1644 34.598C30.9541 33.2948 32.2868 31.4547 32.9712 29.342C33.6556 27.2293 33.6563 24.9528 32.9734 22.8397C32.2905 20.7265 30.959 18.8854 29.1702 17.581C30.9547 16.7693 32.421 15.3852 33.3393 13.6456C34.2299 13.5476 35.1058 13.3433 35.9483 13.037C37.6563 12.4555 39.3374 11.2925 38.8398 10.3729Z" fill="white"/>
<path d="M3.24132 50.7001V51.1329C3.07058 50.9681 2.84572 50.8719 2.60924 50.8624C2.49295 50.8608 2.37765 50.8841 2.27099 50.9307C2.16434 50.9774 2.06876 51.0463 1.9906 51.1329C1.90721 51.2158 1.84152 51.3149 1.79759 51.4242C1.75365 51.5335 1.73238 51.6506 1.73508 51.7685C1.72986 51.8867 1.74998 52.0046 1.79407 52.1143C1.83815 52.2239 1.90518 52.3228 1.9906 52.4041C2.06943 52.489 2.16545 52.5558 2.27217 52.6001C2.3789 52.6445 2.49384 52.6652 2.60924 52.6611C2.71576 52.6826 2.82548 52.6826 2.932 52.6611L3.07994 52.5799L3.24132 52.4447V52.8774C3.04655 52.9952 2.82302 53.0561 2.59579 53.0532C2.43636 53.0545 2.27826 53.0241 2.13055 52.9638C1.98284 52.9034 1.84844 52.8144 1.73508 52.7016C1.60691 52.5866 1.50551 52.4445 1.43811 52.2856C1.3707 52.1266 1.33894 51.9547 1.34507 51.782C1.34278 51.482 1.45325 51.1922 1.65439 50.9706C1.76571 50.8274 1.90886 50.7125 2.07235 50.635C2.23583 50.5575 2.41511 50.5196 2.59579 50.5243C2.82276 50.5236 3.04574 50.5843 3.24132 50.7001Z" fill="white"/>
<path d="M4.29031 51.7549C4.28847 51.5933 4.31977 51.433 4.38224 51.2841C4.44472 51.1352 4.53703 51.0008 4.65342 50.8894C4.76746 50.7738 4.90387 50.6829 5.05424 50.6224C5.2046 50.5619 5.36571 50.5331 5.52758 50.5378C5.68956 50.5323 5.85091 50.5607 6.00139 50.6213C6.15187 50.6818 6.2882 50.7731 6.40174 50.8894C6.63333 51.1227 6.76341 51.4388 6.76341 51.7684C6.76341 52.098 6.63333 52.4142 6.40174 52.6475C6.16723 52.8594 5.86306 52.9766 5.54776 52.9766C5.23245 52.9766 4.92829 52.8594 4.69377 52.6475C4.568 52.5355 4.46708 52.3981 4.39757 52.2444C4.32805 52.0906 4.29151 51.9238 4.29031 51.7549ZM4.65342 51.7549C4.64984 51.8715 4.66936 51.9876 4.71085 52.0965C4.75233 52.2054 4.81495 52.3049 4.89505 52.3892C4.97516 52.4736 5.07115 52.541 5.17744 52.5877C5.28372 52.6343 5.39818 52.6592 5.51414 52.661C5.63145 52.6645 5.74821 52.6435 5.85701 52.5993C5.96582 52.555 6.0643 52.4886 6.14622 52.404C6.22961 52.3212 6.2953 52.2221 6.33923 52.1128C6.38317 52.0035 6.40445 51.8863 6.40174 51.7684C6.40696 51.6503 6.38684 51.5323 6.34275 51.4227C6.29867 51.313 6.23164 51.2141 6.14622 51.1328C6.06862 51.0455 5.97314 50.9761 5.86636 50.9295C5.75957 50.8828 5.644 50.8599 5.52758 50.8623C5.41129 50.8608 5.296 50.884 5.18934 50.9307C5.08268 50.9773 4.98711 51.0462 4.90895 51.1328C4.82457 51.2121 4.7581 51.3086 4.71402 51.416C4.66994 51.5233 4.64927 51.6389 4.65342 51.7549Z" fill="white"/>
<path d="M7.85419 52.9588L8.35179 50.4028L9.17216 52.2421L10.0194 50.4028L10.4632 52.9588H10.1001L9.87148 51.5253L9.15871 53.067L8.48628 51.5253L8.23075 52.9588H7.85419Z" fill="white"/>
<path d="M12.104 51.9848V52.9585H11.687V50.5784H12.104C12.2559 50.5605 12.4093 50.5605 12.5612 50.5784C12.663 50.6089 12.7555 50.6647 12.8302 50.7407C12.8975 50.8046 12.9504 50.8824 12.9852 50.9687C13.02 51.0551 13.036 51.148 13.0319 51.241C13.0383 51.3376 13.0221 51.4344 12.9848 51.5236C12.9474 51.6128 12.8899 51.692 12.8167 51.7549C12.6504 51.8911 12.439 51.9587 12.225 51.9443L12.104 51.9848ZM12.104 51.6603H12.2384C12.5612 51.6603 12.7226 51.525 12.7226 51.2816C12.7226 51.0382 12.5612 50.9029 12.2115 50.9029H12.104V51.6603Z" fill="white"/>
<path d="M15.3316 52.3771H14.3095L14.054 52.9586H13.664L14.7937 50.4297L15.9234 52.9586H15.5333L15.3316 52.3771ZM15.1837 52.039L14.834 51.2276L14.4709 52.039H15.1837Z" fill="white"/>
<path d="M16.9858 52.9585V50.416L18.7207 52.2282V50.5783H19.0703V53.1072L17.3489 51.2951V52.9585H16.9858Z" fill="white"/>
<path d="M20.8455 51.931L20.079 50.5786H20.4824L21.0338 51.5253L21.5718 50.5786H21.9887L21.2087 51.931V52.9588H20.8455V51.931Z" fill="white"/>
<path d="M25.0415 50.5786V52.6207H25.7274V52.9588H24.6784V50.5786H25.0415Z" fill="white"/>
<path d="M27.1529 50.5786V52.9588H26.8033V50.5786H27.1529Z" fill="white"/>
<path d="M28.3633 52.9588L28.8609 50.4028L29.6813 52.2421L30.5151 50.4028L30.932 52.9588H30.5689L30.3403 51.5253L29.6275 53.067L28.9551 51.5253L28.6995 52.9588H28.3633Z" fill="white"/>
<path d="M32.5593 50.5786V52.9588H32.1962V50.5786H32.5593Z" fill="white"/>
<path d="M34.5093 50.9167V52.9588H34.1462V50.9167H33.6217V50.5786H35.0742V50.9167H34.5093Z" fill="white"/>
<path d="M37.4008 50.9167H36.4459V51.4847H37.3739V51.8228H36.4459V52.6207H37.4008V52.9588H36.0559V50.5786H37.4008V50.9167Z" fill="white"/>
<path d="M38.5977 52.9585V50.5783H39.0953C39.2857 50.5758 39.4756 50.5985 39.6601 50.6459C39.8137 50.6897 39.9529 50.7737 40.0636 50.8894C40.1845 51.0002 40.2797 51.1364 40.3424 51.2883C40.4052 51.4402 40.4339 51.6041 40.4267 51.7684C40.4333 51.9359 40.403 52.1028 40.3379 52.2571C40.2728 52.4114 40.1745 52.5493 40.0502 52.661C39.9313 52.7625 39.7944 52.8405 39.6467 52.8909C39.4594 52.9175 39.2692 52.9175 39.0819 52.8909L38.5977 52.9585ZM38.9474 52.6204H39.1088C39.2422 52.6439 39.3787 52.6439 39.5122 52.6204C39.62 52.5852 39.7203 52.5302 39.8081 52.4581C39.9708 52.287 40.0617 52.0593 40.0617 51.8225C40.0617 51.5857 39.9708 51.358 39.8081 51.1869C39.6108 51.0281 39.3607 50.9507 39.1088 50.9705H39.0012L38.9474 52.6204Z" fill="white"/>
</g>
<defs>
<clipPath id="clip0_392_415">
<rect width="42" height="54" fill="white"/>
</clipPath>
</defs>
</svg>
