<svg width="51" height="50" viewBox="0 0 51 50" fill="none" xmlns="http://www.w3.org/2000/svg">
<g clip-path="url(#clip0_392_559)">
<path d="M9.69426 22.977L9.27455 23.2808L9.09854 23.4741C8.8737 23.6371 8.6385 23.7847 8.39451 23.916C8.39451 23.916 8.54344 23.9988 8.57052 24.0817C8.59765 24.181 8.59765 24.2861 8.57052 24.3854C8.55236 24.482 8.51043 24.5723 8.44866 24.6478C8.42309 24.6902 8.38723 24.7252 8.34455 24.7494C8.30186 24.7736 8.25379 24.7862 8.20496 24.7859C8.13339 24.7997 8.05991 24.7997 7.98833 24.7859C7.9149 24.7681 7.8458 24.7352 7.78525 24.6892C7.74591 24.6441 7.71392 24.5928 7.69047 24.5373C7.6564 24.4391 7.6564 24.3318 7.69047 24.2336C7.50306 24.2746 7.30924 24.2746 7.12183 24.2336C7.16875 24.278 7.20172 24.3357 7.2166 24.3993C7.24486 24.4938 7.24486 24.5947 7.2166 24.6892C7.19845 24.7858 7.15652 24.8761 7.09475 24.9516C7.01619 25.0223 6.91518 25.0615 6.81043 25.0621H6.82397C6.7436 25.0792 6.66063 25.0792 6.58027 25.0621C6.53594 25.0744 6.48919 25.0744 6.44487 25.0621C6.40115 25.0205 6.36853 24.9682 6.3501 24.9102C6.29883 24.8225 6.27176 24.7223 6.27176 24.6202C6.27176 24.5181 6.29883 24.4179 6.3501 24.3302C6.37289 24.2247 6.43518 24.1325 6.5237 24.0731C6.61223 24.0138 6.71997 23.9921 6.82397 24.0126C6.59309 23.7537 6.41447 23.4509 6.29832 23.1216C6.18216 22.7923 6.13075 22.4429 6.14701 22.0933L5.57837 22.3004C4.82018 22.5351 4.22446 22.7284 4.22446 23.6812C4.23681 23.9228 4.30004 24.1589 4.40984 24.3733C4.51965 24.5878 4.67345 24.7756 4.8608 24.924C5.58279 25.465 6.47289 25.7202 7.36553 25.642C8.55698 25.4901 10.0057 25.0206 10.0734 23.6812C10.128 23.3336 10.128 22.9794 10.0734 22.6318L9.66719 22.9356L9.69426 22.977ZM6.02516 23.8883C6.01575 23.9876 5.97265 24.0804 5.90331 24.1507C5.86756 24.1864 5.82523 24.2146 5.77875 24.2336C5.73227 24.2525 5.68258 24.2619 5.63253 24.2612C5.55202 24.2768 5.46933 24.2768 5.38882 24.2612C5.33831 24.2439 5.2921 24.2157 5.25343 24.1783C5.21154 24.1406 5.17906 24.0933 5.15866 24.0402C5.12494 23.9479 5.11229 23.8489 5.12168 23.7508C5.13106 23.6527 5.16223 23.5581 5.21281 23.4741C5.25342 23.4233 5.30528 23.383 5.36412 23.3566C5.42296 23.3302 5.48711 23.3184 5.55129 23.3222C5.65968 23.3252 5.7642 23.3639 5.84915 23.4327C5.91887 23.493 5.9744 23.5685 6.01162 23.6536C6.03219 23.73 6.03681 23.81 6.02516 23.8883Z" fill="white"/>
<path d="M5.68669 23.571C5.66991 23.5452 5.64798 23.5232 5.62232 23.5065C5.59666 23.4899 5.56785 23.4789 5.53776 23.4744C5.4981 23.4617 5.45557 23.4617 5.41591 23.4744C5.38327 23.5258 5.36591 23.5857 5.36591 23.647C5.36591 23.7082 5.38327 23.7682 5.41591 23.8196C5.46482 23.8319 5.51593 23.8319 5.56484 23.8196C5.60005 23.8312 5.63795 23.8312 5.67315 23.8196C5.68291 23.7788 5.68291 23.7361 5.67315 23.6953C5.68691 23.641 5.68691 23.584 5.67315 23.5296C5.67647 23.5438 5.681 23.5577 5.68669 23.571Z" fill="white"/>
<path d="M6.82399 24.2613C6.78466 24.2465 6.74146 24.2465 6.70213 24.2613C6.6695 24.3127 6.65213 24.3726 6.65213 24.4339C6.65213 24.4951 6.6695 24.5551 6.70213 24.6065H6.8646C6.89943 24.6204 6.93809 24.6204 6.97292 24.6065C6.98268 24.5657 6.98268 24.523 6.97292 24.4822C6.98729 24.428 6.98729 24.3708 6.97292 24.3165C6.95811 24.2718 6.92964 24.2331 6.89168 24.2061C6.86606 24.2202 6.84313 24.2389 6.82399 24.2613Z" fill="white"/>
<path d="M11.2107 21.9L10.994 22.0381H10.8857L10.2629 22.4937C10.3627 22.8902 10.3948 23.3013 10.3577 23.7089C10.2358 25.2278 8.67883 25.7387 7.39262 25.9044H7.1083C6.26414 25.9104 5.44135 25.6339 4.76603 25.1173C4.55373 24.9545 4.37846 24.7469 4.25227 24.5085C4.12607 24.2702 4.05192 24.0068 4.03491 23.7365C4.03491 22.549 4.75249 22.3556 5.49714 22.0657L6.14702 21.8447V21.7205C6.14641 21.1335 6.21921 20.5488 6.36364 19.9806C6.67744 18.8224 7.25763 17.7573 8.05603 16.8737C8.44306 16.419 8.9004 16.0318 9.40995 15.7276C9.69006 15.556 10.005 15.4521 10.3306 15.4239C10.6077 15.4147 10.8838 15.4616 11.143 15.5619L11.671 15.7691L11.9959 15.8933L13.228 13.8083C12.9128 13.3009 12.5351 12.8369 12.1042 12.4274C11.655 12.1281 11.1237 11.983 10.5879 12.0132C10.1165 12.0432 9.65602 12.17 9.23394 12.386C8.24819 12.8942 7.3368 13.5403 6.52611 14.3054C6.21771 14.5854 5.9366 14.8953 5.68669 15.2305C4.80747 16.543 4.15707 18.0005 3.76413 19.5387L3.6152 20.3949C3.40185 22.0941 3.3746 23.8123 3.53397 25.5178C4.00784 27.2576 4.88788 28.0447 5.93039 28.1966H6.21471C7.44671 28.1365 8.6217 27.6494 9.54534 26.8157C10.2634 25.9152 11.0463 25.0705 11.8876 24.2888C12.8624 23.7227 12.9301 23.9436 12.9301 23.9436L12.1719 21.4857C11.8304 21.5661 11.5052 21.7063 11.2107 21.9Z" fill="white"/>
<path d="M8.17789 24.0126C8.13857 23.9978 8.09536 23.9978 8.05604 24.0126C7.93418 24.1783 7.92064 24.2612 7.94772 24.3302H8.06958H8.17789H8.25912V24.2612C8.26888 24.2203 8.26888 24.1777 8.25912 24.1369C8.2735 24.0826 8.2735 24.0255 8.25912 23.9712H8.16435L8.17789 24.0126Z" fill="white"/>
<path d="M38.1264 20.4366C38.1803 20.4366 38.232 20.4148 38.27 20.3759C38.3081 20.3371 38.3295 20.2844 38.3295 20.2294C38.3296 20.1805 38.3115 20.1333 38.2789 20.0974C38.2462 20.0615 38.2014 20.0396 38.1535 20.0361L38.0858 20.4366H38.1264Z" fill="white"/>
<path d="M40.753 22.7974C40.7556 22.8726 40.7842 22.9443 40.8338 23C40.8834 23.0556 40.9507 23.0915 41.0238 23.1012V22.4937C40.9518 22.5059 40.8859 22.5425 40.8367 22.5976C40.7876 22.6527 40.7581 22.7231 40.753 22.7974Z" fill="white"/>
<path d="M40.8207 20.8369V20.395H38.5597C38.5265 20.4847 38.4672 20.5619 38.3898 20.6162C38.3123 20.6705 38.2204 20.6993 38.1264 20.6988H38.0587C38.0587 20.8645 38.0588 21.0164 37.9911 21.1407C37.9234 21.2649 37.9911 21.403 37.9911 21.5411H37.964C38.0264 21.5273 38.0911 21.5273 38.1535 21.5411L38.6545 20.7955L40.8207 20.8369Z" fill="white"/>
<path d="M38.2618 21.9829C38.2583 21.9158 38.2297 21.8525 38.1818 21.8063C38.134 21.76 38.0705 21.7343 38.0046 21.7344H37.964C37.964 21.8863 37.964 22.0243 37.964 22.1624C38.007 22.2065 38.0654 22.2313 38.1264 22.2315C38.17 22.2077 38.206 22.1716 38.23 22.1275C38.254 22.0834 38.2651 22.0332 38.2618 21.9829Z" fill="white"/>
<path d="M39.3179 22.963C39.3178 22.9987 39.3249 23.034 39.3387 23.0667C39.3524 23.0995 39.3726 23.1291 39.3979 23.1536C39.4233 23.1782 39.4533 23.1972 39.486 23.2095C39.5188 23.2219 39.5538 23.2273 39.5887 23.2254C39.6569 23.2254 39.7223 23.1978 39.7706 23.1486C39.8188 23.0994 39.8459 23.0326 39.8459 22.963C39.8426 22.8945 39.8145 22.8297 39.7669 22.7812C39.7194 22.7327 39.6558 22.704 39.5887 22.7007C39.5191 22.7006 39.4522 22.7278 39.4018 22.7766C39.3514 22.8255 39.3213 22.8922 39.3179 22.963Z" fill="white"/>
<path d="M38.5732 20.1325H40.7666C40.6718 19.0831 40.5906 18.3375 40.577 18.2822L38.2618 19.7873C38.3403 19.8093 38.4111 19.8533 38.4662 19.9143C38.5212 19.9754 38.5583 20.051 38.5732 20.1325Z" fill="white"/>
<path d="M38.1264 23.6949C38.1299 23.7474 38.1528 23.7966 38.1905 23.8325C38.2282 23.8684 38.2779 23.8884 38.3295 23.8882C38.3798 23.8882 38.428 23.8679 38.4636 23.8316C38.4991 23.7954 38.5191 23.7462 38.5191 23.6949C38.5192 23.6423 38.4997 23.5916 38.4645 23.5531C38.4292 23.5147 38.381 23.4913 38.3295 23.4878C38.2757 23.4878 38.224 23.5096 38.1859 23.5485C38.1478 23.5873 38.1264 23.64 38.1264 23.6949Z" fill="white"/>
<path d="M40.3063 24.0542L39.7105 23.4743H39.5887C39.5226 23.486 39.4547 23.4828 39.3899 23.4649C39.3252 23.4471 39.265 23.415 39.2136 23.3709C39.1623 23.3268 39.121 23.2719 39.0927 23.2098C39.0644 23.1478 39.0497 23.0801 39.0497 23.0117C39.0497 22.9432 39.0644 22.8756 39.0927 22.8136C39.121 22.7515 39.1623 22.6965 39.2136 22.6525C39.265 22.6084 39.3252 22.5763 39.3899 22.5585C39.4547 22.5406 39.5226 22.5374 39.5887 22.5491C39.7072 22.5491 39.8208 22.5971 39.9046 22.6826C39.9884 22.768 40.0355 22.8839 40.0355 23.0048C40.0362 23.0698 40.0234 23.1343 39.9977 23.1938C39.972 23.2534 39.9341 23.3066 39.8865 23.35L40.3875 23.8885H41.0915V23.3362C40.9657 23.3293 40.8471 23.2743 40.7593 23.1822C40.6714 23.09 40.6209 22.9675 40.6177 22.8391C40.6155 22.7224 40.6536 22.6087 40.7254 22.5178C40.7972 22.4269 40.898 22.3647 41.0103 22.342V21.9277H39.0742L38.844 22.2591V23.1567L38.668 23.4328C38.7372 23.5184 38.7755 23.6257 38.7763 23.7366C38.7578 23.8456 38.7021 23.9444 38.6192 24.0156C38.5362 24.0868 38.4312 24.1259 38.3228 24.1259C38.2143 24.1259 38.1094 24.0868 38.0264 24.0156C37.9434 23.9444 37.8877 23.8456 37.8692 23.7366C37.8692 23.6121 37.9177 23.4927 38.004 23.4047C38.0904 23.3166 38.2075 23.2671 38.3295 23.2671H38.4514L38.5732 23.06V22.0934L38.9523 21.5825H40.8884V20.9888H38.8034L38.3431 21.6654C38.3781 21.7018 38.4057 21.745 38.4243 21.7924C38.4429 21.8398 38.4521 21.8905 38.4514 21.9415C38.4514 22.0624 38.4043 22.1783 38.3205 22.2638C38.2367 22.3492 38.1231 22.3972 38.0046 22.3972C37.9375 22.4103 37.8686 22.4103 37.8015 22.3972C37.5849 23.8609 37.3276 25.4351 37.0162 27.023L34.9989 23.3086L33.5367 24.4409C33.3096 25.3255 32.9777 26.1787 32.5483 26.9816C31.9255 27.9206 31.7631 28.1139 31.7631 28.1139L33.117 33.002C33.117 33.002 34.3626 29.6328 34.5657 28.6662C35.2562 29.5085 36.7048 31.566 36.7048 31.566L38.1806 31.4003C38.1806 31.4003 39.3314 27.6582 39.6158 25.8769C39.7618 27.6796 39.7346 29.4925 39.5345 31.2898C39.5345 31.994 39.3721 33.582 39.3721 33.582L41.4435 28.1829C41.4435 28.1829 41.2675 26.2221 41.078 24.0404L40.3063 24.0542ZM38.3431 25.4351C38.3478 25.3569 38.3478 25.2785 38.3431 25.2003V25.4351Z" fill="white"/>
<path d="M24.3301 35.8048H23.0709L23.1928 36.1776H24.9664C24.8581 35.9015 24.7498 35.5977 24.6821 35.4458L24.3301 35.8048Z" fill="white"/>
<path d="M23.3282 36.8269H25.183C25.183 36.8269 25.183 36.675 25.0341 36.4541H23.2334C23.3011 36.6888 23.3282 36.8269 23.3282 36.8269Z" fill="white"/>
<path d="M24.5332 35.2391C24.5332 35.0596 24.3842 34.8939 24.3165 34.7144L23.9374 35.101H22.6918L22.9085 35.5567H24.2624L24.5332 35.2391Z" fill="white"/>
<path d="M18.3458 32.5877L18.6707 32.2425C18.8262 32.0774 18.9709 31.9021 19.104 31.7177C19.5421 31.9863 19.994 32.2306 20.4579 32.4496L20.7963 32.6429C21.1604 32.885 21.4772 33.1941 21.7305 33.5543C22.0431 33.9669 22.3281 34.4006 22.5835 34.8522H23.8697L24.2488 34.4656C23.6666 33.0848 23.1115 31.6073 22.57 30.1574L22.3398 29.5084C22.0961 28.8456 21.8659 28.1276 21.6358 27.52L21.3785 26.7882L19.8215 26.2358C19.7124 26.7881 19.5677 27.3324 19.3883 27.8652C18.7603 29.1885 17.9537 30.4156 16.9919 31.5106L16.7617 31.7868C16.9354 31.9253 17.1162 32.0543 17.3033 32.1734C17.6147 32.3529 17.9802 32.5186 17.9802 32.5186L18.3458 32.5877ZM20.6339 28.2933C20.8776 29.0804 21.1213 29.8536 21.3515 30.6269L21.6358 31.5106C21.6358 31.7178 21.7576 31.9249 21.8253 32.132C21.6222 32.0215 21.4462 31.9249 21.2838 31.8144L20.7016 31.4278C20.3766 31.2068 20.0652 30.9997 19.632 30.7512C20.0523 29.9713 20.3883 29.1472 20.6339 28.2933Z" fill="white"/>
<path d="M33.3607 14.2781C33.3856 14.274 33.4094 14.2645 33.4304 14.2502C33.4515 14.2359 33.4692 14.2171 33.4825 14.1952C33.5081 14.1564 33.5218 14.1108 33.5218 14.064C33.5218 14.0173 33.5081 13.9716 33.4825 13.9328C33.4553 13.8982 33.4199 13.8711 33.3797 13.8542C33.3394 13.8373 33.2956 13.8311 33.2523 13.8362C33.1847 13.8362 33.1576 13.9743 33.1711 14.1814C33.2251 14.2296 33.2904 14.2629 33.3607 14.2781Z" fill="white"/>
<path d="M32.3317 15.3271C32.3126 15.2801 32.2831 15.2382 32.2455 15.2046C32.2079 15.1711 32.1633 15.1469 32.1151 15.1338C32.1151 15.1338 32.0338 15.1338 31.9797 15.2857C31.9255 15.4376 31.9797 15.2857 31.9797 15.3685C31.9797 15.4514 32.0474 15.4514 32.088 15.4514C32.1361 15.4578 32.185 15.4494 32.2285 15.4272C32.2719 15.4051 32.3078 15.3702 32.3317 15.3271Z" fill="white"/>
<path d="M38.5462 14.3609C38.0627 14.3207 37.5761 14.3722 37.111 14.5128C35.9873 14.8442 34.5657 16.8602 34.5657 16.8602L34.4303 17.2883C34.5115 18.1306 34.6198 19.3595 34.6469 20.1742C35.284 19.7415 35.8428 19.1996 36.2987 18.5725C36.8809 17.813 36.9215 17.0397 37.8015 16.4322C38.3653 16.2282 38.9671 16.1574 39.5616 16.225L38.5462 14.3609Z" fill="white"/>
<path d="M33.5773 16.5702C33.3336 16.5702 32.7379 16.4736 32.4265 16.4321L32.616 17.0673C32.616 17.0673 32.44 17.8406 32.264 18.6967L33.1847 20.7403C33.5933 20.616 33.9917 20.459 34.3761 20.2708C34.3761 19.5804 34.2543 18.3377 34.1459 17.2054L34.3626 16.5978C34.1595 16.5702 33.9022 16.5702 33.5773 16.5702Z" fill="white"/>
<path d="M32.3452 17.0948L32.0338 16.1282H32.2505L33.6044 16.2939H34.3219L33.9699 15.5344L34.0918 14.9407C34.3409 13.971 34.8634 13.0973 35.5946 12.4275C36.0577 12.1528 36.5676 11.97 37.0975 11.889L35.5811 9.66588C34.9936 9.68469 34.4281 9.89795 33.9699 10.2734C33.2845 11.0539 32.8169 12.0076 32.616 13.0351L31.8578 11.5852C31.9331 10.6047 32.2397 9.65724 32.7514 8.82357C32.8589 8.60803 33.017 8.42301 33.2117 8.28504C33.5936 8.09797 33.9871 7.93653 34.3896 7.80175L32.616 6.42092C32.1711 6.41896 31.7414 6.58637 31.411 6.8904C31.1804 7.08462 30.996 7.32969 30.8717 7.60715C30.7474 7.8846 30.6865 8.18721 30.6935 8.49217C30.6198 9.0536 30.4264 9.59177 30.127 10.0689C29.8276 10.546 29.4295 10.9504 28.9604 11.2538C28.9604 11.2538 29.0417 11.4333 29.1906 11.82L32.0744 18.227C32.1963 17.7299 32.3046 17.2467 32.3452 17.0948ZM33.2117 13.5736C33.304 13.553 33.4003 13.5618 33.4875 13.5988C33.5746 13.6359 33.6486 13.6994 33.6991 13.7808C33.7527 13.8625 33.7813 13.9586 33.7813 14.0569C33.7813 14.1552 33.7527 14.2513 33.6991 14.3331C33.6652 14.3987 33.6147 14.4538 33.5528 14.4926C33.4908 14.5315 33.4198 14.5527 33.3471 14.554C33.1982 14.554 32.9139 14.4021 32.9003 14.2088C32.8733 13.8084 32.9816 13.6151 33.2117 13.5736ZM31.7224 15.4654C31.6825 15.3634 31.6825 15.2497 31.7224 15.1478C31.8307 14.9269 31.9661 14.8302 32.1286 14.8578C32.2201 14.8729 32.3065 14.9111 32.3798 14.969C32.4531 15.0269 32.5111 15.1026 32.5483 15.1892C32.5659 15.243 32.5659 15.3011 32.5483 15.3549C32.553 15.3962 32.553 15.4379 32.5483 15.4792C32.4972 15.5481 32.432 15.6048 32.3571 15.6454C32.2823 15.6859 32.1997 15.7093 32.1151 15.7139H31.9932C31.9342 15.6928 31.8799 15.6599 31.8335 15.6173C31.787 15.5746 31.7493 15.523 31.7224 15.4654Z" fill="white"/>
<path d="M28.8521 27.0367C28.9358 27.0093 29.0257 27.0093 29.1094 27.0367C29.2177 26.871 29.326 26.6777 29.4479 26.4568C29.2165 26.321 28.9948 26.1687 28.7844 26.0011L28.3918 25.6421C27.9992 26.7744 28.0262 27.5891 28.2835 27.6995C28.5407 27.81 28.5949 27.6995 28.7303 27.52C28.649 27.2024 28.7438 27.092 28.8521 27.0367Z" fill="white"/>
<path d="M27.9044 24.6753C28.0262 24.8548 28.1616 25.0205 28.297 25.1862L28.4053 24.9514C28.5289 24.667 28.6691 24.3903 28.8251 24.1229C28.8251 24.0125 28.7032 23.902 28.6355 23.7915L28.2564 23.543C27.8638 23.3221 27.6201 23.253 27.5253 23.3773C27.4305 23.5016 27.4576 23.7363 27.5253 24.0539C27.5746 24.0497 27.6241 24.0562 27.6708 24.0728C27.7174 24.0895 27.7601 24.116 27.7961 24.1506C27.8518 24.2015 27.8927 24.2671 27.9142 24.3402C27.9357 24.4133 27.937 24.491 27.9179 24.5648C27.9176 24.602 27.9131 24.6391 27.9044 24.6753Z" fill="white"/>
<path d="M29.8405 26.2358V26.3187H29.9353C29.9019 26.2933 29.8702 26.2656 29.8405 26.2358Z" fill="white"/>
<path d="M29.9759 26.7192L29.6509 26.5673C29.5291 26.7744 29.4208 26.9815 29.3125 27.1472C29.3554 27.1976 29.3853 27.258 29.3995 27.3231C29.4136 27.3882 29.4117 27.4559 29.3937 27.5201C29.3754 27.5768 29.3435 27.6279 29.301 27.6689C29.2584 27.7099 29.2065 27.7394 29.15 27.7548C29.0531 27.7865 28.949 27.7865 28.8521 27.7548C28.7409 27.8675 28.5997 27.9443 28.446 27.9757C28.3623 28.0032 28.2723 28.0032 28.1887 27.9757C27.7284 27.7686 27.7419 26.7744 28.1887 25.504C28.0147 25.3018 27.8519 25.0898 27.7013 24.8689C27.6258 24.8914 27.5455 24.8902 27.4706 24.8656C27.3958 24.841 27.3299 24.794 27.2816 24.7308C27.2578 24.6741 27.2455 24.613 27.2455 24.5513C27.2455 24.4896 27.2578 24.4285 27.2816 24.3718C27.3094 24.3039 27.3509 24.2427 27.4034 24.1923C27.3287 24.0575 27.2894 23.9052 27.2894 23.7504C27.2894 23.5955 27.3287 23.4433 27.4034 23.3085C27.5794 23.0876 27.9044 23.1152 28.3918 23.3776C28.1356 23.0088 27.8551 22.6582 27.5524 22.3281L23.7614 29.8122L22.9491 29.6327L24.303 31.8697C24.303 31.8697 24.6956 31.3726 25.1424 30.7236C25.535 30.5165 27.6742 29.1218 28.2835 28.7214L29.2718 30.2127C30.4362 31.8421 31.5464 33.2781 31.5464 33.2781C31.5464 33.2781 30.883 30.2541 30.5174 28.5143C30.3803 27.9032 30.1993 27.3032 29.9759 26.7192ZM26.0766 28.9976C26.5776 28.1 27.1868 27.1887 27.1868 27.1887C27.1868 27.1887 27.6065 27.6858 27.9585 28.1414L26.0766 28.9976Z" fill="white"/>
<path d="M29.678 25.9735L29.5156 25.6145C29.412 25.6336 29.3054 25.6231 29.2074 25.5841C29.1093 25.5451 29.0239 25.4791 28.9604 25.3935C28.9232 25.3064 28.9039 25.2124 28.9039 25.1174C28.9039 25.0223 28.9232 24.9283 28.9604 24.8412C28.9967 24.7396 29.0692 24.6557 29.1635 24.6065C29.1331 24.5212 29.0969 24.4381 29.0552 24.3579C28.9289 24.5809 28.8159 24.8115 28.7167 25.0483L28.5678 25.3797C28.7167 25.5316 28.8792 25.6835 29.0281 25.8078C29.2225 25.9629 29.426 26.1059 29.6374 26.2358C29.5832 26.153 29.6374 26.0701 29.678 25.9735Z" fill="white"/>
<path d="M14.7444 21.113C14.8886 21.0148 15.0205 20.8989 15.137 20.7678C15.137 20.6849 15.2995 20.5192 15.3536 20.4364C15.2933 20.3312 15.2434 20.2202 15.2047 20.105L14.7444 21.113Z" fill="white"/>
<path d="M18.0885 14.5127C17.9035 15.0056 17.653 15.4702 17.3439 15.8935L17.2085 16.0592C17.3673 16.0538 17.5251 16.0869 17.6688 16.1559C17.8968 16.265 18.086 16.4435 18.2104 16.6668C18.2523 16.5678 18.2884 16.4663 18.3187 16.363C18.4406 16.0316 18.5624 15.6864 18.6978 15.3688L18.8603 15.0098C18.6612 14.8269 18.4378 14.6735 18.1969 14.5541L18.0885 14.5127Z" fill="white"/>
<path d="M18.779 16.5698C18.6572 16.915 18.5218 17.274 18.3864 17.6331C18.3864 17.7573 18.3864 17.8816 18.2916 18.0197C18.2088 18.257 18.0998 18.484 17.9667 18.6963C17.791 18.981 17.5965 19.2532 17.3845 19.511C17.1479 19.815 16.89 20.1011 16.6128 20.3671C16.0035 20.9194 15.7463 20.8918 15.6109 20.809L15.5161 20.9332C15.1641 21.3889 14.8121 21.8584 14.3788 21.9689L13.8914 22.107L14.108 21.6375C14.5007 20.7814 14.8391 20.0081 15.1235 19.2072C15.1168 19.1476 15.1168 19.0873 15.1235 19.0277C15.119 18.5593 15.1875 18.0933 15.3266 17.6469C15.4278 17.2462 15.6229 16.8766 15.8952 16.5698C16.0518 16.4091 16.2351 16.2782 16.4368 16.1832L16.6128 15.9761L16.9783 15.5342C17.2567 15.1772 17.4846 14.7821 17.6553 14.3605C17.3674 14.29 17.071 14.2621 16.7752 14.2776C16.2801 14.304 15.7917 14.4064 15.3266 14.5814C14.9089 14.725 14.5226 14.9501 14.1893 15.2442C13.8266 15.5797 13.5599 16.0092 13.4175 16.487C13.2374 17.1335 13.1507 17.8033 13.1603 18.4754C13.1408 19.5189 13.2871 20.5588 13.5935 21.5546C13.9365 22.6041 14.3878 23.1702 14.9475 23.253H15.0964C15.5973 23.253 16.166 22.8802 16.8971 22.0517C17.222 21.6927 17.5199 21.3199 17.8178 20.9609L18.2781 20.3947C18.6076 19.9916 18.965 19.6132 19.3477 19.2624L19.7268 18.9448C19.8405 18.8597 19.9491 18.7674 20.0517 18.6687C20.15 18.5779 20.2285 18.467 20.2821 18.3434C20.3358 18.2197 20.3633 18.0859 20.3631 17.9506C20.3408 17.5773 20.2489 17.2118 20.0923 16.8736C19.9064 16.4139 19.6605 15.982 19.3612 15.5894L19.2123 15.4099L19.1311 15.5894C19.0092 15.8794 18.9009 16.2108 18.779 16.5698Z" fill="white"/>
<path d="M17.222 5.10894L18.7655 5.05371L18.6301 6.82118L19.3747 6.47597L18.9279 10.3009L18.5353 7.843L17.6823 8.24344L17.222 5.10894Z" fill="white"/>
<path d="M34.4167 39.8922L33.2524 40.4859L32.765 39.0913L32.3182 39.6022L31.3704 36.5229L32.4806 38.2628L33.0087 37.6552L34.4167 39.8922Z" fill="white"/>
<path d="M0.0544128 33.5129L0.744908 34.9213L2.1936 33.9547L2.26129 34.7832L5.32113 32.5325L3.04656 33.3748L2.96533 32.4082L0.0544128 33.5129Z" fill="white"/>
<path d="M29.2448 0L28.7844 5.1367L27.6607 4.36344L26.2526 7.63601L26.9025 2.11268L27.8773 2.85833L29.2448 0Z" fill="white"/>
<path d="M47.4684 42.1153L40.3604 39.7955L41.8091 38.4146L37.639 35.2939L45.2209 38.0142L43.867 39.2017L47.4684 42.1153Z" fill="white"/>
<path d="M50.0544 21.9965L45.9656 22.2174L46.4259 21.2232L43.691 20.45L48.1048 20.3257L47.6444 21.2094L50.0544 21.9965Z" fill="white"/>
<path d="M10.791 46.2579L12.7 43.0267L13.1874 43.8967L15.137 42.1982L12.9978 45.6227L12.5917 44.8218L10.791 46.2579Z" fill="white"/>
<path d="M2.42377 3.21729L5.49715 9.11345L6.44489 7.63595L9.72136 10.8119L6.25534 4.55669L5.47007 5.93753L2.42377 3.21729Z" fill="white"/>
<path d="M24.0187 40.624L22.9355 46.4235L24.3978 45.9402L24.9393 49.9999L25.9412 43.7033L24.6415 44.2142L24.0187 40.624Z" fill="white"/>
<path d="M20.2683 23.5432H20.5662V23.1704C20.4797 23.3048 20.3799 23.4297 20.2683 23.5432Z" fill="white"/>
<path d="M30.6122 19.7323C30.0571 17.6749 28.2293 12.4277 28.2293 12.4277L27.4035 12.7177L27.7013 13.491C27.7961 13.6981 27.8773 13.9743 27.9179 14.0709C28.0538 14.0859 28.1825 14.1408 28.2883 14.2291C28.3941 14.3174 28.4724 14.4351 28.5137 14.568C28.5947 14.913 28.5947 15.2725 28.5137 15.6175C28.5137 15.6175 28.446 15.6175 28.4324 15.6175C28.3664 15.5005 28.2791 15.3974 28.1752 15.3137C27.9992 15.1894 27.7825 15.1342 27.6472 14.8856C27.5622 14.7834 27.5156 14.6537 27.5156 14.5197C27.5156 14.3857 27.5622 14.256 27.6472 14.1538L27.417 13.6981C27.3087 13.4772 27.1327 13.1596 26.9837 12.8282L26.5099 12.9939C26.522 13.1593 26.522 13.3255 26.5099 13.491C26.3339 14.6923 26.1308 15.866 25.8871 17.0259C25.5757 16.2112 24.9529 13.8086 24.9529 13.8086L23.3959 14.4714C23.3959 14.4714 23.2605 15.3413 23.1792 15.6727C22.8664 16.9576 22.3739 18.19 21.717 19.3319C21.1434 20.296 20.5056 21.2187 19.808 22.0936L18.8603 23.3225L20.0517 23.4882C20.0395 23.4699 20.0329 23.4482 20.0329 23.4261C20.0329 23.4039 20.0395 23.3823 20.0517 23.3639C20.1476 23.2772 20.2339 23.18 20.3089 23.074L19.9163 23.1982H19.8351V23.1292L20.4037 22.9497C20.8315 22.2881 21.2203 21.601 21.5681 20.8922L20.8776 21.3065C20.7422 21.3755 20.6203 21.1822 20.7422 21.0994L21.2702 20.7404C21.4656 20.5797 21.6915 20.4622 21.9336 20.3951C22.2315 20.3951 22.1367 20.6437 22.0961 20.8232C22.0555 21.0027 21.9201 21.4998 21.8524 21.8312C21.8588 21.8499 21.8607 21.87 21.858 21.8896C21.8552 21.9092 21.8479 21.9279 21.8366 21.9441C21.8254 21.9602 21.8105 21.9734 21.7932 21.9825C21.7759 21.9916 21.7568 21.9963 21.7373 21.9963C21.7179 21.9963 21.6987 21.9916 21.6814 21.9825C21.6642 21.9734 21.6493 21.9602 21.638 21.9441C21.6267 21.9279 21.6194 21.9092 21.6167 21.8896C21.6139 21.87 21.6159 21.8499 21.6222 21.8312L21.7847 21.1132V21.0165C21.4301 21.7449 21.0323 22.4504 20.5933 23.1292V23.6677C20.5933 23.6677 21.6764 22.1212 22.1367 21.3479C22.9298 20.1047 23.5751 18.7697 24.0593 17.3711C24.1811 17.8406 24.3707 19.0419 24.5467 20.0223C24.6685 20.768 25.0747 22.784 25.0747 22.784C25.0747 22.784 25.9141 21.3065 26.1579 20.7404C26.1579 20.5885 26.6182 19.5114 26.6588 19.3595L26.8483 18.6691C27.1418 17.7662 27.3726 16.8434 27.5388 15.9074C27.8232 16.9016 28.2158 18.1858 28.5137 19.5666C28.7167 20.5056 28.798 20.9475 28.798 20.9475L31.1538 23.1568C31.1538 23.1568 30.8424 20.5747 30.6122 19.7323Z" fill="white"/>
<path d="M8.1779 35.9848V36.0538L7.64987 36.7304L7.88004 37.0066C8.06958 36.6199 8.20498 36.2885 8.27267 36.1228V36.04H8.1779C8.17133 35.9988 8.17133 35.9569 8.1779 35.9157C8.1779 35.9157 8.28621 35.7362 8.77362 35.8467C8.88871 35.7089 8.97611 35.5494 9.03086 35.3772C8.81686 35.1634 8.55741 35.0027 8.27267 34.9077C8.14399 35.0244 8.0383 35.1649 7.96127 35.322C8.08312 35.46 8.23205 35.681 8.12374 35.8743L8.1779 35.9848Z" fill="white"/>
<path d="M9.9786 34.521C9.63432 34.1504 9.21345 33.8627 8.74654 33.6787L8.54346 34.5072C8.7072 34.5624 8.86225 34.6415 9.00379 34.742C9.16289 34.8478 9.31241 34.968 9.45058 35.101C9.67374 34.9586 9.85594 34.7585 9.9786 34.521Z" fill="white"/>
<path d="M17.4522 38.8154L17.3709 38.6635L17.1137 38.1387C17.0054 37.9316 16.8971 37.7245 16.7752 37.5174C16.0798 35.893 14.9836 34.4801 13.5935 33.4163C14.0539 33.0987 14.4871 32.8363 14.8527 32.6154C15.1929 32.4291 15.5188 32.2168 15.8275 31.9802C16.0964 31.7676 16.2911 31.4722 16.3826 31.1379C16.4738 30.6266 16.4738 30.1027 16.3826 29.5914C16.3286 28.0083 15.7993 26.4804 14.8662 25.2141C14.2028 24.5237 13.255 25.1313 12.1584 26.7054C11.5866 27.6542 10.8583 28.4951 10.0057 29.1909C9.86962 29.2679 9.7295 29.337 9.58594 29.3981H9.50471L9.17977 29.5223L8.86837 29.619L8.47574 29.688C8.47574 29.688 8.47574 30.0747 8.47574 30.3508C8.27265 31.5522 8.11018 32.4635 7.93417 33.4991L7.69047 34.7695C7.55507 35.3633 7.31137 36.1503 7.31137 36.2332L7.47384 36.4541C7.67693 36.178 7.86648 35.957 7.96125 35.8328L8.02894 35.7499V35.6809C7.98644 35.5757 7.92172 35.4814 7.8394 35.4047L7.75816 35.3356V35.2252C7.86722 35.0228 8.00914 34.8407 8.17787 34.6867V34.521L8.51635 33.1401L8.67882 33.223C8.90899 33.3334 10.1004 33.8996 10.2358 34.3276C10.2358 34.4657 10.2358 34.7833 9.49117 35.3495H9.40994C9.33708 35.595 9.2123 35.8213 9.04438 36.0123V36.0813H8.90899C8.78553 36.044 8.65838 36.0208 8.52989 36.0123V36.0951C8.44866 36.2746 8.29973 36.6612 8.06956 37.1169C8.7736 37.9454 9.62656 38.8015 10.29 39.4367C10.29 39.4367 10.5743 36.2608 10.6149 34.9214C12.2557 35.9632 13.7653 37.206 15.1099 38.622C15.6109 39.202 16.6398 40.5138 16.6398 40.5138L18.6301 40.9971C18.6301 40.9971 17.7636 39.5196 17.4522 38.8154ZM12.3344 32.284C11.806 32.7415 11.2183 33.1225 10.5878 33.4163V30.6546C11.1874 30.2118 11.7409 29.7075 12.2396 29.1495C12.6593 28.68 13.0113 28.4591 13.2957 28.5143C13.58 28.5696 13.7425 28.901 13.7966 29.4671C13.8393 30.0056 13.7213 30.5447 13.4581 31.0136C13.1798 31.5163 12.7961 31.9501 12.3344 32.284Z" fill="white"/>
</g>
<defs>
<clipPath id="clip0_392_559">
<rect width="50" height="50" fill="white" transform="translate(0.0544128)"/>
</clipPath>
</defs>
</svg>
