<svg width="50" height="28" viewBox="0 0 50 28" fill="none" xmlns="http://www.w3.org/2000/svg">
<g clip-path="url(#clip0_392_441)">
<path d="M0.740956 28.0001V25.3738H0.123672V25.0371H1.97552V25.3603H1.35824V28.0001H0.740956Z" fill="white"/>
<path d="M2.29102 27.9999L2.27731 25.0369H2.89459L2.90831 26.3433H3.52559L3.51187 25.0369L4.12916 25.0234L4.14287 27.9864H3.52559V26.68H2.90831V27.9999H2.29102Z" fill="white"/>
<path d="M4.76016 27.9864V25.6834C4.75738 25.5993 4.77172 25.5154 4.80234 25.4368C4.83296 25.3582 4.87924 25.2863 4.93848 25.2255C4.99168 25.1618 5.0587 25.1106 5.13466 25.0756C5.21061 25.0407 5.29356 25.0229 5.37744 25.0235H5.99473C6.077 25.0246 6.15822 25.0418 6.2336 25.0742C6.30898 25.1066 6.37701 25.1534 6.43368 25.212C6.54832 25.3433 6.61154 25.5104 6.61201 25.6834V27.9864H6.00844V26.6396H5.37744V27.9864H4.76016ZM5.37744 26.3433H5.99473V25.6834C5.99745 25.6406 5.99023 25.5977 5.97359 25.558C5.95695 25.5184 5.93135 25.4829 5.8987 25.4544C5.87394 25.4202 5.84097 25.3924 5.80269 25.3736C5.76441 25.3548 5.72201 25.3456 5.67923 25.3467C5.60407 25.3587 5.53586 25.3969 5.48718 25.4544C5.43049 25.5173 5.40097 25.5995 5.40488 25.6834L5.37744 26.3433Z" fill="white"/>
<path d="M8.15981 25.0254L7.54253 25.0273L7.55201 27.9903L8.16929 27.9884L8.15981 25.0254Z" fill="white"/>
<path d="M10.9742 27.9729V25.0099H12.2224C12.3037 25.0045 12.385 25.0189 12.4592 25.0518C12.5334 25.0847 12.5981 25.135 12.6477 25.1985C12.7698 25.3208 12.8387 25.485 12.8397 25.6564V25.9931C12.8372 26.1616 12.774 26.3238 12.6614 26.451C12.6076 26.5139 12.5404 26.5646 12.4646 26.5995C12.3888 26.6344 12.3062 26.6527 12.2224 26.653H11.564V27.9998L10.9742 27.9729ZM11.5914 26.3163H11.8932C11.9347 26.3179 11.976 26.3103 12.014 26.2939C12.052 26.2776 12.0858 26.253 12.1127 26.222C12.1439 26.1924 12.1685 26.1568 12.185 26.1174C12.2015 26.078 12.2096 26.0357 12.2087 25.9931V25.6564C12.2039 25.5716 12.17 25.4909 12.1127 25.4274C12.0858 25.3964 12.052 25.3718 12.014 25.3555C11.976 25.3392 11.9347 25.3315 11.8932 25.3331H11.564L11.5914 26.3163Z" fill="white"/>
<path d="M13.4158 27.9595V24.9966H14.9522V25.3198H14.0331V26.3164H14.6504V26.6397H14.0331V27.6363L14.9659 27.6228V27.9595H13.4158Z" fill="white"/>
<path d="M15.8987 27.9464L15.885 25.3201H15.2677V24.9969L17.1196 24.9834V25.3201H16.5023L16.516 27.9464H15.8987Z" fill="white"/>
<path d="M17.4351 27.9464V24.9834H18.6833C18.7638 24.9831 18.8435 24.9998 18.9168 25.0323C18.9902 25.0649 19.0556 25.1125 19.1086 25.172C19.2304 25.3 19.2989 25.4682 19.3006 25.6433V25.8184C19.2934 25.9713 19.2462 26.1197 19.1635 26.2494C19.1068 26.3196 19.0333 26.3748 18.9495 26.4101C18.8656 26.4454 18.7742 26.4596 18.6833 26.4514H18.9988C19.0383 26.4498 19.0776 26.4575 19.1134 26.474C19.1492 26.4904 19.1805 26.515 19.2046 26.5457C19.2365 26.5748 19.2616 26.6103 19.2781 26.6499C19.2947 26.6894 19.3024 26.7319 19.3006 26.7746V27.9464H18.6833V26.9363C18.6855 26.8485 18.6564 26.7628 18.601 26.6938C18.5376 26.6356 18.4547 26.6021 18.3678 26.5996H18.0661V27.9464H17.4351ZM18.0523 26.3033H18.3541C18.3969 26.3044 18.4393 26.2951 18.4776 26.2763C18.5159 26.2576 18.5488 26.2298 18.5736 26.1955C18.6062 26.167 18.6319 26.1316 18.6485 26.0919C18.6651 26.0522 18.6724 26.0094 18.6696 25.9666V25.5895C18.6724 25.5466 18.6651 25.5038 18.6485 25.4641C18.6319 25.4245 18.6062 25.389 18.5736 25.3605C18.5474 25.3278 18.5141 25.3012 18.4761 25.2825C18.4382 25.2639 18.3965 25.2537 18.3541 25.2528H18.0523V26.3033Z" fill="white"/>
<path d="M20.5763 24.9833H21.1936C21.2773 24.9836 21.36 25.0019 21.4358 25.0368C21.5116 25.0716 21.5788 25.1223 21.6326 25.1853C21.6918 25.2462 21.7381 25.318 21.7687 25.3966C21.7994 25.4752 21.8137 25.5591 21.8109 25.6432V27.2863C21.8156 27.3727 21.8021 27.4591 21.7715 27.5401C21.7408 27.6212 21.6935 27.6953 21.6326 27.7577C21.5796 27.8172 21.5142 27.8648 21.4408 27.8973C21.3675 27.9298 21.2878 27.9465 21.2073 27.9462H20.5763C20.4934 27.9495 20.4108 27.9342 20.3348 27.9015C20.2588 27.8688 20.1913 27.8197 20.1374 27.7577C20.0763 27.6975 20.0279 27.6261 19.9949 27.5475C19.962 27.4689 19.9451 27.3848 19.9453 27.2998V25.5893C19.9391 25.4153 20.0032 25.2458 20.1237 25.118C20.1782 25.0567 20.2458 25.0081 20.3217 24.9755C20.3976 24.9429 20.4798 24.9272 20.5626 24.9294M20.5763 25.5893V27.219C20.5853 27.3069 20.6185 27.3907 20.6724 27.4614C20.6999 27.4917 20.7338 27.5157 20.7716 27.532C20.8095 27.5483 20.8505 27.5563 20.8918 27.5557C20.9745 27.5524 21.0528 27.5188 21.1113 27.4614C21.1706 27.3937 21.2045 27.3082 21.2073 27.219V25.5893C21.2074 25.506 21.1784 25.4252 21.125 25.3604C21.0954 25.3291 21.0592 25.3045 21.019 25.2882C20.9787 25.2719 20.9353 25.2644 20.8918 25.2661C20.8524 25.2645 20.8131 25.2722 20.7773 25.2886C20.7415 25.3051 20.7102 25.3297 20.6861 25.3604C20.653 25.3893 20.6263 25.4245 20.6074 25.4639C20.5886 25.5032 20.578 25.5459 20.5763 25.5893Z" fill="white"/>
<path d="M22.387 27.9327L22.3733 24.9697H22.9906L23.0043 27.596H23.9371V27.9192L22.387 27.9327Z" fill="white"/>
<path d="M24.5407 27.919V24.9695L26.0907 24.9561V25.2928H25.158V26.2759H25.7752V26.6126H25.158V27.5958H26.0907V27.919H24.5407Z" fill="white"/>
<path d="M27.9426 24.9561H28.5599V27.2591C28.564 27.4288 28.4999 27.5933 28.3816 27.717C28.3284 27.7807 28.2613 27.8319 28.1854 27.8668C28.1094 27.9018 28.0265 27.9196 27.9426 27.919H27.3253C27.243 27.9179 27.1618 27.9006 27.0864 27.8683C27.0111 27.8359 26.943 27.789 26.8864 27.7305C26.7684 27.6011 26.7046 27.4327 26.708 27.2591V24.9561H27.339V27.2591C27.3381 27.3017 27.3462 27.344 27.3627 27.3834C27.3793 27.4228 27.4039 27.4584 27.4351 27.488C27.4613 27.5198 27.4949 27.545 27.5331 27.5614C27.5713 27.5778 27.6129 27.585 27.6545 27.5823C27.6959 27.583 27.7369 27.5749 27.7747 27.5586C27.8126 27.5424 27.8465 27.5183 27.874 27.488C27.9274 27.4232 27.9564 27.3424 27.9563 27.2591L27.9426 24.9561Z" fill="white"/>
<path d="M29.1772 27.9058V24.9563L29.3143 24.9429L30.6449 26.3435L31.9618 24.9429H32.2636L32.2773 27.9058H31.66L31.6463 26.1011L30.5763 27.2459L29.4927 26.1011V27.9058H29.1772Z" fill="white"/>
<path d="M35.3637 25.5891H35.0482C35.0482 25.3737 34.9522 25.2659 34.7602 25.2659C34.7153 25.259 34.6695 25.2626 34.6263 25.2764C34.5832 25.2902 34.5439 25.3138 34.5118 25.3453C34.4797 25.3768 34.4557 25.4154 34.4416 25.4577C34.4276 25.5001 34.4239 25.5451 34.4309 25.5891C34.4314 25.6788 34.4656 25.7652 34.527 25.8316L35.1854 26.5992C35.2936 26.7342 35.3559 26.8991 35.3637 27.0706V27.2322C35.3665 27.3164 35.3522 27.4002 35.3216 27.4788C35.2909 27.5575 35.2446 27.6293 35.1854 27.6902C35.1316 27.7531 35.0644 27.8038 34.9886 27.8387C34.9128 27.8736 34.8302 27.8918 34.7464 27.8922H34.4447C34.3597 27.8991 34.2742 27.8883 34.1938 27.8604C34.1134 27.8326 34.04 27.7883 33.9783 27.7306C33.9183 27.6625 33.8729 27.5833 33.8446 27.4978C33.8163 27.4122 33.8058 27.3219 33.8137 27.2322H34.1292C34.1264 27.2731 34.1338 27.314 34.1505 27.3515C34.1672 27.389 34.1928 27.422 34.2252 27.4477C34.2927 27.4648 34.3635 27.4648 34.4309 27.4477C34.4768 27.4526 34.5231 27.4465 34.5661 27.4301C34.6091 27.4137 34.6474 27.3874 34.6779 27.3535C34.7031 27.2746 34.7031 27.1899 34.6779 27.111C34.6788 27.0684 34.6707 27.0261 34.6542 26.9867C34.6376 26.9473 34.613 26.9117 34.5818 26.8821L33.9234 26.1009C33.8077 25.9702 33.7443 25.8027 33.7451 25.6296V25.5891C33.741 25.4194 33.805 25.255 33.9234 25.1312C33.9766 25.0676 34.0436 25.0164 34.1196 24.9814C34.1955 24.9464 34.2785 24.9286 34.3624 24.9292H34.6641C35.0619 24.9292 35.2677 25.1447 35.2951 25.5891" fill="white"/>
<path d="M37.2156 24.9292H37.8329V27.2188C37.8391 27.3928 37.775 27.5623 37.6545 27.6901C37.6007 27.7521 37.5332 27.8013 37.4571 27.8339C37.3811 27.8666 37.2985 27.8819 37.2156 27.8787H36.5983C36.5146 27.8784 36.4319 27.8601 36.3561 27.8252C36.2803 27.7903 36.2132 27.7396 36.1593 27.6767C36.1001 27.6158 36.0538 27.544 36.0232 27.4654C35.9926 27.3867 35.9782 27.3029 35.981 27.2188V24.9292H36.5983V27.2322C36.5974 27.2748 36.6055 27.3171 36.622 27.3565C36.6385 27.3959 36.6631 27.4316 36.6943 27.4612C36.7206 27.493 36.7542 27.5181 36.7924 27.5345C36.8306 27.551 36.8722 27.5581 36.9138 27.5555C36.9551 27.5561 36.9961 27.5481 37.034 27.5318C37.0719 27.5155 37.1057 27.4914 37.1333 27.4612C37.1866 27.3964 37.2157 27.3156 37.2156 27.2322V24.9292Z" fill="white"/>
<path d="M38.409 27.879V24.916H39.6436C39.7273 24.9164 39.8099 24.9346 39.8857 24.9695C39.9615 25.0044 40.0287 25.0551 40.0825 25.118C40.1418 25.1789 40.1881 25.2507 40.2187 25.3294C40.2493 25.408 40.2636 25.4918 40.2608 25.5759V25.8992C40.2671 26.0733 40.203 26.2427 40.0825 26.3706C40.0269 26.4304 39.959 26.4781 39.8834 26.5106C39.8078 26.543 39.7261 26.5596 39.6436 26.5591H39.0263V27.9059L38.409 27.879ZM39.0263 26.2359H39.3418C39.4238 26.2302 39.5014 26.1969 39.5613 26.1416C39.6166 26.0727 39.6457 25.9869 39.6436 25.8992V25.5894C39.6463 25.5466 39.6391 25.5037 39.6224 25.4641C39.6058 25.4244 39.5802 25.389 39.5475 25.3605C39.5201 25.329 39.4866 25.3033 39.4489 25.2848C39.4112 25.2663 39.3701 25.2554 39.3281 25.2527H39.0263V26.2359Z" fill="white"/>
<path d="M40.933 27.8789V24.9159H42.1676C42.2505 24.9127 42.3331 24.928 42.4091 24.9607C42.4851 24.9934 42.5526 25.0425 42.6065 25.1045C42.7249 25.2282 42.7889 25.3927 42.7849 25.5624V25.8991C42.7889 26.0688 42.7249 26.2333 42.6065 26.357C42.5561 26.4204 42.4916 26.4716 42.4178 26.5066C42.3441 26.5416 42.2632 26.5596 42.1813 26.559H41.564V27.9058L40.933 27.8789ZM41.5366 26.2223H41.8521C41.8935 26.2239 41.9348 26.2163 41.9728 26.2C42.0109 26.1836 42.0446 26.1591 42.0715 26.1281C42.1289 26.0645 42.1627 25.9839 42.1676 25.8991V25.5893C42.1677 25.506 42.1386 25.4252 42.0853 25.3604C42.0577 25.3301 42.0238 25.3061 41.986 25.2898C41.9481 25.2735 41.9071 25.2654 41.8658 25.2661H41.5503L41.5366 26.2223Z" fill="white"/>
<path d="M44.0194 24.9023H44.6367C44.7172 24.9021 44.7968 24.9188 44.8702 24.9513C44.9435 24.9838 45.0089 25.0314 45.0619 25.0909C45.1293 25.1556 45.1823 25.2333 45.2177 25.319C45.2531 25.4048 45.2701 25.4967 45.2677 25.5892V27.2054C45.2718 27.3751 45.2077 27.5396 45.0894 27.6633C45.0362 27.727 44.9692 27.7782 44.8932 27.8131C44.8172 27.8481 44.7343 27.8659 44.6504 27.8653H44.0331C43.9509 27.8642 43.8696 27.8469 43.7943 27.8146C43.7189 27.7822 43.6508 27.7353 43.5942 27.6768C43.4737 27.5489 43.4096 27.3795 43.4158 27.2054V25.5892C43.4097 25.5047 43.4224 25.4199 43.4532 25.3408C43.484 25.2617 43.5321 25.1902 43.5942 25.1313C43.6474 25.0676 43.7144 25.0164 43.7903 24.9815C43.8663 24.9465 43.9492 24.9287 44.0331 24.9293M44.0331 25.5892V27.2054C44.0314 27.2481 44.039 27.2907 44.0556 27.3302C44.0722 27.3697 44.0973 27.4052 44.1291 27.4343C44.1554 27.4661 44.189 27.4913 44.2272 27.5077C44.2654 27.5241 44.307 27.5313 44.3486 27.5286C44.39 27.5293 44.431 27.5212 44.4688 27.5049C44.5067 27.4887 44.5406 27.4646 44.5681 27.4343C44.6215 27.3695 44.6505 27.2887 44.6504 27.2054V25.5892C44.6524 25.5445 44.6449 25.4998 44.6283 25.4581C44.6118 25.4164 44.5866 25.3785 44.5544 25.3468C44.4959 25.2894 44.4175 25.2558 44.3349 25.2525C44.2929 25.2552 44.2518 25.2661 44.2141 25.2846C44.1764 25.3031 44.1428 25.3288 44.1154 25.3603C44.0587 25.4232 44.0292 25.5053 44.0331 25.5892Z" fill="white"/>
<path d="M45.8713 27.8518V24.9023H47.1058C47.1896 24.9027 47.2722 24.9209 47.348 24.9558C47.4238 24.9907 47.491 25.0414 47.5448 25.1044C47.604 25.1652 47.6503 25.2371 47.681 25.3157C47.7116 25.3943 47.7259 25.4781 47.7231 25.5623V25.7374C47.7242 25.8915 47.6762 26.0422 47.586 26.1683C47.5302 26.2395 47.4568 26.2954 47.3727 26.3308C47.2887 26.3662 47.1968 26.3798 47.1058 26.3704H47.4213C47.4627 26.3697 47.5037 26.3778 47.5415 26.394C47.5794 26.4103 47.6133 26.4344 47.6408 26.4646C47.6962 26.5336 47.7253 26.6193 47.7231 26.7071V27.8653H47.1058V26.936C47.1084 26.8523 47.079 26.7707 47.0235 26.7071C46.996 26.6768 46.9621 26.6527 46.9243 26.6365C46.8864 26.6202 46.8454 26.6121 46.8041 26.6128H46.4886V27.9596L45.8713 27.8518ZM46.4886 26.2087H46.8041C46.8454 26.2094 46.8864 26.2013 46.9243 26.1851C46.9621 26.1688 46.996 26.1447 47.0235 26.1145C47.0769 26.0497 47.1059 25.9688 47.1058 25.8855V25.5892C47.1084 25.5055 47.079 25.4239 47.0235 25.3603C46.9939 25.329 46.9577 25.3043 46.9175 25.2881C46.8772 25.2718 46.8338 25.2643 46.7903 25.266H46.4886V26.2087Z" fill="white"/>
<path d="M48.6696 27.8516L48.6559 25.2119L48.0386 25.2254V24.8887H49.8905V25.2119H49.2732V27.8516H48.6696Z" fill="white"/>
<path d="M0.000213623 23.5421H50.0002V0H0.000213623V23.5421ZM15.0894 3.93266H10.3431V23.5017H5.67923V3.93266H0.97415V0H15.0894V3.93266ZM31.8383 6.54545C31.9066 7.19523 31.8374 7.85184 31.635 8.4741C31.4326 9.09636 31.1014 9.67083 30.6622 10.1615C30.223 10.6521 29.6852 11.0484 29.0827 11.3254C28.4801 11.6023 27.8258 11.7541 27.1607 11.771C27.8245 11.7919 28.4768 11.9463 29.0775 12.2246C29.6781 12.5028 30.2141 12.8991 30.6526 13.3889C31.091 13.8787 31.4224 14.4515 31.6264 15.0721C31.8303 15.6926 31.9025 16.3476 31.8383 16.9966V23.5017H27.1607V15.6768C27.1733 15.0035 26.9286 14.35 26.4748 13.8451C26.2701 13.6093 26.0156 13.4199 25.7291 13.2901C25.4425 13.1602 25.1306 13.0929 24.815 13.0929C24.4994 13.0929 24.1876 13.1602 23.901 13.2901C23.6144 13.4199 23.36 13.6093 23.1552 13.8451C22.7014 14.35 22.4567 15.0035 22.4693 15.6768V23.5017H17.8329V16.9966C17.7666 16.345 17.8381 15.687 18.0429 15.0638C18.2477 14.4407 18.5815 13.8657 19.0232 13.3751C19.465 12.8845 20.0052 12.4888 20.61 12.2128C21.2148 11.9367 21.8712 11.7863 22.5379 11.771C21.8712 11.7557 21.2148 11.6054 20.61 11.3293C20.0052 11.0533 19.465 10.6576 19.0232 10.167C18.5815 9.67635 18.2477 9.10143 18.0429 8.47824C17.8381 7.85506 17.7666 7.19704 17.8329 6.54545V0H22.5379V7.86532C22.5253 8.53858 22.77 9.19205 23.2238 9.69697C23.4286 9.93279 23.683 10.1222 23.9696 10.252C24.2561 10.3819 24.568 10.4492 24.8836 10.4492C25.1992 10.4492 25.5111 10.3819 25.7977 10.252C26.0842 10.1222 26.3387 9.93279 26.5434 9.69697C26.9972 9.19205 27.2419 8.53858 27.2293 7.86532V0H31.9069L31.8383 6.54545ZM48.5599 7.89226C48.5885 9.24339 48.0989 10.5557 47.1881 11.569C46.7876 12.0453 46.2848 12.4288 45.7156 12.6919C45.1464 12.955 44.5251 13.0913 43.896 13.0909H39.1909V23.5017H34.4858V0H43.896C44.5277 6.29345e-05 45.1515 0.139239 45.7212 0.407282C46.291 0.675325 46.7923 1.06541 47.1881 1.54882C48.0989 2.5621 48.5885 3.87446 48.5599 5.22559V7.89226Z" fill="white"/>
<path d="M41.5228 2.69359H39.1909V10.505H41.5228C41.8414 10.5096 42.1569 10.4442 42.4465 10.3137C42.736 10.1832 42.9922 9.99092 43.1964 9.75083C43.6682 9.23425 43.9188 8.55883 43.896 7.86531V5.26598C43.9155 4.5835 43.6704 3.91919 43.2101 3.4074C42.9999 3.17362 42.7396 2.98839 42.4479 2.86499C42.1562 2.74158 41.8403 2.68305 41.5228 2.69359Z" fill="white"/>
</g>
<defs>
<clipPath id="clip0_392_441">
<rect width="50" height="28" fill="white"/>
</clipPath>
</defs>
</svg>
