<svg width="124" height="72" viewBox="0 0 124 72" fill="none" xmlns="http://www.w3.org/2000/svg">
<g clip-path="url(#clip0_392_356)">
<path d="M15.5479 33.9701C12.9458 34.002 10.3667 33.4759 7.98226 32.4267C5.76964 31.4488 3.85879 29.8903 2.44967 27.9141C0.972201 25.7848 0.122973 23.2783 1.38953e-06 20.6839C-0.099084 18.494 0.119861 16.3013 0.649914 14.1751C1.38635 9.96183 3.55412 6.13704 6.78242 3.35496C9.52012 1.20094 12.8898 0.0210645 16.3645 -0.000120621C18.0679 -0.0313571 19.7625 0.252959 21.3638 0.838649C22.8783 1.4352 24.2814 2.28604 25.5132 3.35496L25.8632 3.64014L27.5296 2.28133C28.1559 1.72487 28.8504 1.25132 29.596 0.8722C30.1845 0.615188 30.8211 0.489293 31.4624 0.503141C32.0857 0.468725 32.7038 0.633094 33.2289 0.972852C33.4247 1.11168 33.5855 1.29477 33.6983 1.50743C33.8112 1.72009 33.873 1.95642 33.8788 2.19746C33.8966 2.51512 33.8571 2.8334 33.7621 3.13688L31.4458 11.1387C31.3217 11.7594 31.0404 12.3373 30.6292 12.8163C30.2011 13.1443 29.6643 13.2945 29.1294 13.2357C28.7871 13.2441 28.4469 13.1798 28.1311 13.0468C27.8152 12.9138 27.5307 12.7152 27.2963 12.464C26.4952 11.5049 25.8125 10.4515 25.2633 9.327C24.6477 8.10696 23.8683 6.97801 22.9469 5.97192C22.5858 5.64639 22.1643 5.39584 21.7068 5.23463C21.2492 5.07342 20.7646 5.00473 20.2806 5.0325C19.3798 5.11501 18.5141 5.42399 17.7629 5.93107C17.0116 6.43816 16.399 7.1271 15.9812 7.93464C14.5074 10.3854 13.4698 13.0763 12.9149 15.8862C12.2712 18.308 11.9848 20.812 12.065 23.3177C12.0638 24.8085 12.5368 26.2606 13.4149 27.4612C13.7881 27.9247 14.261 28.297 14.7979 28.5498C15.3348 28.8026 15.9218 28.9294 16.5144 28.9207C18.0043 28.9819 19.4749 28.5648 20.7139 27.7296C21.863 26.8569 22.8987 25.8425 23.7968 24.71C24.2546 24.1192 24.75 23.5588 25.2799 23.0325C25.5368 22.7877 25.8761 22.6499 26.2298 22.6467C26.8592 22.7075 27.4481 22.9862 27.8963 23.4351C28.1363 23.597 28.3402 23.8073 28.4951 24.0528C28.6501 24.2983 28.7526 24.5735 28.7961 24.861C28.7961 25.2636 28.6961 26.1192 27.3297 28.0316C26.0488 29.6921 24.451 31.0781 22.6303 32.108C20.4786 33.336 18.0374 33.9562 15.5646 33.903" fill="white"/>
<path d="M63.6414 29.0887V28.7699C63.4899 28.9898 63.2883 29.17 63.0535 29.2955C62.8187 29.421 62.5575 29.4881 62.2916 29.4913C62.1309 29.4958 61.9709 29.4669 61.8218 29.4063C61.6727 29.3457 61.5376 29.2547 61.4251 29.139C61.215 28.897 61.0969 28.588 61.0918 28.2667C61.0348 28.0183 61.0348 27.7601 61.0918 27.5118L63.3248 18.3188C63.5577 17.4447 63.6422 16.5373 63.5748 15.6348C63.5452 14.8481 63.3606 14.0751 63.0316 13.3609C62.7026 12.6467 62.2358 12.0054 61.6584 11.4745C61.0784 10.9209 60.3958 10.4879 59.6495 10.2C58.9032 9.91218 58.1079 9.77521 57.309 9.79695C55.8883 9.78137 54.4821 10.0851 53.1929 10.686C51.7976 11.423 50.6194 12.5164 49.7766 13.8566L48.7768 13.4204L50.7432 5.20049C50.9036 4.59952 50.9655 3.97623 50.9265 3.35519C50.9125 2.87961 50.7911 2.41347 50.5717 1.99205C50.3523 1.57063 50.0405 1.20498 49.66 0.922761C48.5429 0.228073 47.2368 -0.0947517 45.9272 0.000113828C44.1164 -0.00359761 42.3147 0.256315 40.5779 0.771782C38.4948 1.40925 38.1782 2.01316 38.1282 2.26479C38.0782 2.51642 38.1282 2.48287 38.1282 2.5332C38.3073 2.75038 38.5147 2.94223 38.7448 3.10356C39.0469 3.32035 39.3211 3.5739 39.5614 3.85845C39.835 4.18846 39.9879 4.60294 39.9946 5.03273C40.0065 5.32697 39.9728 5.62127 39.8946 5.90505L34.3621 29.3906C34.247 30.0718 33.9729 30.7158 33.5622 31.2695C33.2036 31.6835 32.7748 32.03 32.2957 32.2928C32.0174 32.4164 31.7926 32.6367 31.6624 32.9134C31.6624 33.098 31.6624 33.2322 31.8791 33.3999C32.3409 33.6405 32.8607 33.7451 33.3789 33.7019L37.7283 32.8296C39.6518 32.4426 41.6469 32.6593 43.4442 33.4503L44.0274 33.7019L44.994 29.2061L47.3103 19.6609C47.508 18.5753 48.0179 17.572 48.7768 16.7755C49.048 16.4804 49.3747 16.2424 49.738 16.0753C50.1013 15.9083 50.494 15.8156 50.8932 15.8025C51.379 15.7937 51.852 15.9603 52.2263 16.2722C52.4228 16.4406 52.5821 16.6484 52.694 16.8825C52.806 17.1165 52.868 17.3715 52.8762 17.6311C52.8939 18.0364 52.8316 18.4412 52.6929 18.8221L50.5765 25.5323C50.1583 26.7155 49.9661 27.9677 50.0099 29.2229C50.0536 29.9039 50.2484 30.5663 50.5801 31.1615C50.9117 31.7566 51.3718 32.2693 51.9264 32.6618C53.3024 33.6047 54.9465 34.07 56.6091 33.9871C57.9935 34.0332 59.3708 33.7697 60.6419 33.2154C61.5939 32.8075 62.4177 32.1464 63.0249 31.303C63.4928 30.6212 63.7107 29.7969 63.6414 28.9712" fill="white"/>
<path d="M87.8715 33.8358C86.4975 33.8678 85.1347 33.5808 83.8887 32.9971C82.8881 32.4937 82.097 31.6497 81.6557 30.615L81.2724 29.7762L80.7225 30.5143C79.9412 31.5498 78.9314 32.3883 77.7729 32.9635C76.5835 33.5434 75.2782 33.8418 73.9567 33.8358C72.5797 33.8777 71.2148 33.5659 69.9906 32.93C69.0193 32.4217 68.1946 31.67 67.5962 30.7473C66.9978 29.8246 66.6459 28.7621 66.5744 27.6625C66.5323 27.2106 66.5323 26.7556 66.5744 26.3037C66.6814 25.4101 66.9723 24.5488 67.4285 23.7747C67.8847 23.0006 68.4962 22.3307 69.224 21.8079C70.8745 20.735 72.8094 20.191 74.7733 20.2478C77.3359 20.2621 79.8815 20.6694 82.3223 21.4556L82.8389 21.6234L83.9554 17.9831C84.2585 16.9257 84.4045 15.8291 84.3887 14.7287C84.3687 14.3206 84.2634 13.9214 84.0796 13.5572C83.8958 13.193 83.6377 12.8719 83.3221 12.615C82.5786 12.1209 81.6948 11.8852 80.8058 11.944H79.9892L80.3225 12.7156C80.5204 13.1433 80.639 13.6038 80.6725 14.0744C80.713 14.5529 80.6473 15.0344 80.4801 15.4841C80.313 15.9338 80.0485 16.3405 79.706 16.6746C79.2573 17.0821 78.7292 17.391 78.1554 17.5816C77.5815 17.7723 76.9745 17.8404 76.3731 17.7818C75.1939 17.8514 74.0243 17.5335 73.0402 16.8759C72.6889 16.6407 72.3954 16.3282 72.1818 15.9621C71.9681 15.5959 71.84 15.1856 71.807 14.7622C71.7995 14.0589 71.9935 13.3684 72.3659 12.7733C72.7383 12.1783 73.2733 11.7039 73.9067 11.4071C76.27 10.261 78.8885 9.75233 81.5057 9.93091C84.4424 9.77078 87.3688 10.3959 89.9879 11.7427C90.9785 12.318 91.8055 13.1402 92.3892 14.1303C92.9729 15.1204 93.2937 16.245 93.3208 17.396C93.3735 18.5238 93.2669 19.6534 93.0042 20.751L91.6543 27.327C91.6201 27.5381 91.6201 27.7534 91.6543 27.9645C91.6452 28.1278 91.6695 28.2914 91.7259 28.4449C91.7823 28.5984 91.8695 28.7385 91.9821 28.8565C92.0947 28.9746 92.2302 29.068 92.3803 29.131C92.5303 29.194 92.6916 29.2252 92.8542 29.2226C93.1214 29.2241 93.385 29.1608 93.6228 29.0382C93.8606 28.9156 94.0657 28.7372 94.2207 28.518V28.4174C94.2476 28.5502 94.2476 28.6872 94.2207 28.82C94.2798 29.6237 94.0358 30.4204 93.5374 31.0511C92.93 31.9017 92.1227 32.5876 91.1877 33.0474C90.1548 33.5731 89.0123 33.8434 87.8549 33.8358M79.9892 23.0493C79.5051 23.0338 79.0246 23.1372 78.589 23.3505C78.1535 23.5639 77.7762 23.8808 77.4896 24.2739C76.9041 24.9952 76.607 25.9104 76.6564 26.8405C76.6859 27.3929 76.8773 27.924 77.2063 28.3671C77.3846 28.583 77.6092 28.7555 77.8631 28.8717C78.1171 28.9879 78.3939 29.0448 78.6728 29.0381C79.2758 29.0238 79.8589 28.8183 80.3392 28.4509C80.9265 28.0102 81.3398 27.3743 81.5057 26.656L82.4556 23.3009L81.8557 23.2002C81.2392 23.0945 80.6146 23.044 79.9892 23.0493Z" fill="white"/>
<path d="M108.052 33.6851C106.169 32.73 104.026 32.4236 101.953 32.8128L97.4036 33.6851C96.8958 33.7334 96.3853 33.6282 95.9371 33.3831C95.8501 33.3385 95.7792 33.2676 95.7344 33.1804C95.6895 33.0931 95.673 32.9939 95.6871 32.8966C95.822 32.6233 96.0453 32.4043 96.3204 32.276C96.8626 31.9919 97.3281 31.5792 97.6765 31.0736C98.0249 30.568 98.2458 29.9846 98.3201 29.3738L101.653 15.769C101.702 15.4972 101.702 15.2187 101.653 14.947C101.639 14.5474 101.506 14.1614 101.27 13.8398C101.027 13.5585 100.759 13.3002 100.47 13.0681C100.29 12.8945 100.129 12.7034 99.9866 12.4978C99.9866 12.4978 99.9866 12.2629 99.9866 12.1958C99.9866 12.1287 100.353 11.3403 102.436 10.686C104.168 10.143 105.972 9.87144 107.786 9.8808C108.819 9.84609 109.84 10.1205 110.718 10.6692C111.525 11.1539 112.12 11.9266 112.385 12.8333L112.735 14.0075L113.368 12.9675C113.864 12.0171 114.613 11.2248 115.531 10.6795C116.45 10.1342 117.501 9.85761 118.567 9.8808C119.284 9.84729 120 9.95923 120.673 10.21C121.346 10.4607 121.961 10.8451 122.484 11.3403C123.489 12.2675 124.089 13.5586 124.15 14.9302C124.21 15.4316 124.21 15.9385 124.15 16.44C124.049 17.4483 123.567 18.3792 122.805 19.0408C122.042 19.7025 121.056 20.0444 120.051 19.9964C119.191 20.0513 118.34 19.7955 117.651 19.275C116.978 18.6728 116.414 17.9576 115.984 17.1613C115.705 16.6964 115.369 16.2681 114.985 15.8864C114.836 15.7207 114.657 15.5865 114.457 15.4914C114.256 15.3963 114.039 15.3424 113.818 15.3328C113.588 15.3289 113.36 15.3782 113.152 15.4771C112.944 15.5761 112.761 15.7218 112.618 15.9032C112.275 16.3555 112.046 16.8852 111.952 17.4465L109.135 29.1893" fill="white"/>
<path d="M60.2086 40.8817C60.2883 40.9954 60.3775 41.102 60.4752 41.2004L63.9914 45.6459H64.0747C64.0903 45.6534 64.1074 45.6573 64.1247 45.6573C64.142 45.6573 64.1591 45.6534 64.1747 45.6459L69.174 41.4185C69.5071 41.1447 69.7844 40.8086 69.9906 40.4288C70.1401 40.128 70.2413 39.8052 70.2905 39.4726C70.3612 39.1247 70.3554 38.7655 70.2735 38.4202C70.1916 38.0749 70.0356 37.7518 69.8164 37.4736C69.5973 37.1955 69.3203 36.969 69.0049 36.81C68.6895 36.6511 68.3434 36.5636 67.9909 36.5537C67.4838 36.5488 66.983 36.6667 66.5306 36.8973C66.0782 37.128 65.6874 37.4646 65.3912 37.8789C65.3912 37.9628 65.2079 37.9628 65.1746 37.8789C65.0007 37.4381 64.7034 37.0577 64.3188 36.7837C63.9343 36.5097 63.479 36.3541 63.0082 36.3356C62.2473 36.3289 61.5088 36.5954 60.9255 37.0873C60.3422 37.5792 59.9521 38.2643 59.8253 39.0196C59.7749 39.3307 59.7749 39.648 59.8253 39.9591C59.8919 40.2861 60.0161 40.5986 60.1919 40.8817" fill="white"/>
<path d="M13.9148 71.5806H13.7648C11.9044 70.6657 9.79922 70.3831 7.76563 70.7754L3.33289 71.5806C2.82529 71.6259 2.3156 71.521 1.86642 71.2787C1.7781 71.2312 1.70661 71.1573 1.66183 71.0671C1.61705 70.977 1.6012 70.875 1.61645 70.7754C1.76347 70.5053 1.99072 70.2883 2.26637 70.1547C2.74629 69.8932 3.17534 69.5465 3.53286 69.1314C3.93708 68.5759 4.20543 67.9322 4.31609 67.2526L7.64898 53.6645C7.70661 53.3936 7.70661 53.1134 7.64898 52.8425C7.63733 52.4426 7.50349 52.056 7.26569 51.7353C7.0197 51.4521 6.75227 51.1885 6.4658 50.9469C6.20127 50.7787 5.96502 50.5692 5.7659 50.3262C5.7659 50.2423 5.7659 50.0914 5.7659 50.0075C5.7659 49.9236 6.14918 49.1687 8.21557 48.5145C9.94708 47.9715 11.7513 47.6999 13.5648 47.7093C14.7797 47.6474 15.9721 48.0555 16.8977 48.85C17.3205 49.2433 17.6573 49.7208 17.8868 50.2522C18.1163 50.7836 18.2335 51.3572 18.2309 51.9367L18.3309 53.6813L19.2474 52.2722C20.1112 50.7952 21.3471 49.5742 22.8303 48.7325C24.1703 48.0804 25.6414 47.7475 27.1297 47.7596C28.6475 47.7076 30.131 48.2213 31.2958 49.2023C32.4276 50.1599 33.1545 51.5156 33.3289 52.9935L33.5622 54.671L34.3454 53.2619C35.2099 51.5291 36.5224 50.063 38.1449 49.0177C39.5692 48.2319 41.1701 47.8276 42.7943 47.8435C44.3955 47.7806 45.9572 48.3528 47.1437 49.4371C47.715 49.9709 48.1756 50.6135 48.4988 51.3275C48.8221 52.0416 49.0015 52.8131 49.0267 53.5974C49.0942 54.4999 49.0097 55.4073 48.7768 56.2815L46.4771 65.4241C46.4015 65.6738 46.3732 65.9355 46.3938 66.1957C46.4127 66.5121 46.5358 66.8132 46.7437 67.0513C46.8522 67.1687 46.9838 67.2622 47.1301 67.3257C47.2764 67.3892 47.4343 67.4215 47.5936 67.4203C47.8623 67.4199 48.1268 67.3541 48.3648 67.2285C48.6027 67.1029 48.8069 66.9212 48.9601 66.699C48.9696 66.805 48.9696 66.9117 48.9601 67.0177C49.0231 67.8453 48.7994 68.6693 48.3268 69.3495C47.7305 70.1965 46.9109 70.8589 45.9605 71.2619C44.689 71.8146 43.312 72.0781 41.9277 72.0336C40.2649 72.119 38.62 71.6535 37.245 70.7083C36.6921 70.3141 36.2333 69.801 35.9019 69.2062C35.5704 68.6114 35.3746 67.9498 35.3286 67.2694C35.2868 66.0157 35.4731 64.7649 35.8785 63.5788L38.0116 56.8686C38.1436 56.486 38.2057 56.0825 38.1949 55.6776C38.1837 55.4186 38.1203 55.1645 38.0086 54.9309C37.8969 54.6974 37.7391 54.4891 37.545 54.3188C37.1706 54.0068 36.6977 53.8402 36.2118 53.849C35.48 53.8708 34.7835 54.1705 34.2621 54.6878C33.5688 55.3603 33.0532 56.1964 32.7623 57.1202L30.7625 65.5079C30.6778 65.7499 30.6493 66.0081 30.6792 66.2628C30.6982 66.5793 30.8213 66.8803 31.0292 67.1184C31.1377 67.2358 31.2693 67.3293 31.4156 67.3928C31.5619 67.4563 31.7197 67.4886 31.879 67.4874C32.1477 67.487 32.4123 67.4212 32.6502 67.2956C32.8882 67.17 33.0924 66.9883 33.2455 66.7661C33.2629 66.8716 33.2629 66.9793 33.2455 67.0848C33.3235 67.9113 33.1048 68.7385 32.629 69.4166C32.0326 70.2636 31.213 70.926 30.2626 71.329C28.9911 71.8817 27.6141 72.1452 26.2298 72.1007C24.567 72.1861 22.9221 71.7206 21.5471 70.7754C20.9942 70.3812 20.5354 69.8681 20.204 69.2733C19.8725 68.6785 19.6767 68.0169 19.6307 67.3365C19.5889 66.0828 19.7752 64.832 20.1806 63.6459L22.297 56.9357C22.4397 56.5555 22.5076 56.151 22.497 55.7447C22.4878 55.4853 22.4253 55.2306 22.3134 54.9967C22.2015 54.7629 22.0428 54.5549 21.8471 54.3859C21.4727 54.0739 20.9998 53.9073 20.5139 53.9161C19.789 53.9398 19.0968 54.2257 18.5642 54.7214C17.9667 55.3742 17.5475 56.1718 17.3477 57.0364L14.998 67.1016" fill="white"/>
<path d="M63.0582 71.5808L62.5916 71.3627C60.7746 70.5375 58.7458 70.3086 56.7924 70.7085L52.393 71.5808C51.8748 71.6241 51.355 71.5194 50.8932 71.2789C50.6599 71.1111 50.6265 70.9769 50.6765 70.7924C50.7265 70.6078 50.9432 70.373 51.3264 70.1549C51.8043 69.8975 52.2286 69.5501 52.5763 69.1316C52.9755 68.5767 53.2331 67.9315 53.3262 67.2528L56.4924 53.6647C56.5705 53.3809 56.6043 53.0866 56.5924 52.7924C56.5769 52.3773 56.4311 51.9779 56.1758 51.6516C55.9298 51.3651 55.6435 51.1164 55.3259 50.9135C55.1127 50.7691 54.9218 50.5939 54.7593 50.3935C54.7263 50.2956 54.7263 50.1894 54.7593 50.0915C54.7593 49.8399 55.1259 49.236 57.209 48.5817C58.9345 48.0376 60.7334 47.766 62.5416 47.7765C63.8463 47.6783 65.1481 48.0015 66.2578 48.6992C66.6317 48.9865 66.9377 49.3536 67.1538 49.7742C67.3699 50.1948 67.4908 50.6584 67.5076 51.1316C67.5485 51.7693 67.4866 52.4095 67.3243 53.0272L63.9914 67.1018" fill="white"/>
<path d="M81.9556 71.7651C78.5992 71.8833 75.2539 71.3126 72.1236 70.0876C69.7739 69.0307 68.5908 67.6719 68.4575 65.8937C68.3835 65.4223 68.4203 64.94 68.565 64.4855C68.7098 64.031 68.9583 63.617 69.2907 63.2768C70.0836 62.6441 71.0803 62.3276 72.0903 62.3877C73.4574 62.3638 74.7876 62.8339 75.8398 63.7129C76.3379 64.1213 76.744 64.6317 77.0313 65.2101C77.3186 65.7885 77.4805 66.4218 77.5062 67.068C77.5388 67.4531 77.5388 67.8403 77.5062 68.2255V68.712L77.9895 68.8294C78.7409 69.0244 79.5133 69.1258 80.2892 69.1314C81.1365 69.1647 81.9665 68.8842 82.6222 68.3429C82.9081 68.0443 83.1203 67.6823 83.2418 67.286C83.3634 66.8898 83.3909 66.4704 83.3221 66.0615C83.2782 65.598 83.1329 65.15 82.8967 64.7498C82.6604 64.3495 82.339 64.0069 81.9556 63.7465C80.85 63.0118 79.685 62.3721 78.4728 61.8341C77.2767 61.3138 76.1135 60.72 74.9899 60.0559C74.0973 59.5122 73.3074 58.8136 72.6569 57.9925C72.043 57.1857 71.6936 56.2066 71.657 55.191C71.5415 54.0994 71.7205 52.9967 72.175 51.9989C72.6296 51.0011 73.3429 50.145 74.24 49.5209C76.8127 47.9017 79.8287 47.1442 82.8555 47.3569C85.0966 47.3218 87.3339 47.5526 89.5213 48.0447C91.0647 48.3595 92.5243 48.9998 93.8041 49.9235C94.2209 50.196 94.5719 50.5589 94.8314 50.9855C95.0909 51.4122 95.2523 51.8919 95.3038 52.3895C95.3523 52.8092 95.2935 53.2344 95.1331 53.6248C94.9727 54.0152 94.716 54.358 94.3873 54.6206C93.4767 55.2877 92.3609 55.6086 91.2377 55.5265C89.9185 55.564 88.6202 55.1889 87.5216 54.4529C87.0788 54.1811 86.7052 53.8091 86.4304 53.3665C86.1555 52.9238 85.9871 52.4227 85.9384 51.903C85.921 51.5644 85.9548 51.225 86.0384 50.8965L86.1717 50.3765L85.6552 50.2255C85.1128 50.0694 84.5527 49.9848 83.9887 49.9739C83.1917 49.9471 82.4077 50.1827 81.7557 50.6449C81.4457 50.8889 81.2064 51.2122 81.0628 51.581C80.9192 51.9499 80.8764 52.3507 80.9391 52.7418C80.9861 53.253 81.1544 53.7454 81.4299 54.1775C81.7054 54.6096 82.0801 54.9687 82.5222 55.2246C83.8536 56.0374 85.2402 56.7549 86.6717 57.3718C88.3381 58.0596 89.588 58.6971 90.6211 59.2674C91.5873 59.8028 92.4552 60.5007 93.1875 61.3308C93.8616 62.1068 94.2602 63.0864 94.3206 64.1155C94.3163 64.5534 94.2829 64.9906 94.2207 65.424C94.033 66.4163 93.6131 67.3493 92.9958 68.1458C92.3786 68.9422 91.5816 69.5791 90.6711 70.0037C88.0008 71.3013 85.0508 71.9068 82.089 71.7651" fill="white"/>
<path d="M109.685 71.7651C106.329 71.8848 102.983 71.314 99.8532 70.0876C97.5036 69.0307 96.3037 67.6719 96.1871 65.8937C96.1131 65.4223 96.15 64.94 96.2947 64.4856C96.4394 64.0311 96.6879 63.6171 97.0203 63.2768C97.8132 62.6441 98.8099 62.3276 99.8199 62.3877C101.187 62.3638 102.517 62.834 103.569 63.7129C104.211 64.2523 104.702 64.9505 104.994 65.7387C105.286 66.527 105.369 67.3782 105.236 68.2087V68.6952L105.719 68.8127C106.471 69.0077 107.243 69.1091 108.019 69.1146C108.861 69.1453 109.685 68.8649 110.335 68.3262C110.652 68.0411 110.896 67.6835 111.047 67.2835C111.198 66.8835 111.251 66.4529 111.202 66.0279C111.136 65.5572 110.966 65.1075 110.703 64.7124C110.44 64.3173 110.092 63.9871 109.685 63.7465C108.58 63.0118 107.415 62.3721 106.202 61.8341C104.989 61.2984 103.809 60.6877 102.67 60.0056C101.782 59.4614 100.998 58.7628 100.353 57.9422C99.7213 57.1416 99.3542 56.162 99.3033 55.1407C99.1878 54.0491 99.3668 52.9464 99.8213 51.9486C100.276 50.9508 100.989 50.0948 101.886 49.4706C104.459 47.8514 107.475 47.0939 110.502 47.3066C112.743 47.2724 114.98 47.5033 117.168 47.9944C118.711 48.3092 120.171 48.9495 121.45 49.8732C121.862 50.1509 122.21 50.515 122.469 50.9407C122.728 51.3664 122.892 51.8435 122.95 52.3392C122.999 52.7589 122.94 53.1841 122.779 53.5745C122.619 53.9649 122.362 54.3077 122.034 54.5703C121.123 55.2374 120.007 55.5583 118.884 55.4762C117.565 55.5159 116.266 55.1407 115.168 54.4026C114.71 54.1405 114.32 53.7727 114.03 53.3295C113.74 52.8862 113.559 52.3801 113.501 51.8527C113.479 51.5149 113.507 51.1756 113.585 50.8462L113.735 50.3262L113.318 50.2255C112.776 50.0681 112.216 49.9835 111.652 49.9739C110.855 49.9471 110.071 50.1827 109.419 50.6449C109.106 50.887 108.863 51.2095 108.716 51.5784C108.57 51.9473 108.525 52.3492 108.585 52.7418C108.644 53.2602 108.826 53.7567 109.116 54.189C109.406 54.6212 109.796 54.9765 110.252 55.2246C111.583 56.0374 112.97 56.7549 114.401 57.3718C116.068 58.0596 117.318 58.6971 118.351 59.2675C119.317 59.8028 120.185 60.5007 120.917 61.3308C121.591 62.1068 121.99 63.0865 122.05 64.1156C122.046 64.5535 122.013 64.9906 121.95 65.424C121.754 66.4248 121.322 67.3633 120.689 68.1604C120.057 68.9575 119.243 69.5897 118.317 70.0037C115.647 71.3014 112.697 71.9068 109.735 71.7651" fill="white"/>
</g>
<defs>
<clipPath id="clip0_392_356">
<rect width="124" height="72" fill="white"/>
</clipPath>
</defs>
</svg>
