<svg width="61" height="18" viewBox="0 0 61 18" fill="none" xmlns="http://www.w3.org/2000/svg">
<path d="M13.416 0.00195313C11.9593 0.0553519 10.577 0.658896 9.54764 1.69097C8.49373 0.637743 7.07356 0.0325822 5.58391 0.00195313L5.46132 0.00195313C3.99832 0.0450648 2.60812 0.649925 1.57931 1.69097C1.06553 2.20138 0.661534 2.81147 0.392159 3.48373C0.122785 4.156 -0.00628263 4.87624 0.0128871 5.60022V9.53671C-0.0150214 9.76389 0.0031627 9.99436 0.0663524 10.2144C0.129542 10.4344 0.23644 10.6393 0.380656 10.8171C0.507658 10.954 0.661466 11.0634 0.832522 11.1384C1.00358 11.2134 1.18823 11.2524 1.37499 11.253C1.57981 11.2537 1.78253 11.2117 1.97017 11.1296C2.15781 11.0475 2.32624 10.9272 2.46468 10.7762C2.62558 10.6132 2.75195 10.4194 2.8362 10.2064C2.92046 9.99347 2.96088 9.76567 2.95504 9.53671V5.62746C2.95504 5.62746 2.95504 5.49125 2.95504 5.42314C3.0328 4.84983 3.31301 4.32323 3.74506 3.93844C3.96826 3.71031 4.23547 3.5299 4.53049 3.40814C4.82551 3.28639 5.14219 3.22583 5.46132 3.23015C5.78417 3.22241 6.10503 3.28268 6.40306 3.40706C6.7011 3.53143 6.96962 3.71712 7.19119 3.95207C7.63366 4.3326 7.91185 4.86946 7.9676 5.45038C7.9676 5.51849 7.9676 5.62746 7.9676 5.69556V9.53671C7.94923 9.75707 7.97732 9.97884 8.05006 10.1877C8.1228 10.3965 8.23856 10.5877 8.38985 10.749C8.51922 10.9003 8.68017 11.0213 8.86138 11.1037C9.04258 11.1861 9.23964 11.2277 9.43867 11.2257C9.64349 11.2265 9.8462 11.1845 10.0338 11.1024C10.2215 11.0203 10.3899 10.8999 10.5284 10.749C10.8367 10.4219 11.0032 9.98609 10.9915 9.53671V5.62746C10.9915 5.62746 10.9915 5.49125 10.9915 5.42314C11.0693 4.84677 11.3551 4.31873 11.7951 3.93844C12.2592 3.47929 12.8858 3.22175 13.5386 3.22175C14.1915 3.22175 14.818 3.47929 15.2821 3.93844C15.7086 4.33054 15.9673 4.87219 16.004 5.45038C16.004 5.51849 16.004 5.58659 16.004 5.6547V9.53671C15.9891 9.76731 16.0212 9.99854 16.0985 10.2163C16.1758 10.4341 16.2966 10.6339 16.4535 10.8035C16.592 10.9544 16.7604 11.0748 16.948 11.1569C17.1357 11.239 17.3384 11.281 17.5432 11.2802C17.7353 11.2763 17.9245 11.2319 18.0982 11.1497C18.2719 11.0675 18.4263 10.9495 18.5512 10.8035C18.6919 10.6267 18.7958 10.4236 18.8566 10.206C18.9175 9.98839 18.934 9.76081 18.9053 9.53671V5.60022C18.9316 4.88013 18.8111 4.16222 18.5512 3.49017C18.2913 2.81812 17.8974 2.20597 17.3934 1.69097C16.4047 0.664593 15.0579 0.0595259 13.634 0.00195312L13.416 0.00195313Z" fill="white"/>
<mask id="mask0_392_466" style="mask-type:luminance" maskUnits="userSpaceOnUse" x="0" y="0" width="19" height="12">
<path d="M13.416 0.00195313C11.9593 0.0553519 10.577 0.658896 9.54764 1.69097C8.49373 0.637743 7.07356 0.0325822 5.58391 0.00195313L5.46132 0.00195313C3.99832 0.0450648 2.60812 0.649925 1.57931 1.69097C1.06553 2.20138 0.661534 2.81147 0.392159 3.48373C0.122785 4.156 -0.00628263 4.87624 0.0128871 5.60022V9.53671C-0.0150214 9.76389 0.0031627 9.99436 0.0663524 10.2144C0.129542 10.4344 0.23644 10.6393 0.380656 10.8171C0.507658 10.954 0.661466 11.0634 0.832522 11.1384C1.00358 11.2134 1.18823 11.2524 1.37499 11.253C1.57981 11.2537 1.78253 11.2117 1.97017 11.1296C2.15781 11.0475 2.32624 10.9272 2.46468 10.7762C2.62558 10.6132 2.75195 10.4194 2.8362 10.2064C2.92046 9.99347 2.96088 9.76567 2.95504 9.53671V5.62746C2.95504 5.62746 2.95504 5.49125 2.95504 5.42314C3.0328 4.84983 3.31301 4.32323 3.74506 3.93844C3.96826 3.71031 4.23547 3.5299 4.53049 3.40814C4.82551 3.28639 5.14219 3.22583 5.46132 3.23015C5.78417 3.22241 6.10503 3.28268 6.40306 3.40706C6.7011 3.53143 6.96962 3.71712 7.19119 3.95207C7.63366 4.3326 7.91185 4.86946 7.9676 5.45038C7.9676 5.51849 7.9676 5.62746 7.9676 5.69556V9.53671C7.94923 9.75707 7.97732 9.97884 8.05006 10.1877C8.1228 10.3965 8.23856 10.5877 8.38985 10.749C8.51922 10.9003 8.68017 11.0213 8.86138 11.1037C9.04258 11.1861 9.23964 11.2277 9.43867 11.2257C9.64349 11.2265 9.8462 11.1845 10.0338 11.1024C10.2215 11.0203 10.3899 10.8999 10.5284 10.749C10.8367 10.4219 11.0032 9.98609 10.9915 9.53671V5.62746C10.9915 5.62746 10.9915 5.49125 10.9915 5.42314C11.0693 4.84677 11.3551 4.31873 11.7951 3.93844C12.2592 3.47929 12.8858 3.22175 13.5386 3.22175C14.1915 3.22175 14.818 3.47929 15.2821 3.93844C15.7086 4.33054 15.9673 4.87219 16.004 5.45038C16.004 5.51849 16.004 5.58659 16.004 5.6547V9.53671C15.9891 9.76731 16.0212 9.99854 16.0985 10.2163C16.1758 10.4341 16.2966 10.6339 16.4535 10.8035C16.592 10.9544 16.7604 11.0748 16.948 11.1569C17.1357 11.239 17.3384 11.281 17.5432 11.2802C17.7353 11.2763 17.9245 11.2319 18.0982 11.1497C18.2719 11.0675 18.4263 10.9495 18.5512 10.8035C18.6919 10.6267 18.7958 10.4236 18.8566 10.206C18.9175 9.98839 18.934 9.76081 18.9053 9.53671V5.60022C18.9316 4.88013 18.8111 4.16222 18.5512 3.49017C18.2913 2.81812 17.8974 2.20597 17.3934 1.69097C16.4047 0.664593 15.0579 0.0595259 13.634 0.00195312L13.416 0.00195313Z" fill="white"/>
</mask>
<g mask="url(#mask0_392_466)">
<path d="M18.9054 0.0429688H0.0130005V11.2531H18.9054V0.0429688Z" fill="white"/>
</g>
<path d="M21.6575 1.69096C21.1312 2.20676 20.7149 2.82399 20.434 3.50529C20.1531 4.18659 20.0132 4.9178 20.023 5.65469C20.0151 6.3893 20.1558 7.11792 20.4367 7.79675C20.7176 8.47558 21.1329 9.09059 21.6575 9.6048C22.1767 10.1278 22.7942 10.543 23.4745 10.8262C24.1547 11.1095 24.8844 11.2554 25.6213 11.2554C26.3582 11.2554 27.0878 11.1095 27.7681 10.8262C28.4484 10.543 29.0659 10.1278 29.585 9.6048C29.7358 9.45767 29.8557 9.28185 29.9376 9.08769C30.0195 8.89354 30.0617 8.68497 30.0618 8.47425C30.0641 8.26319 30.0229 8.05391 29.9409 7.85942C29.8589 7.66493 29.7377 7.48939 29.585 7.3437C29.4388 7.19636 29.2648 7.07954 29.073 7.00003C28.8813 6.92053 28.6757 6.87993 28.4681 6.88059C28.2553 6.88036 28.0446 6.92239 27.8482 7.00422C27.6518 7.08606 27.4736 7.20608 27.3239 7.35733C27.1043 7.58637 26.8396 7.76753 26.5466 7.88942C26.2536 8.01131 25.9386 8.0713 25.6213 8.06562C25.3044 8.0681 24.9903 8.00664 24.6978 7.88494C24.4053 7.76324 24.1402 7.58379 23.9186 7.35733C23.6835 7.14022 23.4956 6.87698 23.3667 6.58404C23.2378 6.2911 23.1707 5.97474 23.1695 5.65469C23.1627 5.33523 23.2222 5.01783 23.3441 4.72247C23.466 4.4271 23.6477 4.16016 23.8778 3.93844C24.0974 3.70939 24.3621 3.52823 24.6551 3.40634C24.9481 3.28445 25.2631 3.22446 25.5804 3.23014H25.6758L24.3818 4.59225C24.2332 4.73752 24.1155 4.91137 24.0359 5.10333C23.9563 5.29529 23.9164 5.50138 23.9186 5.70918C23.9186 6.13546 24.088 6.54427 24.3894 6.8457C24.6908 7.14712 25.0997 7.31646 25.5259 7.31646C25.7433 7.3174 25.9585 7.27307 26.1579 7.18631C26.3572 7.09954 26.5363 6.97223 26.6837 6.81248L29.5714 3.95206C29.7106 3.7998 29.8184 3.62155 29.8885 3.42754C29.9586 3.23353 29.9897 3.02758 29.98 2.82151C29.9768 2.59687 29.9306 2.37492 29.8438 2.1677L29.7485 1.99062L29.5169 1.69096C29.0166 1.15925 28.4131 0.735219 27.7432 0.444803C27.0734 0.154386 26.3514 0.00369311 25.6213 0.00194468C24.8844 -0.00783534 24.1532 0.131978 23.4719 0.412927C22.7906 0.693876 22.1734 1.11012 21.6575 1.63647" fill="white"/>
<mask id="mask1_392_466" style="mask-type:luminance" maskUnits="userSpaceOnUse" x="20" y="0" width="11" height="12">
<path d="M21.6575 1.69096C21.1312 2.20676 20.7149 2.82399 20.434 3.50529C20.1531 4.18659 20.0132 4.9178 20.023 5.65469C20.0151 6.3893 20.1558 7.11792 20.4367 7.79675C20.7176 8.47558 21.1329 9.09059 21.6575 9.6048C22.1767 10.1278 22.7942 10.543 23.4745 10.8262C24.1547 11.1095 24.8844 11.2554 25.6213 11.2554C26.3582 11.2554 27.0878 11.1095 27.7681 10.8262C28.4484 10.543 29.0659 10.1278 29.585 9.6048C29.7358 9.45767 29.8557 9.28185 29.9376 9.08769C30.0195 8.89354 30.0617 8.68497 30.0618 8.47425C30.0641 8.26319 30.0229 8.05391 29.9409 7.85942C29.8589 7.66493 29.7377 7.48939 29.585 7.3437C29.4388 7.19636 29.2648 7.07954 29.073 7.00003C28.8813 6.92053 28.6757 6.87993 28.4681 6.88059C28.2553 6.88036 28.0446 6.92239 27.8482 7.00422C27.6518 7.08606 27.4736 7.20608 27.3239 7.35733C27.1043 7.58637 26.8396 7.76753 26.5466 7.88942C26.2536 8.01131 25.9386 8.0713 25.6213 8.06562C25.3044 8.0681 24.9903 8.00664 24.6978 7.88494C24.4053 7.76324 24.1402 7.58379 23.9186 7.35733C23.6835 7.14022 23.4956 6.87698 23.3667 6.58404C23.2378 6.2911 23.1707 5.97474 23.1695 5.65469C23.1627 5.33523 23.2222 5.01783 23.3441 4.72247C23.466 4.4271 23.6477 4.16016 23.8778 3.93844C24.0974 3.70939 24.3621 3.52823 24.6551 3.40634C24.9481 3.28445 25.2631 3.22446 25.5804 3.23014H25.6758L24.3818 4.59225C24.2332 4.73752 24.1155 4.91137 24.0359 5.10333C23.9563 5.29529 23.9164 5.50138 23.9186 5.70918C23.9186 6.13546 24.088 6.54427 24.3894 6.8457C24.6908 7.14712 25.0997 7.31646 25.5259 7.31646C25.7433 7.3174 25.9585 7.27307 26.1579 7.18631C26.3572 7.09954 26.5363 6.97223 26.6837 6.81248L29.5714 3.95206C29.7106 3.7998 29.8184 3.62155 29.8885 3.42754C29.9586 3.23353 29.9897 3.02758 29.98 2.82151C29.9768 2.59687 29.9306 2.37492 29.8438 2.1677L29.7485 1.99062L29.5169 1.69096C29.0166 1.15925 28.4131 0.735219 27.7432 0.444803C27.0734 0.154386 26.3514 0.00369311 25.6213 0.00194468C24.8844 -0.00783534 24.1532 0.131978 23.4719 0.412927C22.7906 0.693876 22.1734 1.11012 21.6575 1.63647" fill="white"/>
</mask>
<g mask="url(#mask1_392_466)">
<path d="M30.0616 0.0566406H20.0228V11.2532H30.0616V0.0566406Z" fill="white"/>
</g>
<path d="M36.654 0.00173008C35.1673 0.0149137 33.7467 0.617472 32.7039 1.67712C32.1578 2.17649 31.7192 2.78185 31.4147 3.4563C31.1103 4.13074 30.9464 4.86014 30.9331 5.59999V9.53648C30.9343 9.7754 30.9831 10.0117 31.0767 10.2315C31.1702 10.4514 31.3066 10.6503 31.478 10.8169C31.7945 11.126 32.2205 11.2974 32.663 11.2936C32.8822 11.2962 33.0998 11.2555 33.3032 11.1736C33.5065 11.0918 33.6917 10.9706 33.848 10.8169C34.017 10.6499 34.15 10.4503 34.239 10.2301C34.328 10.0099 34.3711 9.7739 34.3656 9.53648V5.45016C34.3634 4.89848 34.573 4.367 34.9514 3.96546C35.1746 3.73366 35.4438 3.55096 35.7416 3.429C36.0395 3.30705 36.3595 3.24853 36.6812 3.25717C36.894 3.25068 37.1031 3.20012 37.2954 3.10868C37.4877 3.01724 37.6588 2.88692 37.7982 2.72595C37.9506 2.57721 38.0715 2.39918 38.1534 2.20256C38.2353 2.00594 38.2767 1.79478 38.2749 1.58177C38.2772 1.37071 38.2361 1.16143 38.154 0.966943C38.072 0.772453 37.9509 0.596911 37.7982 0.451226C37.6491 0.301037 37.4703 0.183515 37.2734 0.106131C37.0764 0.0287468 36.8654 -0.00680699 36.654 0.00173008Z" fill="white"/>
<mask id="mask2_392_466" style="mask-type:luminance" maskUnits="userSpaceOnUse" x="30" y="0" width="9" height="12">
<path d="M36.654 0.00173008C35.1673 0.0149137 33.7467 0.617472 32.7039 1.67712C32.1578 2.17649 31.7192 2.78185 31.4147 3.4563C31.1103 4.13074 30.9464 4.86014 30.9331 5.59999V9.53648C30.9343 9.7754 30.9831 10.0117 31.0767 10.2315C31.1702 10.4514 31.3066 10.6503 31.478 10.8169C31.7945 11.126 32.2205 11.2974 32.663 11.2936C32.8822 11.2962 33.0998 11.2555 33.3032 11.1736C33.5065 11.0918 33.6917 10.9706 33.848 10.8169C34.017 10.6499 34.15 10.4503 34.239 10.2301C34.328 10.0099 34.3711 9.7739 34.3656 9.53648V5.45016C34.3634 4.89848 34.573 4.367 34.9514 3.96546C35.1746 3.73366 35.4438 3.55096 35.7416 3.429C36.0395 3.30705 36.3595 3.24853 36.6812 3.25717C36.894 3.25068 37.1031 3.20012 37.2954 3.10868C37.4877 3.01724 37.6588 2.88692 37.7982 2.72595C37.9506 2.57721 38.0715 2.39918 38.1534 2.20256C38.2353 2.00594 38.2767 1.79478 38.2749 1.58177C38.2772 1.37071 38.2361 1.16143 38.154 0.966943C38.072 0.772453 37.9509 0.596911 37.7982 0.451226C37.6491 0.301037 37.4703 0.183515 37.2734 0.106131C37.0764 0.0287468 36.8654 -0.00680699 36.654 0.00173008Z" fill="white"/>
</mask>
<g mask="url(#mask2_392_466)">
<path d="M38.2747 0.00195312H30.933V11.253H38.2747V0.00195312Z" fill="white"/>
</g>
<path d="M41.9798 7.35733C41.752 7.13669 41.5718 6.87186 41.45 6.57909C41.3282 6.28632 41.2674 5.97176 41.2715 5.65469C41.2647 5.33523 41.3242 5.01783 41.4461 4.72247C41.568 4.4271 41.7497 4.16016 41.9798 3.93844C42.2038 3.71316 42.4702 3.53439 42.7636 3.41241C43.0569 3.29042 43.3715 3.22762 43.6892 3.22762C44.0069 3.22762 44.3215 3.29042 44.6149 3.41241C44.9083 3.53439 45.1746 3.71316 45.3987 3.93844C45.6243 4.16278 45.8022 4.43051 45.9216 4.72548C46.041 5.02045 46.0994 5.33654 46.0934 5.65469C46.0984 5.97068 46.0394 6.28441 45.92 6.57702C45.8007 6.86962 45.6233 7.13505 45.3987 7.35733C44.941 7.80248 44.3277 8.05154 43.6892 8.05154C43.0508 8.05154 42.4375 7.80248 41.9798 7.35733ZM39.7323 1.69096C39.2158 2.21134 38.8096 2.83062 38.5381 3.51171C38.2666 4.1928 38.1354 4.92168 38.1523 5.65469C38.1395 6.38997 38.2781 7.12002 38.5592 7.79952C38.8404 8.47903 39.2582 9.0935 39.7868 9.60481C40.3014 10.1336 40.9181 10.5524 41.5995 10.8357C42.2809 11.119 43.0127 11.261 43.7505 11.253C44.4521 11.2623 45.1493 11.1423 45.8073 10.8988C45.6952 11.0891 45.5577 11.2632 45.3987 11.4164C44.9823 11.8483 44.4177 12.1063 43.8186 12.1383H43.6007C43.3909 12.1396 43.1837 12.1838 42.9916 12.2681C42.7995 12.3525 42.6267 12.4752 42.4838 12.6287C42.3313 12.7774 42.2104 12.9554 42.1285 13.1521C42.0466 13.3487 42.0053 13.5599 42.007 13.7729C42.0274 14.1982 42.1992 14.6023 42.4915 14.9121C42.7838 15.2218 43.1772 15.4168 43.6007 15.4619C44.3651 15.4764 45.1239 15.3298 45.8279 15.0318C46.532 14.7337 47.1654 14.2909 47.687 13.732C48.7076 12.7052 49.293 11.3246 49.3215 9.87723V5.15071C49.1657 3.86288 48.5914 2.6618 47.687 1.73182C47.17 1.20756 46.554 0.791263 45.8747 0.507122C45.1954 0.222981 44.4664 0.0766602 43.7301 0.0766602C42.9938 0.0766602 42.2648 0.222981 41.5855 0.507122C40.9062 0.791263 40.2902 1.20756 39.7732 1.73182" fill="white"/>
<mask id="mask3_392_466" style="mask-type:luminance" maskUnits="userSpaceOnUse" x="38" y="0" width="12" height="16">
<path d="M41.9798 7.35733C41.752 7.13669 41.5718 6.87186 41.45 6.57909C41.3282 6.28632 41.2674 5.97176 41.2715 5.65469C41.2647 5.33523 41.3242 5.01783 41.4461 4.72247C41.568 4.4271 41.7497 4.16016 41.9798 3.93844C42.2038 3.71316 42.4702 3.53439 42.7636 3.41241C43.0569 3.29042 43.3715 3.22762 43.6892 3.22762C44.0069 3.22762 44.3215 3.29042 44.6149 3.41241C44.9083 3.53439 45.1746 3.71316 45.3987 3.93844C45.6243 4.16278 45.8022 4.43051 45.9216 4.72548C46.041 5.02045 46.0994 5.33654 46.0934 5.65469C46.0984 5.97068 46.0394 6.28441 45.92 6.57702C45.8007 6.86962 45.6233 7.13505 45.3987 7.35733C44.941 7.80248 44.3277 8.05154 43.6892 8.05154C43.0508 8.05154 42.4375 7.80248 41.9798 7.35733ZM39.7323 1.69096C39.2158 2.21134 38.8096 2.83062 38.5381 3.51171C38.2666 4.1928 38.1354 4.92168 38.1523 5.65469C38.1395 6.38997 38.2781 7.12002 38.5592 7.79952C38.8404 8.47903 39.2582 9.0935 39.7868 9.60481C40.3014 10.1336 40.9181 10.5524 41.5995 10.8357C42.2809 11.119 43.0127 11.261 43.7505 11.253C44.4521 11.2623 45.1493 11.1423 45.8073 10.8988C45.6952 11.0891 45.5577 11.2632 45.3987 11.4164C44.9823 11.8483 44.4177 12.1063 43.8186 12.1383H43.6007C43.3909 12.1396 43.1837 12.1838 42.9916 12.2681C42.7995 12.3525 42.6267 12.4752 42.4838 12.6287C42.3313 12.7774 42.2104 12.9554 42.1285 13.1521C42.0466 13.3487 42.0053 13.5599 42.007 13.7729C42.0274 14.1982 42.1992 14.6023 42.4915 14.9121C42.7838 15.2218 43.1772 15.4168 43.6007 15.4619C44.3651 15.4764 45.1239 15.3298 45.8279 15.0318C46.532 14.7337 47.1654 14.2909 47.687 13.732C48.7076 12.7052 49.293 11.3246 49.3215 9.87723V5.15071C49.1657 3.86288 48.5914 2.6618 47.687 1.73182C47.17 1.20756 46.554 0.791263 45.8747 0.507122C45.1954 0.222981 44.4664 0.0766602 43.7301 0.0766602C42.9938 0.0766602 42.2648 0.222981 41.5855 0.507122C40.9062 0.791263 40.2902 1.20756 39.7732 1.73182" fill="white"/>
</mask>
<g mask="url(#mask3_392_466)">
<path d="M49.2808 0.0566406H38.0979V15.4621H49.2808V0.0566406Z" fill="white"/>
</g>
<path d="M51.773 1.69084C51.2467 2.20664 50.8304 2.82386 50.5495 3.50517C50.2686 4.18647 50.1287 4.91768 50.1385 5.65457C50.1258 6.38985 50.2643 7.11989 50.5455 7.7994C50.8267 8.47891 51.2445 9.09338 51.773 9.60468C52.2922 10.1277 52.9097 10.5428 53.5899 10.8261C54.2702 11.1094 54.9999 11.2552 55.7368 11.2552C56.4737 11.2552 57.2033 11.1094 57.8836 10.8261C58.5639 10.5428 59.1814 10.1277 59.7005 9.60468C59.8513 9.45755 59.9712 9.28173 60.0531 9.08757C60.135 8.89342 60.1772 8.68484 60.1772 8.47413C60.1795 8.26307 60.1384 8.05379 60.0564 7.8593C59.9744 7.66481 59.8532 7.48927 59.7005 7.34358C59.4035 7.04848 59.0023 6.88212 58.5836 6.88047C58.3729 6.88053 58.1643 6.92274 57.9701 7.00462C57.776 7.08649 57.6002 7.20637 57.453 7.35721C57.0336 7.79077 56.4623 8.04469 55.8594 8.0655C55.5403 8.06903 55.2239 8.00812 54.929 7.88641C54.6341 7.7647 54.3668 7.5847 54.1431 7.35721C53.9172 7.13589 53.739 6.87063 53.6195 6.5778C53.5 6.28497 53.4418 5.97077 53.4484 5.65457C53.4448 5.33632 53.5046 5.02053 53.6243 4.72562C53.744 4.43072 53.9213 4.1626 54.1457 3.93692C54.3701 3.71123 54.6372 3.53249 54.9314 3.41112C55.2256 3.28975 55.5411 3.22819 55.8594 3.23002L54.5654 4.59213C54.2752 4.89134 54.1139 5.29229 54.1159 5.70905C54.1181 6.02362 54.2127 6.3306 54.3877 6.59196C54.5628 6.85332 54.8107 7.05756 55.1007 7.17937C55.3907 7.30118 55.7101 7.33521 56.0193 7.27723C56.3285 7.21926 56.6139 7.07183 56.8401 6.85323L59.7005 3.9928C59.8522 3.84919 59.9728 3.67595 60.0548 3.48382C60.1368 3.29169 60.1785 3.08477 60.1772 2.87587C60.1741 2.65123 60.1278 2.42928 60.041 2.22206L59.9457 1.88153L59.7822 1.69084C59.2808 1.15318 58.6733 0.725453 57.998 0.43472C57.3228 0.143987 56.5945 -0.00342048 55.8594 0.00182389C55.098 -0.0178799 54.341 0.12225 53.6372 0.413172C52.9333 0.704093 52.2983 1.13934 51.773 1.69084Z" fill="white"/>
<mask id="mask4_392_466" style="mask-type:luminance" maskUnits="userSpaceOnUse" x="50" y="0" width="11" height="12">
<path d="M51.773 1.69084C51.2467 2.20664 50.8304 2.82386 50.5495 3.50517C50.2686 4.18647 50.1287 4.91768 50.1385 5.65457C50.1258 6.38985 50.2643 7.11989 50.5455 7.7994C50.8267 8.47891 51.2445 9.09338 51.773 9.60468C52.2922 10.1277 52.9097 10.5428 53.5899 10.8261C54.2702 11.1094 54.9999 11.2552 55.7368 11.2552C56.4737 11.2552 57.2033 11.1094 57.8836 10.8261C58.5639 10.5428 59.1814 10.1277 59.7005 9.60468C59.8513 9.45755 59.9712 9.28173 60.0531 9.08757C60.135 8.89342 60.1772 8.68484 60.1772 8.47413C60.1795 8.26307 60.1384 8.05379 60.0564 7.8593C59.9744 7.66481 59.8532 7.48927 59.7005 7.34358C59.4035 7.04848 59.0023 6.88212 58.5836 6.88047C58.3729 6.88053 58.1643 6.92274 57.9701 7.00462C57.776 7.08649 57.6002 7.20637 57.453 7.35721C57.0336 7.79077 56.4623 8.04469 55.8594 8.0655C55.5403 8.06903 55.2239 8.00812 54.929 7.88641C54.6341 7.7647 54.3668 7.5847 54.1431 7.35721C53.9172 7.13589 53.739 6.87063 53.6195 6.5778C53.5 6.28497 53.4418 5.97077 53.4484 5.65457C53.4448 5.33632 53.5046 5.02053 53.6243 4.72562C53.744 4.43072 53.9213 4.1626 54.1457 3.93692C54.3701 3.71123 54.6372 3.53249 54.9314 3.41112C55.2256 3.28975 55.5411 3.22819 55.8594 3.23002L54.5654 4.59213C54.2752 4.89134 54.1139 5.29229 54.1159 5.70905C54.1181 6.02362 54.2127 6.3306 54.3877 6.59196C54.5628 6.85332 54.8107 7.05756 55.1007 7.17937C55.3907 7.30118 55.7101 7.33521 56.0193 7.27723C56.3285 7.21926 56.6139 7.07183 56.8401 6.85323L59.7005 3.9928C59.8522 3.84919 59.9728 3.67595 60.0548 3.48382C60.1368 3.29169 60.1785 3.08477 60.1772 2.87587C60.1741 2.65123 60.1278 2.42928 60.041 2.22206L59.9457 1.88153L59.7822 1.69084C59.2808 1.15318 58.6733 0.725453 57.998 0.43472C57.3228 0.143987 56.5945 -0.00342048 55.8594 0.00182389C55.098 -0.0178799 54.341 0.12225 53.6372 0.413172C52.9333 0.704093 52.2983 1.13934 51.773 1.69084Z" fill="white"/>
</mask>
<g mask="url(#mask4_392_466)">
<path d="M60.2178 0.0561523H50.1927V11.2527H60.2178V0.0561523Z" fill="white"/>
</g>
<path d="M2.56055 12.833V15.8569C2.56055 16.0884 2.56055 16.3336 2.56055 16.5107H2.15192V16.0748C2.06734 16.2272 1.94264 16.3534 1.79135 16.4399C1.64006 16.5263 1.46798 16.5697 1.29379 16.5652C1.13716 16.557 0.983884 16.5167 0.843487 16.4468C0.70309 16.3768 0.578569 16.2788 0.477657 16.1587C0.376745 16.0386 0.301598 15.8991 0.256882 15.7488C0.212167 15.5984 0.198839 15.4405 0.217725 15.2848C0.19692 15.1202 0.210139 14.953 0.256563 14.7937C0.302987 14.6344 0.381627 14.4863 0.487613 14.3586C0.593598 14.2309 0.724672 14.1263 0.872716 14.0513C1.02076 13.9764 1.18262 13.9326 1.34827 13.9227C1.49732 13.9138 1.64594 13.9459 1.77801 14.0156C1.91008 14.0852 2.02056 14.1897 2.09743 14.3177V12.833H2.56055ZM2.11105 14.9851C2.11862 14.9218 2.11862 14.8578 2.11105 14.7944C2.07208 14.6355 1.9749 14.4969 1.83872 14.4061C1.70253 14.3153 1.53725 14.2789 1.37552 14.3041C0.9124 14.3041 0.626357 14.7127 0.626357 15.2712C0.626357 15.8296 0.871537 16.1974 1.3619 16.1974C1.5189 16.1974 1.67109 16.1432 1.79272 16.0439C1.91434 15.9447 1.99793 15.8064 2.02933 15.6526C2.03589 15.5892 2.03589 15.5253 2.02933 15.4619L2.11105 14.9851Z" fill="white"/>
<path d="M4.33118 13.2962C4.33118 13.372 4.30105 13.4448 4.2474 13.4984C4.19376 13.5521 4.121 13.5822 4.04514 13.5822C3.96928 13.5822 3.89652 13.5521 3.84288 13.4984C3.78923 13.4448 3.7591 13.372 3.7591 13.2962C3.75831 13.2536 3.76707 13.2113 3.78472 13.1725C3.80237 13.1337 3.82847 13.0993 3.86111 13.0719C3.89375 13.0445 3.93211 13.0247 3.97338 13.014C4.01464 13.0033 4.05778 13.002 4.09962 13.0101C4.167 13.0202 4.22814 13.0552 4.27101 13.1081C4.31387 13.1611 4.33534 13.2282 4.33118 13.2962ZM3.8272 16.5107V13.9908H4.2767V16.5107H3.8272Z" fill="white"/>
<path d="M7.69542 13.9906C7.69542 14.1813 7.69542 14.3857 7.69542 14.6853V16.1428C7.7217 16.3477 7.70368 16.5559 7.64258 16.7533C7.58149 16.9507 7.47874 17.1327 7.34127 17.2869C7.08355 17.4943 6.75916 17.6009 6.42866 17.5866C6.1381 17.5969 5.85041 17.5262 5.59777 17.3823L5.70674 17.0281C5.92743 17.165 6.18264 17.2359 6.44228 17.2325C6.9054 17.2325 7.24592 16.9873 7.24592 16.3607V16.0747C7.16046 16.2091 7.04131 16.3187 6.90033 16.3928C6.75935 16.4669 6.60143 16.5028 6.44228 16.4969C6.2906 16.4903 6.14187 16.4527 6.00519 16.3867C5.8685 16.3206 5.74671 16.2273 5.64728 16.1126C5.54785 15.9979 5.47285 15.8641 5.42686 15.7194C5.38088 15.5747 5.36488 15.4221 5.37984 15.271C5.35694 15.1061 5.36867 14.9381 5.41429 14.7779C5.4599 14.6178 5.5384 14.4688 5.64477 14.3407C5.75114 14.2125 5.88305 14.1079 6.03209 14.0336C6.18113 13.9593 6.34402 13.9168 6.51039 13.9089C6.66782 13.9004 6.82442 13.9369 6.9619 14.0141C7.09938 14.0913 7.21206 14.206 7.28679 14.3448V13.9634L7.69542 13.9906ZM7.2323 14.985C7.24552 14.9175 7.24552 14.8481 7.2323 14.7807C7.19322 14.6417 7.10921 14.5195 6.9934 14.4333C6.87759 14.347 6.73649 14.3016 6.59211 14.3039C6.15624 14.3039 5.85657 14.6717 5.85657 15.2438C5.85657 15.8159 6.10175 16.1564 6.59211 16.1564C6.73306 16.1516 6.86903 16.1031 6.98127 16.0177C7.0935 15.9323 7.17646 15.8142 7.21868 15.6797C7.23167 15.5985 7.23167 15.5157 7.21868 15.4345L7.2323 14.985Z" fill="white"/>
<path d="M9.4531 13.2962C9.4531 13.372 9.42296 13.4448 9.36932 13.4984C9.31567 13.5521 9.24292 13.5822 9.16705 13.5822C9.09119 13.5822 9.01843 13.5521 8.96479 13.4984C8.91115 13.4448 8.88101 13.372 8.88101 13.2962C8.88101 13.2586 8.88841 13.2214 8.90279 13.1867C8.91716 13.152 8.93823 13.1205 8.96479 13.0939C8.99135 13.0673 9.02289 13.0463 9.05759 13.0319C9.09229 13.0175 9.12949 13.0101 9.16705 13.0101C9.20513 13.0082 9.2432 13.0142 9.27879 13.0279C9.31438 13.0416 9.3467 13.0626 9.37367 13.0896C9.40063 13.1165 9.42163 13.1488 9.43531 13.1844C9.44899 13.22 9.45505 13.2581 9.4531 13.2962ZM8.9355 16.5107V13.9908H9.39861V16.5107H8.9355Z" fill="white"/>
<path d="M11.2096 13.2822V13.9905H11.8634V14.3447H11.2096V15.7068C11.2096 16.0201 11.305 16.1971 11.5502 16.1971H11.8226V16.5377C11.695 16.5797 11.5619 16.6027 11.4276 16.6058C11.3266 16.6086 11.2266 16.5864 11.1363 16.5413C11.046 16.4962 10.9683 16.4294 10.91 16.347C10.7809 16.1599 10.7229 15.9328 10.7465 15.7068V14.3447H10.3787V13.9905H10.7737V13.3912L11.2096 13.2822Z" fill="white"/>
<path d="M14.2743 16.5106V16.1974C14.1819 16.3143 14.0638 16.4084 13.9291 16.4722C13.7944 16.536 13.6468 16.5678 13.4978 16.5651C13.3992 16.5728 13.3 16.5597 13.2068 16.5266C13.1135 16.4936 13.0282 16.4414 12.9563 16.3734C12.8845 16.3054 12.8276 16.223 12.7895 16.1317C12.7514 16.0404 12.7329 15.9421 12.7351 15.8432C12.7351 15.2303 13.2799 14.9034 14.247 14.917C14.2579 14.8387 14.2508 14.759 14.2261 14.6839C14.2014 14.6088 14.1599 14.5403 14.1047 14.4838C14.0494 14.4272 13.982 14.3841 13.9075 14.3577C13.833 14.3312 13.7534 14.3222 13.6749 14.3313C13.443 14.3295 13.2157 14.3958 13.0211 14.522L12.9258 14.2223C13.1708 14.0693 13.4542 13.989 13.743 13.9908C14.5058 13.9908 14.6965 14.522 14.6965 15.026V15.9658C14.6815 16.1653 14.6815 16.3656 14.6965 16.5651L14.2743 16.5106ZM14.2061 15.2303C13.7022 15.2303 13.1437 15.2984 13.1437 15.7887C13.1375 15.8463 13.1441 15.9045 13.163 15.9593C13.1818 16.014 13.2125 16.064 13.2528 16.1055C13.2931 16.1471 13.342 16.1794 13.3961 16.1999C13.4502 16.2205 13.5082 16.2289 13.566 16.2246C13.6998 16.229 13.8316 16.1904 13.9419 16.1144C14.0522 16.0384 14.1353 15.929 14.1789 15.8024C14.1852 15.7572 14.1852 15.7113 14.1789 15.6661L14.2061 15.2303Z" fill="white"/>
<path d="M15.8817 12.833H16.3584V16.5107H15.8953L15.8817 12.833Z" fill="white"/>
<path d="M20.6085 16.5107V16.1975C20.519 16.3142 20.4034 16.4082 20.2709 16.4721C20.1384 16.536 19.9928 16.5679 19.8457 16.5652C19.7471 16.5729 19.6479 16.5597 19.5546 16.5267C19.4614 16.4937 19.3761 16.4415 19.3042 16.3735C19.2323 16.3055 19.1755 16.2231 19.1374 16.1318C19.0993 16.0405 19.0807 15.9422 19.0829 15.8433C19.0829 15.2304 19.6142 14.9034 20.5949 14.9171C20.6032 14.8393 20.5942 14.7607 20.5686 14.6868C20.5429 14.6129 20.5013 14.5455 20.4467 14.4896C20.392 14.4336 20.3257 14.3904 20.2524 14.3631C20.1791 14.3357 20.1007 14.3249 20.0228 14.3314C19.7909 14.3296 19.5636 14.3959 19.369 14.5221L19.26 14.2224C19.5092 14.0676 19.7975 13.9873 20.0909 13.9908C20.8537 13.9908 21.0444 14.5221 21.0444 15.026V15.9659C21.0223 16.1651 21.0223 16.3661 21.0444 16.5652L20.6085 16.5107ZM20.6085 15.2304C20.1181 15.2304 19.5461 15.2985 19.5461 15.7888C19.542 15.8471 19.5505 15.9056 19.571 15.9603C19.5915 16.015 19.6235 16.0647 19.6648 16.106C19.7061 16.1473 19.7558 16.1793 19.8105 16.1997C19.8652 16.2202 19.9236 16.2287 19.9819 16.2247C20.1145 16.2306 20.2452 16.1923 20.3537 16.1159C20.4621 16.0395 20.5422 15.9292 20.5813 15.8024C20.5941 15.7579 20.5941 15.7107 20.5813 15.6662L20.6085 15.2304Z" fill="white"/>
<path d="M24.3813 13.9907C24.3813 14.1813 24.3813 14.3857 24.3813 14.6853V16.1428C24.4076 16.3477 24.3896 16.5559 24.3285 16.7533C24.2674 16.9507 24.1646 17.1327 24.0272 17.287C23.7694 17.4943 23.4451 17.6009 23.1146 17.5866C22.8241 17.5955 22.5368 17.5249 22.2837 17.3823L22.3926 17.0282C22.6133 17.165 22.8685 17.2359 23.1282 17.2325C23.6049 17.2325 23.9454 16.9873 23.9454 16.3607V16.0747C23.861 16.21 23.7421 16.3205 23.6008 16.3947C23.4596 16.4689 23.3012 16.5042 23.1418 16.4969C22.9908 16.4884 22.843 16.4496 22.7072 16.3829C22.5715 16.3162 22.4505 16.2229 22.3514 16.1086C22.2523 15.9943 22.1772 15.8613 22.1305 15.7174C22.0837 15.5735 22.0664 15.4217 22.0794 15.271C22.0586 15.1064 22.0718 14.9392 22.1182 14.7799C22.1646 14.6206 22.2433 14.4725 22.3492 14.3448C22.4552 14.2171 22.5863 14.1125 22.7343 14.0376C22.8824 13.9626 23.0443 13.9188 23.2099 13.9089C23.3676 13.8987 23.5249 13.9345 23.6627 14.0119C23.8005 14.0892 23.9129 14.2049 23.9863 14.3448V13.9634L24.3813 13.9907ZM23.9046 14.985C23.9178 14.9175 23.9178 14.8481 23.9046 14.7807C23.8661 14.6439 23.7842 14.5234 23.6711 14.4374C23.5581 14.3514 23.4201 14.3045 23.278 14.3039C22.8421 14.3039 22.5289 14.6717 22.5289 15.2438C22.5289 15.8159 22.774 16.1564 23.2644 16.1564C23.4077 16.1544 23.5467 16.1072 23.6616 16.0217C23.7766 15.9361 23.8616 15.8164 23.9046 15.6797C23.918 15.5985 23.918 15.5157 23.9046 15.4345V14.985Z" fill="white"/>
<path d="M25.8931 15.339C25.883 15.4549 25.8981 15.5716 25.9374 15.681C25.9768 15.7905 26.0394 15.8901 26.121 15.9729C26.2026 16.0558 26.3012 16.12 26.41 16.1611C26.5188 16.2021 26.6352 16.2191 26.7512 16.2108C26.9904 16.222 27.2287 16.1753 27.4459 16.0745L27.5276 16.4015C27.2653 16.5138 26.9821 16.5694 26.6968 16.5649C26.5289 16.5753 26.3609 16.5494 26.2039 16.489C26.047 16.4286 25.9049 16.3352 25.7873 16.215C25.6697 16.0948 25.5794 15.9507 25.5224 15.7925C25.4655 15.6343 25.4432 15.4657 25.4572 15.2981C25.4383 15.1295 25.4546 14.9587 25.5051 14.7967C25.5556 14.6347 25.6392 14.4849 25.7506 14.3568C25.862 14.2288 25.9988 14.1253 26.1523 14.0528C26.3058 13.9804 26.4726 13.9406 26.6423 13.936C26.7904 13.9388 26.9364 13.9726 27.0707 14.0352C27.205 14.0977 27.3248 14.1877 27.4223 14.2993C27.5198 14.4109 27.5929 14.5417 27.6368 14.6832C27.6807 14.8247 27.6946 14.9739 27.6775 15.1211C27.6775 15.2164 27.6775 15.2845 27.6775 15.339H25.8931ZM27.2552 14.9849C27.2666 14.8929 27.2587 14.7995 27.2321 14.7107C27.2054 14.6219 27.1605 14.5396 27.1003 14.4692C27.04 14.3987 26.9658 14.3415 26.8822 14.3013C26.7987 14.2611 26.7077 14.2388 26.615 14.2357C26.4211 14.2428 26.2375 14.3248 26.1028 14.4645C25.9682 14.6043 25.893 14.7908 25.8931 14.9849H27.2552Z" fill="white"/>
<path d="M28.7127 14.6718C28.7271 14.4451 28.7271 14.2176 28.7127 13.9908H29.1213V14.413C29.2008 14.2633 29.3209 14.1391 29.4679 14.0548C29.615 13.9704 29.7828 13.9294 29.9522 13.9363C30.2927 13.9363 30.8375 14.1542 30.8375 15.0124V16.5107H30.3881V15.0669C30.3881 14.6582 30.2382 14.3177 29.816 14.3177C29.6785 14.3223 29.5459 14.3693 29.4362 14.4522C29.3265 14.5351 29.245 14.6499 29.203 14.7808C29.1887 14.8528 29.1887 14.9268 29.203 14.9987V16.5107H28.7399L28.7127 14.6718Z" fill="white"/>
<path d="M33.875 16.415C33.6473 16.5143 33.4014 16.5653 33.153 16.5648C32.9845 16.5732 32.8162 16.5454 32.6593 16.4834C32.5024 16.4215 32.3605 16.3267 32.2432 16.2055C32.1258 16.0843 32.0357 15.9394 31.9789 15.7806C31.922 15.6217 31.8997 15.4526 31.9135 15.2845C31.8992 15.1019 31.9246 14.9185 31.9879 14.7467C32.0513 14.5749 32.1512 14.4189 32.2807 14.2895C32.4101 14.16 32.5661 14.0602 32.7379 13.9968C32.9096 13.9334 33.0931 13.908 33.2756 13.9224C33.4949 13.9216 33.7123 13.9632 33.9158 14.0449L33.8068 14.3991C33.6458 14.3066 33.4609 14.264 33.2756 14.2765C33.1539 14.276 33.0335 14.3009 32.922 14.3497C32.8105 14.3986 32.7105 14.4702 32.6284 14.56C32.5463 14.6498 32.4839 14.7558 32.4452 14.8712C32.4066 14.9866 32.3925 15.1088 32.4039 15.23C32.3923 15.3505 32.4064 15.4721 32.4452 15.5868C32.484 15.7015 32.5466 15.8067 32.6289 15.8954C32.7113 15.9842 32.8115 16.0546 32.9229 16.1018C33.0344 16.1491 33.1546 16.1723 33.2756 16.1698C33.4684 16.1689 33.6587 16.1272 33.8341 16.0472L33.875 16.415Z" fill="white"/>
<path d="M35.0743 13.9907L35.6327 15.4754L35.7826 15.993C35.7826 15.8432 35.8779 15.6525 35.946 15.4754L36.4364 13.9907H36.9267L36.2457 15.7887C36.1001 16.3678 35.8201 16.9044 35.4284 17.3551C35.2729 17.5039 35.0799 17.6075 34.87 17.6548L34.761 17.2734C34.9074 17.2247 35.042 17.1458 35.156 17.0418C35.3259 16.9076 35.4613 16.7349 35.551 16.5379C35.5557 16.5017 35.5557 16.4651 35.551 16.4289C35.5546 16.3881 35.5546 16.3471 35.551 16.3063L34.6248 13.9907H35.0743Z" fill="white"/>
</svg>
