<svg width="82" height="25" viewBox="0 0 82 25" fill="none" xmlns="http://www.w3.org/2000/svg">
<path d="M17.1222 21.7021L16.5229 23.9632H16.2504L15.7873 22.2879L15.3651 23.9632H15.1607L14.5342 21.7021H14.8611L15.3242 23.3912L15.7465 21.7021H15.9916L16.4548 23.3912L16.9315 21.7021H17.1222Z" fill="white"/>
<path d="M20.146 21.7021L19.533 23.9632H19.247L18.7839 22.2879L18.3616 23.9632H18.0892L17.4626 21.7021H17.8849L18.3344 23.3912L18.7702 21.7021H19.0018L19.4785 23.3912L19.9417 21.7021H20.146Z" fill="white"/>
<path d="M23.1562 21.7021L22.5569 23.9632H22.2981L21.8349 22.2879L21.3991 23.9632H21.1403L20.5137 21.7021H20.8406L21.2901 23.3912L21.726 21.7021H21.9712L22.4479 23.3912L22.911 21.7021H23.1562Z" fill="white"/>
<path d="M24.0692 23.4595V23.9635H23.6061V23.4595H24.0692Z" fill="white"/>
<path d="M26.5203 20.9121V23.9632H26.2342V23.5818C26.1817 23.7156 26.0897 23.8303 25.9705 23.9106C25.8513 23.9909 25.7105 24.033 25.5668 24.0313C25.4459 24.0316 25.327 24.0004 25.2219 23.9407C25.1168 23.8809 25.0291 23.7948 24.9675 23.6908C24.8082 23.4436 24.7275 23.1539 24.7359 22.8599C24.7259 22.5529 24.8065 22.2498 24.9675 21.9882C25.0306 21.8815 25.1202 21.7928 25.2275 21.7308C25.3349 21.6688 25.4564 21.6355 25.5804 21.634C25.7074 21.6368 25.8313 21.6737 25.9391 21.7408C26.047 21.8079 26.1348 21.9027 26.1934 22.0154V20.9121H26.5203ZM26.1934 22.5739C26.2005 22.4001 26.1421 22.23 26.0299 22.0971C25.9828 22.0419 25.9244 21.9975 25.8586 21.9669C25.7927 21.9364 25.7211 21.9204 25.6485 21.9201C25.5665 21.9214 25.4861 21.9433 25.4147 21.9837C25.3433 22.0242 25.2832 22.0819 25.2399 22.1516C25.1362 22.3537 25.0847 22.5784 25.09 22.8054C25.0734 23.045 25.1204 23.2846 25.2263 23.5001C25.2641 23.5716 25.3211 23.631 25.3909 23.6719C25.4607 23.7128 25.5404 23.7335 25.6213 23.7317C25.7001 23.7292 25.7775 23.7097 25.848 23.6744C25.9186 23.6391 25.9806 23.589 26.0299 23.5274C26.1378 23.3921 26.1956 23.2236 26.1934 23.0506V22.5739Z" fill="white"/>
<path d="M27.7192 20.9121V21.2935H27.4196V20.9121H27.7192ZM27.7192 21.7021V23.9632H27.4196V21.7021H27.7192Z" fill="white"/>
<path d="M30.2663 21.3481V21.6341C30.1685 21.6054 30.0644 21.6054 29.9666 21.6341C29.9377 21.6599 29.9144 21.6914 29.898 21.7265C29.8816 21.7616 29.8725 21.7997 29.8713 21.8384C30.0039 21.9888 30.0766 22.1827 30.0756 22.3833C30.0759 22.4864 30.0548 22.5885 30.0138 22.6831C29.9728 22.7778 29.9127 22.8629 29.8373 22.9332C29.7618 23.0036 29.6727 23.0576 29.5754 23.0918C29.4781 23.1261 29.3748 23.1399 29.272 23.1324H29.1221H28.9859C28.9347 23.141 28.8872 23.1647 28.8497 23.2005C28.8224 23.2142 28.8 23.2359 28.7854 23.2627C28.7708 23.2895 28.7647 23.3201 28.768 23.3504C28.7651 23.3876 28.7742 23.4248 28.7937 23.4566C28.8133 23.4884 28.8424 23.5132 28.8769 23.5275C29.0578 23.5502 29.2409 23.5502 29.4218 23.5275C29.5941 23.514 29.7671 23.514 29.9394 23.5275C30.0578 23.5558 30.1633 23.6229 30.239 23.7181C30.3117 23.8166 30.35 23.9363 30.348 24.0587C30.348 24.4945 30.0075 24.7125 29.2992 24.7125C29.0476 24.7319 28.796 24.675 28.5773 24.549C28.5063 24.5005 28.4481 24.4355 28.4078 24.3596C28.3675 24.2837 28.3462 24.1991 28.3457 24.1132C28.3419 24.0124 28.3721 23.9133 28.4314 23.8318C28.4907 23.7503 28.5756 23.6911 28.6726 23.6637C28.6103 23.6246 28.5589 23.5704 28.5232 23.5061C28.4874 23.4418 28.4686 23.3695 28.4683 23.2959C28.4693 23.2086 28.4973 23.1237 28.5485 23.0529C28.5998 22.9822 28.6717 22.9291 28.7543 22.9009C28.6692 22.8259 28.6009 22.7337 28.554 22.6304C28.507 22.5271 28.4825 22.415 28.4819 22.3016C28.4954 22.2017 28.5289 22.1056 28.5804 22.019C28.6319 21.9324 28.7003 21.8571 28.7816 21.7976C28.9334 21.6568 29.133 21.5789 29.3401 21.5796C29.492 21.5802 29.6416 21.6176 29.7759 21.6886C29.7783 21.5703 29.8273 21.4578 29.9121 21.3753C30.015 21.3148 30.1336 21.2863 30.2527 21.2936L30.2663 21.3481ZM28.9042 23.868C28.8392 23.8918 28.7826 23.9342 28.7415 23.9899C28.7003 24.0456 28.6764 24.1121 28.6726 24.1813C28.674 24.2404 28.6928 24.2979 28.7267 24.3463C28.7607 24.3948 28.8082 24.4322 28.8633 24.4537C29.0119 24.5244 29.1757 24.5572 29.3401 24.549C29.5071 24.5521 29.6734 24.5244 29.8304 24.4673C29.8917 24.4523 29.9463 24.4174 29.9857 24.3682C30.0251 24.3189 30.0472 24.258 30.0484 24.1949C30.0704 24.1379 30.0704 24.0748 30.0484 24.0178C29.9929 23.9746 29.9272 23.9465 29.8577 23.9361H29.4626C29.2704 23.9291 29.0791 23.9063 28.8906 23.868H28.9042ZM29.2856 22.9145C29.349 22.9199 29.4129 22.9104 29.472 22.8867C29.5311 22.8631 29.5839 22.826 29.6261 22.7783C29.6725 22.7322 29.7087 22.6768 29.7321 22.6158C29.7556 22.5548 29.7659 22.4894 29.7623 22.4241C29.7629 22.2891 29.7145 22.1585 29.6261 22.0564C29.5837 22.0127 29.5328 21.9781 29.4766 21.9547C29.4204 21.9313 29.3601 21.9195 29.2992 21.9202C29.1789 21.9195 29.0625 21.9632 28.9723 22.0428C28.9227 22.0928 28.8838 22.1524 28.858 22.218C28.8323 22.2836 28.8202 22.3537 28.8225 22.4241C28.818 22.4895 28.8278 22.5551 28.8514 22.6163C28.8749 22.6775 28.9115 22.7328 28.9587 22.7783C28.998 22.8223 29.0463 22.8572 29.1004 22.8807C29.1545 22.9042 29.213 22.9157 29.272 22.9145H29.2856Z" fill="white"/>
<path d="M31.1923 20.9121V21.2935H30.8381V20.9121H31.1923ZM31.1923 21.7021V23.9632H30.8653V21.7021H31.1923Z" fill="white"/>
<path d="M32.9768 23.7319V24.0043H32.6907C32.2821 24.0043 32.0778 23.7728 32.0778 23.3096V21.9475H31.71V21.6751H32.0778V21.103H32.3775V21.7024H32.8678V21.9748H32.3911V23.405C32.3842 23.4513 32.3882 23.4986 32.4029 23.543C32.4176 23.5875 32.4425 23.6279 32.4756 23.661C32.5087 23.6941 32.5491 23.719 32.5936 23.7337C32.638 23.7484 32.6853 23.7524 32.7316 23.7455L32.9768 23.7319Z" fill="white"/>
<path d="M34.2301 24.0315C34.0979 24.0342 33.9672 24.003 33.8504 23.9411C33.7336 23.8791 33.6346 23.7883 33.5627 23.6773C33.3899 23.4307 33.3036 23.1337 33.3175 22.8328C33.3053 22.5195 33.4015 22.2116 33.5899 21.9611C33.6701 21.8565 33.7732 21.7719 33.8913 21.7136C34.0094 21.6553 34.1393 21.625 34.271 21.625C34.4027 21.625 34.5326 21.6553 34.6507 21.7136C34.7688 21.7719 34.8719 21.8565 34.9521 21.9611C35.1215 22.2144 35.2072 22.5145 35.1972 22.8192C35.2063 23.1278 35.1103 23.4304 34.9248 23.6773C34.8468 23.7887 34.7427 23.8792 34.6216 23.9409C34.5005 24.0027 34.3661 24.0338 34.2301 24.0315ZM34.2301 23.7318C34.3112 23.7332 34.3912 23.7139 34.4627 23.6758C34.5342 23.6377 34.5948 23.5819 34.6388 23.5139C34.7744 23.3089 34.8369 23.0641 34.8158 22.8192C34.8308 22.5791 34.7687 22.3405 34.6388 22.1381C34.5895 22.0765 34.5275 22.0264 34.4569 21.9911C34.3863 21.9558 34.309 21.9363 34.2301 21.9338C34.1491 21.9324 34.0691 21.9517 33.9976 21.9898C33.9261 22.028 33.8655 22.0837 33.8215 22.1518C33.6857 22.3465 33.623 22.5828 33.6444 22.8192C33.6191 23.0687 33.6817 23.3192 33.8215 23.5275C33.8687 23.5913 33.9303 23.6431 34.0013 23.6786C34.0723 23.7141 34.1507 23.7323 34.2301 23.7318Z" fill="white"/>
<path d="M36.2191 24.7263H35.8922V21.7024H36.1919V22.1383C36.2258 22.0067 36.2984 21.8883 36.4002 21.7982C36.502 21.7082 36.6285 21.6507 36.7632 21.6332C36.898 21.6156 37.0349 21.6387 37.1564 21.6996C37.2779 21.7605 37.3784 21.8563 37.445 21.9748C37.6014 22.2278 37.6773 22.5223 37.663 22.8193C37.6902 23.1323 37.6084 23.4451 37.4314 23.7047C37.3681 23.8062 37.2797 23.8896 37.1747 23.9468C37.0697 24.0041 36.9517 24.0333 36.8321 24.0316C36.7015 24.0294 36.5743 23.9897 36.4656 23.9173C36.3569 23.8448 36.2713 23.7427 36.2191 23.623V24.7263ZM36.2191 22.506V23.1598C36.223 23.2403 36.2431 23.3192 36.2782 23.3918C36.3134 23.4643 36.3627 23.5291 36.4234 23.5821C36.4686 23.6315 36.5232 23.6714 36.5841 23.6995C36.6449 23.7275 36.7107 23.7432 36.7776 23.7455C36.8497 23.7456 36.9207 23.7283 36.9847 23.6951C37.0488 23.6619 37.1038 23.6138 37.1454 23.5549C37.2754 23.3428 37.3328 23.0941 37.3088 22.8466C37.3262 22.6185 37.2739 22.3905 37.159 22.1927C37.1188 22.1232 37.0613 22.0653 36.9921 22.0247C36.9228 21.9841 36.8442 21.9622 36.764 21.9612C36.6987 21.9621 36.6345 21.9772 36.5757 22.0054C36.5169 22.0336 36.4649 22.0743 36.4234 22.1246C36.3186 22.2284 36.2474 22.3613 36.2191 22.506Z" fill="white"/>
<path d="M39.1068 24.0313C38.9746 24.034 38.8439 24.0028 38.7271 23.9409C38.6103 23.8789 38.5113 23.7881 38.4394 23.6771C38.2665 23.4305 38.1803 23.1335 38.1942 22.8326C38.182 22.5193 38.2782 22.2114 38.4666 21.9609C38.5477 21.858 38.6512 21.7751 38.7692 21.7184C38.8873 21.6618 39.0167 21.6329 39.1477 21.634C39.2803 21.6312 39.4116 21.6607 39.5303 21.7201C39.6489 21.7794 39.7514 21.8667 39.8287 21.9745C39.9982 22.2279 40.0839 22.528 40.0739 22.8326C40.083 23.1413 39.9869 23.4439 39.8015 23.6907C39.722 23.7996 39.6172 23.8875 39.4962 23.9468C39.3752 24.0061 39.2415 24.0351 39.1068 24.0313ZM39.1068 23.7316C39.1895 23.7316 39.271 23.7119 39.3444 23.674C39.4179 23.636 39.4812 23.5811 39.5291 23.5137C39.6536 23.3044 39.7107 23.0619 39.6925 22.819C39.7137 22.5784 39.6511 22.3378 39.5154 22.1379C39.4662 22.0763 39.4041 22.0262 39.3336 21.9909C39.263 21.9556 39.1857 21.9361 39.1068 21.9336C39.0258 21.9322 38.9458 21.9515 38.8743 21.9896C38.8028 22.0278 38.7422 22.0835 38.6982 22.1516C38.5731 22.3506 38.5158 22.5847 38.5347 22.819C38.5137 23.0664 38.5708 23.3142 38.6982 23.5273C38.748 23.595 38.814 23.6492 38.8901 23.6849C38.9663 23.7205 39.0501 23.7366 39.1341 23.7316H39.1068Z" fill="white"/>
<path d="M41.0405 23.9632H40.7681V20.9121H41.0405V23.9632Z" fill="white"/>
<path d="M42.2942 20.9121V21.2935H41.94V20.9121H42.2942ZM42.2942 21.7021V23.9632H41.9673V21.7021H42.2942Z" fill="white"/>
<path d="M42.8524 23.3775L43.1657 23.3094C43.2338 23.5954 43.4517 23.7316 43.8195 23.7316C43.9404 23.7376 44.0599 23.7041 44.16 23.6363C44.205 23.6072 44.2414 23.5666 44.2653 23.5187C44.2893 23.4707 44.3 23.4173 44.2963 23.3638C44.2963 23.1868 44.1873 23.0778 43.9421 23.0233L43.5062 22.928C43.3499 22.9112 43.2048 22.8387 43.0976 22.7237C43.0448 22.6674 43.0043 22.6009 42.9785 22.5282C42.9527 22.4555 42.9422 22.3783 42.9478 22.3014C42.9469 22.2141 42.9646 22.1276 42.9999 22.0478C43.0351 21.9679 43.087 21.8965 43.1521 21.8383C43.2267 21.7686 43.3146 21.7146 43.4106 21.6795C43.5065 21.6444 43.6085 21.6289 43.7105 21.634C43.898 21.6148 44.0862 21.6633 44.2411 21.7707C44.3959 21.8781 44.5073 22.0374 44.5551 22.2197L44.2554 22.2878C44.225 22.1824 44.1602 22.0903 44.0713 22.0261C43.9824 21.9619 43.8746 21.9293 43.765 21.9336C43.6506 21.9298 43.5373 21.9581 43.4381 22.0154C43.4004 22.0443 43.3698 22.0814 43.3486 22.1238C43.3274 22.1663 43.316 22.2131 43.3155 22.2605C43.3155 22.4376 43.4245 22.533 43.6424 22.5874L44.0511 22.6556C44.4733 22.7509 44.6776 22.9688 44.6776 23.3366C44.6814 23.4329 44.6624 23.5287 44.6221 23.6163C44.5819 23.7039 44.5216 23.7807 44.4461 23.8406C44.2643 23.9721 44.0438 24.0392 43.8195 24.0313C43.6051 24.0678 43.385 24.0202 43.2048 23.8984C43.0247 23.7766 42.8984 23.59 42.8524 23.3775Z" fill="white"/>
<path d="M45.032 23.3777L45.3453 23.3096C45.4134 23.5957 45.6313 23.7319 45.9991 23.7319C46.1197 23.7359 46.2386 23.7026 46.3396 23.6365C46.3846 23.6074 46.4209 23.5668 46.4449 23.5189C46.4689 23.471 46.4795 23.4175 46.4758 23.3641C46.4758 23.187 46.3532 23.0781 46.1217 23.0236L45.6722 22.9282C45.5177 22.9052 45.3746 22.8337 45.2635 22.7239C45.1495 22.6048 45.0858 22.4462 45.0858 22.2812C45.0858 22.1163 45.1495 21.9577 45.2635 21.8385C45.3407 21.7684 45.431 21.7143 45.5292 21.6792C45.6273 21.6441 45.7315 21.6289 45.8356 21.6342C46.0214 21.6156 46.2077 21.6646 46.3603 21.7722C46.5129 21.8798 46.6216 22.0387 46.6665 22.2199L46.3668 22.288C46.3355 22.1778 46.2666 22.0821 46.1721 22.0174C46.0775 21.9527 45.9633 21.9232 45.8492 21.9339C45.7346 21.9285 45.621 21.9569 45.5223 22.0156C45.4829 22.0438 45.4502 22.0805 45.4266 22.1229C45.403 22.1653 45.3892 22.2124 45.3861 22.2608C45.3861 22.4379 45.4951 22.5332 45.713 22.5877L46.1217 22.6558C46.5439 22.7512 46.7619 22.9691 46.7619 23.3369C46.7626 23.4327 46.7422 23.5275 46.7022 23.6146C46.6622 23.7017 46.6035 23.7789 46.5303 23.8408C46.3434 23.9725 46.1186 24.0394 45.8901 24.0315C45.6927 24.0425 45.4978 23.9827 45.3405 23.8628C45.1832 23.743 45.0738 23.571 45.032 23.3777Z" fill="white"/>
<path d="M48.4236 23.7319V24.0043H48.1375C47.7289 24.0043 47.5246 23.7728 47.5246 23.3096V21.9475H47.1568V21.6751H47.5246V21.103H47.8242V21.7024H48.301V21.9748H47.8515V23.405C47.8446 23.4513 47.8486 23.4986 47.8633 23.543C47.878 23.5875 47.9029 23.6279 47.936 23.661C47.9691 23.6941 48.0095 23.719 48.0539 23.7337C48.0984 23.7484 48.1457 23.7524 48.192 23.7455L48.4236 23.7319Z" fill="white"/>
<path d="M50.6432 23.9632H50.3435V23.5274C50.3002 23.6713 50.2121 23.7978 50.0921 23.8884C49.9721 23.979 49.8264 24.0291 49.6761 24.0314C49.5801 24.033 49.4849 24.0131 49.3977 23.973C49.3105 23.9329 49.2334 23.8737 49.1721 23.7998C49.046 23.6058 48.984 23.3771 48.995 23.146V21.7021H49.3219V23.1596C49.3027 23.3239 49.3465 23.4894 49.4445 23.6227C49.5215 23.6974 49.6234 23.741 49.7306 23.7453C49.8344 23.7498 49.9362 23.7159 50.0166 23.65C50.1093 23.5772 50.1839 23.484 50.2345 23.3775C50.2902 23.2582 50.3182 23.1278 50.3163 22.9961V21.7158H50.6432V23.9632Z" fill="white"/>
<path d="M53.1229 20.9121V23.9632H52.8368V23.5818C52.7843 23.7156 52.6924 23.8303 52.5732 23.9106C52.4539 23.9909 52.3131 24.033 52.1694 24.0313C52.0485 24.0316 51.9296 24.0004 51.8245 23.9407C51.7194 23.8809 51.6317 23.7948 51.5701 23.6908C51.4108 23.4436 51.3301 23.1539 51.3385 22.8599C51.3286 22.5529 51.4091 22.2498 51.5701 21.9882C51.6332 21.8815 51.7228 21.7928 51.8302 21.7308C51.9375 21.6688 52.0591 21.6355 52.183 21.634C52.3117 21.6372 52.4373 21.6741 52.5473 21.741C52.6572 21.808 52.7477 21.9026 52.8096 22.0154V20.9121H53.1229ZM52.8096 22.5739C52.8116 22.3985 52.7485 22.2287 52.6325 22.0971C52.5867 22.0404 52.5285 21.995 52.4624 21.9643C52.3963 21.9336 52.324 21.9185 52.2511 21.9201C52.1691 21.9214 52.0887 21.9433 52.0173 21.9837C51.9459 22.0242 51.8858 22.0819 51.8425 22.1516C51.7388 22.3537 51.6873 22.5784 51.6927 22.8054C51.6761 23.045 51.7231 23.2846 51.8289 23.5001C51.8679 23.5706 51.9252 23.6292 51.9947 23.67C52.0642 23.7107 52.1433 23.732 52.2239 23.7317C52.3027 23.7292 52.3801 23.7097 52.4507 23.6744C52.5212 23.6391 52.5833 23.589 52.6325 23.5274C52.7444 23.3934 52.8069 23.2251 52.8096 23.0506V22.5739Z" fill="white"/>
<path d="M54.3215 20.9121V21.2935H53.9674V20.9121H54.3215ZM54.3215 21.7021V23.9632H53.981V21.7021H54.3215Z" fill="white"/>
<path d="M55.9148 24.0313C55.7826 24.034 55.6519 24.0029 55.5351 23.9409C55.4183 23.8789 55.3192 23.7881 55.2473 23.6771C55.0745 23.4305 54.9883 23.1335 55.0022 22.8326C54.9899 22.5194 55.0861 22.2115 55.2746 21.9609C55.3549 21.8573 55.4583 21.7738 55.5765 21.717C55.6947 21.6603 55.8245 21.6319 55.9556 21.634C56.0864 21.6311 56.2158 21.6607 56.3323 21.7201C56.4488 21.7795 56.5487 21.8669 56.6231 21.9745C56.8037 22.2232 56.8949 22.5256 56.8819 22.8326C56.8909 23.1413 56.7949 23.4439 56.6094 23.6908C56.53 23.7996 56.4252 23.8875 56.3042 23.9468C56.1831 24.0061 56.0495 24.0351 55.9148 24.0313ZM55.9148 23.7316C55.9958 23.733 56.0758 23.7137 56.1473 23.6756C56.2188 23.6375 56.2794 23.5818 56.3234 23.5137C56.4591 23.3087 56.5215 23.0639 56.5005 22.819C56.5154 22.5789 56.4534 22.3404 56.3234 22.138C56.2741 22.0764 56.2121 22.0262 56.1415 21.9909C56.071 21.9556 55.9936 21.9361 55.9148 21.9336C55.8337 21.9323 55.7537 21.9515 55.6822 21.9897C55.6107 22.0278 55.5501 22.0835 55.5061 22.1516C55.3704 22.3463 55.3077 22.5826 55.3291 22.819C55.3037 23.0685 55.3664 23.3191 55.5061 23.5273C55.556 23.595 55.622 23.6492 55.6981 23.6849C55.7742 23.7206 55.8581 23.7366 55.942 23.7316H55.9148Z" fill="white"/>
<path d="M58.0126 23.4595V23.9635H57.5495V23.4595H58.0126Z" fill="white"/>
<path d="M60.1101 23.1596H60.3961C60.3674 23.3781 60.2723 23.5826 60.1237 23.7453C60.0564 23.8181 59.9739 23.8754 59.8822 23.913C59.7904 23.9506 59.6916 23.9678 59.5925 23.9632C59.4619 23.9676 59.3324 23.9371 59.2175 23.8749C59.1026 23.8126 59.0064 23.7209 58.9387 23.6091C58.7794 23.3618 58.6987 23.0722 58.7071 22.7782C58.6902 22.4728 58.7765 22.1705 58.9523 21.9201C59.0188 21.8103 59.1129 21.7199 59.2252 21.6578C59.3375 21.5956 59.4641 21.564 59.5925 21.5659C59.6947 21.562 59.7966 21.5807 59.8908 21.6208C59.985 21.6608 60.0692 21.7212 60.1373 21.7975C60.2917 21.9494 60.3839 22.1534 60.3961 22.3696H60.1101C60.1101 22.0018 59.8785 21.8111 59.6061 21.8111C59.5219 21.8096 59.4389 21.8317 59.3666 21.8751C59.2944 21.9185 59.2358 21.9812 59.1975 22.0563C59.0921 22.2528 59.0404 22.4736 59.0476 22.6965C59.0376 22.9327 59.0893 23.1674 59.1975 23.3775C59.2354 23.449 59.2924 23.5085 59.3621 23.5494C59.4319 23.5903 59.5116 23.6109 59.5925 23.6091C59.8377 23.7317 60.0011 23.5546 60.1101 23.1596Z" fill="white"/>
<path d="M61.7717 24.0315C61.6395 24.0342 61.5088 24.003 61.392 23.9411C61.2752 23.8791 61.1762 23.7883 61.1043 23.6773C60.9314 23.4307 60.8452 23.1337 60.8591 22.8328C60.8469 22.5195 60.9431 22.2116 61.1315 21.9611C61.2116 21.8565 61.3147 21.7719 61.4328 21.7136C61.5509 21.6553 61.6809 21.625 61.8126 21.625C61.9443 21.625 62.0742 21.6553 62.1923 21.7136C62.3104 21.7719 62.4135 21.8565 62.4936 21.9611C62.6631 22.2144 62.7488 22.5145 62.7388 22.8192C62.7479 23.1278 62.6518 23.4304 62.4664 23.6773C62.3884 23.7887 62.2843 23.8792 62.1632 23.9409C62.042 24.0027 61.9076 24.0338 61.7717 24.0315ZM61.7717 23.7318C61.8527 23.7332 61.9328 23.7139 62.0043 23.6758C62.0758 23.6377 62.1364 23.5819 62.1803 23.5139C62.316 23.3089 62.3784 23.0641 62.3574 22.8192C62.3723 22.5791 62.3103 22.3405 62.1803 22.1381C62.1311 22.0765 62.069 22.0264 61.9985 21.9911C61.9279 21.9558 61.8505 21.9363 61.7717 21.9338C61.6907 21.9324 61.6106 21.9517 61.5391 21.9898C61.4676 22.028 61.407 22.0837 61.3631 22.1518C61.2332 22.3492 61.1711 22.5834 61.186 22.8192C61.1681 23.0681 61.2301 23.3163 61.3631 23.5275C61.4129 23.5952 61.4789 23.6494 61.555 23.6851C61.6312 23.7207 61.715 23.7368 61.7989 23.7318H61.7717Z" fill="white"/>
<path d="M66.2258 23.9635H65.9125V22.6014C65.923 22.4927 65.923 22.3832 65.9125 22.2745C65.887 22.1951 65.8398 22.1243 65.7763 22.0702C65.7066 22.0152 65.6199 21.9863 65.5311 21.9884C65.4629 21.9909 65.3959 22.0079 65.3348 22.0385C65.2737 22.069 65.2199 22.1123 65.177 22.1655C65.0501 22.3282 64.9871 22.5317 64.9999 22.7376V24.0044H64.6866V22.4788C64.7021 22.3275 64.6582 22.176 64.564 22.0565C64.5177 22.0073 64.4598 21.9703 64.3956 21.9489C64.3314 21.9275 64.2629 21.9223 64.1963 21.934C64.1267 21.9371 64.0587 21.9558 63.9974 21.9888C63.9361 22.0219 63.883 22.0683 63.8421 22.1247C63.7381 22.2664 63.6853 22.4393 63.6923 22.615V23.9771H63.379V21.7024H63.665V22.1383C63.7086 21.9996 63.793 21.8773 63.9072 21.7873C64.0215 21.6974 64.1602 21.6441 64.3052 21.6343C64.3766 21.6338 64.4474 21.648 64.513 21.6761C64.5787 21.7043 64.6378 21.7457 64.6866 21.7977C64.7835 21.9073 64.8534 22.0378 64.8909 22.1791C64.9262 22.0297 65.009 21.8958 65.1269 21.7976C65.2448 21.6993 65.3914 21.642 65.5447 21.6343C65.6793 21.6361 65.8092 21.6842 65.9125 21.7705C66.0095 21.8502 66.0846 21.9533 66.1305 22.0702C66.1475 22.2332 66.1475 22.3975 66.1305 22.5605L66.2258 23.9635Z" fill="white"/>
<path d="M10.6928 2.55088C10.4399 2.55088 10.1974 2.65133 10.0186 2.83015C9.83978 3.00896 9.73932 3.25148 9.73932 3.50435C9.73752 3.63071 9.76085 3.75616 9.80796 3.87342C9.85506 3.99068 9.92501 4.0974 10.0137 4.18739C10.1024 4.27737 10.2082 4.34882 10.3247 4.39759C10.4413 4.44636 10.5664 4.47146 10.6928 4.47145C10.8198 4.47145 10.9456 4.44644 11.0629 4.39783C11.1802 4.34923 11.2868 4.278 11.3766 4.18819C11.4664 4.09839 11.5377 3.99178 11.5863 3.87445C11.6349 3.75711 11.6599 3.63135 11.6599 3.50435C11.6599 3.37799 11.6348 3.25288 11.586 3.1363C11.5373 3.01972 11.4658 2.914 11.3758 2.82528C11.2858 2.73656 11.1791 2.66662 11.0619 2.61951C10.9446 2.5724 10.8192 2.54907 10.6928 2.55088Z" fill="white"/>
<path d="M11.6058 7.2504C11.5753 7.02658 11.4617 6.82242 11.2875 6.67856C11.1134 6.5347 10.8915 6.46167 10.6659 6.474C10.4514 6.46658 10.2426 6.54386 10.0846 6.68913C9.92654 6.8344 9.83202 7.03601 9.82141 7.2504V14.8237V15.0553C9.88154 15.2225 9.99291 15.3665 10.1396 15.4668C10.2864 15.5671 10.461 15.6185 10.6387 15.6137C10.8232 15.6106 11.0034 15.5569 11.1595 15.4585C11.3157 15.36 11.4418 15.2205 11.524 15.0553V14.9872C11.5304 14.942 11.5304 14.8961 11.524 14.851C11.5305 14.8012 11.5305 14.7509 11.524 14.7011V7.38661C11.5585 7.34595 11.5861 7.29994 11.6058 7.2504Z" fill="white"/>
<path d="M39.8286 6.43318H35.2791C35.2791 6.43318 33.917 6.43319 33.917 8.13582V13.9112C33.917 13.9112 33.917 15.5593 35.429 15.5593H40.101C40.101 15.5593 41.2043 15.4367 41.2043 13.5979V7.74081C41.1901 7.38671 41.0385 7.05207 40.7817 6.80793C40.5248 6.56379 40.1829 6.42936 39.8286 6.43318ZM39.4472 10.0428C39.3817 9.96145 39.2986 9.89596 39.2043 9.85115C39.11 9.80634 39.0068 9.78338 38.9023 9.78397C38.7109 9.78397 38.5272 9.86003 38.3919 9.99541C38.2565 10.1308 38.1804 10.3144 38.1804 10.5059C38.1804 10.6974 38.2565 10.881 38.3919 11.0164C38.5272 11.1517 38.7109 11.2278 38.9023 11.2278C39.0061 11.2248 39.1082 11.2002 39.202 11.1557C39.2957 11.1111 39.3793 11.0475 39.4472 10.969V12.6035C39.4472 13.7205 38.7116 13.8022 38.7116 13.8022H36.7502C36.484 13.7987 36.2296 13.6913 36.0414 13.5031C35.8531 13.3148 35.7458 13.0605 35.7422 12.7942V11.0099C35.8121 11.0793 35.895 11.1344 35.9861 11.1717C36.0773 11.2091 36.1749 11.2282 36.2735 11.2278C36.4649 11.2278 36.6486 11.1517 36.7839 11.0164C36.9193 10.881 36.9954 10.6974 36.9954 10.5059C36.9954 10.3144 36.9193 10.1308 36.7839 9.99541C36.6486 9.86003 36.4649 9.78397 36.2735 9.78397C36.1749 9.78358 36.0773 9.80263 35.9861 9.84002C35.895 9.87742 35.8121 9.93243 35.7422 10.0019V9.29361C35.7271 9.16473 35.7388 9.0341 35.7767 8.90997C35.8145 8.78584 35.8776 8.67089 35.9621 8.57236C36.0466 8.47383 36.1505 8.39386 36.2674 8.33748C36.3843 8.28111 36.5116 8.24955 36.6412 8.24479H38.5209C38.7501 8.22978 38.9758 8.30575 39.1493 8.45622C39.3227 8.60669 39.4297 8.8195 39.4472 9.04843V10.0428Z" fill="white"/>
<path d="M4.65899 0.494275C3.44671 1.12084 2.71117 2.1288 3.02446 2.72813C3.102 2.86926 3.22081 2.98332 3.36498 3.05504C3.03808 2.45571 3.73275 1.50223 4.87692 0.902907C6.02109 0.30358 7.20613 0.30358 7.50579 0.889286C7.56107 0.739862 7.56107 0.575594 7.50579 0.42617C7.13802 -0.159537 5.88488 -0.145916 4.65899 0.494275Z" fill="white"/>
<path d="M27.4191 8.17665C27.5506 8.1855 27.6826 8.1855 27.8141 8.17665C28.0399 8.18696 28.2569 8.26722 28.4351 8.40633C28.6132 8.54543 28.7437 8.7365 28.8085 8.95305V14.8237V15.0553C28.8678 15.2203 28.9771 15.3627 29.1211 15.4628C29.2651 15.5629 29.4367 15.6156 29.6121 15.6138C29.7993 15.6148 29.983 15.5629 30.1421 15.4641C30.3011 15.3653 30.429 15.2236 30.5111 15.0553V14.9872C30.5111 14.9872 30.5111 14.8918 30.5111 14.851C30.5111 14.8101 30.5111 14.7556 30.5111 14.7011V8.99392C30.5551 8.80047 30.6504 8.62247 30.787 8.47864C30.9237 8.33482 31.0966 8.23049 31.2875 8.17665H31.6008H31.737C31.9619 8.14306 32.1662 8.02667 32.3099 7.8503C32.4535 7.67392 32.5261 7.45027 32.5134 7.22318C32.5173 7.00959 32.4389 6.80269 32.2943 6.64543C32.1497 6.48817 31.9501 6.39264 31.737 6.37867H30.552V3.46376C30.552 3.46376 30.552 3.36841 30.552 3.31393C30.5182 3.0901 30.4013 2.88723 30.2246 2.74583C30.0478 2.60443 29.8242 2.5349 29.5985 2.55115C29.3871 2.54697 29.1821 2.62355 29.0251 2.76527C28.8682 2.90699 28.7713 3.1032 28.754 3.31393V6.41953H27.5962H27.3646C27.1996 6.47892 27.0572 6.58821 26.9571 6.73222C26.857 6.87623 26.8043 7.04782 26.8062 7.22318C26.799 7.42562 26.8539 7.62541 26.9635 7.79581C27.073 7.9662 27.232 8.09908 27.4191 8.17665Z" fill="white"/>
<path d="M37.8807 12.7803V12.0039H37.2269V12.7803C37.6219 13.2162 37.8807 12.7803 37.8807 12.7803Z" fill="white"/>
<path d="M24.341 4.47179C24.5975 4.47179 24.8435 4.3699 25.0248 4.18853C25.2062 4.00717 25.3081 3.76118 25.3081 3.50469C25.3081 3.2482 25.2062 3.00222 25.0248 2.82085C24.8435 2.63949 24.5975 2.5376 24.341 2.5376C24.0845 2.5376 23.8385 2.63949 23.6572 2.82085C23.4758 3.00222 23.3739 3.2482 23.3739 3.50469C23.3739 3.76118 23.4758 4.00717 23.6572 4.18853C23.8385 4.3699 24.0845 4.47179 24.341 4.47179Z" fill="white"/>
<path d="M5.3261 1.80174C6.08888 1.36586 6.8789 1.36586 7.06959 1.78811C7.06871 1.68713 7.04047 1.58828 6.98787 1.50207C6.78355 1.09344 5.93904 1.10706 5.1354 1.50207C4.33176 1.89708 3.77329 2.60538 4.04571 3.01401C4.09041 3.11007 4.16759 3.18726 4.26365 3.23195C4.11382 2.83694 4.56332 2.19675 5.3261 1.80174Z" fill="white"/>
<path d="M25.24 7.2504C25.2096 7.02658 25.0959 6.82242 24.9218 6.67856C24.7476 6.5347 24.5257 6.46167 24.3002 6.474C24.0866 6.47004 23.8797 6.54849 23.7224 6.69307C23.5652 6.83765 23.4696 7.03724 23.4557 7.2504V14.8237V15.0553C23.5133 15.2214 23.6221 15.365 23.7665 15.4654C23.911 15.5657 24.0835 15.6177 24.2593 15.6137C24.4449 15.6154 24.6271 15.5637 24.7841 15.4647C24.9411 15.3656 25.0662 15.2235 25.1447 15.0553V14.9872C25.1514 14.942 25.1514 14.8961 25.1447 14.851C25.1514 14.8012 25.1514 14.7508 25.1447 14.7011V7.38661C25.1844 7.34733 25.2167 7.30118 25.24 7.2504Z" fill="white"/>
<path d="M5.69415 3.20483V5.7111C5.69415 5.7111 5.62604 6.40578 5.02672 6.40578H1.53972C1.16638 6.47401 0.827648 6.66798 0.579843 6.95543C0.332038 7.24289 0.190093 7.60651 0.177612 7.98582L0.177612 14.1834C0.218182 14.5306 0.374731 14.854 0.621926 15.1012C0.86912 15.3484 1.1925 15.505 1.53972 15.5455C3.10294 15.6873 4.67577 15.6873 6.23899 15.5455C6.23899 15.5455 7.6011 14.8917 7.6011 13.8837V3.24569C7.52142 3.06124 7.39044 2.90356 7.22373 2.79141C7.05703 2.67925 6.86162 2.61734 6.66074 2.61303C6.45987 2.60873 6.26198 2.66221 6.09063 2.76713C5.91927 2.87204 5.78166 3.02396 5.69415 3.20483ZM5.69415 10.2197C5.62833 10.0672 5.51193 9.94202 5.36459 9.86533C5.21724 9.78865 5.04795 9.76513 4.88528 9.79873C4.7226 9.83233 4.57649 9.92101 4.47159 10.0498C4.36668 10.1786 4.3094 10.3396 4.3094 10.5057C4.3094 10.6718 4.36668 10.8329 4.47159 10.9616C4.57649 11.0904 4.7226 11.1791 4.88528 11.2127C5.04795 11.2463 5.21724 11.2228 5.36459 11.1461C5.51193 11.0694 5.62833 10.9443 5.69415 10.7918V12.6034C5.69415 13.7203 4.95861 13.802 4.95861 13.802H2.99717C2.73094 13.7985 2.47661 13.6912 2.28834 13.5029C2.10007 13.3146 1.99274 13.0603 1.98922 12.7941V10.9007C2.04939 11.0132 2.13829 11.1077 2.24686 11.1747C2.35544 11.2416 2.47982 11.2786 2.60734 11.2819C2.73485 11.2851 2.86096 11.2545 2.97281 11.1932C3.08466 11.1319 3.17827 11.042 3.24411 10.9328C3.30994 10.8235 3.34565 10.6988 3.3476 10.5712C3.34955 10.4437 3.31767 10.3179 3.25521 10.2067C3.19274 10.0955 3.10193 10.0028 2.992 9.93807C2.88207 9.87336 2.75696 9.83893 2.62941 9.83829C2.4978 9.8361 2.36818 9.87062 2.2551 9.93799C2.14202 10.0054 2.04995 10.1029 1.98922 10.2197V9.29345C1.9718 9.16307 1.98236 9.03049 2.02018 8.90452C2.058 8.77854 2.12221 8.66207 2.20855 8.56284C2.29489 8.46362 2.40137 8.38392 2.52091 8.32905C2.64045 8.27418 2.7703 8.2454 2.90183 8.24462L4.76791 8.17652C4.99702 8.1615 5.2228 8.23748 5.39622 8.38795C5.56964 8.53842 5.6767 8.75123 5.69415 8.98016V10.2197Z" fill="white"/>
<path d="M58.2847 6.43311H53.7352C53.7352 6.43311 52.3731 6.43311 52.3731 8.13574V13.9111C52.3731 13.9111 52.3731 15.5592 53.8851 15.5592H58.5435C58.5435 15.5592 59.6468 15.4366 59.6468 13.5978V7.74073C59.6327 7.389 59.483 7.05638 59.2291 6.81261C58.9751 6.56883 58.6367 6.43282 58.2847 6.43311ZM57.9033 10.2061C57.8474 10.0796 57.7558 9.9722 57.6396 9.89717C57.5234 9.82213 57.3878 9.78275 57.2495 9.78389C57.058 9.78389 56.8744 9.85995 56.739 9.99534C56.6036 10.1307 56.5276 10.3143 56.5276 10.5058C56.5276 10.6973 56.6036 10.8809 56.739 11.0163C56.8744 11.1517 57.058 11.2277 57.2495 11.2277C57.3878 11.2289 57.5234 11.1895 57.6396 11.1144C57.7558 11.0394 57.8474 10.932 57.9033 10.8055V12.6035C57.9033 13.7204 57.1678 13.8021 57.1678 13.8021H55.2063C54.9425 13.7951 54.6916 13.6862 54.5062 13.4983C54.3209 13.3104 54.2154 13.0581 54.212 12.7941V11.0915C54.3303 11.1791 54.4734 11.2268 54.6206 11.2277C54.8121 11.2277 54.9957 11.1517 55.1311 11.0163C55.2665 10.8809 55.3425 10.6973 55.3425 10.5058C55.3425 10.3143 55.2665 10.1307 55.1311 9.99534C54.9957 9.85995 54.8121 9.78389 54.6206 9.78389C54.4749 9.78088 54.332 9.82377 54.212 9.90648V9.29353C54.1948 9.16539 54.2046 9.03508 54.2408 8.91096C54.277 8.78685 54.3388 8.67169 54.4222 8.5729C54.5056 8.47411 54.6088 8.39387 54.725 8.33734C54.8413 8.28082 54.9681 8.24927 55.0974 8.24471L56.9771 8.1766C57.2062 8.16159 57.432 8.23757 57.6054 8.38804C57.7788 8.5385 57.8859 8.75131 57.9033 8.98025V10.2061Z" fill="white"/>
<path d="M56.0237 11.8677C55.8466 11.8677 55.7104 12.1401 55.7104 12.4806C55.7104 12.8212 55.8466 13.1072 56.0237 13.1072C56.2007 13.1072 56.3233 12.8212 56.3233 12.4806C56.3233 12.1401 56.1326 11.8677 56.0237 11.8677Z" fill="white"/>
<path d="M21.1675 14.9872C21.1675 12.6988 21.1675 10.4241 21.1675 8.17662V8.04041C21.0721 7.11418 19.8054 6.50123 19.8054 6.50123C18.2421 6.35962 16.6693 6.35962 15.1061 6.50123C14.7598 6.5441 14.4377 6.7014 14.1909 6.94816C13.9442 7.19492 13.7869 7.51701 13.744 7.86334V14.0745C13.7613 14.4524 13.905 14.8135 14.152 15.1C14.3989 15.3865 14.7349 15.5818 15.1061 15.6546H18.6067C19.1516 15.6546 19.2605 16.3493 19.2605 16.3493V16.5127C19.2605 17.5888 18.6612 17.5479 18.6612 17.5479H15.3377C15.1831 17.6512 15.0565 17.791 14.9689 17.955C14.8813 18.1189 14.8354 18.3019 14.8354 18.4878C14.8354 18.6736 14.8813 18.8566 14.9689 19.0206C15.0565 19.1845 15.1831 19.3243 15.3377 19.4276H19.6964C21.508 19.3731 21.1811 15.9815 21.1675 14.9872ZM19.3286 10.2198C19.2734 10.0917 19.1822 9.98245 19.0662 9.9051C18.9502 9.82775 18.8143 9.78565 18.6748 9.78391C18.4834 9.78391 18.2997 9.85997 18.1643 9.99535C18.029 10.1307 17.9529 10.3144 17.9529 10.5058C17.9529 10.6973 18.029 10.8809 18.1643 11.0163C18.2997 11.1517 18.4834 11.2277 18.6748 11.2277C18.8143 11.226 18.9502 11.1839 19.0662 11.1066C19.1822 11.0292 19.2734 10.9199 19.3286 10.7919V12.9712C19.3235 13.0864 19.2952 13.1994 19.2455 13.3034C19.1957 13.4074 19.1256 13.5003 19.0391 13.5766C18.9527 13.6529 18.8517 13.711 18.7423 13.7474C18.6329 13.7838 18.5173 13.7978 18.4024 13.7885C17.517 13.7885 16.5227 13.7885 16.5227 13.7885C16.3948 13.7838 16.2693 13.7526 16.154 13.6969C16.0388 13.6412 15.9363 13.5622 15.8531 13.4649C15.77 13.3677 15.7078 13.2542 15.6707 13.1317C15.6335 13.0092 15.6222 12.8804 15.6373 12.7533V11.1052C15.7523 11.1877 15.8909 11.2307 16.0323 11.2277C16.2238 11.2277 16.4074 11.1517 16.5428 11.0163C16.6782 10.8809 16.7542 10.6973 16.7542 10.5058C16.7542 10.3144 16.6782 10.1307 16.5428 9.99535C16.4074 9.85997 16.2238 9.78391 16.0323 9.78391C15.8909 9.78095 15.7523 9.82397 15.6373 9.9065V9.1982C15.6337 9.06535 15.6567 8.93311 15.705 8.80931C15.7534 8.68551 15.826 8.57266 15.9187 8.47742C16.0114 8.38218 16.1223 8.30649 16.2447 8.25483C16.3672 8.20316 16.4988 8.17657 16.6317 8.17662H18.5931C18.5931 8.17662 19.3286 8.24473 19.3286 9.36165V10.2198Z" fill="white"/>
<path d="M50.4115 7.60438C50.3652 7.2771 50.2015 6.9778 49.9509 6.76228C49.7003 6.54676 49.3799 6.42972 49.0494 6.43297H48.2457C47.479 6.39214 46.7105 6.39214 45.9438 6.43297H44.4863C44.4863 6.43297 43.1242 6.43297 43.1242 8.1356V19.0325C43.3728 19.2508 43.6923 19.3713 44.0232 19.3713C44.3541 19.3713 44.6736 19.2508 44.9222 19.0325V16.3491C44.9222 16.3491 45.0448 15.6544 45.5896 15.6544H49.0902H49.2128H49.2946C49.568 15.5993 49.811 15.4438 49.9756 15.2186C50.1265 15.0779 50.2458 14.9068 50.3256 14.7166C50.4054 14.5264 50.444 14.3215 50.4387 14.1153V7.84956C50.4342 7.7674 50.4251 7.68554 50.4115 7.60438ZM48.6544 10.0698C48.5895 9.98242 48.5054 9.91117 48.4085 9.86156C48.3117 9.81195 48.2047 9.78533 48.0959 9.78375C47.9044 9.78375 47.7208 9.85981 47.5854 9.9952C47.45 10.1306 47.374 10.3142 47.374 10.5057C47.374 10.6971 47.45 10.8808 47.5854 11.0161C47.7208 11.1515 47.9044 11.2276 48.0959 11.2276C48.2083 11.2214 48.3175 11.1885 48.4146 11.1316C48.5118 11.0748 48.5939 10.9956 48.6544 10.9007V12.6306C48.6695 12.7577 48.6582 12.8865 48.621 13.009C48.5839 13.1315 48.5217 13.2449 48.4385 13.3422C48.3554 13.4395 48.2529 13.5184 48.1377 13.5741C48.0224 13.6298 47.8969 13.661 47.769 13.6658C47.769 13.6658 46.7747 13.6658 45.8757 13.6658C45.6466 13.6808 45.4208 13.6048 45.2474 13.4543C45.0739 13.3039 44.9669 13.0911 44.9494 12.8621V11.0233C45.0866 11.151 45.266 11.2237 45.4534 11.2276C45.6449 11.2276 45.8285 11.1515 45.9639 11.0161C46.0993 10.8808 46.1753 10.6971 46.1753 10.5057C46.1753 10.3142 46.0993 10.1306 45.9639 9.9952C45.8285 9.85981 45.6449 9.78375 45.4534 9.78375C45.266 9.78763 45.0866 9.86036 44.9494 9.98807V9.32064C44.9494 8.20371 45.685 8.12198 45.685 8.12198H47.6464C47.9126 8.12551 48.167 8.23284 48.3552 8.42111C48.5435 8.60938 48.6508 8.86371 48.6544 9.12994V10.0698Z" fill="white"/>
<path d="M63.6243 3.31383C63.5938 3.09114 63.4796 2.8884 63.3051 2.74675C63.1306 2.60509 62.9087 2.53513 62.6845 2.55105C62.4722 2.54351 62.2653 2.61892 62.1076 2.76131C61.95 2.9037 61.854 3.10187 61.84 3.31383V14.81V15.0416C61.8976 15.2077 62.0064 15.3513 62.1508 15.4517C62.2953 15.552 62.4678 15.604 62.6436 15.6C62.8292 15.6017 63.0114 15.55 63.1684 15.451C63.3254 15.3519 63.4506 15.2098 63.529 15.0416V14.9871C63.5357 14.9419 63.5357 14.896 63.529 14.8509C63.5357 14.8012 63.5357 14.7508 63.529 14.7011V3.46366C63.5685 3.41913 63.6007 3.36854 63.6243 3.31383Z" fill="white"/>
<path d="M67.0027 2.55088C66.8764 2.54907 66.7509 2.5724 66.6337 2.61951C66.5164 2.66662 66.4097 2.73656 66.3197 2.82528C66.2297 2.914 66.1582 3.01972 66.1095 3.1363C66.0607 3.25288 66.0356 3.37799 66.0356 3.50435C66.0356 3.63135 66.0606 3.75711 66.1092 3.87445C66.1578 3.99178 66.2291 4.09839 66.3189 4.18819C66.4087 4.278 66.5153 4.34923 66.6326 4.39783C66.75 4.44644 66.8757 4.47145 67.0027 4.47145C67.1291 4.47146 67.2542 4.44636 67.3708 4.39759C67.4873 4.34882 67.5931 4.27737 67.6818 4.18739C67.7705 4.0974 67.8404 3.99068 67.8876 3.87342C67.9347 3.75616 67.958 3.63071 67.9562 3.50435C67.9562 3.25148 67.8557 3.00896 67.6769 2.83015C67.4981 2.65133 67.2556 2.55088 67.0027 2.55088Z" fill="white"/>
<path d="M67.9013 7.25011C67.8706 7.01869 67.7511 6.80828 67.5681 6.66338C67.3851 6.51848 67.1529 6.45046 66.9206 6.47371C66.707 6.46975 66.5001 6.5482 66.3428 6.69278C66.1856 6.83736 66.0901 7.03695 66.0761 7.25011V14.8234V15.055C66.1318 15.2223 66.2402 15.3671 66.3851 15.4678C66.5299 15.5685 66.7034 15.6196 66.8797 15.6135C67.0646 15.6119 67.2454 15.5588 67.4018 15.4602C67.5582 15.3615 67.684 15.2212 67.7651 15.055V14.9869C67.7718 14.9417 67.7718 14.8958 67.7651 14.8507C67.7718 14.801 67.7718 14.7506 67.7651 14.7008V7.38632C67.8195 7.35097 67.866 7.30456 67.9013 7.25011Z" fill="white"/>
<path d="M80.5416 7.6183H79.8333C79.8333 7.52295 79.8333 7.4276 79.8333 7.34587C79.8474 7.21458 79.8474 7.08216 79.8333 6.95086H80.5416C80.6572 6.95086 80.768 6.90494 80.8498 6.8232C80.9315 6.74146 80.9774 6.63059 80.9774 6.51499C80.9774 6.39939 80.9315 6.28852 80.8498 6.20678C80.768 6.12504 80.6572 6.07911 80.5416 6.07911H79.3157C79.0024 5.77945 78.5801 5.82031 78.1034 5.82031H77.8174C77.5208 5.80186 77.2244 5.85832 76.9555 5.98447C76.6865 6.11063 76.4536 6.30244 76.2782 6.54223C76.1396 6.46957 75.9852 6.43214 75.8287 6.43326H71.1839C70.8328 6.54335 70.526 6.76251 70.308 7.0589C70.09 7.3553 69.9721 7.71348 69.9716 8.08141V10.6149C70.0097 11.0064 70.1989 11.3677 70.499 11.622C70.7991 11.8763 71.1864 12.0037 71.5789 11.977H74.9706C75.1194 12.0782 75.2413 12.2142 75.3256 12.3733C75.4098 12.5324 75.4538 12.7097 75.4538 12.8897C75.4538 13.0697 75.4098 13.2469 75.3256 13.406C75.2413 13.5651 75.1194 13.7011 74.9706 13.8023H70.7208C70.4679 13.8023 70.2254 13.9027 70.0466 14.0815C69.8678 14.2603 69.7673 14.5029 69.7673 14.7557C69.7673 15.0086 69.8678 15.2511 70.0466 15.4299C70.2254 15.6088 70.4679 15.7092 70.7208 15.7092H75.0931H76.1965C76.5401 15.5319 76.8293 15.2647 77.0332 14.9361C77.2371 14.6075 77.348 14.2298 77.3542 13.8431V11.405C77.3542 11.405 76.9729 10.0428 76.0875 10.0428H72.3689C72.3689 10.0428 71.0068 9.04851 72.3689 8.28573H75.7333C75.8413 8.30634 75.9522 8.30634 76.0602 8.28573C76.1501 8.27159 76.2347 8.234 76.3054 8.17676C76.4819 8.40596 76.7122 8.58805 76.976 8.70686C77.2398 8.82567 77.5288 8.87752 77.8174 8.85781H78.1306C78.3717 8.90553 78.6206 8.89587 78.8572 8.82962C79.0938 8.76337 79.3115 8.64237 79.4928 8.47642H80.5416C80.6043 8.48765 80.6688 8.48497 80.7304 8.46859C80.792 8.45221 80.8492 8.42251 80.8981 8.3816C80.947 8.34069 80.9863 8.28956 81.0132 8.23181C81.0402 8.17406 81.0542 8.1111 81.0542 8.04736C81.0542 7.98362 81.0402 7.92066 81.0132 7.86291C80.9863 7.80516 80.947 7.75402 80.8981 7.71311C80.8492 7.6722 80.792 7.64251 80.7304 7.62613C80.6688 7.60975 80.6043 7.60707 80.5416 7.6183Z" fill="white"/>
<path d="M16.7541 12.0723C16.6783 12.0723 16.6055 12.1024 16.5519 12.156C16.4982 12.2097 16.4681 12.2824 16.4681 12.3583C16.4714 12.4331 16.5026 12.5039 16.5556 12.5569C16.6085 12.6098 16.6793 12.641 16.7541 12.6444H17.8847C17.9605 12.6444 18.0333 12.6142 18.0869 12.5606C18.1406 12.5069 18.1707 12.4342 18.1707 12.3583C18.1707 12.2824 18.1406 12.2097 18.0869 12.156C18.0333 12.1024 17.9605 12.0723 17.8847 12.0723H16.7541Z" fill="white"/>
<path d="M3.78669 11.7725C3.69515 11.776 3.60853 11.8148 3.54503 11.8809C3.48154 11.9469 3.4461 12.035 3.44617 12.1266V12.6442C3.44617 12.7345 3.48204 12.8211 3.5459 12.885C3.60977 12.9489 3.69638 12.9847 3.78669 12.9847C3.87831 12.9848 3.96638 12.9494 4.03242 12.8859C4.09846 12.8224 4.13732 12.7358 4.14084 12.6442V12.1266C4.14084 12.0327 4.10353 11.9426 4.03711 11.8762C3.9707 11.8098 3.88062 11.7725 3.78669 11.7725Z" fill="white"/>
<path d="M47.9738 12.1538H45.6582V12.6169H47.9738V12.1538Z" fill="white"/>
</svg>
