<svg width="144" height="19" viewBox="0 0 144 19" fill="none" xmlns="http://www.w3.org/2000/svg">
<path d="M27.0214 18.1631H29.8293V11.396C29.8057 10.6811 30.0629 9.98524 30.5459 9.45755C30.7778 9.21367 31.0593 9.02243 31.3714 8.89676C31.6836 8.77109 32.0191 8.71393 32.3552 8.72915C32.6724 8.71081 32.9899 8.76114 33.2859 8.87671C33.582 8.99228 33.8496 9.17036 34.0705 9.39881C34.5172 9.94732 34.7434 10.6427 34.7049 11.349V18.1161H37.5127V11.49C37.5222 10.7418 37.4152 9.99665 37.1955 9.28132C37.0124 8.66993 36.7133 8.09954 36.3144 7.60131C35.9344 7.14956 35.4616 6.78493 34.9281 6.5322C34.3589 6.27984 33.7413 6.15551 33.1188 6.168C32.4317 6.15479 31.7525 6.3165 31.1451 6.63794C30.5653 6.93625 30.0778 7.38714 29.7353 7.94201V6.44996H27.0214V18.1631ZM18.7976 18.4451C19.8091 18.4545 20.8108 18.2462 21.7347 17.8341C22.5808 17.4685 23.3146 16.8847 23.8611 16.1424L21.8169 14.7091C21.4478 15.1377 20.9911 15.4822 20.4776 15.7194C19.9678 15.9641 19.41 16.0925 18.8446 16.0954C18.0263 16.127 17.2245 15.8597 16.5889 15.3435C15.9671 14.7985 15.5522 14.0558 15.414 13.2405H24.2723V12.4299C24.2811 11.5696 24.1379 10.7145 23.8494 9.90399C23.5943 9.17384 23.1947 8.50257 22.6745 7.93026C22.1639 7.37767 21.5437 6.93755 20.8535 6.63794C20.1133 6.31372 19.3118 6.15341 18.5039 6.168C17.714 6.15732 16.9316 6.32183 16.2129 6.64969C15.5087 6.95842 14.8765 7.41056 14.3567 7.97725C13.2376 9.16846 12.6266 10.7487 12.6532 12.3829C12.6413 13.2149 12.793 14.0412 13.0996 14.8148C13.3877 15.5357 13.824 16.1881 14.3802 16.7298C14.9747 17.2878 15.6789 17.7159 16.4479 17.9869C17.2283 18.2996 18.0627 18.4553 18.9033 18.4451M15.555 11.1258C15.6955 10.3702 16.0792 9.68121 16.6476 9.16384C17.196 8.68418 17.9048 8.42836 18.6331 8.44719C19.3219 8.42823 19.9914 8.67663 20.5011 9.14034C21.0553 9.67653 21.4324 10.3693 21.5819 11.1258H15.555ZM5.96834 18.4451C7.00463 18.4563 8.027 18.2058 8.94068 17.7167C9.82981 17.221 10.5686 16.4945 11.0789 15.6137L8.90543 14.1569C8.55018 14.8803 7.92632 15.4363 7.16691 15.7063C6.40751 15.9763 5.57268 15.9388 4.84049 15.6019C4.44945 15.4281 4.10074 15.1716 3.81838 14.8501C3.51653 14.5048 3.28149 14.1064 3.12523 13.6752C2.95775 13.2161 2.87418 12.7306 2.87852 12.2419C2.87717 11.766 2.95662 11.2932 3.11348 10.8439C3.26037 10.4134 3.48761 10.0147 3.78314 9.66902C4.0555 9.3547 4.39199 9.10232 4.77 8.92887C5.15795 8.7405 5.58408 8.64402 6.01533 8.64691C6.59759 8.65172 7.16644 8.82221 7.65536 9.13844C8.14428 9.45468 8.53305 9.90359 8.7762 10.4327L10.9614 8.97587C10.4596 8.09961 9.7285 7.37664 8.84669 6.88465C7.95857 6.39651 6.9581 6.14943 5.94484 6.168C5.13603 6.15711 4.33445 6.32143 3.59517 6.64969C2.88222 6.95946 2.23784 7.40765 1.69938 7.96829C1.16093 8.52893 0.739099 9.19087 0.458349 9.91574C0.150017 10.6933 -0.00554992 11.523 0.000162796 12.3594C-0.00575841 13.1844 0.149898 14.0026 0.458349 14.7678C0.900282 15.8639 1.66255 16.8012 2.64555 17.4572C3.62856 18.1132 4.78659 18.4575 5.96834 18.4451ZM45.8188 18.3041C46.1713 18.3041 46.5002 18.3041 46.5002 18.3041V15.7664H45.9363C45.7081 15.8048 45.474 15.7883 45.2535 15.7183C45.033 15.6482 44.8323 15.5266 44.6681 15.3635C44.5039 15.2005 44.3809 15.0007 44.3093 14.7806C44.2376 14.5606 44.2195 14.3266 44.2563 14.0982V8.72915H46.4767V6.44996H44.2563V3.26616H41.4602V6.44996H39.5217V8.72915H41.4602V14.2744C41.4602 16.953 42.8935 18.3041 45.7953 18.3041M72.1939 18.1631H74.99V0.434797H72.1939V18.1631ZM62.2666 18.4451C63.0613 18.4494 63.8447 18.2556 64.5457 17.8811C65.1872 17.5269 65.7443 17.0379 66.1788 16.4478V18.1866H68.8691V6.43822H66.1788V8.02425C65.7633 7.46784 65.2296 7.01044 64.6162 6.68493C63.9346 6.33117 63.1754 6.15347 62.4075 6.168C61.6444 6.15966 60.8892 6.32435 60.1988 6.64969C59.5157 6.96095 58.9009 7.40413 58.3896 7.95376C57.8805 8.52097 57.482 9.17845 57.2148 9.89224C56.9157 10.6598 56.7642 11.4769 56.7683 12.3007C56.7664 13.104 56.9138 13.9008 57.203 14.6503C57.475 15.3654 57.8729 16.0259 58.3778 16.6006C58.8641 17.1555 59.4601 17.6036 60.1283 17.9164C60.7927 18.2499 61.5233 18.4306 62.2666 18.4451ZM62.9362 15.8839C62.4927 15.8871 62.0536 15.7954 61.6484 15.6151C61.2431 15.4347 60.8811 15.1699 60.5865 14.8383C59.9493 14.148 59.6004 13.24 59.6114 12.3007C59.6064 11.8261 59.6942 11.3552 59.8699 10.9143C60.0327 10.4811 60.2758 10.0825 60.5865 9.73951C60.8811 9.40791 61.2431 9.14307 61.6484 8.96275C62.0536 8.78242 62.4927 8.69076 62.9362 8.6939C63.3785 8.69333 63.8156 8.78957 64.2168 8.97587C64.6212 9.14933 64.9823 9.41011 65.2741 9.73951C65.577 10.0862 65.8157 10.484 65.979 10.9143C66.3238 11.8104 66.3238 12.8026 65.979 13.6987C65.8157 14.1291 65.577 14.5269 65.2741 14.8736C64.9823 15.203 64.6212 15.4637 64.2168 15.6372C63.8156 15.8235 63.3785 15.9197 62.9362 15.9192M49.4256 18.1631H52.2334V11.8542C52.1817 11.1462 52.4094 10.4461 52.8679 9.90399C53.1187 9.66487 53.4161 9.47993 53.7415 9.36069C54.0669 9.24144 54.4134 9.19043 54.7593 9.21083H55.2175V6.30898H55.0061C54.387 6.29766 53.7791 6.47473 53.263 6.81672C52.7469 7.15871 52.3468 7.64948 52.116 8.22397V6.44996H49.4256V18.1631ZM137.315 18.4451C138.136 18.4579 138.946 18.2554 139.665 17.8576C140.309 17.5023 140.87 17.0137 141.31 16.4243V18.1631H144V0.434797H141.192V7.91851C140.77 7.38342 140.237 6.94647 139.63 6.63794C138.972 6.31495 138.247 6.15382 137.515 6.168C136.752 6.16088 135.997 6.3255 135.306 6.64969C134.625 6.96485 134.011 7.40752 133.497 7.95376C132.985 8.52346 132.587 9.1853 132.322 9.90399C132.03 10.6531 131.879 11.4496 131.876 12.2537C131.881 13.0564 132.028 13.852 132.31 14.6033C132.577 15.3208 132.976 15.9822 133.485 16.5536C133.98 17.0964 134.574 17.5391 135.236 17.8576C135.907 18.177 136.642 18.3416 137.386 18.3393M138.055 15.7782C137.609 15.7813 137.168 15.6849 136.763 15.4962C136.364 15.3196 136.007 15.0592 135.717 14.7326C135.415 14.3859 135.176 13.9881 135.012 13.5577C134.652 12.6645 134.652 11.6666 135.012 10.7734C135.176 10.343 135.415 9.94519 135.717 9.59853C136.007 9.27192 136.364 9.01147 136.763 8.83488C137.372 8.56508 138.05 8.49364 138.701 8.6307C139.353 8.76776 139.945 9.10636 140.393 9.59853C140.696 9.94519 140.935 10.343 141.098 10.7734C141.458 11.6666 141.458 12.6645 141.098 13.5577C140.935 13.9881 140.696 14.3859 140.393 14.7326C140.094 15.059 139.732 15.3203 139.327 15.5002C138.923 15.6801 138.486 15.7747 138.044 15.7782M126.413 18.0574H129.221V0.434797H126.413V18.0574ZM106.205 18.4803C107.457 18.492 108.697 18.244 109.847 17.7519C110.933 17.3097 111.928 16.6726 112.785 15.8722C113.638 15.0278 114.32 14.0265 114.794 12.9233C115.274 11.7795 115.521 10.5513 115.521 9.31069C115.521 8.07006 115.274 6.84189 114.794 5.69807C113.848 3.46558 112.075 1.68503 109.847 0.728506C108.708 0.242139 107.48 -0.00574806 106.241 0.000106615C104.986 -0.00589889 103.743 0.241867 102.587 0.728506C101.477 1.2085 100.465 1.88961 99.6029 2.73748C98.7427 3.58522 98.0598 4.59561 97.5939 5.70982C97.0994 6.85174 96.8473 8.08392 96.8538 9.32832C96.8492 10.5649 97.1012 11.7891 97.5939 12.9233C98.5293 15.1479 100.301 16.9158 102.528 17.8459C103.673 18.3285 104.904 18.5724 106.147 18.5625M106.147 15.7312C105.338 15.7302 104.538 15.5622 103.797 15.2378C103.057 14.9066 102.39 14.4313 101.835 13.8397C101.27 13.2482 100.824 12.5544 100.519 11.7955C99.8766 10.185 99.8766 8.38935 100.519 6.77892C100.82 6.00487 101.271 5.2981 101.847 4.69946C102.408 4.11878 103.074 3.64855 103.809 3.31315C104.558 2.97227 105.371 2.79589 106.194 2.79589C107.017 2.79589 107.83 2.97227 108.579 3.31315C109.31 3.6486 109.972 4.11891 110.529 4.69946C111.099 5.29815 111.549 5.99989 111.856 6.76717C112.173 7.56308 112.333 8.4129 112.326 9.26958C112.335 10.1302 112.175 10.9843 111.856 11.7837C111.543 12.5409 111.093 13.2338 110.529 13.8279C109.983 14.4362 109.319 14.9277 108.579 15.273C107.838 15.5975 107.038 15.7655 106.229 15.7664M92.2132 6.44996L89.8635 14.4976L87.5138 6.44996H84.8352L82.4855 14.4976L80.1358 6.44996H77.3162L81.1227 18.1983H83.7778L86.198 9.97448L88.6182 18.1983H91.285L95.0915 6.44996H92.2132ZM118.06 6.44996H120.75V8.22397C120.975 7.65074 121.368 7.1589 121.877 6.81297C122.387 6.46704 122.989 6.28317 123.605 6.28549H123.816V9.21083H123.429C123.083 9.19043 122.736 9.24144 122.411 9.36069C122.085 9.47993 121.788 9.66487 121.537 9.90399C121.066 10.4406 120.825 11.1414 120.867 11.8542V18.1631H118.06V6.44996Z" fill="white"/>
</svg>
