<svg width="66" height="66" viewBox="0 0 66 66" fill="none" xmlns="http://www.w3.org/2000/svg">
<circle cx="33" cy="33" r="33" fill="white"/>
<path d="M37.7079 28.293C37.8008 28.3859 37.8746 28.4962 37.9249 28.6176C37.9752 28.739 38.0011 28.8691 38.0011 29.0005C38.0011 29.1319 37.9752 29.262 37.9249 29.3834C37.8746 29.5048 37.8008 29.6151 37.7079 29.708L29.7079 37.708C29.6149 37.8009 29.5046 37.8746 29.3833 37.9249C29.2619 37.9752 29.1318 38.0011 29.0004 38.0011C28.869 38.0011 28.7389 37.9752 28.6175 37.9249C28.4961 37.8746 28.3858 37.8009 28.2929 37.708C28.1999 37.6151 28.1262 37.5048 28.076 37.3834C28.0257 37.262 27.9998 37.1319 27.9998 37.0005C27.9998 36.8691 28.0257 36.739 28.076 36.6176C28.1262 36.4962 28.1999 36.3859 28.2929 36.293L36.2929 28.293C36.3857 28.2 36.496 28.1263 36.6174 28.0759C36.7388 28.0256 36.8689 27.9997 37.0004 27.9997C37.1318 27.9997 37.2619 28.0256 37.3833 28.0759C37.5047 28.1263 37.615 28.2 37.7079 28.293ZM43.9504 22.0505C43.3003 21.4004 42.5286 20.8847 41.6793 20.5329C40.83 20.1811 39.9197 20 39.0004 20C38.081 20 37.1707 20.1811 36.3214 20.5329C35.4721 20.8847 34.7004 21.4004 34.0504 22.0505L30.2929 25.8068C30.1052 25.9944 29.9998 26.2489 29.9998 26.5143C29.9998 26.7796 30.1052 27.0341 30.2929 27.2218C30.4805 27.4094 30.735 27.5148 31.0004 27.5148C31.2657 27.5148 31.5202 27.4094 31.7079 27.2218L35.4654 23.4718C36.4065 22.5513 37.6726 22.0391 38.989 22.0464C40.3053 22.0536 41.5657 22.5797 42.4966 23.5105C43.4276 24.4412 43.9539 25.7015 43.9613 27.0179C43.9688 28.3343 43.4569 29.6005 42.5366 30.5418L38.7779 34.2993C38.5902 34.4867 38.4847 34.7411 38.4846 35.0063C38.4845 35.2716 38.5898 35.526 38.7772 35.7136C38.9647 35.9013 39.219 36.0068 39.4843 36.0069C39.7495 36.007 40.004 35.9017 40.1916 35.7143L43.9504 31.9505C44.6004 31.3005 45.1161 30.5288 45.468 29.6795C45.8198 28.8301 46.0009 27.9198 46.0009 27.0005C46.0009 26.0812 45.8198 25.1709 45.468 24.3216C45.1161 23.4722 44.6004 22.7005 43.9504 22.0505ZM34.2929 38.778L30.5354 42.5355C30.073 43.0083 29.5214 43.3846 28.9125 43.6428C28.3036 43.9009 27.6496 44.0357 26.9883 44.0394C26.327 44.043 25.6716 43.9154 25.0599 43.664C24.4482 43.4126 23.8925 43.0423 23.4249 42.5747C22.9574 42.107 22.5872 41.5512 22.3359 40.9395C22.0846 40.3278 21.9571 39.6723 21.9609 39.011C21.9646 38.3497 22.0995 37.6957 22.3578 37.0869C22.616 36.4781 22.9925 35.9266 23.4654 35.4643L27.2216 31.708C27.4092 31.5204 27.5147 31.2659 27.5147 31.0005C27.5147 30.7351 27.4092 30.4806 27.2216 30.293C27.034 30.1054 26.7795 29.9999 26.5141 29.9999C26.2487 29.9999 25.9942 30.1054 25.8066 30.293L22.0504 34.0505C20.7375 35.3633 20 37.1439 20 39.0005C20 40.8571 20.7375 42.6377 22.0504 43.9505C23.3632 45.2633 25.1437 46.0009 27.0004 46.0009C28.857 46.0009 30.6375 45.2633 31.9504 43.9505L35.7079 40.1918C35.8953 40.0041 36.0006 39.7497 36.0005 39.4844C36.0004 39.2192 35.8949 38.9649 35.7072 38.7774C35.5196 38.5899 35.2652 38.4846 34.9999 38.4848C34.7347 38.4849 34.4803 38.5904 34.2929 38.778Z" fill="black"/>
</svg>
