<svg width="30" height="31" viewBox="0 0 30 31" fill="none" xmlns="http://www.w3.org/2000/svg">
<path d="M15.0144 0.227539C6.7227 0.227539 0 6.93833 0 15.2153C0 21.5667 3.95362 26.9953 9.53846 29.1782C9.40289 27.9936 9.29177 26.1678 9.58735 24.8744C9.85848 23.7031 11.343 17.4249 11.343 17.4249C11.343 17.4249 10.8986 16.5242 10.8986 15.2042C10.8986 13.1189 12.1098 11.566 13.6165 11.566C14.9011 11.566 15.5189 12.5288 15.5189 13.6757C15.5189 14.958 14.7033 16.8836 14.2699 18.6717C13.9121 20.1647 15.0233 21.3848 16.4945 21.3848C19.1636 21.3848 21.2148 18.5718 21.2148 14.5276C21.2148 10.9382 18.6324 8.43356 14.9366 8.43356C10.6608 8.43356 8.15392 11.6281 8.15392 14.9336C8.15392 16.2159 8.64728 17.5979 9.26511 18.35C9.38956 18.4986 9.40067 18.634 9.36289 18.7826C9.25177 19.2507 8.99175 20.2756 8.94286 20.4841C8.88063 20.7548 8.72062 20.8169 8.43616 20.6816C6.55825 19.8053 5.38483 17.0788 5.38483 14.8715C5.38483 10.1462 8.82063 5.8047 15.3078 5.8047C20.5104 5.8047 24.564 9.50507 24.564 14.4633C24.564 19.4215 21.3015 23.7874 16.779 23.7874C15.2589 23.7874 13.8254 22.9976 13.3432 22.0615C13.3432 22.0615 12.5898 24.9232 12.4031 25.6265C12.0698 26.9332 11.1541 28.5615 10.5363 29.562C11.9453 29.9946 13.4276 30.2275 14.9855 30.2275C23.2772 30.2275 29.9999 23.5168 29.9999 15.2397C30.0266 6.93833 23.3039 0.227539 15.0144 0.227539Z" fill="white"/>
</svg>
