<svg width="30" height="31" viewBox="0 0 30 31" fill="none" xmlns="http://www.w3.org/2000/svg">
<path fill-rule="evenodd" clip-rule="evenodd" d="M30 15.2275C30 23.5118 23.2843 30.2275 15 30.2275C6.71573 30.2275 0 23.5118 0 15.2275C0 6.94327 6.71573 0.227539 15 0.227539C23.2843 0.227539 30 6.94327 30 15.2275ZM23.3085 10.18C23.3996 10.1778 23.4018 10.1822 23.4018 10.2689C23.4009 10.3503 23.4069 10.7373 23.4143 11.2206C23.4253 11.9381 23.4396 12.8677 23.4396 13.3244C23.4396 13.5 23.4151 13.5089 23.2396 13.5089C22.6796 13.5089 22.1307 13.4333 21.5862 13.3089C20.6507 13.0955 19.7862 12.7155 18.9862 12.1889C18.9754 12.1814 18.9643 12.1721 18.9532 12.1626C18.9211 12.1354 18.8881 12.1074 18.8551 12.1222C18.8134 12.1422 18.8193 12.1885 18.8248 12.232C18.8267 12.2465 18.8285 12.2606 18.8285 12.2733C18.8277 13.0334 18.8286 13.7932 18.8294 14.5528C18.831 15.9453 18.8327 17.3371 18.824 18.7289C18.8151 20.2333 18.3374 21.5778 17.3529 22.7244C16.3085 23.9422 14.9796 24.6489 13.384 24.8444C12.1551 24.9933 10.9885 24.7711 9.88181 24.2244C9.70181 24.1378 9.5307 24.0333 9.3707 23.9133C9.34514 23.8911 9.32014 23.8689 9.29514 23.8467C9.27014 23.8244 9.24514 23.8022 9.21959 23.78C9.11596 23.7358 9.02891 23.6652 8.94268 23.5952C8.92906 23.5842 8.91545 23.5731 8.90181 23.5622C7.91292 22.7778 7.21514 21.7911 6.83292 20.5867C6.69959 20.1667 6.61514 19.7378 6.57514 19.3C6.54403 18.9822 6.54181 18.6644 6.56181 18.3489C6.6107 17.62 6.78181 16.92 7.08403 16.2533C7.39736 15.5555 7.82625 14.9378 8.37292 14.4022C9.00847 13.78 9.74403 13.3133 10.584 13.0111C11.1107 12.8222 11.6529 12.7066 12.2107 12.6667C12.6151 12.6355 13.0174 12.6467 13.4196 12.6933C13.4729 12.7 13.504 12.7111 13.504 12.7755C13.4974 12.9978 13.4974 13.2222 13.4974 13.4444C13.5018 13.4489 13.5307 15.1422 13.5307 15.9178V16C13.5263 16.0778 13.4862 16.1022 13.4129 16.0822C13.2018 16.0222 12.984 15.9933 12.764 15.9822C12.424 15.9622 12.0885 16.0111 11.7707 16.1289C10.704 16.5222 10.0574 17.2867 9.92181 18.4111C9.78847 19.52 10.2263 20.4067 11.1485 21.0444C11.164 21.0551 11.1797 21.0657 11.1953 21.0763C11.2579 21.1186 11.3205 21.1609 11.3774 21.2089C11.3929 21.2244 11.4107 21.24 11.4285 21.2555C11.4378 21.2592 11.4472 21.263 11.4565 21.2667C11.6606 21.3475 11.8652 21.4286 12.084 21.4711C12.8085 21.6155 13.4907 21.5044 14.1174 21.1178C14.8418 20.6711 15.2685 20.0155 15.4196 19.18C15.4485 19.0222 15.4529 18.8622 15.4529 18.7V5.73998C15.4529 5.63961 15.4462 5.59576 15.4648 5.57699C15.4832 5.55836 15.5266 5.56443 15.6262 5.56443H18.6151H18.6862C18.7885 5.56443 18.7885 5.56665 18.7885 5.66887C18.7885 5.89998 18.884 6.44221 18.8929 6.48443C19.324 8.66887 21.8707 10.0044 22.6551 10.1222C22.8707 10.1555 23.0885 10.18 23.3085 10.18Z" fill="white"/>
</svg>
