<svg width="30" height="30" viewBox="0 0 30 30" fill="none" xmlns="http://www.w3.org/2000/svg">
<path fill-rule="evenodd" clip-rule="evenodd" d="M30 15C30 23.2843 23.2843 30 15 30C6.71573 30 0 23.2843 0 15C0 6.71573 6.71573 0 15 0C23.2843 0 30 6.71573 30 15ZM22.8095 8.41658C23.6717 8.64769 24.3495 9.32547 24.5783 10.1855C24.9961 11.7455 24.9961 14.9988 24.9961 14.9988C24.9961 14.9988 24.9961 18.2521 24.5783 19.8121C24.3472 20.6744 23.6695 21.3499 22.8095 21.581C21.2495 21.9988 14.9961 21.9988 14.9961 21.9988C14.9961 21.9988 8.74279 21.9988 7.18279 21.581C6.32057 21.3499 5.64279 20.6721 5.41391 19.8121C4.99613 18.2521 4.99613 14.9988 4.99613 14.9988C4.99613 14.9988 4.99613 11.7455 5.41391 10.1855C5.64502 9.32325 6.32279 8.64769 7.18279 8.41658C8.74279 7.9988 14.9961 7.9988 14.9961 7.9988C14.9961 7.9988 21.2495 7.9988 22.8095 8.41658ZM18.1917 14.9988L12.9961 11.9988V17.9988L18.1917 14.9988Z" fill="white"/>
</svg>
