<svg width="63" height="62" viewBox="0 0 63 62" fill="none" xmlns="http://www.w3.org/2000/svg">
<path d="M60.6499 19.7296C56.7378 12.9868 48.4316 9.00134 34.637 11.7613L30.5533 12.7027C30.4722 12.6425 30.4015 12.5652 30.3491 12.4762C30.2326 12.2798 30.2169 12.0494 30.3072 11.8621C32.2842 7.74835 34.2482 3.79431 36.1793 0C33.4665 3.19597 30.6895 6.70616 27.9007 10.5319C27.5865 10.96 26.89 10.8658 26.6896 10.3643C25.8897 8.84423 25.091 7.35033 24.2923 5.88131C24.5948 7.47733 24.8985 9.07597 25.2023 10.6798C25.3633 11.5898 24.6825 12.2431 23.838 11.87C19.4427 10.1299 15.0894 9.17548 10.9913 9.00396C14.8066 9.93486 18.8444 11.5466 22.9307 13.8378C23.5186 14.1835 23.5657 14.7517 22.7173 15.3553C20.8686 16.7248 19.0303 18.2331 17.2196 19.8802C19.177 18.7961 21.1658 17.8744 23.165 17.115C23.5578 16.9657 23.8838 17.3271 23.728 17.7094C20.5687 25.4813 16.9918 33.413 13.5614 41.8461L13.0063 41.8199C9.91507 41.558 7.49158 40.3915 6.28442 38.3018C4.27729 34.8244 6.16528 29.7064 10.6195 25.1003C11.7127 23.9691 12.9618 22.868 14.3444 21.831C14.6717 21.5849 15.1745 21.1044 15.1745 21.1044C13.602 22.0366 12.2993 22.8444 9.82997 25.065C6.58294 27.9847 4.31526 30.8298 2.52546 34.0938C-0.42174 39.8101 -0.921888 45.6273 1.72942 50.1954C3.03477 52.4448 4.87694 54.1141 7.13939 55.2427L6.69423 56.2639C6.67852 56.298 6.64448 56.3242 6.61305 56.3242H6.59734C6.45463 56.2378 6.19015 56.1605 5.93092 56.1605C4.25765 56.1605 3.22462 57.3192 2.61057 58.728C1.9952 60.1368 1.9808 61.3034 3.52183 61.3034C3.92247 61.3034 4.29693 61.1476 4.5182 61.018C4.52998 61.0088 4.5758 60.9748 4.60723 60.9748C4.62294 60.9748 4.63079 60.9918 4.61246 61.035L4.60068 61.0612C4.54831 61.1816 4.59675 61.2864 4.70673 61.2864C4.7303 61.2864 4.76172 61.2864 4.79315 61.2693C5.28413 61.0795 5.63502 60.9237 6.05923 60.9237C6.20063 60.9237 6.36036 60.8111 6.42321 60.6645C6.44546 60.6121 6.45332 60.561 6.44808 60.5178C6.44023 60.4838 6.42321 60.4484 6.39571 60.4235C6.30013 60.3712 6.27918 60.2416 6.34334 60.0949L8.24442 55.7389C8.95537 56.0243 9.70166 56.2613 10.4807 56.4538C9.60215 56.8963 8.97893 57.7343 8.56258 58.6887C7.94329 60.1067 7.99566 61.2641 9.67023 61.2641C11.3448 61.2641 12.408 60.1054 13.0259 58.6887C13.3205 58.0145 13.4593 57.3978 13.3428 56.9369C13.966 56.9985 14.6049 57.0364 15.2583 57.0508L14.0262 59.8723C13.8194 60.3476 13.5483 61.2549 14.546 61.2549C15.0959 61.2549 15.617 60.9263 15.8828 60.6933C15.9299 60.6592 15.9679 60.6068 15.9902 60.5545C16.0124 60.5021 16.0203 60.451 15.9993 60.4078H15.9915C15.9784 60.3646 15.9352 60.3384 15.888 60.3384C15.8488 60.3384 15.7938 60.3555 15.7519 60.3816C15.655 60.4419 15.5489 60.4851 15.4389 60.4851C15.2975 60.4851 15.0998 60.4157 15.3421 59.8632L16.5715 57.0469C17.1463 57.0325 17.7315 56.9998 18.3259 56.95L18.1217 60.0295C18.1125 60.1669 18.1727 60.256 18.288 60.2965C18.3154 60.3044 18.3469 60.3044 18.3862 60.3044C18.4569 60.3044 18.5354 60.2887 18.6244 60.2481C18.7148 60.2075 18.8104 60.1342 18.8955 60.0373L20.7324 57.8835C20.7599 57.86 20.79 57.8429 20.8136 57.8429C20.8371 57.8429 20.845 57.8587 20.8502 57.8835L20.7062 60.0295C20.697 60.1669 20.7573 60.256 20.8725 60.2965C20.9 60.3044 20.9314 60.3044 20.9628 60.3044C21.0335 60.3044 21.1121 60.2887 21.209 60.2481C21.298 60.2075 21.3949 60.1342 21.48 60.0373L25.1473 55.7428C27.6376 55.0908 30.2182 54.2018 32.8472 53.0902C33.3709 52.869 33.8973 52.6425 34.4249 52.4107L31.1046 59.5751C31.0404 59.7126 30.9055 59.8344 30.772 59.8828C30.7052 59.9064 30.6476 59.947 30.5979 60.0046C30.5638 60.0452 30.5403 60.0779 30.5219 60.1185C30.4617 60.2481 30.5154 60.3528 30.6489 60.3528H30.6646C30.9121 60.345 31.1595 60.3371 31.4109 60.3371C31.6623 60.3371 31.9019 60.345 32.1415 60.3528H32.1572C32.2908 60.3528 32.4453 60.2389 32.5055 60.1106C32.5277 60.0622 32.5317 60.0216 32.5264 59.981C32.5212 59.9404 32.5055 59.9077 32.4741 59.892C32.3824 59.8357 32.3602 59.7139 32.4243 59.5764L33.6773 56.8885C33.7257 56.7837 33.7951 56.6855 33.8881 56.6057C34.1774 56.3386 34.5008 56.1841 34.8465 56.1841C35.3493 56.1841 35.3807 56.5729 35.1463 57.0744L33.9811 59.5764C33.9169 59.7139 33.782 59.8357 33.6485 59.8841C33.5817 59.9077 33.5241 59.9483 33.4744 60.0059C33.4442 60.0386 33.4168 60.0792 33.4024 60.1106C33.3382 60.2481 33.3997 60.3528 33.5254 60.3528H33.5411C33.7964 60.345 34.0439 60.3371 34.2874 60.3371C34.531 60.3371 34.7784 60.345 35.018 60.3528H35.0337C35.1673 60.3528 35.3218 60.2389 35.382 60.1106C35.4043 60.0622 35.4082 60.0216 35.4029 59.981C35.3977 59.9404 35.382 59.9077 35.3506 59.892C35.2589 59.8357 35.2367 59.7139 35.3008 59.5764L36.4059 57.204C36.8693 56.209 36.6965 55.553 35.5653 55.553C35.039 55.553 34.5558 55.7468 34.2141 55.9576C34.1905 55.9733 34.1827 55.9733 34.167 55.9733C34.1356 55.9733 34.1159 55.9484 34.1342 55.9091L36.0982 51.6566C43.3372 48.3009 50.6456 43.6005 55.4311 33.9341C51.1903 44.6689 43.9617 49.7175 42.6171 50.6497L48.6804 48.9149C55.9928 44.5079 65.8373 29.6409 60.6499 19.7309V19.7296ZM6.2242 57.3349L5.08512 59.9457C5.04715 60.0321 5.00132 60.1185 4.94371 60.1957C4.69495 60.5335 4.29431 60.8176 3.92509 60.8176C3.13166 60.8176 3.42887 59.8671 3.9264 58.7254C4.42785 57.5758 4.95681 56.6332 5.75154 56.6332C6.11291 56.6332 6.27395 56.84 6.27788 57.0993C6.27788 57.1687 6.26086 57.2459 6.22289 57.3323L6.2242 57.3349ZM25.5087 19.875C25.9211 19.0501 27.0235 17.5745 27.466 17.1962C28.1207 16.6345 29.0346 15.8188 30.6633 15.3658C33.5097 14.9795 36.542 14.9586 39.1488 17.6413C40.5105 19.1994 41.025 21.7643 40.6348 23.8591C39.6634 28.5136 35.0455 33.8097 28.4179 37.6367C23.5159 40.4674 18.4555 41.8893 14.3339 41.8762C17.7538 34.7026 21.2234 28.1758 25.5087 19.8776V19.875ZM11.7036 58.6848C11.2021 59.8344 10.6731 60.7771 9.87841 60.7771C9.08368 60.7771 9.37826 59.8344 9.87972 58.6848C10.3118 57.6963 10.7609 56.8584 11.3946 56.6515C11.6302 56.6973 11.8698 56.7392 12.1107 56.7772C12.3281 57.1006 12.0728 57.8377 11.7022 58.6848H11.7036ZM20.8725 57.1372C20.8542 57.1778 20.8267 57.2184 20.7926 57.259L19.7936 58.4256C19.7622 58.4583 19.7321 58.474 19.7007 58.474H19.685C19.6614 58.474 19.6535 58.4583 19.6483 58.4334L19.7583 56.7981C20.1458 56.7497 20.536 56.6947 20.9301 56.6319L20.9052 57.0168C20.9026 57.0574 20.8908 57.098 20.8725 57.1385V57.1372ZM22.3703 58.4243C22.3389 58.457 22.3088 58.4727 22.2773 58.4727H22.2616C22.2381 58.4727 22.2302 58.457 22.225 58.4321L22.3703 56.3765C23.0852 56.2364 23.8092 56.0754 24.5411 55.8947L22.3703 58.4243ZM34.0099 46.7153C25.4511 51.6566 16.3869 53.2329 9.97137 51.4877C10.5069 50.2465 11.0345 49.0445 11.5595 47.8727C17.0101 48.5195 23.9964 46.9274 30.6581 43.0807C42.1484 36.4466 48.3217 25.6253 44.4449 18.9113C42.5385 15.6106 38.557 13.9177 33.638 13.8378C34.0374 13.7436 34.4354 13.6545 34.8334 13.5734C41.406 13.1701 46.8579 15.1144 49.3233 19.384C53.746 27.0433 46.8893 39.2799 34.0112 46.7166L34.0099 46.7153ZM48.3295 47.3006C56.5872 37.9156 57.158 31.3731 57.1607 25.823C56.4078 31.7371 52.3019 37.7258 50.4558 39.3833C54.5617 32.7177 56.4955 24.9943 52.1828 18.5932C48.6058 13.7344 42.6878 12.2392 35.5064 12.4146C47.8006 9.68348 55.7191 14.3314 58.8444 19.7192C63.186 27.2017 58.6061 38.7719 48.3295 47.3006Z" fill="white" fill-opacity="0.78"/>
<path d="M25.6463 59.917C25.5546 59.8607 25.5324 59.7389 25.5965 59.6015L27.347 55.8451C27.4151 55.6998 27.347 55.5938 27.22 55.5938C27.1729 55.5938 27.1179 55.6095 27.0682 55.6343C26.6636 55.8281 26.242 55.9577 25.9278 55.9577H25.8806C25.7471 55.9577 25.5926 56.0716 25.5324 56.2013C25.5101 56.2497 25.5062 56.2903 25.5114 56.3309C25.5167 56.3715 25.5324 56.4042 25.5638 56.4199C25.6555 56.4762 25.6921 56.5652 25.6136 56.7354L24.2781 59.6015C24.2139 59.7389 24.0791 59.8607 23.9455 59.9092C23.8788 59.9327 23.8211 59.9733 23.7714 60.0309C23.7373 60.0715 23.7138 60.1042 23.6955 60.1448C23.6352 60.2744 23.6889 60.3792 23.8225 60.3792H23.8382C24.0856 60.3713 24.3331 60.3635 24.5845 60.3635C24.8358 60.3635 25.0754 60.3713 25.315 60.3792H25.3307C25.4643 60.3792 25.6188 60.2653 25.679 60.137C25.7013 60.0885 25.7052 60.0479 25.7 60.0074C25.6947 59.9668 25.679 59.934 25.6476 59.9183L25.6463 59.917Z" fill="white" fill-opacity="0.78"/>
<path d="M29.1744 56.4658C29.3747 56.0363 29.7492 55.9395 29.9142 55.9395C30.3698 55.9395 30.4811 56.2223 30.3986 56.5875C30.3187 56.9594 30.5099 57.0733 30.7377 57.0733C31.0441 57.0733 31.3583 56.8546 31.4866 56.5797C31.5547 56.4344 31.5756 56.272 31.5128 56.1188C31.3766 55.7706 30.9001 55.4956 30.0516 55.4956C29.2032 55.4956 28.1571 55.8674 27.7002 56.8481C26.908 58.5489 29.6026 58.0945 29.0513 59.2768C28.7869 59.8437 28.2684 59.8595 28.1898 59.8595C27.7106 59.8595 27.5444 59.6251 27.7041 59.1472C27.801 58.8552 27.691 58.6366 27.3912 58.6366H27.3283C27.0023 58.6615 26.713 58.9286 26.5846 59.2035C26.5349 59.3082 26.51 59.4143 26.5126 59.5112C26.5428 60.0375 27.1411 60.3046 27.9659 60.3046C28.9243 60.3046 30.0608 59.9236 30.5479 58.8801C31.3622 57.1309 28.7057 57.4713 29.1731 56.4671L29.1744 56.4658Z" fill="white" fill-opacity="0.78"/>
<path d="M38.0398 59.8423C37.9482 59.786 37.9259 59.6642 37.9901 59.5268L39.7406 55.7704C39.8087 55.6251 39.7406 55.519 39.6136 55.519C39.5665 55.519 39.5115 55.5348 39.4617 55.5596C39.0572 55.7534 38.6356 55.883 38.3213 55.883H38.2742C38.1407 55.883 37.9862 55.9969 37.9259 56.1265C37.9037 56.175 37.8997 56.2156 37.905 56.2562C37.9102 56.2968 37.9259 56.3295 37.9574 56.3452C38.049 56.4015 38.0857 56.4905 38.0071 56.6607L36.6716 59.5268C36.6075 59.6642 36.4726 59.786 36.3391 59.8344C36.2723 59.858 36.2147 59.8986 36.1649 59.9562C36.1309 59.9968 36.1073 60.0295 36.089 60.0701C36.0288 60.1997 36.0825 60.3045 36.216 60.3045H36.2317C36.4792 60.2966 36.7266 60.2888 36.978 60.2888C37.2294 60.2888 37.469 60.2966 37.7086 60.3045H37.7243C37.8579 60.3045 38.0123 60.1906 38.0726 60.0623C38.0948 60.0138 38.0988 59.9732 38.0935 59.9326C38.0883 59.8921 38.0726 59.8593 38.0412 59.8436L38.0398 59.8423Z" fill="white" fill-opacity="0.78"/>
<path d="M40.6229 54.2149C40.8415 53.7449 40.7093 53.373 40.1987 53.373C39.688 53.373 39.2075 53.7449 38.9889 54.2149C38.7742 54.6758 38.8946 55.0568 39.4131 55.0568C39.9316 55.0568 40.4081 54.6758 40.6229 54.2149Z" fill="white" fill-opacity="0.78"/>
<path d="M43.0438 55.4941C41.3706 55.4941 40.3061 56.5795 39.6921 57.898C39.0728 59.2256 39.1252 60.311 40.7997 60.311C42.4743 60.311 43.5374 59.2256 44.1554 57.898C44.7708 56.5782 44.7106 55.4941 43.0452 55.4941H43.0438ZM42.8344 57.898C42.3329 58.9742 41.804 59.8567 41.0092 59.8567C40.2145 59.8567 40.5091 58.9742 41.0105 57.898C41.508 56.8296 42.0305 55.9472 42.8317 55.9472C43.633 55.9472 43.3319 56.8296 42.8344 57.898Z" fill="white" fill-opacity="0.78"/>
<path d="M48.823 55.502C48.2966 55.502 47.8135 55.6957 47.4757 55.8987C47.4521 55.9144 47.4443 55.9144 47.4286 55.9144C47.3893 55.9144 47.3697 55.8895 47.388 55.8502L47.4259 55.769C47.498 55.6159 47.4286 55.5098 47.3029 55.5098C47.2557 55.5098 47.2008 55.5255 47.151 55.5504C46.7543 55.7442 46.3484 55.8738 46.0342 55.8738H45.9635C45.8378 55.8738 45.6833 55.9877 45.6218 56.116C45.5995 56.1645 45.5838 56.2129 45.589 56.2535C45.5943 56.2941 45.6218 56.3176 45.6493 56.3425C45.7448 56.391 45.7815 56.48 45.7029 56.6502L44.3675 59.5162C44.3033 59.6537 44.1684 59.7755 44.0244 59.8318C43.9655 59.8553 43.9 59.8959 43.8542 59.9457C43.8228 59.9784 43.7966 60.019 43.7809 60.0504C43.7167 60.1879 43.7744 60.3018 43.9079 60.3018H43.9158C44.175 60.2861 44.4185 60.2861 44.6699 60.2861C44.9213 60.2861 45.1648 60.2861 45.4005 60.3018H45.4162C45.5419 60.3018 45.7042 60.1879 45.7684 60.0504C45.7867 60.0098 45.7946 59.9614 45.7893 59.9208C45.7841 59.8802 45.7684 59.8475 45.7291 59.8318C45.6453 59.7755 45.6113 59.6616 45.6794 59.5162L46.9323 56.8283C46.9782 56.7314 47.0541 56.6345 47.1431 56.5455C47.4286 56.2862 47.7559 56.1252 48.1015 56.1252C48.6122 56.1252 48.6436 56.514 48.4092 57.0155L47.2427 59.5175C47.1785 59.655 47.0436 59.7768 46.8996 59.8331C46.8407 59.8566 46.7752 59.8972 46.7373 59.947C46.7032 59.9876 46.6797 60.0203 46.6613 60.0609C46.6011 60.1905 46.6509 60.3031 46.7844 60.3031H46.7923C47.0515 60.2874 47.295 60.2874 47.5464 60.2874C47.7978 60.2874 48.0413 60.2874 48.277 60.3031H48.2927C48.4184 60.3031 48.5807 60.1892 48.6449 60.0517C48.6632 60.0111 48.6711 59.9627 48.6658 59.9221C48.6606 59.8815 48.6449 59.8488 48.6056 59.8331C48.5218 59.7768 48.4878 59.6629 48.5559 59.5175L49.6609 57.1451C50.1257 56.1487 49.9555 55.502 48.8243 55.502H48.823Z" fill="white" fill-opacity="0.78"/>
</svg>
